<svg width="24" height="24" viewBox="0 0 24 24" fill="none" xmlns="http://www.w3.org/2000/svg">
<path d="M11.2536 12.0109V11.9991C11.2536 11.5849 11.5893 11.2491 12.0036 11.2491C12.4178 11.2491 12.7536 11.5849 12.7536 11.9991V12.0109C12.7533 12.4248 12.4176 12.7609 12.0036 12.7609C11.5895 12.7609 11.2538 12.4248 11.2536 12.0109Z" fill="#737985"/>
<path d="M15.7515 11.9992C15.7515 11.0053 15.3565 10.0518 14.6538 9.34884C14.361 9.05593 14.361 8.58115 14.6538 8.28829C14.9468 7.99547 15.4215 7.99543 15.7144 8.28829C16.6983 9.27253 17.2515 10.6075 17.2515 11.9992C17.2514 13.3908 16.6982 14.725 15.7144 15.7092C15.4216 16.0021 14.9468 16.0029 14.6538 15.7102C14.361 15.4174 14.3612 14.9426 14.6538 14.6496C15.3565 13.9467 15.7514 12.9931 15.7515 11.9992Z" fill="#737985"/>
<path d="M20.2504 12.0003C20.2504 10.9173 20.0369 9.84458 19.6225 8.84405C19.208 7.84346 18.6003 6.93408 17.8344 6.16827C17.5415 5.87538 17.5415 5.40062 17.8344 5.10772C18.1273 4.81484 18.6021 4.81484 18.895 5.10772C19.8001 6.01282 20.5184 7.08725 21.0082 8.26983C21.4981 9.45241 21.7504 10.7203 21.7504 12.0003C21.7504 13.2801 21.498 14.5474 21.0082 15.7298C20.5184 16.9123 19.8 17.9868 18.895 18.8919C18.6021 19.1848 18.1273 19.1848 17.8344 18.8919C17.5417 18.599 17.5416 18.1242 17.8344 17.8314C18.6002 17.0656 19.208 16.1561 19.6225 15.1556C20.0368 14.1552 20.2504 13.083 20.2504 12.0003Z" fill="#737985"/>
<path d="M6.75068 11.9992C6.75068 10.6075 7.30385 9.27253 8.28779 8.28829C8.58065 7.99558 9.05547 7.99552 9.34833 8.28829C9.64103 8.58114 9.64104 9.05597 9.34833 9.34884C8.6456 10.0518 8.25068 11.0053 8.25068 11.9992C8.25074 12.9931 8.64566 13.9467 9.34833 14.6496C9.64088 14.9426 9.64117 15.4174 9.34833 15.7102C9.0554 16.003 8.58063 16.0021 8.28779 15.7092C7.30392 14.725 6.75074 13.3908 6.75068 11.9992Z" fill="#737985"/>
<path d="M2.25 12.0003C2.25 10.7203 2.50233 9.45242 2.99219 8.26983C3.48205 7.08728 4.20035 6.0128 5.10547 5.10772C5.39839 4.81504 5.8732 4.81489 6.16602 5.10772C6.45862 5.40056 6.45862 5.87543 6.16602 6.16827C5.40017 6.93408 4.7924 7.84346 4.37793 8.84405C3.96348 9.84462 3.75 10.9173 3.75 12.0003C3.75004 13.0831 3.96359 14.1552 4.37793 15.1556C4.7924 16.1562 5.40017 17.0655 6.16602 17.8314C6.45873 18.1241 6.45852 18.599 6.16602 18.8919C5.87314 19.1848 5.39837 19.1847 5.10547 18.8919C4.20033 17.9868 3.48205 16.9124 2.99219 15.7298C2.50242 14.5474 2.25004 13.2802 2.25 12.0003Z" fill="#737985"/>
</svg>
