<svg width="24" height="24" viewBox="0 0 24 24" fill="none" xmlns="http://www.w3.org/2000/svg">
<path d="M8.74988 9.10059C8.74988 8.68721 8.8319 8.27741 8.99011 7.89551C9.14832 7.51372 9.3795 7.16623 9.67175 6.87402L11.8749 4.67188C12.1671 4.37971 12.5137 4.14742 12.8954 3.98926C13.2773 3.83105 13.6871 3.75 14.1005 3.75C14.5136 3.75001 14.9228 3.8312 15.3046 3.98926C15.6864 4.14744 16.0338 4.37963 16.326 4.67188L19.328 7.67383C19.6202 7.96607 19.8524 8.31348 20.0106 8.69531C20.1687 9.07705 20.2499 9.48624 20.2499 9.89941C20.2499 10.3128 20.1688 10.7226 20.0106 11.1045C19.8525 11.4862 19.6202 11.8328 19.328 12.125L17.1249 14.3271L17.1259 14.3281C16.8336 14.6204 16.4862 14.8516 16.1044 15.0098C15.7225 15.168 15.3127 15.25 14.8993 15.25C14.486 15.25 14.077 15.1679 13.6952 15.0098C13.4354 14.9022 13.1918 14.7605 12.9706 14.5889L8.01843 19.542C7.61693 19.9434 7.08694 20.1905 6.52136 20.2402C6.51096 20.2411 6.50054 20.2417 6.49011 20.2422L6.3446 20.249C6.3332 20.2495 6.32087 20.25 6.30945 20.25H5.33289C4.94515 20.2499 4.57087 20.1073 4.28113 19.8496C3.99142 19.5919 3.80599 19.2366 3.76062 18.8516C3.75896 18.8374 3.75757 18.8228 3.75671 18.8086L3.75085 18.7119C3.74997 18.6971 3.74988 18.6818 3.74988 18.667V17.6895C3.7501 17.1223 3.95009 16.5735 4.31433 16.1387L4.33582 16.1133L4.43542 16.0049C4.44274 15.9969 4.45023 15.9891 4.45789 15.9814L4.80261 15.6367L4.91687 15.543C5.03916 15.4613 5.18369 15.4171 5.33289 15.417H6.24988V15C6.24988 14.3097 6.80953 13.75 7.49988 13.75H7.91687V13.04C7.91696 12.7086 8.04874 12.3906 8.28308 12.1562L9.41003 11.0283C9.23879 10.8074 9.09755 10.564 8.99011 10.3047C8.83196 9.92289 8.74991 9.51385 8.74988 9.10059ZM10.2499 9.10059C10.2499 9.31679 10.2931 9.53071 10.3759 9.73047C10.4587 9.93033 10.5793 10.1127 10.7323 10.2656L10.9833 10.5166C11.1239 10.6573 11.203 10.848 11.203 11.0469C11.2029 11.2457 11.1239 11.4366 10.9833 11.5771L9.41687 13.1436V14C9.41684 14.6902 8.85708 15.2498 8.16687 15.25H7.74988V15.667C7.74968 16.3572 7.19011 16.917 6.49988 16.917H5.64343L5.53015 17.0293L5.45984 17.1055C5.32387 17.2698 5.24993 17.4771 5.24988 17.6904V18.6377L5.25183 18.6816C5.25517 18.6998 5.26433 18.7162 5.2782 18.7285C5.29335 18.742 5.31263 18.7499 5.33289 18.75H6.29578L6.39343 18.7451C6.60663 18.7256 6.80641 18.6328 6.95789 18.4814L12.4227 13.0166L12.4803 12.9648C12.7749 12.7248 13.2088 12.7421 13.4833 13.0166L13.7343 13.2676C13.8872 13.4206 14.0695 13.5412 14.2694 13.624C14.4692 13.7067 14.6831 13.75 14.8993 13.75C15.1157 13.75 15.3302 13.7068 15.5302 13.624C15.7298 13.5413 15.9115 13.4204 16.0643 13.2676L18.2675 11.0645C18.4204 10.9115 18.5421 10.7301 18.6249 10.5303C18.7077 10.3304 18.7499 10.1158 18.7499 9.89941C18.7499 9.68306 18.7077 9.46844 18.6249 9.26855C18.5421 9.06876 18.4204 8.8873 18.2675 8.73438L15.2655 5.73242C15.1126 5.5795 14.9311 5.45779 14.7313 5.375C14.5314 5.2922 14.3168 5.25001 14.1005 5.25C13.8841 5.25 13.6695 5.29219 13.4696 5.375C13.2698 5.45778 13.0884 5.5795 12.9354 5.73242L10.7323 7.93555C10.5795 8.08842 10.4586 8.27004 10.3759 8.46973C10.293 8.66963 10.2499 8.88421 10.2499 9.10059Z" fill="#737985"/>
<path d="M14.5078 8.49805C15.0599 8.49827 15.5078 8.9459 15.5078 9.49805C15.5078 10.0502 15.0599 10.4978 14.5078 10.498H14.5C13.9477 10.498 13.5 10.0503 13.5 9.49805C13.5 8.94576 13.9477 8.49805 14.5 8.49805H14.5078Z" fill="#737985"/>
</svg>
