<svg width="24" height="24" viewBox="0 0 24 24" fill="none" xmlns="http://www.w3.org/2000/svg">
<path d="M13.2432 3.98626C13.5153 3.36051 14.4097 3.3094 14.751 3.90032L14.8154 4.03704L17.5195 11.2499H21C21.4142 11.2499 21.75 11.5857 21.75 11.9999C21.75 12.4141 21.4142 12.7499 21 12.7499H17.0693C16.715 12.7499 16.3978 12.5299 16.2734 12.1982L14.1426 6.51848L10.8057 19.87C10.6034 20.6792 9.47748 20.7437 9.18457 19.9628L6.48047 12.7499H3C2.58579 12.7499 2.25 12.4141 2.25 11.9999C2.25 11.5857 2.58579 11.2499 3 11.2499H6.93066C7.24065 11.2499 7.52199 11.4183 7.6709 11.6825L7.72656 11.8017L9.85645 17.4804L13.1943 4.12981L13.2432 3.98626Z" fill="#737985"/>
</svg>
