<svg width="24" height="24" viewBox="0 0 24 24" fill="none" xmlns="http://www.w3.org/2000/svg">
<path d="M20.25 13.5198V5.03345C20.25 4.61923 19.9142 4.28345 19.5 4.28345H4.5C4.08579 4.28345 3.75 4.61923 3.75 5.03345V18.0334C3.75 18.4477 4.08579 18.7834 4.5 18.7834H11.2373C11.6515 18.7834 11.9873 19.1192 11.9873 19.5334C11.9873 19.9477 11.6515 20.2834 11.2373 20.2834H4.5C3.25736 20.2834 2.25 19.2761 2.25 18.0334V5.03345C2.25 3.79081 3.25736 2.78345 4.5 2.78345H19.5C20.7426 2.78345 21.75 3.79081 21.75 5.03345V13.5198C21.75 13.934 21.4142 14.2698 21 14.2698C20.5858 14.2698 20.25 13.934 20.25 13.5198Z" fill="#737985"/>
<path d="M20.928 10.8334V12.3334H3.07249V10.8334H20.928Z" fill="#737985"/>
<path d="M18 6.78345C18.4142 6.78345 18.75 7.11923 18.75 7.53345C18.75 7.94766 18.4142 8.28345 18 8.28345H13.5C13.0858 8.28345 12.75 7.94766 12.75 7.53345C12.75 7.11923 13.0858 6.78345 13.5 6.78345H18Z" fill="#737985"/>
<path d="M5.25 6.53345C5.25 6.11923 5.58579 5.78345 6 5.78345C6.41421 5.78345 6.75 6.11923 6.75 6.53345V8.53345C6.75 8.94766 6.41421 9.28345 6 9.28345C5.58579 9.28345 5.25 8.94766 5.25 8.53345L5.25 6.53345Z" fill="#737985"/>
<path d="M8.25 6.53345C8.25 6.11923 8.58579 5.78345 9 5.78345C9.41421 5.78345 9.75 6.11923 9.75 6.53345V8.53345C9.75 8.94766 9.41421 9.28345 9 9.28345C8.58579 9.28345 8.25 8.94766 8.25 8.53345V6.53345Z" fill="#737985"/>
<path d="M5.25 14.5334C5.25 14.1192 5.58579 13.7834 6 13.7834C6.41421 13.7834 6.75 14.1192 6.75 14.5334V16.5334C6.75 16.9477 6.41421 17.2834 6 17.2834C5.58579 17.2834 5.25 16.9477 5.25 16.5334L5.25 14.5334Z" fill="#737985"/>
<path d="M8.25 14.5334C8.25 14.1192 8.58579 13.7834 9 13.7834C9.41421 13.7834 9.75 14.1192 9.75 14.5334V16.5334C9.75 16.9477 9.41421 17.2834 9 17.2834C8.58579 17.2834 8.25 16.9477 8.25 16.5334V14.5334Z" fill="#737985"/>
<path d="M19.4992 15.6443C19.7921 15.3515 20.2669 15.3514 20.5598 15.6443C20.8526 15.9372 20.8526 16.412 20.5598 16.7049L16.2678 20.9969C15.9749 21.2897 15.5001 21.2897 15.2072 20.9969L13.0822 18.8719C12.7894 18.579 12.7894 18.1042 13.0822 17.8113C13.3751 17.5184 13.8499 17.5184 14.1428 17.8113L15.7375 19.406L19.4992 15.6443Z" fill="#737985"/>
</svg>
