<svg width="24" height="24" viewBox="0 0 24 24" fill="none" xmlns="http://www.w3.org/2000/svg">
<path d="M20.25 9.4004C20.25 8.96798 20.2498 8.6881 20.2324 8.47559C20.2158 8.27204 20.1869 8.19625 20.168 8.15919C20.0961 8.01836 19.9817 7.90389 19.8408 7.83204C19.8038 7.81315 19.728 7.78423 19.5244 7.76759C19.3119 7.75022 19.032 7.75001 18.5996 7.75001H5.4004C4.96798 7.75001 4.6881 7.75022 4.47559 7.76759C4.27204 7.78423 4.19625 7.81315 4.15919 7.83204C4.01836 7.90389 3.90389 8.01836 3.83204 8.15919C3.81315 8.19625 3.78423 8.27204 3.76759 8.47559C3.75022 8.6881 3.75001 8.96798 3.75001 9.4004V14.5996C3.75001 15.032 3.75022 15.3119 3.76759 15.5244C3.78423 15.728 3.81315 15.8038 3.83204 15.8408C3.90389 15.9817 4.01836 16.0961 4.15919 16.168C4.19625 16.1869 4.27204 16.2158 4.47559 16.2324C4.6881 16.2498 4.96798 16.25 5.4004 16.25H18.5996C19.032 16.25 19.3119 16.2498 19.5244 16.2324C19.728 16.2158 19.8038 16.1869 19.8408 16.168C19.9817 16.0961 20.0961 15.9817 20.168 15.8408C20.1869 15.8038 20.2158 15.728 20.2324 15.5244C20.2498 15.3119 20.25 15.032 20.25 14.5996V9.4004ZM21.75 14.5996C21.75 15.0073 21.7511 15.3587 21.7275 15.6465C21.7033 15.9429 21.6494 16.2378 21.5049 16.5215C21.2892 16.9449 20.9449 17.2892 20.5215 17.5049C20.2378 17.6494 19.9429 17.7033 19.6465 17.7275C19.3587 17.7511 19.0073 17.75 18.5996 17.75H5.4004C4.99273 17.75 4.64128 17.7511 4.35352 17.7275C4.05709 17.7033 3.76224 17.6494 3.47852 17.5049C3.05516 17.2892 2.71084 16.9449 2.49512 16.5215C2.35058 16.2378 2.2967 15.9429 2.27247 15.6465C2.24896 15.3587 2.25001 15.0073 2.25001 14.5996V9.4004C2.25001 8.99273 2.24896 8.64128 2.27247 8.35352C2.2967 8.05709 2.35057 7.76224 2.49512 7.47852C2.71084 7.05516 3.05516 6.71084 3.47852 6.49512C3.76224 6.35057 4.05709 6.2967 4.35352 6.27247C4.64128 6.24896 4.99273 6.25001 5.4004 6.25001H18.5996C19.0073 6.25001 19.3587 6.24896 19.6465 6.27247C19.9429 6.2967 20.2378 6.35057 20.5215 6.49512C20.9449 6.71084 21.2892 7.05516 21.5049 7.47852C21.6494 7.76224 21.7033 8.05709 21.7275 8.35352C21.7511 8.64128 21.75 8.99273 21.75 9.4004V14.5996Z" fill="#737985"/>
<path d="M13.4441 14.066C13.1601 14.066 12.7501 14.044 12.2141 14L12.2861 12.542L12.2141 9.86H13.8161C14.3561 9.86 14.7781 10.022 15.0821 10.346C15.3861 10.67 15.5381 11.12 15.5381 11.696C15.5381 12.424 15.3501 13.002 14.9741 13.43C14.5981 13.854 14.0881 14.066 13.4441 14.066ZM13.6001 10.508C13.3361 10.508 13.1501 10.51 13.0421 10.514L12.9821 12.44L13.0241 13.412C13.3601 13.436 13.5861 13.448 13.7021 13.448C14.0181 13.448 14.2661 13.32 14.4461 13.064C14.6301 12.808 14.7221 12.436 14.7221 11.948C14.7221 11.46 14.6321 11.098 14.4521 10.862C14.2761 10.626 13.9921 10.508 13.6001 10.508Z" fill="#737985"/>
<path d="M10.7827 14.03L10.4887 12.86H9.05467L8.73667 14L7.96867 13.94L8.49667 12.482L9.30067 9.902L10.3747 9.824L11.1487 12.392L11.6467 13.898L10.7827 14.03ZM9.83467 10.604H9.75667L9.24067 12.224H10.3087L9.83467 10.604Z" fill="#737985"/>
</svg>
