<svg width="24" height="24" viewBox="0 0 24 24" fill="none" xmlns="http://www.w3.org/2000/svg">
<path d="M19.5 21.75H14.25C13.8359 21.75 13.5 21.4145 13.5 21V19.875C13.5 19.0481 12.8273 18.375 12 18.375C11.1727 18.375 10.5 19.0481 10.5 19.875V21C10.5 21.4145 10.1641 21.75 9.75 21.75H7.5C6.25927 21.75 5.25 20.7407 5.25 19.5V15.75C3.5958 15.75 2.25 14.4046 2.25 12.75C2.25 11.0954 3.5958 9.75 5.25 9.75V7.5C5.25 6.25927 6.25927 5.25 7.5 5.25H9C9 3.59543 10.3458 2.25 12 2.25C13.6542 2.25 15 3.59543 15 5.25H19.5C20.7407 5.25 21.75 6.25927 21.75 7.5V10.5C21.75 10.9145 21.4141 11.25 21 11.25H20.25C19.4227 11.25 18.75 11.9231 18.75 12.75C18.75 13.5769 19.4227 14.25 20.25 14.25H21C21.4141 14.25 21.75 14.5855 21.75 15V19.5C21.75 20.7407 20.7407 21.75 19.5 21.75ZM15 20.25H19.5C19.9135 20.25 20.25 19.9139 20.25 19.5V15.75C18.5958 15.75 17.25 14.4046 17.25 12.75C17.25 11.0954 18.5958 9.75 20.25 9.75V7.5C20.25 7.08615 19.9135 6.75 19.5 6.75H14.25C13.8359 6.75 13.5 6.41452 13.5 6V5.25C13.5 4.42313 12.8273 3.75 12 3.75C11.1727 3.75 10.5 4.42313 10.5 5.25V6C10.5 6.41452 10.1641 6.75 9.75 6.75H7.5C7.08653 6.75 6.75 7.08615 6.75 7.5V10.5C6.75 10.9145 6.41415 11.25 6 11.25H5.25C4.42275 11.25 3.75 11.9231 3.75 12.75C3.75 13.5769 4.42275 14.25 5.25 14.25H6C6.41415 14.25 6.75 14.5855 6.75 15V19.5C6.75 19.9139 7.08653 20.25 7.5 20.25H9V19.875C9 18.2204 10.3458 16.875 12 16.875C13.6542 16.875 15 18.2204 15 19.875V20.25Z" fill="#737985"/>
</svg>
