<svg width="24" height="24" viewBox="0 0 24 24" fill="none" xmlns="http://www.w3.org/2000/svg">
<path d="M9.87891 15.7432C9.87891 15.311 9.87771 15.0318 9.86036 14.8193C9.84371 14.6158 9.81577 14.54 9.79688 14.5029C9.72506 14.3621 9.61054 14.2477 9.46973 14.1758C9.43267 14.1569 9.35678 14.128 9.15333 14.1113C8.94082 14.094 8.66094 14.0938 8.22852 14.0938H5.4004C4.96798 14.0938 4.6881 14.094 4.47559 14.1113C4.27205 14.128 4.19625 14.1569 4.15919 14.1758C4.01835 14.2477 3.90388 14.3621 3.83204 14.5029C3.81315 14.54 3.78423 14.6157 3.76759 14.8193C3.75023 15.0318 3.75001 15.311 3.75001 15.7432V18.5996C3.75001 19.032 3.75022 19.3119 3.76759 19.5244C3.78423 19.728 3.81315 19.8038 3.83204 19.8408C3.90389 19.9817 4.01836 20.0961 4.15919 20.168C4.19625 20.1869 4.27204 20.2158 4.47559 20.2324C4.6881 20.2498 4.96798 20.25 5.4004 20.25H8.22852C8.66094 20.25 8.94082 20.2498 9.15333 20.2324C9.35679 20.2158 9.43267 20.1869 9.46973 20.168C9.61053 20.0961 9.72505 19.9816 9.79688 19.8408C9.81577 19.8038 9.84371 19.7279 9.86036 19.5244C9.87772 19.3119 9.87891 19.032 9.87891 18.5996V15.7432ZM20.25 15.7432C20.25 15.311 20.2498 15.0318 20.2324 14.8193C20.2158 14.6157 20.1878 14.54 20.169 14.5029C20.0971 14.3619 19.9818 14.2477 19.8408 14.1758C19.8037 14.1569 19.7281 14.128 19.5244 14.1113C19.312 14.094 19.0328 14.0938 18.6006 14.0938H15.6934C15.261 14.0938 14.9811 14.094 14.7686 14.1113C14.565 14.128 14.4892 14.1569 14.4522 14.1758C14.3113 14.2477 14.1968 14.3621 14.125 14.5029C14.1061 14.54 14.0772 14.6157 14.0606 14.8193C14.0432 15.0318 14.043 15.311 14.043 15.7432V18.5996C14.043 19.032 14.0432 19.3119 14.0606 19.5244C14.0772 19.728 14.1061 19.8038 14.125 19.8408C14.1969 19.9816 14.3113 20.0961 14.4522 20.168C14.4892 20.1869 14.565 20.2158 14.7686 20.2324C14.9811 20.2498 15.261 20.25 15.6934 20.25H18.6006C19.0328 20.25 19.312 20.2498 19.5244 20.2324C19.7282 20.2158 19.8037 20.1869 19.8408 20.168C19.9818 20.0961 20.0971 19.9819 20.169 19.8408C20.1878 19.8038 20.2158 19.728 20.2324 19.5244C20.2498 19.3119 20.25 19.032 20.25 18.5996V15.7432ZM9.87891 5.4004C9.87891 4.96798 9.87772 4.6881 9.86036 4.47559C9.84371 4.27209 9.81577 4.19625 9.79688 4.15919C9.72505 4.01837 9.61053 3.9039 9.46973 3.83204C9.43267 3.81316 9.35679 3.78424 9.15333 3.76759C8.94082 3.75022 8.66094 3.75001 8.22852 3.75001H5.4004C4.96798 3.75001 4.6881 3.75022 4.47559 3.76759C4.27204 3.78423 4.19625 3.81315 4.15919 3.83204C4.01836 3.90389 3.90389 4.01836 3.83204 4.15919C3.81315 4.19625 3.78423 4.27204 3.76759 4.47559C3.75022 4.6881 3.75001 4.96798 3.75001 5.4004V8.25684C3.75001 8.68899 3.75023 8.96824 3.76759 9.18067C3.78423 9.38432 3.81315 9.46 3.83204 9.49708C3.90388 9.63793 4.01835 9.75235 4.15919 9.82423C4.19625 9.84311 4.27205 9.87203 4.47559 9.88868C4.6881 9.90604 4.96798 9.90626 5.4004 9.90626H8.22852C8.66094 9.90626 8.94082 9.90604 9.15333 9.88868C9.35678 9.87203 9.43267 9.84311 9.46973 9.82423C9.61054 9.75234 9.72506 9.63792 9.79688 9.49708C9.81577 9.46001 9.84371 9.38426 9.86036 9.18067C9.87771 8.96824 9.87891 8.68899 9.87891 8.25684V5.4004ZM16.5781 10.2412V7.99122H14.3281C13.9139 7.99122 13.5781 7.65543 13.5781 7.24122C13.5781 6.827 13.9139 6.49122 14.3281 6.49122H16.5781V4.24122C16.5781 3.827 16.9139 3.49122 17.3281 3.49122C17.7423 3.49122 18.0781 3.827 18.0781 4.24122V6.49122H20.3281C20.7423 6.49122 21.0781 6.827 21.0781 7.24122C21.0781 7.65543 20.7423 7.99122 20.3281 7.99122H18.0781V10.2412C18.0781 10.6554 17.7423 10.9912 17.3281 10.9912C16.9139 10.9912 16.5781 10.6554 16.5781 10.2412ZM11.3789 18.5996C11.3789 19.0073 11.379 19.3587 11.3555 19.6465C11.3312 19.9429 11.2783 20.2378 11.1338 20.5215C10.9181 20.9448 10.5737 21.2892 10.1504 21.5049C9.86671 21.6494 9.57181 21.7033 9.2754 21.7275C8.98764 21.7511 8.63619 21.75 8.22852 21.75H5.4004C4.99273 21.75 4.64128 21.7511 4.35352 21.7275C4.05709 21.7033 3.76224 21.6494 3.47852 21.5049C3.05516 21.2892 2.71084 20.9449 2.49512 20.5215C2.35057 20.2378 2.2967 19.9429 2.27247 19.6465C2.24896 19.3587 2.25001 19.0073 2.25001 18.5996V15.7432C2.25001 15.3357 2.24897 14.9849 2.27247 14.6973C2.29669 14.4008 2.35059 14.106 2.49512 13.8223C2.71084 13.3989 3.05516 13.0546 3.47852 12.8389C3.76225 12.6943 4.05708 12.6404 4.35352 12.6162C4.64128 12.5927 4.99273 12.5938 5.4004 12.5938H8.22852C8.63619 12.5938 8.98764 12.5927 9.2754 12.6162C9.5718 12.6405 9.86671 12.6943 10.1504 12.8389C10.5737 13.0546 10.9181 13.3989 11.1338 13.8223C11.2783 14.106 11.3313 14.4009 11.3555 14.6973C11.379 14.9849 11.3789 15.3357 11.3789 15.7432V18.5996ZM21.75 18.5996C21.75 19.0073 21.7511 19.3587 21.7275 19.6465C21.7033 19.9429 21.6495 20.2378 21.5049 20.5215C21.2892 20.9448 20.9448 21.2892 20.5215 21.5049C20.2378 21.6494 19.9429 21.7033 19.6465 21.7275C19.3588 21.751 19.0081 21.75 18.6006 21.75H15.6934C15.2857 21.75 14.9342 21.7511 14.6465 21.7275C14.3501 21.7033 14.0552 21.6494 13.7715 21.5049C13.3481 21.2892 13.0038 20.9449 12.7881 20.5215C12.6435 20.2378 12.5897 19.9429 12.5654 19.6465C12.5419 19.3587 12.543 19.0073 12.543 18.5996V15.7432C12.543 15.3357 12.5419 14.9849 12.5654 14.6973C12.5897 14.4008 12.6436 14.106 12.7881 13.8223C13.0038 13.3989 13.3481 13.0546 13.7715 12.8389C14.0552 12.6943 14.35 12.6404 14.6465 12.6162C14.9342 12.5927 15.2857 12.5938 15.6934 12.5938H18.6006C19.0081 12.5938 19.3588 12.5927 19.6465 12.6162C19.9429 12.6404 20.2378 12.6944 20.5215 12.8389C20.9449 13.0546 21.2892 13.3989 21.5049 13.8223C21.6495 14.106 21.7033 14.4008 21.7275 14.6973C21.751 14.9849 21.75 15.3357 21.75 15.7432V18.5996ZM11.3789 8.25684C11.3789 8.66431 11.379 9.0151 11.3555 9.30274C11.3313 9.59914 11.2783 9.89405 11.1338 10.1777C10.9181 10.6011 10.5737 10.9454 10.1504 11.1611C9.86671 11.3057 9.5718 11.3596 9.2754 11.3838C8.98764 11.4073 8.63619 11.4063 8.22852 11.4063H5.4004C4.99273 11.4063 4.64128 11.4073 4.35352 11.3838C4.05708 11.3596 3.76225 11.3057 3.47852 11.1611C3.05516 10.9454 2.71084 10.6011 2.49512 10.1777C2.35059 9.89402 2.29669 9.59918 2.27247 9.30274C2.24897 9.0151 2.25001 8.66431 2.25001 8.25684V5.4004C2.25001 4.99273 2.24896 4.64128 2.27247 4.35352C2.2967 4.05709 2.35057 3.76224 2.49512 3.47852C2.71084 3.05516 3.05516 2.71084 3.47852 2.49512C3.76224 2.35057 4.05709 2.2967 4.35352 2.27247C4.64128 2.24896 4.99273 2.25001 5.4004 2.25001H8.22852C8.63619 2.25001 8.98764 2.24896 9.2754 2.27247C9.57181 2.29671 9.86671 2.35058 10.1504 2.49512C10.5737 2.71084 10.9181 3.05518 11.1338 3.47852C11.2783 3.7622 11.3312 4.05713 11.3555 4.35352C11.379 4.64128 11.3789 4.99273 11.3789 5.4004V8.25684Z" fill="#737985"/>
</svg>
