<svg width="24" height="24" viewBox="0 0 24 24" fill="none" xmlns="http://www.w3.org/2000/svg">
<path d="M18.75 7.18352C18.75 6.42198 18.7365 6.25532 18.6865 6.13274C18.6304 5.99541 18.5394 5.87487 18.4229 5.78313C18.3187 5.70129 18.1618 5.642 17.4287 5.43255L12.5 4.02434C12.2149 3.94288 12.1525 3.92722 12.0957 3.92083C12.0324 3.91375 11.9676 3.91375 11.9043 3.92083C11.8475 3.92722 11.7851 3.94288 11.5 4.02434L6.5713 5.43255C5.83821 5.642 5.6813 5.70129 5.57716 5.78313C5.46058 5.87487 5.36958 5.99541 5.31348 6.13274C5.26349 6.25532 5.25001 6.42198 5.25001 7.18352V12.0468C5.25001 13.1307 5.25479 13.5506 5.34766 13.9374C5.43428 14.2982 5.57764 14.6435 5.77149 14.9599C5.97934 15.2989 6.27302 15.5991 7.03907 16.3652L8.78028 18.1074C9.84529 19.1724 10.2547 19.5676 10.668 19.7724C11.5072 20.1882 12.4928 20.1882 13.332 19.7724C13.7454 19.5676 14.1547 19.1724 15.2197 18.1074L16.9609 16.3652C17.727 15.5991 18.0207 15.2989 18.2285 14.9599C18.4224 14.6435 18.5657 14.2982 18.6524 13.9374C18.7452 13.5506 18.75 13.1307 18.75 12.0468V7.18352ZM20.25 12.0468C20.25 13.0594 20.2553 13.6884 20.1113 14.288C19.988 14.8017 19.7839 15.2926 19.5078 15.7431C19.1856 16.2689 18.7375 16.7097 18.0215 17.4257L16.2803 19.1679C15.3009 20.1473 14.6875 20.7745 13.9981 21.1161C12.7391 21.74 11.2609 21.74 10.002 21.1161C9.3125 20.7745 8.69914 20.1473 7.71973 19.1679L5.97852 17.4257C5.26255 16.7097 4.8144 16.2689 4.49219 15.7431C4.21615 15.2926 4.01205 14.8017 3.88868 14.288C3.74472 13.6884 3.75001 13.0594 3.75001 12.0468V7.18352C3.75 6.55562 3.73634 6.02686 3.92481 5.56536C4.07922 5.1873 4.32935 4.85582 4.6504 4.60344C5.04246 4.29534 5.55523 4.16272 6.15919 3.99016L11.0879 2.58196C11.3272 2.5136 11.528 2.45409 11.7383 2.43059C11.9122 2.41116 12.0878 2.41116 12.2617 2.43059C12.472 2.45409 12.6729 2.5136 12.9121 2.58196L17.8408 3.99016C18.4448 4.16272 18.9576 4.29534 19.3496 4.60344C19.6707 4.85582 19.9208 5.1873 20.0752 5.56536C20.2637 6.02686 20.25 6.55562 20.25 7.18352V12.0468Z" fill="#737985"/>
<path d="M13.0545 8.39073C13.0544 7.80822 12.5824 7.33604 11.9998 7.33604C11.4174 7.33613 10.9452 7.80828 10.9452 8.39073C10.9452 8.97325 11.4173 9.44532 11.9998 9.44541C12.5824 9.44541 13.0545 8.97331 13.0545 8.39073ZM14.3045 8.39073C14.3045 9.66367 13.2728 10.6954 11.9998 10.6954C10.727 10.6953 9.69515 9.66361 9.69515 8.39073C9.69525 7.11792 10.727 6.08613 11.9998 6.08604C13.2727 6.08604 14.3044 7.11787 14.3045 8.39073Z" fill="#737985"/>
<path d="M14.735 13.7689C14.735 13.0538 14.1551 12.474 13.4401 12.4739H10.5602C9.84509 12.4739 9.26529 13.0537 9.26529 13.7689V14.347C9.26529 14.3994 9.30768 14.4416 9.36001 14.4417H14.6403C14.6925 14.4415 14.735 14.3993 14.735 14.347V13.7689ZM15.985 14.347C15.985 15.0896 15.3829 15.6915 14.6403 15.6917H9.36001C8.61732 15.6916 8.01529 15.0897 8.01529 14.347V13.7689C8.01529 12.3634 9.15473 11.2239 10.5602 11.2239H13.4401C14.8455 11.224 15.985 12.3635 15.985 13.7689V14.347Z" fill="#737985"/>
</svg>
