<svg width="24" height="24" viewBox="0 0 24 24" fill="none" xmlns="http://www.w3.org/2000/svg">
<path d="M19.2501 18.5C19.2501 18.3011 19.171 18.1104 19.0304 17.9697C18.8897 17.8291 18.699 17.75 18.5001 17.75C18.3012 17.75 18.1105 17.8291 17.9698 17.9697C17.8292 18.1104 17.7501 18.3011 17.7501 18.5C17.7501 18.6989 17.8292 18.8896 17.9698 19.0303C18.1105 19.1709 18.3012 19.25 18.5001 19.25C18.699 19.25 18.8897 19.1709 19.0304 19.0303C19.171 18.8896 19.2501 18.6989 19.2501 18.5ZM12.2501 15.5C12.2501 14.5054 11.8548 13.5519 11.1515 12.8486C10.4482 12.1454 9.49468 11.75 8.50012 11.75C7.50556 11.75 6.55202 12.1454 5.84875 12.8486C5.14549 13.5519 4.75012 14.5054 4.75012 15.5C4.75012 16.4946 5.14549 17.4481 5.84875 18.1514C6.55202 18.8546 7.50556 19.25 8.50012 19.25C9.49468 19.25 10.4482 18.8546 11.1515 18.1514C11.8548 17.4481 12.2501 16.4946 12.2501 15.5ZM6.25012 5.5C6.25012 5.40154 6.23115 5.30386 6.19348 5.21289C6.15579 5.1219 6.10004 5.03937 6.0304 4.96973C5.96075 4.90008 5.87823 4.84433 5.78723 4.80664C5.69626 4.76897 5.59859 4.75 5.50012 4.75C5.40166 4.75 5.30398 4.76897 5.21301 4.80664C5.12202 4.84433 5.03949 4.90008 4.96985 4.96973C4.9002 5.03937 4.84445 5.1219 4.80676 5.21289C4.76909 5.30386 4.75012 5.40154 4.75012 5.5C4.75012 5.59846 4.76909 5.69614 4.80676 5.78711C4.84445 5.8781 4.9002 5.96063 4.96985 6.03027C5.03949 6.09992 5.12202 6.15567 5.21301 6.19336C5.30398 6.23103 5.40166 6.25 5.50012 6.25C5.59859 6.25 5.69626 6.23103 5.78723 6.19336C5.87823 6.15567 5.96075 6.09992 6.0304 6.03027C6.10004 5.96063 6.15579 5.8781 6.19348 5.78711C6.23115 5.69614 6.25012 5.59846 6.25012 5.5ZM19.2501 5.5C19.2501 5.30109 19.171 5.11038 19.0304 4.96973C18.8897 4.82907 18.699 4.75 18.5001 4.75C18.3012 4.75 18.1105 4.82907 17.9698 4.96973C17.8292 5.11038 17.7501 5.30109 17.7501 5.5C17.7501 5.69012 17.8241 5.87117 17.9532 6.00977C17.9596 6.01571 17.9666 6.02114 17.9728 6.02734C17.9787 6.03323 17.9837 6.03987 17.9894 6.0459C18.1281 6.17569 18.3095 6.25 18.5001 6.25C18.699 6.25 18.8897 6.17093 19.0304 6.03027C19.171 5.88962 19.2501 5.69891 19.2501 5.5ZM20.7501 5.5C20.7501 6.09674 20.5129 6.66886 20.0909 7.09082C19.669 7.51278 19.0969 7.75 18.5001 7.75C18.1613 7.75 17.8314 7.6716 17.5314 7.52832L12.7032 12.3564C13.3782 13.2588 13.7501 14.3599 13.7501 15.5C13.7501 15.7608 13.7305 16.0196 13.6925 16.2744L16.6866 17.1719C16.7542 17.0796 16.8275 16.991 16.9093 16.9092C17.3313 16.4872 17.9034 16.25 18.5001 16.25C19.0969 16.25 19.669 16.4872 20.0909 16.9092C20.5129 17.3311 20.7501 17.9033 20.7501 18.5C20.7501 19.0967 20.5129 19.6689 20.0909 20.0908C19.669 20.5128 19.0969 20.75 18.5001 20.75C17.9034 20.75 17.3313 20.5128 16.9093 20.0908C16.513 19.6945 16.2819 19.1656 16.255 18.6084L13.2609 17.7109C13.0042 18.2637 12.6512 18.7727 12.212 19.2119C11.2275 20.1965 9.89251 20.75 8.50012 20.75C7.10774 20.75 5.77277 20.1965 4.78821 19.2119C3.80364 18.2273 3.25012 16.8924 3.25012 15.5C3.25012 14.1076 3.80364 12.7727 4.78821 11.7881C5.22731 11.349 5.73562 10.995 6.28821 10.7383L5.39075 7.74414C5.13269 7.73156 4.878 7.67818 4.63879 7.5791C4.36586 7.46603 4.1182 7.29972 3.9093 7.09082C3.7004 6.88192 3.53409 6.63426 3.42102 6.36133C3.30795 6.08835 3.25012 5.79547 3.25012 5.5C3.25012 5.20453 3.30795 4.91165 3.42102 4.63867C3.53409 4.36574 3.7004 4.11808 3.9093 3.90918C4.1182 3.70028 4.36586 3.53397 4.63879 3.4209C4.91178 3.30783 5.20465 3.25 5.50012 3.25C5.7956 3.25 6.08847 3.30783 6.36145 3.4209C6.63439 3.53397 6.88204 3.70028 7.09094 3.90918C7.29984 4.11808 7.46615 4.36574 7.57922 4.63867C7.6923 4.91165 7.75012 5.20453 7.75012 5.5C7.75012 5.79547 7.6923 6.08835 7.57922 6.36133C7.46615 6.63426 7.29984 6.88192 7.09094 7.09082C7.00938 7.17239 6.91991 7.24466 6.82727 7.3125L7.72571 10.3066C7.98052 10.2686 8.23938 10.25 8.50012 10.25C9.63978 10.25 10.7405 10.6215 11.6427 11.2959L16.4708 6.46777C16.3279 6.16809 16.2501 5.83835 16.2501 5.5C16.2501 4.90326 16.4873 4.33114 16.9093 3.90918C17.3313 3.48722 17.9034 3.25 18.5001 3.25C19.0969 3.25 19.669 3.48722 20.0909 3.90918C20.5129 4.33114 20.7501 4.90326 20.7501 5.5Z" fill="#737985"/>
</svg>
