<svg width="24" height="24" viewBox="0 0 24 24" fill="none" xmlns="http://www.w3.org/2000/svg">
<path d="M3.94238 6.13269C3.82352 6.26537 3.75004 6.43957 3.75 6.63171V17.6317C3.75 18.0459 4.08579 18.3817 4.5 18.3817H16.1914L17.6914 19.8817H4.5C3.25736 19.8817 2.25 18.8744 2.25 17.6317V6.63171C2.25004 6.02533 2.49078 5.47576 2.88086 5.07117L3.94238 6.13269Z" fill="#737985"/>
<path d="M15.75 2.8407C16.1642 2.8407 16.5 3.17648 16.5 3.5907V4.38171H19.5C20.7426 4.38171 21.7499 5.38914 21.75 6.63171V17.6317C21.75 18.3868 21.3763 19.0527 20.8057 19.4608L19.6973 18.3524C20.0154 18.2655 20.25 17.9774 20.25 17.6317V6.63171C20.2499 6.21757 19.9142 5.88171 19.5 5.88171H16.5V6.72351C16.4999 7.13763 16.1641 7.47351 15.75 7.47351C15.3359 7.47351 15.0001 7.13763 15 6.72351V5.88171H8.97949V6.72351C8.9794 6.9719 8.85697 7.18963 8.6709 7.32605L7.47949 6.13464V5.88171H7.22656L5.72656 4.38171H7.47949V3.5907C7.47949 3.17654 7.81536 2.8408 8.22949 2.8407C8.64371 2.8407 8.97949 3.17648 8.97949 3.5907V4.38171H15V3.5907C15 3.17648 15.3358 2.8407 15.75 2.8407Z" fill="#737985"/>
<path d="M8.37598 14.3671C8.60579 14.0225 9.07144 13.9293 9.41602 14.1591C10.3178 14.7605 11.1756 15.0331 12 15.0331C12.2509 15.0331 12.5043 15.0041 12.7617 14.952L13.9697 16.16C13.325 16.4043 12.6682 16.5331 12 16.5331C10.8245 16.5331 9.6821 16.1395 8.58398 15.4071C8.23949 15.1773 8.14638 14.7116 8.37598 14.3671Z" fill="#737985"/>
<path d="M9.28516 11.4755C9.19712 11.5117 9.10113 11.5331 9 11.5331C8.58586 11.5331 8.25012 11.1972 8.25 10.7831V10.4403L9.28516 11.4755Z" fill="#737985"/>
<path d="M15 9.03308C15.4142 9.03308 15.75 9.36887 15.75 9.78308V10.7831C15.7499 11.1972 15.4141 11.5331 15 11.5331C14.5859 11.5331 14.2501 11.1972 14.25 10.7831V9.78308C14.25 9.36887 14.5858 9.03308 15 9.03308Z" fill="#737985"/>
<path d="M2.956 3.37906C3.24889 3.08617 3.72366 3.08617 4.01655 3.37906L20.5165 19.8791C20.8094 20.172 20.8094 20.6467 20.5165 20.9396C20.2237 21.2325 19.7489 21.2325 19.456 20.9396L2.956 4.43961C2.66311 4.14671 2.66311 3.67195 2.956 3.37906Z" fill="#737985"/>
</svg>
