<svg width="24" height="24" viewBox="0 0 24 24" fill="none" xmlns="http://www.w3.org/2000/svg">
<path d="M11.2178 2.55275C11.7103 2.30664 12.2897 2.30664 12.7822 2.55275L19.5469 5.93458C20.8365 6.57955 20.8365 8.42047 19.5469 9.06544L12.7822 12.4473C12.2897 12.6934 11.7103 12.6934 11.2178 12.4473L4.45313 9.06544C3.16354 8.42047 3.16353 6.57955 4.45313 5.93458L11.2178 2.55275ZM12.1113 3.89454C12.0411 3.85958 11.9589 3.85958 11.8887 3.89454L5.12402 7.27638C4.94001 7.36856 4.94 7.63146 5.12402 7.72365L11.8887 11.1055C11.9589 11.1404 12.0411 11.1404 12.1113 11.1055L18.876 7.72365C19.06 7.63146 19.06 7.36856 18.876 7.27638L12.1113 3.89454Z" fill="#737985"/>
<path d="M15.7178 13.8027C16.2103 13.5566 16.7897 13.5566 17.2822 13.8027L19.5469 14.9346C20.8365 15.5796 20.8365 17.4205 19.5469 18.0654L12.7822 21.4473C12.2897 21.6934 11.7103 21.6934 11.2178 21.4473L4.45313 18.0654C3.16354 17.4205 3.16353 15.5796 4.45313 14.9346L6.71777 13.8027C7.21026 13.5566 7.78974 13.5566 8.28223 13.8027L11.8887 15.6055C11.9589 15.6404 12.0411 15.6404 12.1113 15.6055L15.7178 13.8027ZM16.6113 15.1445C16.5411 15.1096 16.4589 15.1096 16.3887 15.1445L12.7822 16.9473C12.2897 17.1934 11.7103 17.1934 11.2178 16.9473L7.61133 15.1445C7.54113 15.1096 7.45887 15.1096 7.38867 15.1445L5.12402 16.2764C4.94001 16.3686 4.94 16.6315 5.12402 16.7236L11.8887 20.1055C11.9589 20.1404 12.0411 20.1404 12.1113 20.1055L18.876 16.7236C19.06 16.6315 19.06 16.3686 18.876 16.2764L16.6113 15.1445Z" fill="#737985"/>
<path d="M7.16504 9.07911C7.53545 8.89417 7.98572 9.0447 8.1709 9.41505C8.35584 9.78546 8.20532 10.2357 7.83496 10.4209L5.12402 11.7764C4.94001 11.8686 4.94 12.1315 5.12402 12.2236L7.83496 13.5791C8.20532 13.7643 8.35584 14.2146 8.1709 14.585C7.98572 14.9553 7.53545 15.1059 7.16504 14.9209L4.45313 13.5654C3.16353 12.9205 3.16353 11.0796 4.45313 10.4346L7.16504 9.07911ZM15.8291 9.41505C16.0143 9.0447 16.4646 8.89417 16.835 9.07911L19.5469 10.4346C20.8365 11.0796 20.8365 12.9205 19.5469 13.5654L16.835 14.9209C16.4646 15.1059 16.0143 14.9553 15.8291 14.585C15.6442 14.2146 15.7947 13.7643 16.165 13.5791L18.876 12.2236C19.06 12.1315 19.06 11.8686 18.876 11.7764L16.165 10.4209C15.7947 10.2357 15.6442 9.78546 15.8291 9.41505Z" fill="#737985"/>
</svg>
