<svg width="24" height="24" viewBox="0 0 24 24" fill="none" xmlns="http://www.w3.org/2000/svg">
<path d="M11.9688 21.0117C11.8052 21.0117 11.6428 21.0057 11.4814 20.9971C11.6428 21.0057 11.8052 21.0117 11.9688 21.0117ZM11.4434 20.9951C11.2935 20.9865 11.1448 20.9739 10.9971 20.958C11.1448 20.974 11.2936 20.9864 11.4434 20.9951ZM10.9082 20.9482C10.7593 20.9307 10.6114 20.9105 10.4648 20.8857C10.6114 20.9105 10.7593 20.9307 10.9082 20.9482ZM9.52539 20.6738C9.82601 20.7587 10.1329 20.8283 10.4453 20.8818C10.1328 20.8284 9.82598 20.7586 9.52539 20.6738ZM9.47559 20.6602C9.33041 20.6183 9.18698 20.5723 9.04492 20.5234C9.18698 20.5723 9.33043 20.6183 9.47559 20.6602ZM9.00684 20.5107C8.86856 20.4625 8.73179 20.4112 8.59668 20.3564L8.59766 20.3555C8.73261 20.4101 8.86874 20.4625 9.00684 20.5107ZM4.68359 17.5898C4.84762 17.1935 5.29973 17.0089 5.69141 17.1719H5.69336C6.0896 17.336 6.27431 17.7881 6.11133 18.1797V18.1807C5.94732 18.577 5.49517 18.7625 5.10352 18.5996L5.10156 18.5986C4.70556 18.4345 4.52081 17.9833 4.68359 17.5918V17.5898ZM11.4619 8.45117C11.8547 8.45117 12.2249 8.6029 12.5127 8.8877C12.7248 9.10051 12.8634 9.35988 12.9209 9.63379L13.0283 10.1436L13.543 10.2217C13.9378 10.2814 14.2635 10.5731 14.3701 10.958L14.5166 11.4863L15.0645 11.5068C15.6849 11.5304 16.1842 12.0082 16.248 12.5996L16.2549 12.7188C16.2535 13.0519 16.1288 13.358 15.9014 13.5918C15.6894 13.806 15.4148 13.9281 15.1182 13.9473H9.47852C8.51524 13.9473 7.7305 13.1625 7.73047 12.1992C7.73047 11.2995 8.41877 10.5528 9.29785 10.4629L9.90332 10.4014L9.9668 9.79688C10.0472 9.04095 10.6899 8.45142 11.4619 8.45117ZM3.28711 14.3867C3.27568 14.345 3.2667 14.3027 3.25586 14.2607C3.26668 14.3027 3.2757 14.345 3.28711 14.3867ZM3.17773 13.9385C3.16949 13.9009 3.16304 13.8629 3.15527 13.8252C3.16303 13.8629 3.1695 13.9009 3.17773 13.9385ZM3.09668 13.5186C3.08836 13.4695 3.08076 13.4204 3.07324 13.3711C3.08075 13.4204 3.08837 13.4695 3.09668 13.5186ZM3.03418 13.0781C3.02723 13.0196 3.01949 12.9612 3.01367 12.9023C3.01949 12.9612 3.02723 13.0196 3.03418 13.0781ZM2.99512 12.6699C2.98947 12.5923 2.98315 12.5146 2.97949 12.4365C2.98315 12.5146 2.98947 12.5923 2.99512 12.6699ZM20.9424 11.3555C20.9476 11.4279 20.9535 11.5004 20.957 11.5732C20.9535 11.5004 20.9476 11.4279 20.9424 11.3555ZM20.9014 10.9316C20.9083 10.9894 20.915 11.0473 20.9209 11.1055C20.915 11.0473 20.9083 10.9894 20.9014 10.9316ZM20.8379 10.4873C20.848 10.546 20.8573 10.605 20.8662 10.6641C20.8573 10.605 20.848 10.546 20.8379 10.4873ZM20.7568 10.0732C20.766 10.1148 20.7746 10.1565 20.7832 10.1982C20.7746 10.1565 20.766 10.1148 20.7568 10.0732ZM20.6484 9.63281C20.6596 9.67328 20.6691 9.71419 20.6797 9.75488C20.6691 9.71418 20.6595 9.67329 20.6484 9.63281ZM17.5537 5.64355C17.7178 5.24741 18.17 5.06276 18.5615 5.22559L18.5635 5.22656C18.9595 5.3907 19.1443 5.84188 18.9814 6.2334V6.23535C18.8174 6.63169 18.3653 6.81632 17.9736 6.65332H17.9717C17.5755 6.4892 17.3907 6.0371 17.5537 5.64551V5.64355ZM14.9766 3.52832C15.0992 3.57184 15.2207 3.6174 15.3408 3.66602C15.2207 3.61744 15.0992 3.5718 14.9766 3.52832ZM14.4824 3.36816C14.616 3.40698 14.748 3.44938 14.8789 3.49414C14.748 3.44942 14.616 3.40694 14.4824 3.36816ZM13.9805 3.2373C14.1245 3.27024 14.2669 3.3079 14.4082 3.34766C14.2669 3.30793 14.1245 3.2702 13.9805 3.2373ZM13.0293 3.07422C13.1759 3.09145 13.3215 3.11154 13.4658 3.13574C13.3215 3.11156 13.1759 3.09144 13.0293 3.07422ZM12.4961 3.02734C12.6515 3.03633 12.8058 3.04962 12.959 3.06641C12.8058 3.04962 12.6515 3.03633 12.4961 3.02734ZM11.9688 3.01172C12.1323 3.01172 12.2947 3.01677 12.4561 3.02539C12.2947 3.01677 12.1322 3.01172 11.9688 3.01172Z" stroke="#737985" stroke-width="1.5"/>
</svg>
