<svg width="24" height="24" viewBox="0 0 24 24" fill="none" xmlns="http://www.w3.org/2000/svg">
<path d="M16.7497 17.4268V7.25H6.57293C6.15872 7.25 5.82293 6.91421 5.82293 6.5C5.82293 6.08579 6.15872 5.75 6.57293 5.75H17.4997C17.9139 5.75 18.2497 6.08579 18.2497 6.5V17.4268C18.2497 17.841 17.9139 18.1768 17.4997 18.1768C17.0856 18.1766 16.7497 17.8409 16.7497 17.4268Z" fill="#737985"/>
<path d="M16.9697 5.96972C17.2626 5.67683 17.7374 5.67683 18.0303 5.96972C18.3232 6.26261 18.3232 6.73737 18.0303 7.03026L7.03029 18.0303C6.73739 18.3232 6.26263 18.3232 5.96974 18.0303C5.67685 17.7374 5.67685 17.2626 5.96974 16.9697L16.9697 5.96972Z" fill="#737985"/>
</svg>
