<svg width="24" height="24" viewBox="0 0 24 24" fill="none" xmlns="http://www.w3.org/2000/svg">
<path d="M19.799 11.5263C20.0393 11.8209 20.0219 12.2556 19.7473 12.5302L13.7473 18.5302C13.4544 18.8231 12.9796 18.8231 12.6867 18.5302C12.3938 18.2373 12.3938 17.7626 12.6867 17.4697L18.1565 11.9999L12.6867 6.53022C12.3938 6.23732 12.3938 5.76256 12.6867 5.46967C12.9796 5.17678 13.4544 5.17678 13.7473 5.46967L19.7473 11.4697L19.799 11.5263Z" fill="#737985"/>
<path d="M4.78284 11.2499L19.1832 11.2499C19.5974 11.2499 19.9332 11.5857 19.9332 11.9999C19.9332 12.4142 19.5974 12.7499 19.1832 12.7499L4.78284 12.7499C4.3688 12.7497 4.03284 12.414 4.03284 11.9999C4.03284 11.5859 4.3688 11.2502 4.78284 11.2499Z" fill="#737985"/>
</svg>
