<svg width="24" height="24" viewBox="0 0 24 24" fill="none" xmlns="http://www.w3.org/2000/svg">
<path d="M18.1193 6.36825C18.474 6.15475 18.9349 6.26942 19.1486 6.62411C20.13 8.25317 20.553 10.1572 20.3556 12.0479V13.0118C20.3546 13.933 20.5962 14.8384 21.0558 15.6368C21.2624 15.9958 21.1394 16.4546 20.7804 16.6612C20.4214 16.8679 19.9626 16.7438 19.756 16.3849C19.1651 15.3583 18.8543 14.1943 18.8556 13.0099V12.0108C18.8556 11.9835 18.8575 11.9559 18.8605 11.9288C19.0334 10.3501 18.683 8.7579 17.8634 7.39755C17.6499 7.0428 17.7646 6.58195 18.1193 6.36825Z" fill="#737985"/>
<path d="M14.856 12.0108V11.0108C14.856 10.1489 14.5133 9.32247 13.9038 8.71298C13.2943 8.10348 12.4679 7.76083 11.606 7.76083C10.744 7.76083 9.91762 8.10348 9.30813 8.71298C8.69864 9.32247 8.35598 10.1489 8.35598 11.0108C8.35598 11.425 8.0202 11.7608 7.60598 11.7608C7.19177 11.7608 6.85598 11.425 6.85598 11.0108C6.85598 9.75105 7.35679 8.54323 8.24758 7.65243C9.13838 6.76163 10.3462 6.26083 11.606 6.26083C12.8658 6.26083 14.0736 6.76163 14.9644 7.65243C15.8552 8.54323 16.356 9.75105 16.356 11.0108V12.0108C16.356 14.0121 17.0049 15.9596 18.2056 17.5606C18.454 17.8919 18.3873 18.3618 18.0562 18.6104C17.7249 18.8589 17.255 18.7921 17.0064 18.461C15.6108 16.6002 14.856 14.3368 14.856 12.0108Z" fill="#737985"/>
<path d="M10.856 11.0108C10.856 10.5966 11.1918 10.2608 11.606 10.2608C12.0202 10.2608 12.356 10.5966 12.356 11.0108V13.0118C12.353 15.718 13.1788 18.3602 14.7222 20.5831C14.9584 20.9233 14.8739 21.3908 14.5337 21.627C14.1935 21.8632 13.726 21.7788 13.4898 21.4386C11.7717 18.964 10.8526 16.0224 10.856 13.0099V11.0108Z" fill="#737985"/>
<path d="M7.51907 14.2657C7.93034 14.2177 8.30294 14.5126 8.3511 14.9239C8.58563 16.9266 9.16911 18.8729 10.0757 20.6739C10.2618 21.0437 10.1133 21.4944 9.74368 21.6808C9.3737 21.867 8.92211 21.7177 8.73587 21.3477C7.75047 19.3901 7.11575 17.2745 6.86087 15.0977C6.81289 14.6865 7.10778 14.3139 7.51907 14.2657Z" fill="#737985"/>
<path d="M11.5997 2.23902C13.1375 2.23797 14.6488 2.64209 15.9806 3.41089C16.3393 3.618 16.4631 4.07756 16.2559 4.43628C16.0488 4.79489 15.5892 4.91778 15.2306 4.7107C14.127 4.07359 12.8749 3.73815 11.6007 3.73902C10.3265 3.73994 9.07534 4.07702 7.97275 4.71558C6.87002 5.35424 5.95433 6.27182 5.31943 7.37671C4.68459 8.48151 4.35213 9.73435 4.35556 11.0085V12.0359C4.2796 14.3216 4.57307 16.6045 5.2247 18.7966C5.34271 19.1936 5.11671 19.6111 4.71982 19.7292C4.32278 19.8473 3.90523 19.6214 3.7872 19.2244C3.09181 16.8852 2.77713 14.4495 2.85556 12.0105V11.0105C2.85178 9.47335 3.25375 7.96245 4.01962 6.62964C4.78586 5.2962 5.88997 4.18851 7.22079 3.41773C8.55158 2.64698 10.0618 2.24011 11.5997 2.23902Z" fill="#737985"/>
</svg>
