<svg width="24" height="24" viewBox="0 0 24 24" fill="none" xmlns="http://www.w3.org/2000/svg">
<path d="M16.167 3.25C16.7554 3.25 17.2672 3.23599 17.7129 3.41992C18.0766 3.57007 18.3942 3.81355 18.6348 4.125C18.9295 4.50665 19.0512 5.00358 19.2061 5.57129L21.2578 13.0928C21.5847 14.2915 21.75 15.5289 21.75 16.7715H20.25C20.25 15.6624 20.1023 14.5583 19.8105 13.4883L17.7588 5.96582C17.5685 5.26795 17.5168 5.13099 17.4482 5.04199C17.3681 4.93821 17.2618 4.85669 17.1406 4.80664C17.0367 4.76376 16.8914 4.75 16.167 4.75H7.83301C7.10856 4.75 6.9633 4.76376 6.85938 4.80664C6.73817 4.85669 6.63191 4.93821 6.55176 5.04199C6.4832 5.13099 6.43154 5.26795 6.24121 5.96582L4.19824 13.4551C3.90045 14.547 3.75001 15.6739 3.75 16.8057H2.25C2.25001 15.5405 2.41908 14.2811 2.75195 13.0605L4.79395 5.57129C4.94877 5.00358 5.0705 4.50665 5.36523 4.125C5.60577 3.81355 5.92336 3.57007 6.28711 3.41992C6.73284 3.23599 7.2446 3.25 7.83301 3.25H16.167Z" fill="#737985"/>
<path d="M20.25 16.7683C20.25 15.3975 19.1384 14.2859 17.7676 14.2859H6.23242C4.86162 14.2859 3.75 15.3975 3.75 16.7683C3.7502 18.1389 4.86174 19.2498 6.23242 19.2498H17.7676C19.1383 19.2498 20.2498 18.1389 20.25 16.7683ZM21.75 16.7683C21.7498 18.9674 19.9667 20.7498 17.7676 20.7498H6.23242C4.03332 20.7498 2.2502 18.9674 2.25 16.7683C2.25 14.5691 4.03319 12.7859 6.23242 12.7859H17.7676C19.9668 12.7859 21.75 14.5691 21.75 16.7683Z" fill="#737985"/>
<path d="M15.6686 17.1312C15.6686 17.5454 15.3328 17.8812 14.9186 17.8812C14.5044 17.8812 14.1686 17.5454 14.1686 17.1312V16.35C14.1686 15.9358 14.5044 15.6 14.9186 15.6C15.3328 15.6 15.6686 15.9358 15.6686 16.35V17.1312Z" fill="#737985"/>
<path d="M13.1686 17.1312C13.1686 17.5454 12.8328 17.8812 12.4186 17.8812C12.0044 17.8812 11.6686 17.5454 11.6686 17.1312V16.35C11.6686 15.9358 12.0044 15.6 12.4186 15.6C12.8328 15.6 13.1686 15.9358 13.1686 16.35V17.1312Z" fill="#737985"/>
<path d="M18.1686 17.1312C18.1686 17.5454 17.8328 17.8812 17.4186 17.8812C17.0044 17.8812 16.6686 17.5454 16.6686 17.1312V16.35C16.6686 15.9358 17.0044 15.6 17.4186 15.6C17.8328 15.6 18.1686 15.9358 18.1686 16.35V17.1312Z" fill="#737985"/>
</svg>
