<svg width="24" height="24" viewBox="0 0 24 24" fill="none" xmlns="http://www.w3.org/2000/svg">
<path d="M20.25 13.8005V5.31421C20.25 4.9 19.9142 4.56421 19.5 4.56421H4.5C4.08579 4.56421 3.75 4.9 3.75 5.31421V18.3142C3.75 18.7284 4.08579 19.0642 4.5 19.0642H11.2373C11.6515 19.0642 11.9873 19.4 11.9873 19.8142C11.9873 20.2284 11.6515 20.5642 11.2373 20.5642H4.5C3.25736 20.5642 2.25 19.5568 2.25 18.3142V5.31421C2.25 4.07157 3.25736 3.06421 4.5 3.06421H19.5C20.7426 3.06421 21.75 4.07157 21.75 5.31421V13.8005C21.75 14.2148 21.4142 14.5505 21 14.5505C20.5858 14.5505 20.25 14.2148 20.25 13.8005Z" fill="#737985"/>
<path d="M20.928 11.1142V12.6142H3.07249V11.1142H20.928Z" fill="#737985"/>
<path d="M18 7.06421C18.4142 7.06421 18.75 7.4 18.75 7.81421C18.75 8.22842 18.4142 8.56421 18 8.56421H13.5C13.0858 8.56421 12.75 8.22842 12.75 7.81421C12.75 7.4 13.0858 7.06421 13.5 7.06421H18Z" fill="#737985"/>
<path d="M5.25 6.81421C5.25 6.4 5.58579 6.06421 6 6.06421C6.41421 6.06421 6.75 6.4 6.75 6.81421V8.81421C6.75 9.22842 6.41421 9.56421 6 9.56421C5.58579 9.56421 5.25 9.22842 5.25 8.81421L5.25 6.81421Z" fill="#737985"/>
<path d="M8.25 6.81421C8.25 6.4 8.58579 6.06421 9 6.06421C9.41421 6.06421 9.75 6.4 9.75 6.81421V8.81421C9.75 9.22842 9.41421 9.56421 9 9.56421C8.58579 9.56421 8.25 9.22842 8.25 8.81421V6.81421Z" fill="#737985"/>
<path d="M5.25 14.8142C5.25 14.4 5.58579 14.0642 6 14.0642C6.41421 14.0642 6.75 14.4 6.75 14.8142V16.8142C6.75 17.2284 6.41421 17.5642 6 17.5642C5.58579 17.5642 5.25 17.2284 5.25 16.8142L5.25 14.8142Z" fill="#737985"/>
<path d="M8.25 14.8142C8.25 14.4 8.58579 14.0642 9 14.0642C9.41421 14.0642 9.75 14.4 9.75 14.8142V16.8142C9.75 17.2284 9.41421 17.5642 9 17.5642C8.58579 17.5642 8.25 17.2284 8.25 16.8142V14.8142Z" fill="#737985"/>
<path d="M15.1122 14.4117C15.7851 14.0229 16.5671 13.866 17.3378 13.9654C18.1085 14.0648 18.8256 14.4146 19.3778 14.9615C19.93 15.5083 20.2874 16.2219 20.3944 16.9917C20.4323 17.2651 20.2411 17.5172 19.9677 17.5552C19.6942 17.5932 19.4413 17.4028 19.4032 17.1294C19.3264 16.5769 19.0701 16.0649 18.6737 15.6724C18.2773 15.2799 17.763 15.028 17.2098 14.9566C16.6567 14.8853 16.0951 14.9979 15.6122 15.2769C15.3676 15.4182 15.1507 15.599 14.9677 15.8091H15.3905C15.6666 15.8092 15.8905 16.033 15.8905 16.3091C15.8904 16.5852 15.6665 16.809 15.3905 16.8091H13.8876C13.6115 16.8091 13.3877 16.5852 13.3876 16.3091V14.8062C13.3876 14.53 13.6114 14.3062 13.8876 14.3062C14.1637 14.3062 14.3876 14.53 14.3876 14.8062V14.9663C14.6029 14.7524 14.846 14.5655 15.1122 14.4117Z" fill="#737985"/>
<path d="M19.3993 20.0657V19.9035C19.1836 20.1181 18.9414 20.307 18.6747 20.4612C18.0017 20.8499 17.2189 21.0059 16.4481 20.9065C15.6775 20.807 14.9612 20.4571 14.4091 19.9104C13.8568 19.3635 13.4994 18.6499 13.3925 17.8801C13.3547 17.6068 13.5458 17.3546 13.8192 17.3166C14.0926 17.2789 14.3447 17.47 14.3827 17.7434C14.4595 18.2956 14.7161 18.8071 15.1122 19.1994C15.5085 19.5919 16.0229 19.8438 16.576 19.9153C17.1292 19.9866 17.6907 19.8739 18.1737 19.595C18.4184 19.4536 18.636 19.2731 18.8192 19.0627H18.3964C18.1202 19.0627 17.8964 18.8389 17.8964 18.5627C17.8966 18.2868 18.1204 18.0627 18.3964 18.0627H19.8993C20.1751 18.063 20.3991 18.2869 20.3993 18.5627V20.0657C20.3993 20.3416 20.1752 20.5654 19.8993 20.5657C19.6231 20.5657 19.3993 20.3418 19.3993 20.0657Z" fill="#737985"/>
</svg>
