<svg width="24" height="24" viewBox="0 0 24 24" fill="none" xmlns="http://www.w3.org/2000/svg">
<path d="M17.5636 20.8202C18.5787 20.8317 19.563 20.4697 20.3283 19.8036C21.0936 19.1374 21.586 18.213 21.712 17.2069C21.8381 16.2008 21.5885 15.1834 21.0109 14.3495C20.4333 13.5159 19.5688 12.9235 18.5822 12.6854C17.5953 12.4474 16.5546 12.5803 15.6593 13.0585C15.176 13.3166 14.7539 13.6664 14.4122 14.0829L14.2492 13.4208C14.1661 13.0858 13.8273 12.8808 13.4923 12.9638C13.1573 13.0468 12.9532 13.3865 13.0363 13.7216L13.5128 15.6444L13.547 15.745C13.6451 15.9693 13.868 16.1189 14.1193 16.119H16.0685C16.4137 16.119 16.6935 15.8392 16.6935 15.494C16.6933 15.149 16.4136 14.869 16.0685 14.869H15.3859C15.623 14.582 15.9138 14.3396 16.2482 14.161C16.873 13.8273 17.6 13.735 18.2892 13.9013C18.978 14.0675 19.5811 14.4805 19.9835 15.0614C20.3861 15.6425 20.5596 16.3512 20.4718 17.0516C20.384 17.7521 20.0407 18.3966 19.507 18.8612C18.9732 19.3257 18.2861 19.5783 17.5773 19.5702C16.8683 19.5621 16.1872 19.2939 15.6642 18.8173C15.392 18.5692 15.1728 18.2735 15.0148 17.9481C14.864 17.6376 14.4893 17.5083 14.1788 17.6591C13.8687 17.81 13.7391 18.1837 13.8898 18.494C14.1166 18.9612 14.432 19.3853 14.8224 19.7411C15.5723 20.4245 16.5484 20.8086 17.5636 20.8202Z" fill="#737985"/>
<path d="M20.2365 11.6913V6.32996C20.2365 5.89755 20.2353 5.61766 20.2179 5.40516C20.2013 5.20164 20.1733 5.12582 20.1544 5.08875C20.0825 4.94772 19.9674 4.83348 19.8263 4.7616C19.7892 4.74271 19.7136 4.71379 19.5099 4.69715C19.2974 4.67981 19.0183 4.67957 18.5861 4.67957H5.40638C4.97396 4.67957 4.69408 4.67979 4.48157 4.69715C4.27802 4.7138 4.20224 4.74272 4.16517 4.7616C4.02434 4.83346 3.90987 4.94793 3.83802 5.08875C3.81913 5.12582 3.79022 5.20161 3.77357 5.40516C3.7562 5.61766 3.75599 5.89755 3.75599 6.32996V17.5292C3.75599 17.9616 3.7562 18.2415 3.77357 18.454C3.79022 18.6575 3.81913 18.7333 3.83802 18.7704C3.90987 18.9112 4.02434 19.0257 4.16517 19.0975C4.20224 19.1164 4.27802 19.1453 4.48157 19.162C4.69408 19.1794 4.97396 19.1796 5.40638 19.1796H12.2667C12.6808 19.1797 13.0167 19.5154 13.0167 19.9296C13.0167 20.3437 12.6808 20.6795 12.2667 20.6796H5.40638C4.99872 20.6796 4.64726 20.6806 4.3595 20.6571C4.06307 20.6329 3.76822 20.579 3.4845 20.4345C3.06114 20.2187 2.71682 19.8744 2.50111 19.4511C2.35656 19.1673 2.30268 18.8725 2.27845 18.5761C2.25494 18.2883 2.25599 17.9368 2.25599 17.5292V6.32996C2.25599 5.9223 2.25494 5.57084 2.27845 5.28309C2.30268 4.98665 2.35656 4.6918 2.50111 4.40809C2.71682 3.98472 3.06114 3.6404 3.4845 3.42469C3.76822 3.28014 4.06307 3.22626 4.3595 3.20203C4.64726 3.17852 4.99872 3.17957 5.40638 3.17957H18.5861C18.9935 3.17957 19.3443 3.17855 19.632 3.20203C19.9285 3.22626 20.2242 3.28009 20.5079 3.42469C20.9311 3.64039 21.2747 3.98491 21.4904 4.40809C21.6349 4.6918 21.6888 4.98665 21.713 5.28309C21.7365 5.57084 21.7365 5.9223 21.7365 6.32996V11.6913C21.7365 12.1053 21.4005 12.441 20.9865 12.4413C20.5722 12.4413 20.2365 12.1055 20.2365 11.6913Z" fill="#737985"/>
<path d="M20.2443 9.42957C20.6585 9.42957 20.9943 9.76536 20.9943 10.1796C20.9943 10.5938 20.6585 10.9296 20.2443 10.9296L3.74427 10.9296C3.33006 10.9296 2.99427 10.5938 2.99427 10.1796C2.99427 9.76536 3.33006 9.42957 3.74427 9.42957L20.2443 9.42957Z" fill="#737985"/>
<path d="M5.72572 6.42567C6.13993 6.42567 6.47572 6.76145 6.47572 7.17567C6.47572 7.58988 6.13993 7.92567 5.72572 7.92567C5.3115 7.92567 4.97474 7.58988 4.97474 7.17567C4.97474 6.76145 5.3115 6.42567 5.72572 6.42567Z" fill="#737985"/>
<path d="M8.22181 6.42567C8.63602 6.42567 8.97181 6.76145 8.97181 7.17567C8.97181 7.58988 8.63602 7.92567 8.22181 7.92567C7.8076 7.92567 7.47083 7.58988 7.47083 7.17567C7.47083 6.76145 7.8076 6.42567 8.22181 6.42567Z" fill="#737985"/>
<path d="M10.7218 6.42567C11.136 6.42567 11.4718 6.76145 11.4718 7.17567C11.4718 7.58988 11.136 7.92567 10.7218 7.92567C10.3076 7.92567 9.97083 7.58988 9.97083 7.17567C9.97083 6.76145 10.3076 6.42567 10.7218 6.42567Z" fill="#737985"/>
</svg>
