<svg width="24" height="24" viewBox="0 0 24 24" fill="none" xmlns="http://www.w3.org/2000/svg">
<path d="M9.30859 2.90592C10.5298 2.40089 11.8951 2.24354 13.2168 2.45084C14.5383 2.6582 15.766 3.22257 16.7246 4.07975C17.5381 4.8072 18.1245 5.71804 18.418 6.72135C19.2733 6.87452 20.0675 7.26922 20.6729 7.86686C21.3676 8.55288 21.7614 9.45899 21.75 10.4098L21.7422 10.6003C21.7079 11.1026 21.5612 11.5905 21.3145 12.0348C21.0679 12.4787 20.7275 12.8686 20.3184 13.1862C19.9093 13.5037 19.438 13.7442 18.9326 13.8971C18.62 13.9917 18.2968 14.052 17.9707 14.0778C17.5579 14.1104 17.1968 13.8021 17.1641 13.3893C17.1314 12.9764 17.4396 12.6153 17.8525 12.5827C18.0729 12.5652 18.2898 12.5246 18.498 12.4616C18.8352 12.3596 19.1406 12.2017 19.3984 12.0016C19.6561 11.8016 19.8598 11.564 20.0029 11.3063C20.1458 11.049 20.2263 10.774 20.2451 10.4977C20.2832 9.94502 20.072 9.38149 19.6191 8.93424C19.1626 8.48355 18.5001 8.19256 17.7705 8.15397C17.5106 8.14025 17.2761 7.99276 17.1514 7.76432C17.1119 7.69197 17.0862 7.61468 17.0723 7.5358C16.9167 6.66896 16.4531 5.8493 15.7246 5.19791C14.995 4.54553 14.0389 4.09776 12.9844 3.93229C11.9296 3.76686 10.8435 3.89398 9.88184 4.29166C8.92054 4.68922 8.14289 5.3321 7.64258 6.11393C7.51515 6.31309 7.30122 6.44046 7.06543 6.45768C6.57884 6.4929 6.10698 6.61153 5.67871 6.80436C5.25068 6.99711 4.87692 7.25939 4.5752 7.57096C4.27372 7.88234 4.05051 8.23698 3.91309 8.61198C3.79301 8.93982 3.73899 9.28098 3.75195 9.62076L3.76172 9.76627C3.79797 10.1541 3.9216 10.5372 4.12988 10.8922C4.33843 11.2477 4.62919 11.5704 4.99023 11.8385C5.23576 12.0209 5.50969 12.1757 5.80566 12.2965C6.189 12.4532 6.37327 12.8907 6.2168 13.2741C6.06017 13.6575 5.62174 13.8418 5.23828 13.6852C4.82979 13.5184 4.44541 13.3023 4.0957 13.0426C3.58173 12.6609 3.15164 12.19 2.83594 11.652C2.52014 11.1138 2.32598 10.5208 2.26856 9.90787L2.25293 9.67741C2.23252 9.14072 2.31746 8.6054 2.50391 8.09635C2.71686 7.51494 3.05663 6.98295 3.49707 6.52799C3.93737 6.07322 4.47085 5.70401 5.06348 5.43717C5.54502 5.22037 6.05991 5.07354 6.58887 5.00065C7.26194 4.08446 8.20685 3.36158 9.30859 2.90592Z" fill="#737985"/>
<path d="M5.35117 18.6136V12.9905C5.35117 12.6432 5.35112 12.3504 5.36778 12.1106C5.38484 11.8651 5.42173 11.6281 5.51914 11.3977C5.73441 10.889 6.13933 10.4841 6.64805 10.2688C6.87837 10.1714 7.1154 10.1345 7.36094 10.1175C7.60069 10.1008 7.8935 10.1009 8.24082 10.1009C8.67591 10.1009 9.00965 10.0964 9.26719 10.1565C9.40673 10.1892 9.56628 10.224 9.71738 10.2972C9.86834 10.3702 9.99398 10.4737 10.1061 10.5628C10.2363 10.6664 10.3916 10.849 10.5504 11.0423C10.7262 11.2564 10.9621 11.5545 11.2691 11.9427C11.5033 12.2386 11.7303 12.3665 11.9557 12.3684C13.1021 12.3783 14.4536 12.3767 15.5895 12.3724C16.0047 12.3708 16.3541 12.3689 16.6383 12.3909C16.9292 12.4134 17.2084 12.4639 17.4732 12.5979C17.8756 12.8016 18.2007 13.1261 18.4059 13.5276C18.5406 13.7915 18.5922 14.0695 18.6158 14.3597C18.6389 14.643 18.6383 14.9911 18.6383 15.4046V16.5257C18.6383 16.5273 18.6373 16.5289 18.6373 16.5306H18.649V18.6136C18.649 19.0228 18.6495 19.3674 18.6266 19.6487C18.603 19.9374 18.5516 20.2146 18.4176 20.4778C18.2139 20.8776 17.8886 21.2028 17.4889 21.4065C17.2256 21.5407 16.9485 21.5919 16.6598 21.6155C16.3783 21.6385 16.0333 21.638 15.6236 21.638H8.37656C7.967 21.638 7.62185 21.6385 7.34043 21.6155C7.05165 21.5919 6.77456 21.5407 6.51133 21.4065C6.11152 21.2028 5.78634 20.8776 5.58262 20.4778C5.44853 20.2146 5.39723 19.9375 5.37363 19.6487C5.35068 19.3674 5.35117 19.0229 5.35117 18.6136ZM6.60117 18.6136C6.60117 19.0435 6.60188 19.3285 6.61973 19.5472C6.63701 19.7586 6.66751 19.8528 6.69688 19.9104C6.78071 20.0749 6.91431 20.2084 7.07871 20.2923C7.13635 20.3216 7.23052 20.3521 7.44199 20.3694C7.66076 20.3873 7.94627 20.388 8.37656 20.388H15.6236C16.054 20.388 16.3394 20.3873 16.5582 20.3694C16.7696 20.3521 16.8639 20.3216 16.9215 20.2923C17.0858 20.2084 17.2195 20.0748 17.3033 19.9104C17.3327 19.8528 17.3632 19.7586 17.3805 19.5472C17.3983 19.3285 17.399 19.0435 17.399 18.6136V16.6321C17.3931 16.5974 17.3883 16.562 17.3883 16.5257V15.4046C17.3883 14.9705 17.3877 14.6821 17.3697 14.4612C17.3523 14.2476 17.3219 14.1533 17.2926 14.096C17.2078 13.9301 17.075 13.7973 16.9088 13.7132C16.8516 13.6842 16.7566 13.6536 16.5416 13.637C16.3198 13.6199 16.03 13.6207 15.5943 13.6224C14.4567 13.6267 13.0991 13.6283 11.9449 13.6184C11.1854 13.6119 10.64 13.1621 10.2887 12.7181C9.97834 12.3258 9.75134 12.0383 9.58457 11.8352C9.50126 11.7338 9.43742 11.6592 9.38926 11.6058C9.35362 11.5662 9.33486 11.5473 9.32871 11.5413C9.26132 11.4877 9.22408 11.4581 9.1959 11.4378C9.17216 11.4207 9.16771 11.4198 9.17246 11.4222C9.16896 11.4209 9.1609 11.4186 9.1461 11.4143C9.1127 11.4048 9.06685 11.3939 8.98301 11.3743C8.90379 11.3558 8.76013 11.3509 8.24082 11.3509C7.87625 11.3509 7.63418 11.3516 7.44785 11.3645C7.26723 11.3771 7.18518 11.3991 7.13535 11.4202C6.92581 11.5088 6.75915 11.6755 6.67051 11.885C6.64944 11.9349 6.6274 12.0169 6.61485 12.1975C6.60192 12.3839 6.60117 12.6259 6.60117 12.9905V18.6136Z" fill="#737985"/>
<path d="M11.8979 19.4297C11.2828 19.4367 10.686 19.2172 10.2222 18.8135C9.7585 18.4099 9.45978 17.8499 9.3833 17.2403C9.30687 16.6304 9.45802 16.0133 9.8081 15.5078C10.1582 15.0026 10.6829 14.6443 11.2808 14.5C11.8786 14.3559 12.5089 14.4359 13.0513 14.7256C13.2623 14.8384 13.4533 14.9809 13.6216 15.1455L13.6509 15.0245C13.7173 14.7565 13.9884 14.5929 14.2563 14.6592C14.5244 14.7257 14.688 14.9967 14.6216 15.2647L14.3491 16.3643L14.3218 16.4444C14.2432 16.6237 14.0648 16.7432 13.8638 16.7432H12.7495C12.4735 16.743 12.2495 16.5192 12.2495 16.2432C12.2497 15.9673 12.4736 15.7434 12.7495 15.7432H12.7876C12.7223 15.693 12.6531 15.6467 12.5796 15.6075C12.2536 15.4335 11.8747 15.3851 11.5151 15.4717C11.1555 15.5585 10.8404 15.7741 10.6304 16.0772C10.4204 16.3803 10.3298 16.75 10.3755 17.1153C10.4213 17.4806 10.5999 17.8172 10.8784 18.0596C11.157 18.3021 11.5161 18.4339 11.8862 18.4297C12.2564 18.4255 12.6113 18.2849 12.8843 18.0362C13.0264 17.9067 13.1417 17.7529 13.2241 17.583C13.3448 17.3348 13.6437 17.231 13.8921 17.3516C14.1404 17.4722 14.2439 17.7712 14.1235 18.0196C13.9861 18.3027 13.7947 18.5598 13.5581 18.7754C13.1037 19.1895 12.5129 19.4226 11.8979 19.4297Z" fill="#737985"/>
</svg>
