<svg width="24" height="24" viewBox="0 0 24 24" fill="none" xmlns="http://www.w3.org/2000/svg">
<path d="M4.52332 19.9305H19.4764V13.0106H16.6825L16.6757 14.1746C16.6717 14.8608 16.1149 15.4159 15.4286 15.4178L8.58289 15.4363C7.89134 15.4382 7.32919 14.8778 7.32898 14.1863V13.0106H4.52332V19.9305ZM20.9764 20.1805C20.9764 20.8708 20.4168 21.4305 19.7264 21.4305H4.27332C3.58298 21.4305 3.02335 20.8708 3.02332 20.1805V12.7606C3.02332 12.0702 3.58296 11.5106 4.27332 11.5106H7.57898C8.26934 11.5106 8.82898 12.0702 8.82898 12.7606V13.9354L15.1766 13.9178L15.1835 12.7537L15.1903 12.6268C15.2571 11.999 15.7886 11.5106 16.4335 11.5106H19.7264C20.4168 11.5106 20.9764 12.0702 20.9764 12.7606V20.1805Z" fill="#737985"/>
<path d="M16.9159 4.81958C16.9159 4.40537 16.5801 4.06958 16.1659 4.06958H7.83389C7.41968 4.06958 7.08389 4.40537 7.08389 4.81958V12.3323H5.58389V4.81958C5.58389 3.57694 6.59125 2.56958 7.83389 2.56958H16.1659C17.4086 2.56958 18.4159 3.57694 18.4159 4.81958V12.385H16.9159V4.81958Z" fill="#737985"/>
<path d="M15.0406 5.90717C15.4549 5.90717 15.7906 6.24295 15.7906 6.65717C15.7906 7.07138 15.4549 7.40717 15.0406 7.40717H9.08752C8.67331 7.40717 8.33752 7.07138 8.33752 6.65717C8.33752 6.24295 8.67331 5.90717 9.08752 5.90717H15.0406Z" fill="#737985"/>
<path d="M14.2823 16.7726C14.6964 16.7728 15.0323 17.1085 15.0323 17.5226C15.0323 17.9367 14.6964 18.2724 14.2823 18.2726H9.71787C9.30366 18.2726 8.96787 17.9368 8.96787 17.5226C8.96787 17.1084 9.30366 16.7726 9.71787 16.7726H14.2823Z" fill="#737985"/>
<path d="M14.1494 8.27094C14.5636 8.27096 14.8994 8.60674 14.8994 9.02094C14.8994 9.43513 14.5636 9.77091 14.1494 9.77094H9.85056C9.43634 9.77094 9.10056 9.43515 9.10056 9.02094C9.10056 8.60672 9.43634 8.27094 9.85056 8.27094H14.1494Z" fill="#737985"/>
</svg>
