<svg width="24" height="24" viewBox="0 0 24 24" fill="none" xmlns="http://www.w3.org/2000/svg">
<path d="M15.4112 17.623C16.1023 17.5854 16.779 17.8667 17.2892 18.4131C17.6474 18.7955 17.9491 19.0049 18.171 19.1006C18.3848 19.1927 18.4767 19.1618 18.5011 19.1514C18.5306 19.1386 18.6291 19.0815 18.7276 18.8389C18.8271 18.5938 18.9024 18.213 18.9024 17.6738V6.54004C18.9024 5.23454 18.6738 4.60242 18.3624 4.27344C18.0635 3.95791 17.5224 3.75 16.4093 3.75H7.5997C6.47351 3.75 5.93079 3.96324 5.6329 4.28027C5.32161 4.61178 5.09775 5.24382 5.09775 6.54004V17.6826C5.09775 18.2211 5.17273 18.6019 5.27255 18.8467C5.37108 19.0883 5.47003 19.1467 5.50107 19.1602C5.52629 19.171 5.61952 19.2016 5.8331 19.1094C6.05393 19.0139 6.35272 18.8053 6.7081 18.4238L6.71786 18.4141L6.72665 18.4043C7.7823 17.2919 9.45119 17.3828 10.3702 18.6113L11.2774 19.8242C11.5219 20.1472 11.791 20.25 12.0001 20.25C12.2092 20.25 12.4773 20.1471 12.7218 19.8242L13.629 18.6113L13.8058 18.3984C14.2382 17.9303 14.8061 17.6561 15.4112 17.623ZM15.8653 10.5C16.2795 10.5 16.6153 10.8358 16.6153 11.25C16.6153 11.6642 16.2795 12 15.8653 12H8.13388C7.71967 12 7.38388 11.6642 7.38388 11.25C7.38388 10.8358 7.71967 10.5 8.13388 10.5H15.8653ZM14.2501 7.5C14.6643 7.50005 15.0001 7.83582 15.0001 8.25C15.0001 8.66418 14.6643 8.99995 14.2501 9H9.75009C9.33588 9 9.00009 8.66421 9.00009 8.25C9.00009 7.83579 9.33588 7.5 9.75009 7.5H14.2501ZM20.4024 17.6738C20.4024 18.3327 20.3138 18.9216 20.1183 19.4033C19.9217 19.8874 19.5932 20.3146 19.0958 20.5293C18.593 20.7462 18.0574 20.685 17.5763 20.4775C17.1024 20.2731 16.6387 19.9116 16.1954 19.4385L16.1935 19.4375C15.9652 19.1926 15.7111 19.1093 15.4933 19.1211C15.2752 19.133 15.0298 19.2427 14.8292 19.5098L13.92 20.7266L13.9181 20.7295C13.433 21.3703 12.7458 21.7499 12.0001 21.75C11.2544 21.75 10.5673 21.3703 10.0821 20.7295L10.0802 20.7266L9.17001 19.5107V19.5098C8.81165 19.0303 8.23333 18.993 7.81161 19.4404L7.80478 19.4482L7.79697 19.4561L7.79111 19.46C7.35379 19.9266 6.89598 20.2848 6.42685 20.4873C5.94565 20.6949 5.41087 20.7544 4.90829 20.5381C4.41091 20.3239 4.08145 19.8975 3.88388 19.4131C3.68733 18.9311 3.59775 18.342 3.59775 17.6826V6.54004C3.59775 5.15991 3.81722 4.02231 4.54013 3.25293C5.27658 2.46919 6.35982 2.25 7.5997 2.25H16.4093C17.6336 2.25 18.7142 2.46337 19.4522 3.24316C20.1776 4.00975 20.4024 5.14798 20.4024 6.54004V17.6738Z" fill="#737985"/>
</svg>
