<svg width="24" height="24" viewBox="0 0 24 24" fill="none" xmlns="http://www.w3.org/2000/svg">
<path d="M3.59775 5.40093C3.59775 4.99313 3.5967 4.6419 3.62022 4.35405C3.64445 4.05744 3.69819 3.76194 3.84287 3.47808C4.05872 3.05472 4.40376 2.71126 4.82725 2.49566C5.11107 2.35117 5.40573 2.29711 5.70225 2.273C5.99009 2.24962 6.34134 2.25034 6.74912 2.25054L17.2511 2.25542C17.6582 2.25562 18.0086 2.25527 18.296 2.27886C18.5923 2.3032 18.8874 2.35694 19.171 2.50152C19.5941 2.71724 19.9378 3.06175 20.1534 3.48491C20.2978 3.76839 20.3518 4.06276 20.3761 4.35894C20.3996 4.6465 20.3994 4.99749 20.3995 5.40484L20.4024 17.6734L20.3976 17.9175C20.3779 18.478 20.2893 18.9815 20.1183 19.4029C19.9218 19.887 19.5932 20.3142 19.0958 20.5289C18.593 20.7458 18.0575 20.6846 17.5763 20.4771C17.1024 20.2727 16.6387 19.9112 16.1954 19.438L16.1935 19.4371C15.9652 19.1922 15.7111 19.1089 15.4933 19.1207C15.2753 19.1325 15.0298 19.2423 14.8292 19.5093L13.92 20.7261L13.9181 20.7291C13.433 21.3699 12.7458 21.7495 12.0001 21.7496C11.2544 21.7496 10.5673 21.3699 10.0821 20.7291L10.0802 20.7261L9.17002 19.5103C8.81166 19.0309 8.23334 18.9926 7.81162 19.44L7.80479 19.4478L7.79697 19.4556L7.79111 19.4595C7.3538 19.9262 6.89599 20.2843 6.42686 20.4869C5.94566 20.6945 5.41088 20.754 4.9083 20.5376C4.41092 20.3234 4.08146 19.8971 3.88389 19.4126C3.68734 18.9307 3.59775 18.3416 3.59775 17.6822V5.40093ZM5.09775 17.6822C5.09775 18.2207 5.17274 18.6014 5.27256 18.8462C5.37109 19.0878 5.47004 19.1463 5.50108 19.1597C5.5263 19.1706 5.61953 19.2011 5.83311 19.1089C6.05394 19.0135 6.35273 18.8048 6.70811 18.4234L6.71787 18.4136L6.72666 18.4039C7.78231 17.2915 9.45119 17.3823 10.3702 18.6109L11.2774 19.8238C11.522 20.1468 11.791 20.2496 12.0001 20.2496C12.2092 20.2495 12.4773 20.1467 12.7218 19.8238L13.629 18.6109L13.8058 18.398C14.2382 17.9298 14.8061 17.6556 15.4112 17.6226C16.1024 17.585 16.779 17.8662 17.2892 18.4126C17.6475 18.7951 17.9491 19.0045 18.171 19.1001C18.3848 19.1923 18.4767 19.1614 18.5011 19.1509C18.5306 19.1382 18.6291 19.081 18.7276 18.8384C18.8271 18.5934 18.9024 18.2125 18.9024 17.6734L18.8995 5.40484C18.8994 4.97309 18.8983 4.69425 18.881 4.48198C18.8643 4.27849 18.8364 4.20268 18.8175 4.16558C18.7456 4.02452 18.6304 3.91034 18.4894 3.83843C18.4523 3.81954 18.3771 3.7907 18.1739 3.77398C17.9616 3.75653 17.6822 3.75563 17.2501 3.75542L6.74815 3.75054C6.31599 3.75033 6.03682 3.75088 5.82432 3.76812C5.62132 3.78461 5.54517 3.81271 5.50791 3.83159C5.36675 3.90346 5.25174 4.0186 5.17979 4.15972C5.16088 4.1968 5.13199 4.2723 5.11533 4.47613C5.09796 4.68872 5.09775 4.96833 5.09775 5.40093V17.6822Z" fill="#737985"/>
<path d="M14.25 7.49956C14.6642 7.49956 15 7.83535 15 8.24956C15 8.66378 14.6642 8.99956 14.25 8.99956H9.75001C9.33579 8.99956 9.00001 8.66378 9.00001 8.24956C9.00001 7.83535 9.33579 7.49956 9.75001 7.49956H14.25Z" fill="#737985"/>
<path d="M15.8643 10.4996C16.2785 10.4996 16.6143 10.8353 16.6143 11.2496C16.6143 11.6638 16.2785 11.9996 15.8643 11.9996L8.13282 11.9996C7.71861 11.9996 7.38282 11.6638 7.38282 11.2496C7.38282 10.8353 7.71861 10.4996 8.13282 10.4996L15.8643 10.4996Z" fill="#737985"/>
</svg>
