<svg width="24" height="24" viewBox="0 0 24 24" fill="none" xmlns="http://www.w3.org/2000/svg">
<path d="M20.25 4.5C20.25 4.08579 19.9142 3.75 19.5 3.75H4.5C4.08579 3.75 3.75 4.08579 3.75 4.5V19.5C3.75 19.9142 4.08579 20.25 4.5 20.25H19.5C19.9142 20.25 20.25 19.9142 20.25 19.5V4.5ZM21.75 19.5C21.75 20.7426 20.7426 21.75 19.5 21.75H4.5C3.25736 21.75 2.25 20.7426 2.25 19.5V4.5C2.25 3.25736 3.25736 2.25 4.5 2.25H19.5C20.7426 2.25 21.75 3.25736 21.75 4.5V19.5Z" fill="#737985"/>
<path d="M17.3678 6.99998C17.3678 6.79287 17.1999 6.62498 16.9928 6.62498H6.99279C6.78568 6.62498 6.61779 6.79287 6.61779 6.99998V9.99998C6.61779 10.2071 6.78568 10.375 6.99279 10.375H16.9928C17.1999 10.375 17.3678 10.2071 17.3678 9.99998V6.99998ZM18.6178 9.99998C18.6178 10.8974 17.8903 11.625 16.9928 11.625H6.99279C6.09532 11.625 5.36779 10.8974 5.36779 9.99998V6.99998C5.36779 6.10251 6.09532 5.37498 6.99279 5.37498H16.9928C17.8903 5.37498 18.6178 6.10251 18.6178 6.99998V9.99998Z" fill="#737985"/>
<path d="M10.375 14.9633C10.375 14.7562 10.2071 14.5883 10 14.5883H7C6.79289 14.5883 6.625 14.7562 6.625 14.9633V17.0365C6.625 17.2436 6.79289 17.4115 7 17.4115H10C10.2071 17.4115 10.375 17.2436 10.375 17.0365V14.9633ZM11.625 17.0365C11.625 17.934 10.8975 18.6615 10 18.6615H7C6.10254 18.6615 5.375 17.934 5.375 17.0365V14.9633C5.375 14.0658 6.10254 13.3383 7 13.3383H10C10.8975 13.3383 11.625 14.0658 11.625 14.9633V17.0365Z" fill="#737985"/>
<path d="M17.375 14.9633C17.375 14.7562 17.2071 14.5883 17 14.5883H14C13.7929 14.5883 13.625 14.7562 13.625 14.9633V17.0365C13.625 17.2436 13.7929 17.4115 14 17.4115H17C17.2071 17.4115 17.375 17.2436 17.375 17.0365V14.9633ZM18.625 17.0365C18.625 17.934 17.8975 18.6615 17 18.6615H14C13.1025 18.6615 12.375 17.934 12.375 17.0365V14.9633C12.375 14.0658 13.1025 13.3383 14 13.3383H17C17.8975 13.3383 18.625 14.0658 18.625 14.9633V17.0365Z" fill="#737985"/>
</svg>
