<svg width="24" height="24" viewBox="0 0 24 24" fill="none" xmlns="http://www.w3.org/2000/svg">
<path d="M20.25 10.274V8.07385C20.25 7.64144 20.2498 7.36155 20.2324 7.14905C20.2158 6.9455 20.1869 6.86971 20.168 6.83264C20.0961 6.69182 19.9817 6.57735 19.8408 6.50549C19.8038 6.48661 19.728 6.45769 19.5244 6.44104C19.3119 6.42368 19.032 6.42346 18.5996 6.42346H5.4004C4.96798 6.42346 4.6881 6.42368 4.47559 6.44104C4.27204 6.45769 4.19625 6.48661 4.15919 6.50549C4.01836 6.57735 3.90389 6.69182 3.83204 6.83264C3.81315 6.86971 3.78423 6.9455 3.76759 7.14905C3.75022 7.36155 3.75001 7.64144 3.75001 8.07385V10.274C3.75001 10.6363 3.75049 10.8672 3.76368 11.0446C3.77618 11.2125 3.79779 11.2792 3.81348 11.3151C3.86907 11.4418 3.95865 11.5505 4.07227 11.6295C4.1044 11.6518 4.16515 11.6855 4.32716 11.7301C4.49866 11.7773 4.72544 11.8231 5.08106 11.8932L9.89454 12.8414L9.60548 14.3131L4.79102 13.3649C4.45717 13.2991 4.16644 13.2419 3.92872 13.1764C3.68203 13.1084 3.44152 13.0188 3.21583 12.8619C2.87464 12.6248 2.60619 12.2972 2.43946 11.9166C2.3291 11.6647 2.28659 11.4112 2.26759 11.1559C2.2493 10.9101 2.25001 10.6142 2.25001 10.274V8.07385C2.25001 7.66619 2.24896 7.31473 2.27247 7.02698C2.2967 6.73054 2.35057 6.43569 2.49512 6.15198C2.71084 5.72861 3.05516 5.38429 3.47852 5.16858C3.76224 5.02403 4.05709 4.97015 4.35352 4.94592C4.64128 4.92241 4.99273 4.92346 5.4004 4.92346H18.5996C19.0073 4.92346 19.3587 4.92241 19.6465 4.94592C19.9429 4.97015 20.2378 5.02403 20.5215 5.16858C20.9449 5.38429 21.2892 5.72861 21.5049 6.15198C21.6494 6.43569 21.7033 6.73054 21.7275 7.02698C21.7511 7.31473 21.75 7.66619 21.75 8.07385V10.274C21.75 10.6142 21.7507 10.9101 21.7324 11.1559C21.7134 11.4112 21.6709 11.6647 21.5606 11.9166C21.3938 12.2972 21.1254 12.6248 20.7842 12.8619C20.5585 13.0188 20.318 13.1084 20.0713 13.1764C19.8336 13.2419 19.5428 13.2991 19.209 13.3649L14.3945 14.3131L14.1055 12.8414L18.919 11.8932C19.2746 11.8231 19.5014 11.7773 19.6729 11.7301C19.8349 11.6855 19.8956 11.6518 19.9277 11.6295C20.0414 11.5505 20.1309 11.4418 20.1865 11.3151C20.2022 11.2792 20.2238 11.2125 20.2363 11.0446C20.2495 10.8672 20.25 10.6363 20.25 10.274Z" fill="#737985"/>
<path d="M3.15003 18.5099V11.9386H4.65003V18.5099C4.65003 18.9423 4.65025 19.2222 4.66761 19.4347C4.68426 19.6382 4.71318 19.714 4.73206 19.7511C4.80393 19.8919 4.9184 20.0064 5.05921 20.0782C5.09627 20.0971 5.17212 20.1251 5.37562 20.1417C5.58812 20.1591 5.86801 20.1603 6.30042 20.1603H17.4996C17.9321 20.1603 18.2119 20.1591 18.4244 20.1417C18.6279 20.1251 18.7038 20.0971 18.7409 20.0782C18.8817 20.0064 18.9961 19.8919 19.068 19.7511C19.0869 19.714 19.1158 19.6382 19.1325 19.4347C19.1498 19.2222 19.15 18.9423 19.15 18.5099V11.9386H20.65V18.5099C20.65 18.9176 20.6511 19.269 20.6276 19.5568C20.6033 19.8532 20.5495 20.1481 20.4049 20.4318C20.1892 20.8551 19.8449 21.1995 19.4215 21.4152C19.1378 21.5597 18.8429 21.6126 18.5465 21.6368C18.2588 21.6604 17.9073 21.6603 17.4996 21.6603H6.30042C5.89276 21.6603 5.5413 21.6604 5.25355 21.6368C4.95715 21.6126 4.66223 21.5597 4.37855 21.4152C3.9552 21.1995 3.61087 20.8551 3.39515 20.4318C3.2506 20.1481 3.19673 19.8532 3.17249 19.5568C3.14898 19.269 3.15003 18.9176 3.15003 18.5099Z" fill="#737985"/>
<path d="M13.5455 2.33984C13.8864 2.34271 14.1896 2.35964 14.4596 2.44531C15.1563 2.66652 15.7023 3.21241 15.9234 3.90918C16.0377 4.26916 16.0289 4.68775 16.0289 5.17676H14.5289C14.5289 4.57439 14.5199 4.44608 14.4938 4.36328C14.42 4.13096 14.2378 3.94871 14.0055 3.875C13.9227 3.84874 13.7949 3.83984 13.192 3.83984H10.8082C10.2057 3.83984 10.0775 3.84879 9.99473 3.875C9.7624 3.94871 9.58016 4.13096 9.50645 4.36328C9.48023 4.44608 9.47129 4.57425 9.47129 5.17676H7.97129C7.97129 4.68775 7.96254 4.26916 8.07676 3.90918C8.29792 3.21237 8.84382 2.66648 9.54063 2.44531C9.81069 2.35962 10.1138 2.3427 10.4547 2.33984H13.5455Z" fill="#737985"/>
<path d="M13.5902 13.7499C13.5902 13.4121 13.5898 13.1934 13.5765 13.0272C13.5639 12.8684 13.5421 12.8083 13.5277 12.7792C13.4695 12.6619 13.3745 12.566 13.2572 12.5077C13.2282 12.4933 13.1684 12.4716 13.0092 12.4589C12.8429 12.4456 12.6244 12.4452 12.2865 12.4452H11.7142C11.3765 12.4452 11.1578 12.4456 10.9916 12.4589C10.8329 12.4715 10.7727 12.4933 10.7435 12.5077C10.6261 12.5659 10.5303 12.6618 10.4721 12.7792C10.4576 12.8084 10.4359 12.8685 10.4232 13.0272C10.41 13.1934 10.4096 13.4121 10.4096 13.7499C10.4096 14.2891 10.4201 14.3975 10.4506 14.4764C10.4882 14.5736 10.5505 14.6597 10.6312 14.7255C10.6968 14.7788 10.7968 14.8219 11.309 14.9891L11.5902 15.0809C11.8322 15.1599 11.8808 15.1731 11.9242 15.1786C11.9744 15.185 12.0254 15.185 12.0756 15.1786C12.119 15.1731 12.1674 15.16 12.4096 15.0809L12.6908 14.9891C13.2027 14.822 13.3029 14.7788 13.3685 14.7255C13.4494 14.6596 13.5126 14.5737 13.5502 14.4764C13.5806 14.3975 13.5902 14.2891 13.5902 13.7499ZM14.7904 13.7499C14.7904 14.1887 14.7996 14.5703 14.6693 14.9081C14.5567 15.2 14.3698 15.4575 14.1273 15.6552C13.8465 15.8839 13.4802 15.9935 13.0629 16.1298L12.7816 16.2216C12.582 16.2867 12.4093 16.3458 12.2269 16.369C12.0766 16.3881 11.9241 16.3881 11.7738 16.369C11.5913 16.3459 11.418 16.2868 11.2181 16.2216L10.9369 16.1298C10.5196 15.9935 10.1542 15.8839 9.87342 15.6552C9.6307 15.4574 9.44315 15.2002 9.33045 14.9081C9.20016 14.5703 9.21033 14.1887 9.21033 13.7499C9.21033 13.4313 9.20995 13.1566 9.22791 12.9315C9.24644 12.6996 9.28716 12.468 9.39783 12.245C9.57255 11.8932 9.85754 11.6082 10.2094 11.4335C10.4324 11.3228 10.664 11.2821 10.8959 11.2635C11.121 11.2456 11.3956 11.246 11.7142 11.246H12.2865C12.6051 11.246 12.8798 11.2456 13.1049 11.2635C13.3366 11.2821 13.5676 11.3229 13.7904 11.4335C14.1423 11.6082 14.4272 11.8932 14.6019 12.245C14.7126 12.468 14.7543 12.6996 14.7728 12.9315C14.7908 13.1566 14.7904 13.4313 14.7904 13.7499Z" fill="#737985"/>
</svg>
