<svg width="24" height="24" viewBox="0 0 24 24" fill="none" xmlns="http://www.w3.org/2000/svg">
<path d="M12 2.30762C14.2081 2.30762 16.3639 2.74444 17.9922 3.55859C19.5854 4.35521 20.75 5.56881 20.75 7.05762C20.75 7.48232 20.6519 7.88312 20.4795 8.25977L17.9609 19.918C17.7371 20.9534 16.8211 21.6923 15.7617 21.6924H8.21094C7.15157 21.6924 6.23565 20.9534 6.01172 19.918L3.4668 8.1416C3.32715 7.79962 3.25 7.43783 3.25 7.05762C3.25 5.56881 4.4146 4.35521 6.00781 3.55859C7.63613 2.74444 9.79185 2.30762 12 2.30762ZM7.47754 19.6006C7.55213 19.9458 7.85776 20.1924 8.21094 20.1924H15.7617C16.1148 20.1923 16.4205 19.9457 16.4951 19.6006L18.5107 10.2715C18.3437 10.3712 18.1711 10.4672 17.9922 10.5566C16.3639 11.3708 14.2081 11.8076 12 11.8076C9.79185 11.8076 7.63613 11.3708 6.00781 10.5566C5.81795 10.4617 5.63445 10.3604 5.45801 10.2539L7.47754 19.6006ZM12 3.80762C9.96468 3.80762 8.05098 4.21426 6.67871 4.90039C5.32086 5.57932 4.78872 6.36717 4.75293 6.99023L4.89746 7.66016C5.13708 8.1654 5.68767 8.71932 6.67871 9.21484C8.05098 9.90098 9.96468 10.3076 12 10.3076C14.0353 10.3076 15.949 9.90098 17.3213 9.21484C18.2535 8.74872 18.795 8.23032 19.0557 7.75L19.2383 6.90332C19.1598 6.295 18.6166 5.54807 17.3213 4.90039C15.949 4.21426 14.0353 3.80762 12 3.80762Z" fill="#737985"/>
</svg>
