<svg width="24" height="24" viewBox="0 0 24 24" fill="none" xmlns="http://www.w3.org/2000/svg">
<path d="M17.5498 11.9434C17.5496 10.4006 16.2987 9.15042 14.7559 9.15042H9.24414C7.70133 9.15042 6.45041 10.4006 6.4502 11.9434V14.7002C6.45029 17.5109 8.53969 19.832 11.25 20.1983V14.7002C11.25 14.286 11.5858 13.9502 12 13.9502C12.4142 13.9502 12.75 14.286 12.75 14.7002V20.1983C15.4603 19.832 17.5497 17.5109 17.5498 14.7002V11.9434ZM12 4.65042C10.2672 4.65042 8.84659 5.98567 8.71094 7.68362C8.88554 7.66201 9.06369 7.65042 9.24414 7.65042H14.7559C14.936 7.65042 15.1138 7.66208 15.2881 7.68362C15.1524 5.98571 13.7328 4.65042 12 4.65042ZM19.0498 13.0498H21C21.4141 13.0498 21.7499 13.3857 21.75 13.7998C21.75 14.214 21.4142 14.5498 21 14.5498H19.0498V14.7002C19.0498 15.8342 18.7795 16.9044 18.3037 17.8535L19.9287 18.5039C20.3131 18.6578 20.5003 19.0941 20.3467 19.4785C20.1928 19.8631 19.7557 20.0503 19.3711 19.8965L17.5713 19.1768C17.5394 19.164 17.5095 19.1483 17.4805 19.1319C16.188 20.7282 14.214 21.75 12 21.75C9.78581 21.75 7.81104 20.7285 6.51855 19.1319C6.48972 19.1481 6.46028 19.1642 6.42871 19.1768L4.62891 19.8965C4.24432 20.0503 3.80716 19.8631 3.65332 19.4785C3.49972 19.0941 3.68692 18.6578 4.07129 18.5039L5.69531 17.8535C5.21967 16.9045 4.95023 15.8341 4.9502 14.7002V14.5498H3C2.58579 14.5498 2.25 14.214 2.25 13.7998C2.25011 13.3857 2.58585 13.0498 3 13.0498H4.9502V11.9434C4.95027 11.1214 5.18039 10.3529 5.58105 9.70022L4.07129 9.09573C3.68691 8.94179 3.49953 8.50561 3.65332 8.12112C3.80717 7.73657 4.24434 7.54932 4.62891 7.70315L6.42871 8.42386C6.50181 8.45313 6.56521 8.4956 6.62305 8.543C6.81334 8.39614 7.01579 8.26413 7.22949 8.15042C7.21175 8.0865 7.20021 8.01978 7.2002 7.95022C7.2002 6.61908 7.74103 5.41347 8.61621 4.54397L7.11426 3.64358C6.75917 3.43053 6.64357 2.96943 6.85645 2.61428C7.0695 2.2592 7.5306 2.1436 7.88574 2.35647L9.96289 3.60257C10.5813 3.3123 11.2717 3.15042 12 3.15042C12.728 3.15042 13.4179 3.31254 14.0361 3.60257L16.1143 2.35647C16.4694 2.1436 16.9305 2.2592 17.1436 2.61428C17.3564 2.96943 17.2408 3.43053 16.8857 3.64358L15.3828 4.54397C16.2583 5.4135 16.7998 6.61883 16.7998 7.95022C16.7998 8.01987 16.7873 8.08643 16.7695 8.15042C16.9833 8.2641 17.1856 8.39615 17.376 8.543C17.4339 8.49538 17.4979 8.45323 17.5713 8.42386L19.3711 7.70315C19.7557 7.54932 20.1928 7.73657 20.3467 8.12112C20.5005 8.50561 20.3131 8.94179 19.9287 9.09573L18.418 9.70022C18.8188 10.353 19.0497 11.1212 19.0498 11.9434V13.0498Z" fill="#737985"/>
</svg>
