<svg width="24" height="24" viewBox="0 0 24 24" fill="none" xmlns="http://www.w3.org/2000/svg">
<path d="M19.4834 5.2754C19.4834 4.84298 19.4832 4.5631 19.4658 4.35059C19.4492 4.14704 19.4202 4.07125 19.4014 4.03419C19.3295 3.89336 19.215 3.77889 19.0742 3.70704C19.0371 3.68815 18.9613 3.65924 18.7578 3.64259C18.5453 3.62522 18.2654 3.62501 17.833 3.62501H12.4004C11.968 3.62501 11.6881 3.62522 11.4756 3.64259C11.272 3.65923 11.1962 3.68815 11.1592 3.70704C11.0183 3.77889 10.9039 3.89336 10.832 4.03419C10.8131 4.07125 10.7842 4.14704 10.7676 4.35059C10.7502 4.5631 10.75 4.84298 10.75 5.2754V5.87501H9.24998V5.2754C9.24998 4.86773 9.24894 4.51628 9.27245 4.22852C9.29668 3.93209 9.35055 3.63724 9.4951 3.35352C9.71082 2.93016 10.0551 2.58584 10.4785 2.37012C10.7622 2.22557 11.0571 2.1717 11.3535 2.14747C11.6413 2.12396 11.9927 2.12501 12.4004 2.12501H17.833C18.2407 2.12501 18.5921 2.12396 18.8799 2.14747C19.1763 2.1717 19.4712 2.22557 19.7549 2.37012C20.1782 2.58584 20.5226 2.93016 20.7383 3.35352C20.8828 3.63721 20.9357 3.93212 20.9599 4.22852C20.9835 4.51628 20.9834 4.86773 20.9834 5.2754V21.625H9.99998V20.125H19.4834V5.2754Z" fill="#737985"/>
<path d="M14.2497 8.91895C14.2497 8.48653 14.2495 8.20665 14.2321 7.99414C14.2155 7.79061 14.1875 7.7148 14.1686 7.67774C14.0967 7.53671 13.9815 7.42248 13.8405 7.35059C13.8034 7.33169 13.7278 7.30278 13.5241 7.28614C13.3116 7.26878 13.0325 7.26856 12.6003 7.26856H6.14616C5.71375 7.26856 5.43386 7.26877 5.22136 7.28614C5.01781 7.30279 4.94202 7.3317 4.90495 7.35059C4.76413 7.42244 4.64966 7.53691 4.5778 7.67774C4.55892 7.7148 4.53 7.79059 4.51335 7.99414C4.49599 8.20665 4.49577 8.48653 4.49577 8.91895V20.125H14.2497V8.91895ZM15.7497 21.625H2.99577V8.91895C2.99577 8.51128 2.99472 8.15983 3.01823 7.87207C3.04247 7.57564 3.09634 7.28079 3.24089 6.99707C3.45661 6.57371 3.80092 6.22939 4.22429 6.01367C4.508 5.86912 4.80285 5.81525 5.09929 5.79102C5.38704 5.76751 5.7385 5.76856 6.14616 5.76856H12.6003C13.0077 5.76856 13.3585 5.76752 13.6462 5.79102C13.9426 5.81524 14.2375 5.86919 14.5212 6.01367C14.9445 6.22938 15.2888 6.57375 15.5046 6.99707C15.6491 7.28079 15.703 7.57563 15.7272 7.87207C15.7507 8.15983 15.7497 8.51128 15.7497 8.91895V21.625Z" fill="#737985"/>
<path d="M21.2428 20.375C21.6569 20.3751 21.9928 20.7109 21.9928 21.125C21.9928 21.5391 21.6569 21.8749 21.2428 21.875H2.75745C2.34323 21.875 2.00745 21.5392 2.00745 21.125C2.00745 20.7108 2.34323 20.375 2.75745 20.375H21.2428Z" fill="#737985"/>
<path d="M10.6456 17.9248C10.6456 17.3603 10.6375 17.2401 10.6144 17.1621C10.5422 16.9187 10.3519 16.7284 10.1085 16.6563C10.0305 16.6331 9.91004 16.625 9.34485 16.625C8.78024 16.625 8.66015 16.6332 8.58215 16.6563C8.33871 16.7284 8.14844 16.9187 8.07629 17.1621C8.0532 17.2401 8.04505 17.3602 8.04504 17.9248V20.125H10.6456V17.9248ZM12.1456 21.625H6.54504V17.5938C6.54756 17.2742 6.56242 16.9898 6.63782 16.7354C6.85429 16.0053 7.42535 15.4342 8.1554 15.2178C8.40984 15.1424 8.69421 15.1275 9.01379 15.125H9.67688C9.99623 15.1275 10.28 15.1425 10.5343 15.2178C11.2645 15.4342 11.8364 16.0052 12.0529 16.7354C12.1533 17.0745 12.1456 17.4665 12.1456 17.9248V21.625Z" fill="#737985"/>
<path d="M11.1758 8.87501C11.59 8.87501 11.9258 9.21079 11.9258 9.62501C11.9258 10.0392 11.59 10.375 11.1758 10.375H7.75C7.33579 10.375 7 10.0392 7 9.62501C7 9.21079 7.33579 8.87501 7.75 8.87501H11.1758Z" fill="#737985"/>
<path d="M11.1758 11.875C11.59 11.875 11.9258 12.2108 11.9258 12.625C11.9258 13.0392 11.59 13.375 11.1758 13.375H7.75C7.33579 13.375 7 13.0392 7 12.625C7 12.2108 7.33579 11.875 7.75 11.875H11.1758Z" fill="#737985"/>
</svg>
