<svg width="24" height="24" viewBox="0 0 24 24" fill="none" xmlns="http://www.w3.org/2000/svg">
<path d="M12.4189 9.30957C12.9344 8.7857 13.8875 9.2241 13.7549 10.0078L13.2773 12.8232L14.5225 12.9043C15.1364 12.9442 15.4721 13.6385 15.1221 14.1445L11.8408 18.8848C11.3568 19.584 10.2607 19.1321 10.4102 18.2949L10.8633 15.7549H9.48047C8.84336 15.7547 8.46746 15.0399 8.82812 14.5146L12.3223 9.42773L12.4189 9.30957ZM10.3516 14.5049H11.4111C11.904 14.5049 12.2771 14.9503 12.1904 15.4355L12.0098 16.4414L13.6318 14.0986L12.6895 14.0391C12.2211 14.0086 11.8815 13.579 11.96 13.1162L12.1738 11.8506L10.3516 14.5049Z" fill="#737985"/>
<path d="M12 2.25C14.1678 2.25 16.2755 2.49328 17.8613 2.94238C18.6502 3.16581 19.3224 3.44285 19.8145 3.7793C20.2823 4.09916 20.75 4.58981 20.75 5.26562C20.75 5.94144 20.2823 6.43209 19.8145 6.75195C19.3224 7.0884 18.6502 7.36544 17.8613 7.58887C16.2755 8.03797 14.1678 8.28125 12 8.28125C9.83222 8.28125 7.72448 8.03797 6.13867 7.58887C5.3498 7.36544 4.67764 7.0884 4.18555 6.75195C3.71772 6.43209 3.25 5.94144 3.25 5.26562C3.25 4.58981 3.71772 4.09916 4.18555 3.7793C4.67764 3.44285 5.3498 3.16581 6.13867 2.94238C7.72448 2.49328 9.83222 2.25 12 2.25ZM12 3.75C9.92453 3.75 7.96259 3.98417 6.54785 4.38477C5.83656 4.5862 5.33659 4.80949 5.03223 5.01758C4.85211 5.14072 4.78494 5.22616 4.76074 5.26562C4.78494 5.30509 4.85211 5.39053 5.03223 5.51367C5.33659 5.72176 5.83656 5.94505 6.54785 6.14648C7.96259 6.54708 9.92453 6.78125 12 6.78125C14.0755 6.78125 16.0374 6.54708 17.4521 6.14648C18.1634 5.94505 18.6634 5.72176 18.9678 5.51367C19.1472 5.39098 19.2139 5.30528 19.2383 5.26562C19.2139 5.22597 19.1472 5.14027 18.9678 5.01758C18.6634 4.80949 18.1634 4.5862 17.4521 4.38477C16.0374 3.98417 14.0755 3.75 12 3.75Z" fill="#737985"/>
<path d="M3.25 10.9766V5.34766C3.25 4.93344 3.58579 4.59766 4 4.59766C4.41421 4.59766 4.75 4.93344 4.75 5.34766V10.9766C4.75 11.0462 4.78803 11.2219 5.09473 11.4824C5.39805 11.74 5.89082 12.0131 6.5918 12.2598C6.97134 12.3933 7.39458 12.5131 7.85254 12.6162C8.25639 12.7074 8.5099 13.1087 8.41895 13.5127C8.32778 13.9166 7.92642 14.1701 7.52246 14.0791C7.01635 13.9651 6.53622 13.8305 6.09375 13.6748C5.29482 13.3937 4.61613 13.0448 4.12305 12.626C3.63326 12.2099 3.25 11.6534 3.25 10.9766ZM19.25 10.9766V5.34766C19.25 4.93344 19.5858 4.59766 20 4.59766C20.4142 4.59766 20.75 4.93344 20.75 5.34766V10.9766C20.75 11.6534 20.3667 12.2099 19.877 12.626C19.3839 13.0448 18.7052 13.3937 17.9062 13.6748C17.5601 13.7966 17.1907 13.9058 16.8047 14.002C16.4028 14.1019 15.9956 13.8569 15.8955 13.4551C15.7955 13.0532 16.0405 12.646 16.4424 12.5459C16.7883 12.4597 17.1117 12.3641 17.4082 12.2598C18.1092 12.0131 18.6019 11.74 18.9053 11.4824C19.212 11.2219 19.25 11.0462 19.25 10.9766Z" fill="#737985"/>
<path d="M3.25 18V9.05273C3.25 8.63852 3.58579 8.30273 4 8.30273C4.41421 8.30273 4.75 8.63852 4.75 9.05273V18C4.75011 18.1135 4.80811 18.3164 5.1123 18.5918C5.41652 18.8672 5.90844 19.1572 6.60645 19.4189C8.00014 19.9416 9.94072 20.25 12 20.25C14.0593 20.25 15.9999 19.9416 17.3936 19.4189C18.0916 19.1572 18.5835 18.8672 18.8877 18.5918C19.1919 18.3164 19.2499 18.1135 19.25 18V10.0957C19.25 9.68149 19.5858 9.3457 20 9.3457C20.4142 9.3457 20.75 9.68149 20.75 10.0957V18C20.7499 18.682 20.3865 19.2587 19.8945 19.7041C19.4022 20.1497 18.7221 20.5224 17.9199 20.8232C16.3131 21.4258 14.1841 21.75 12 21.75C9.81593 21.75 7.68693 21.4258 6.08008 20.8232C5.27786 20.5224 4.59775 20.1497 4.10547 19.7041C3.61352 19.2587 3.25011 18.682 3.25 18Z" fill="#737985"/>
</svg>
