<svg width="24" height="24" viewBox="0 0 24 24" fill="none" xmlns="http://www.w3.org/2000/svg">
<path d="M18.25 7.50526C18.25 6.78919 18.2365 6.64551 18.1943 6.54237C18.1452 6.42228 18.0658 6.31693 17.9639 6.23671C17.8763 6.16787 17.7419 6.11498 17.0537 5.91835L12.4531 4.60389C12.1846 4.52719 12.131 4.51454 12.083 4.50917C12.0278 4.50303 11.9721 4.50303 11.917 4.50917C11.8689 4.51454 11.8153 4.52719 11.5469 4.60389L6.94628 5.91835C6.25806 6.11498 6.12371 6.16787 6.03612 6.23671C5.93417 6.31693 5.85474 6.42228 5.80565 6.54237C5.76353 6.64551 5.74999 6.78919 5.74999 7.50526V12.0433C5.74999 13.0572 5.75491 13.4424 5.83983 13.7963C5.91941 14.1278 6.05042 14.445 6.2285 14.7357C6.4187 15.0461 6.68822 15.3214 7.40526 16.0385L9.03026 17.6644C10.0273 18.6614 10.4027 19.0228 10.7793 19.2094C11.5484 19.5904 12.4515 19.5904 13.2207 19.2094C13.5973 19.0228 13.9727 18.6614 14.9697 17.6644L16.5947 16.0385C17.3118 15.3214 17.5813 15.0461 17.7715 14.7357C17.9496 14.445 18.0806 14.1278 18.1601 13.7963C18.2451 13.4424 18.25 13.0572 18.25 12.0433V7.50526ZM19.75 12.0433C19.75 12.986 19.7552 13.5801 19.6191 14.1469C19.5028 14.6315 19.3102 15.0949 19.0498 15.5199C18.7453 16.0168 18.3227 16.4335 17.6562 17.1L16.0303 18.725C15.1189 19.6364 14.5395 20.2296 13.8867 20.5531C12.6978 21.1421 11.3022 21.1421 10.1133 20.5531C9.46052 20.2296 8.88108 19.6364 7.96972 18.725L6.34374 17.1C5.67728 16.4335 5.25471 16.0168 4.95018 15.5199C4.68976 15.0949 4.49721 14.6315 4.38085 14.1469C4.24479 13.5801 4.24999 12.986 4.24999 12.0433V7.50526C4.24999 6.92349 4.2364 6.41714 4.41698 5.97499C4.56439 5.61425 4.80299 5.29784 5.10936 5.05702C5.48481 4.76197 5.97492 4.63574 6.53417 4.47596L11.1348 3.16151C11.3565 3.09814 11.5486 3.04145 11.75 3.01893C11.9161 3.00036 12.0839 3.00036 12.25 3.01893C12.4513 3.04145 12.6434 3.09814 12.8652 3.16151L17.4658 4.47596C18.0251 4.63574 18.5152 4.76197 18.8906 5.05702C19.197 5.29784 19.4356 5.61425 19.583 5.97499C19.7636 6.41714 19.75 6.92349 19.75 7.50526V12.0433Z" fill="#737985"/>
<path d="M12.7452 11.8878C12.7452 12.302 12.4094 12.6378 11.9952 12.6378C11.581 12.6378 11.2452 12.302 11.2452 11.8878V7.81554C11.2452 7.40133 11.581 7.06554 11.9952 7.06554C12.4094 7.06554 12.7452 7.40133 12.7452 7.81554V11.8878Z" fill="#737985"/>
<path d="M11.9713 13.3019C12.3855 13.3019 12.7213 13.6376 12.7213 14.0519C12.7213 14.4661 12.3855 14.8019 11.9713 14.8019C11.5571 14.8019 11.2203 14.4661 11.2203 14.0519C11.2203 13.6376 11.5571 13.3019 11.9713 13.3019Z" fill="#737985"/>
</svg>
