<svg width="24" height="24" viewBox="0 0 24 24" fill="none" xmlns="http://www.w3.org/2000/svg">
<path d="M17.8336 18.8942L5.10566 6.16632C4.81276 5.87342 4.81276 5.39855 5.10566 5.10566C5.39855 4.81276 5.87342 4.81276 6.16632 5.10566L18.8942 17.8336C19.1871 18.1265 19.1871 18.6013 18.8942 18.8942C18.6013 19.1871 18.1265 19.1871 17.8336 18.8942Z" fill="#737985"/>
<path d="M17.8336 5.10566C18.1265 4.81277 18.6013 4.81277 18.8942 5.10566C19.1871 5.39856 19.1871 5.87343 18.8942 6.16632L6.16632 18.8942C5.87342 19.1871 5.39855 19.1871 5.10566 18.8942C4.81276 18.6014 4.81276 18.1265 5.10566 17.8336L17.8336 5.10566Z" fill="#737985"/>
</svg>
