<svg width="24" height="24" viewBox="0 0 24 24" fill="none" xmlns="http://www.w3.org/2000/svg">
<path d="M7.24968 18.3223V5.72656C7.24951 4.63491 6.36481 3.75 5.27312 3.75V2.25C7.19324 2.25 8.74951 3.80648 8.74968 5.72656V18.3223C8.74951 20.2154 7.2151 21.75 5.32195 21.75V20.25C6.38667 20.25 7.24951 19.387 7.24968 18.3223Z" fill="#737985"/>
<path d="M15.25 18.9385V5.99512C15.2501 3.92679 16.9268 2.2501 18.9951 2.25V3.75C17.7552 3.7501 16.7501 4.75522 16.75 5.99512V18.9385C16.75 19.6628 17.3372 20.25 18.0615 20.25V21.75C16.5088 21.75 15.25 20.4912 15.25 18.9385Z" fill="#737985"/>
<path d="M5.44727 7.14453L18.5527 7.14453C19.49 7.14453 20.25 6.38455 20.25 5.44727V5.00488C20.25 4.31184 19.6882 3.75 18.9951 3.75V2.25C20.5166 2.25 21.75 3.48341 21.75 5.00488V5.44727C21.75 7.21297 20.3185 8.64453 18.5527 8.64453L5.44727 8.64453C3.67516 8.64453 2.25 7.19003 2.25 5.43066C2.25026 3.6892 3.66082 2.25015 5.41504 2.25L5.41504 3.75C4.50195 3.75015 3.75026 4.50486 3.75 5.43066C3.75 6.37437 4.5163 7.14453 5.44727 7.14453Z" fill="#737985"/>
<path d="M18.5527 20.2502C19.49 20.2502 20.25 19.4902 20.25 18.5529C20.25 17.6156 19.4901 16.8557 18.5527 16.8557L5.44727 16.8557C4.50994 16.8557 3.75 17.6156 3.75 18.5529C3.75005 19.4902 4.50997 20.2502 5.44727 20.2502H5.57422L5.57422 21.7502H5.44727C3.68154 21.7502 2.25005 20.3186 2.25 18.5529C2.25 16.7872 3.68151 15.3557 5.44727 15.3557L18.5527 15.3557C20.3185 15.3557 21.75 16.7872 21.75 18.5529C21.75 20.3186 20.3185 21.7502 18.5527 21.7502H17.9932V20.2502H18.5527Z" fill="#737985"/>
</svg>
