<svg width="24" height="24" viewBox="0 0 24 24" fill="none" xmlns="http://www.w3.org/2000/svg">
<path d="M19.75 8C19.75 7.58579 19.4142 7.25 19 7.25H8C7.58579 7.25 7.25 7.58579 7.25 8V19C7.25 19.4142 7.58579 19.75 8 19.75H19C19.4142 19.75 19.75 19.4142 19.75 19V8ZM21.25 19C21.25 20.2426 20.2426 21.25 19 21.25H8C6.75736 21.25 5.75 20.2426 5.75 19V8C5.75 6.75736 6.75736 5.75 8 5.75H19C20.2426 5.75 21.25 6.75736 21.25 8V19Z" fill="#737985"/>
<path d="M16.75 5C16.75 4.58579 16.4142 4.25 16 4.25H5C4.58579 4.25 4.25 4.58579 4.25 5V16C4.25 16.4142 4.58579 16.75 5 16.75H6.46094V18.25H5C3.75736 18.25 2.75 17.2426 2.75 16V5C2.75 3.75736 3.75736 2.75 5 2.75H16C17.2426 2.75 18.25 3.75736 18.25 5V6.47461H16.75V5Z" fill="#737985"/>
</svg>
