<svg width="24" height="24" viewBox="0 0 24 24" fill="none" xmlns="http://www.w3.org/2000/svg">
<path d="M10.7782 8.9164H11.524L11.3132 9.98047H11.9833C12.3508 9.98793 12.6246 10.0659 12.8048 10.2145C12.9885 10.363 13.0426 10.6453 12.9669 11.0613L12.6048 12.9164H11.8483L12.1941 11.1448C12.2301 10.9591 12.2193 10.8273 12.1617 10.7493C12.1041 10.6713 11.9798 10.6323 11.7888 10.6323L11.1889 10.6267L10.7458 12.9164H10L10.7782 8.9164Z" fill="#737985"/>
<path fill-rule="evenodd" clip-rule="evenodd" d="M6.92028 9.9164H8.64495C9.15114 9.921 9.518 10.0791 9.7454 10.3906C9.97281 10.702 10.0479 11.1274 9.97064 11.6667C9.94067 11.9132 9.87412 12.1549 9.77115 12.392C9.67246 12.6291 9.53523 12.8429 9.35931 13.0335C9.14475 13.2753 8.91523 13.4287 8.67069 13.4938C8.42616 13.5589 8.17299 13.5914 7.91132 13.5914H7.13908L6.89453 14.9164H6.00002L6.92028 9.9164ZM7.28709 12.8034L7.67193 10.7184H7.80192C7.84916 10.7184 7.89845 10.716 7.94994 10.7114C8.2932 10.7067 8.57842 10.7416 8.80586 10.816C9.03749 10.8903 9.11472 11.1716 9.03749 11.6598C8.94319 12.2409 8.7586 12.5803 8.48407 12.6779C8.20954 12.7709 7.86628 12.815 7.45441 12.8104H7.36432C7.33857 12.8104 7.31284 12.808 7.28709 12.8034Z" fill="#737985"/>
<path fill-rule="evenodd" clip-rule="evenodd" d="M16.3062 9.9164H14.1503L13 14.9164H14.1181L14.4239 13.5914H15.3892C15.7163 13.5914 16.0327 13.5589 16.3384 13.4938C16.6441 13.4287 16.9309 13.2753 17.1991 13.0335C17.419 12.8429 17.5906 12.6291 17.7139 12.392C17.8426 12.1549 17.9258 11.9132 17.9633 11.6667C18.0598 11.1274 17.9661 10.702 17.6817 10.3906C17.3975 10.0791 16.939 9.921 16.3062 9.9164ZM15.0899 10.7184L14.6089 12.8034C14.6411 12.808 14.6733 12.8104 14.7054 12.8104H14.818C15.3329 12.815 15.7619 12.7709 16.1051 12.6779C16.4482 12.5803 16.679 12.2409 16.7969 11.6598C16.8935 11.1716 16.7969 10.8903 16.5073 10.816C16.2231 10.7416 15.8665 10.7067 15.4374 10.7114C15.3731 10.716 15.3115 10.7184 15.2524 10.7184H15.0899Z" fill="#737985"/>
<path d="M12 2.16638C17.3848 2.16638 21.75 6.53162 21.75 11.9164C21.75 12.8361 21.6189 13.7251 21.3809 14.5687L20.1289 13.3158C20.2067 12.8608 20.25 12.3936 20.25 11.9164C20.25 7.36004 16.5563 3.66638 12 3.66638C7.44366 3.66638 3.75001 7.36004 3.75 11.9164C3.75 16.4727 7.44365 20.1664 12 20.1664C12.048 20.1664 12.0958 20.1633 12.1436 20.1625L13.5273 21.5463C13.0297 21.6246 12.5197 21.6664 12 21.6664C6.61522 21.6664 2.25 17.3012 2.25 11.9164C2.25001 6.53162 6.61523 2.16638 12 2.16638Z" fill="#737985"/>
<path d="M18.2969 14.8336C18.671 14.8336 18.9974 15.0705 19.1201 15.4127L19.1602 15.5651L19.2227 15.943C19.2338 15.9493 19.2446 15.9555 19.2549 15.9615L19.6143 15.8278L19.7627 15.7867C19.8634 15.7681 19.9664 15.7668 20.0674 15.7838L20.2168 15.8229L20.3564 15.8873C20.4899 15.9636 20.6018 16.074 20.6797 16.2086L21.1123 16.9586C21.2155 17.1378 21.2517 17.3479 21.2148 17.5514C21.187 17.7044 21.1193 17.8466 21.0195 17.9635L20.9102 18.0709L20.6143 18.3141C20.6143 18.3268 20.6143 18.3395 20.6143 18.3522L20.9102 18.5963C21.2389 18.8677 21.326 19.338 21.1123 19.7086L20.6797 20.4576C20.5761 20.637 20.4118 20.7744 20.2168 20.8444C20.0219 20.9141 19.8081 20.9121 19.6143 20.8395L19.2559 20.7047C19.2448 20.7112 19.2338 20.7179 19.2227 20.7242L19.1602 21.1022C19.09 21.5252 18.7239 21.8336 18.2969 21.8336H17.4326C17.0045 21.8336 16.64 21.5239 16.5693 21.1031L16.5059 20.7242C16.4947 20.7179 16.4837 20.7112 16.4727 20.7047L16.1143 20.8395C15.9205 20.9121 15.7075 20.914 15.5127 20.8444C15.3665 20.792 15.2376 20.7019 15.1387 20.5846L15.0498 20.4586L14.6172 19.7096C14.5139 19.5303 14.4768 19.3194 14.5137 19.1158L14.5547 18.9664C14.6082 18.8227 14.6995 18.6949 14.8193 18.5963L15.1152 18.3522C15.1152 18.3395 15.1151 18.3268 15.1152 18.3141L14.8193 18.0709C14.6597 17.9395 14.5518 17.7558 14.5146 17.5524C14.4776 17.3487 14.5139 17.138 14.6172 16.9586L15.0498 16.2096C15.1533 16.0301 15.3167 15.8928 15.5117 15.8229C15.7069 15.7529 15.9212 15.7549 16.1152 15.8278L16.4727 15.9615C16.4845 15.9546 16.4953 15.9471 16.5059 15.941L16.5693 15.5641C16.6398 15.1423 17.0055 14.8336 17.4326 14.8336H18.2969ZM17.4844 16.1559C17.4352 16.4519 17.2433 16.6739 17.0225 16.7975C16.9968 16.8121 16.9797 16.8229 16.9639 16.8326L16.9609 16.8346C16.7433 16.9657 16.4531 17.0213 16.1699 16.9156L15.8623 16.8004L15.5361 17.3658L15.7891 17.5748C16.0215 17.7667 16.1189 18.0458 16.1143 18.3004C16.1139 18.3225 16.1139 18.3447 16.1143 18.3668C16.1184 18.5886 16.0453 18.8313 15.8701 19.0172L15.7891 19.0924L15.5361 19.3004L15.8623 19.8658L16.1699 19.7516C16.4531 19.6459 16.7433 19.7015 16.9609 19.8326C16.9794 19.8438 16.9987 19.8554 17.0176 19.8658C17.2396 19.9889 17.4348 20.2128 17.4844 20.5113L17.5381 20.8336H18.1914L18.2441 20.5113L18.2451 20.5104C18.289 20.2502 18.4421 20.0459 18.6289 19.9166L18.7109 19.8658C18.7294 19.8555 18.7475 19.8446 18.7656 19.8336L18.7686 19.8326C18.9586 19.7184 19.2046 19.6608 19.4531 19.7194L19.5596 19.7516L19.8662 19.8658L20.1924 19.3004L19.9395 19.0924C19.7065 18.9005 19.6089 18.6207 19.6143 18.3658V18.2985C19.6098 18.0444 19.7074 17.7661 19.9395 17.5748L20.1924 17.3658L19.8662 16.8004L19.5596 16.9156C19.2761 17.0218 18.985 16.9657 18.7676 16.8346C18.7457 16.8214 18.7292 16.8111 18.7148 16.8033L18.71 16.8014C18.4879 16.6782 18.2952 16.4542 18.2451 16.1569L18.2441 16.1559L18.1914 15.8336H17.5381L17.4844 16.1559ZM15.916 16.7096L15.9121 16.7125C15.9129 16.7112 15.9153 16.7109 15.916 16.7096Z" fill="#737985"/>
<path d="M18.3643 18.3336C18.3643 18.201 18.3115 18.0739 18.2178 17.9801C18.124 17.8863 17.9969 17.8336 17.8643 17.8336C17.7316 17.8336 17.6045 17.8863 17.5107 17.9801C17.417 18.0739 17.3643 18.201 17.3643 18.3336C17.3643 18.4662 17.417 18.5934 17.5107 18.6871C17.6045 18.7809 17.7316 18.8336 17.8643 18.8336C17.9969 18.8336 18.124 18.7809 18.2178 18.6871C18.3115 18.5934 18.3643 18.4662 18.3643 18.3336ZM19.3643 18.3336C19.3643 18.7314 19.2061 19.1129 18.9248 19.3942C18.6435 19.6755 18.2621 19.8336 17.8643 19.8336C17.4664 19.8336 17.085 19.6755 16.8037 19.3942C16.5224 19.1129 16.3643 18.7314 16.3643 18.3336C16.3643 17.9358 16.5224 17.5544 16.8037 17.2731C17.085 16.9918 17.4664 16.8336 17.8643 16.8336C18.2621 16.8336 18.6435 16.9918 18.9248 17.2731C19.2061 17.5544 19.3643 17.9358 19.3643 18.3336Z" fill="#737985"/>
</svg>
