<svg width="24" height="24" viewBox="0 0 24 24" fill="none" xmlns="http://www.w3.org/2000/svg">
<path d="M10.25 17.4004C10.25 16.9682 10.2498 16.689 10.2324 16.4766C10.2158 16.273 10.1869 16.1973 10.168 16.1602C10.0961 16.0191 9.98185 15.904 9.84083 15.832C9.80376 15.8132 9.72794 15.7852 9.52442 15.7686C9.31192 15.7512 9.03203 15.75 8.59962 15.75H5.4004C4.96798 15.75 4.6881 15.7512 4.47559 15.7686C4.27208 15.7852 4.19625 15.8132 4.15919 15.832C4.01816 15.904 3.90391 16.0191 3.83204 16.1602C3.81314 16.1973 3.78422 16.273 3.76759 16.4766C3.75025 16.689 3.75001 16.9682 3.75001 17.4004V18.6006C3.75001 19.0328 3.75024 19.312 3.76759 19.5244C3.78423 19.7282 3.81314 19.8037 3.83204 19.8408C3.90392 19.9819 4.01815 20.0971 4.15919 20.169C4.19625 20.1878 4.27207 20.2158 4.47559 20.2324C4.6881 20.2498 4.96798 20.25 5.4004 20.25H8.59962C9.03203 20.25 9.31192 20.2498 9.52442 20.2324C9.72795 20.2158 9.80376 20.1878 9.84083 20.169C9.98186 20.0971 10.0961 19.9819 10.168 19.8408C10.1869 19.8037 10.2158 19.7282 10.2324 19.5244C10.2498 19.312 10.25 19.0328 10.25 18.6006V17.4004ZM20.25 13.9824C20.25 13.55 20.2498 13.2701 20.2324 13.0576C20.2158 12.8541 20.1869 12.7783 20.168 12.7412C20.0961 12.6004 19.9816 12.4859 19.8408 12.4141C19.8038 12.3952 19.728 12.3663 19.5244 12.3496C19.3119 12.3323 19.032 12.332 18.5996 12.332H15.9004C15.468 12.332 15.1881 12.3323 14.9756 12.3496C14.772 12.3663 14.6963 12.3952 14.6592 12.4141C14.5184 12.4859 14.4039 12.6004 14.332 12.7412C14.3132 12.7783 14.2842 12.8541 14.2676 13.0576C14.2502 13.2701 14.25 13.55 14.25 13.9824V18.6006C14.25 19.0328 14.2502 19.312 14.2676 19.5244C14.2842 19.7282 14.3131 19.8037 14.332 19.8408C14.4039 19.9819 14.5181 20.0971 14.6592 20.169C14.6963 20.1878 14.7721 20.2158 14.9756 20.2324C15.1881 20.2498 15.468 20.25 15.9004 20.25H18.5996C19.032 20.25 19.3119 20.2498 19.5244 20.2324C19.7279 20.2158 19.8038 20.1878 19.8408 20.169C19.9819 20.0971 20.0961 19.9819 20.168 19.8408C20.1869 19.8037 20.2158 19.7282 20.2324 19.5244C20.2498 19.312 20.25 19.0328 20.25 18.6006V13.9824ZM9.75001 5.4004C9.75001 4.96798 9.74979 4.6881 9.73243 4.47559C9.71578 4.27204 9.68686 4.19625 9.66798 4.15919C9.59612 4.01836 9.48165 3.90389 9.34083 3.83204C9.30376 3.81315 9.22797 3.78423 9.02442 3.76759C8.81192 3.75022 8.53203 3.75001 8.09962 3.75001H5.4004C4.96798 3.75001 4.6881 3.75022 4.47559 3.76759C4.27204 3.78423 4.19625 3.81315 4.15919 3.83204C4.01836 3.90389 3.90389 4.01836 3.83204 4.15919C3.81315 4.19625 3.78423 4.27204 3.76759 4.47559C3.75022 4.6881 3.75001 4.96798 3.75001 5.4004V10.0186C3.75001 10.4508 3.75024 10.7299 3.76759 10.9424C3.78423 11.1461 3.81314 11.2217 3.83204 11.2588C3.90392 11.3998 4.01815 11.515 4.15919 11.5869C4.19625 11.6058 4.27207 11.6337 4.47559 11.6504C4.6881 11.6678 4.96798 11.668 5.4004 11.668H8.09962C8.53203 11.668 8.81192 11.6678 9.02442 11.6504C9.22795 11.6337 9.30376 11.6058 9.34083 11.5869C9.48186 11.515 9.59609 11.3998 9.66798 11.2588C9.68687 11.2217 9.71578 11.1461 9.73243 10.9424C9.74978 10.7299 9.75001 10.4508 9.75001 10.0186V5.4004ZM20.25 5.4004C20.25 4.9682 20.2498 4.68903 20.2324 4.47657C20.2158 4.27298 20.1869 4.19728 20.168 4.16016C20.0961 4.01911 19.9819 3.90395 19.8408 3.83204C19.8038 3.81315 19.7279 3.78521 19.5244 3.76856C19.3119 3.7512 19.032 3.75001 18.5996 3.75001H15.4004C14.968 3.75001 14.6881 3.7512 14.4756 3.76856C14.2721 3.78521 14.1963 3.81315 14.1592 3.83204C14.0182 3.90395 13.9039 4.01911 13.832 4.16016C13.8131 4.19728 13.7842 4.27298 13.7676 4.47657C13.7502 4.68903 13.75 4.9682 13.75 5.4004V6.60059C13.75 7.03281 13.7502 7.31197 13.7676 7.52442C13.7842 7.72817 13.8131 7.80374 13.832 7.84083C13.9039 7.98187 14.0181 8.09705 14.1592 8.16895C14.1963 8.18784 14.2721 8.21578 14.4756 8.23243C14.6881 8.24979 14.968 8.25001 15.4004 8.25001H18.5996C19.032 8.25001 19.3119 8.24979 19.5244 8.23243C19.7279 8.21578 19.8038 8.18784 19.8408 8.16895C19.9819 8.09705 20.0961 7.98187 20.168 7.84083C20.1869 7.80374 20.2158 7.72817 20.2324 7.52442C20.2498 7.31197 20.25 7.03281 20.25 6.60059V5.4004ZM11.75 18.6006C11.75 19.0081 11.751 19.3588 11.7275 19.6465C11.7033 19.9429 11.6493 20.2378 11.5049 20.5215C11.2892 20.9448 10.9448 21.2892 10.5215 21.5049C10.2378 21.6495 9.94293 21.7033 9.64649 21.7275C9.35874 21.7511 9.00728 21.75 8.59962 21.75H5.4004C4.99273 21.75 4.64128 21.7511 4.35352 21.7275C4.05708 21.7033 3.76224 21.6495 3.47852 21.5049C3.05521 21.2892 2.71082 20.9448 2.49512 20.5215C2.35067 20.2378 2.29668 19.9429 2.27247 19.6465C2.24898 19.3588 2.25001 19.0081 2.25001 18.6006V17.4004C2.25001 16.9929 2.24899 16.6422 2.27247 16.3545C2.29669 16.058 2.35053 15.7623 2.49512 15.4785C2.71082 15.0553 3.05534 14.7118 3.47852 14.4961C3.76224 14.3515 4.05709 14.2977 4.35352 14.2734C4.64128 14.2499 4.99273 14.25 5.4004 14.25H8.59962C9.00728 14.25 9.35874 14.2499 9.64649 14.2734C9.94293 14.2977 10.2378 14.3515 10.5215 14.4961C10.9447 14.7118 11.2892 15.0553 11.5049 15.4785C11.6495 15.7623 11.7033 16.058 11.7275 16.3545C11.751 16.6422 11.75 16.9929 11.75 17.4004V18.6006ZM21.75 18.6006C21.75 19.0081 21.751 19.3588 21.7275 19.6465C21.7033 19.9429 21.6493 20.2378 21.5049 20.5215C21.2892 20.9448 20.9448 21.2892 20.5215 21.5049C20.2378 21.6495 19.9429 21.7033 19.6465 21.7275C19.3587 21.7511 19.0073 21.75 18.5996 21.75H15.9004C15.4927 21.75 15.1413 21.7511 14.8535 21.7275C14.5571 21.7033 14.2622 21.6495 13.9785 21.5049C13.5552 21.2892 13.2108 20.9448 12.9951 20.5215C12.8507 20.2378 12.7967 19.9429 12.7725 19.6465C12.749 19.3588 12.75 19.0081 12.75 18.6006V13.9824C12.75 13.5748 12.749 13.2233 12.7725 12.9356C12.7967 12.6391 12.8506 12.3443 12.9951 12.0606C13.2108 11.6372 13.5552 11.2929 13.9785 11.0772C14.2622 10.9326 14.5571 10.8787 14.8535 10.8545C15.1413 10.831 15.4927 10.832 15.9004 10.832H18.5996C19.0073 10.832 19.3587 10.831 19.6465 10.8545C19.9429 10.8787 20.2378 10.9326 20.5215 11.0772C20.9449 11.2929 21.2892 11.6372 21.5049 12.0606C21.6494 12.3443 21.7033 12.6391 21.7275 12.9356C21.7511 13.2233 21.75 13.5748 21.75 13.9824V18.6006ZM11.25 10.0186C11.25 10.426 11.251 10.7768 11.2275 11.0645C11.2033 11.3608 11.1493 11.6558 11.0049 11.9395C10.7892 12.3628 10.4448 12.7071 10.0215 12.9229C9.73777 13.0674 9.44293 13.1213 9.14649 13.1455C8.85874 13.169 8.50728 13.168 8.09962 13.168H5.4004C4.99273 13.168 4.64128 13.169 4.35352 13.1455C4.05708 13.1213 3.76224 13.0674 3.47852 12.9229C3.05521 12.7071 2.71082 12.3628 2.49512 11.9395C2.35067 11.6558 2.29668 11.3608 2.27247 11.0645C2.24898 10.7768 2.25001 10.426 2.25001 10.0186V5.4004C2.25001 4.99273 2.24896 4.64128 2.27247 4.35352C2.2967 4.05709 2.35057 3.76224 2.49512 3.47852C2.71084 3.05516 3.05516 2.71084 3.47852 2.49512C3.76224 2.35057 4.05709 2.2967 4.35352 2.27247C4.64128 2.24896 4.99273 2.25001 5.4004 2.25001H8.09962C8.50728 2.25001 8.85874 2.24896 9.14649 2.27247C9.44293 2.2967 9.73778 2.35057 10.0215 2.49512C10.4449 2.71084 10.7892 3.05516 11.0049 3.47852C11.1494 3.76224 11.2033 4.05709 11.2275 4.35352C11.2511 4.64128 11.25 4.99273 11.25 5.4004V10.0186ZM21.75 6.60059C21.75 7.00807 21.751 7.35882 21.7275 7.64649C21.7033 7.94288 21.6493 8.23782 21.5049 8.52149C21.2892 8.94482 20.9448 9.28917 20.5215 9.50489C20.2378 9.64945 19.9429 9.70331 19.6465 9.72755C19.3587 9.75106 19.0073 9.75001 18.5996 9.75001H15.4004C14.9927 9.75001 14.6413 9.75106 14.3535 9.72755C14.0571 9.70331 13.7622 9.64945 13.4785 9.50489C13.0552 9.28917 12.7108 8.94482 12.4951 8.52149C12.3507 8.23782 12.2967 7.94288 12.2725 7.64649C12.249 7.35882 12.25 7.00807 12.25 6.60059V5.4004C12.25 4.99293 12.249 4.64218 12.2725 4.3545C12.2967 4.05799 12.3505 3.76231 12.4951 3.47852C12.7108 3.05535 13.0553 2.71178 13.4785 2.4961C13.7622 2.35154 14.0571 2.29768 14.3535 2.27344C14.6413 2.24993 14.9927 2.25001 15.4004 2.25001H18.5996C19.0073 2.25001 19.3587 2.24993 19.6465 2.27344C19.9429 2.29768 20.2378 2.35154 20.5215 2.4961C20.9447 2.71178 21.2892 3.05535 21.5049 3.47852C21.6495 3.76231 21.7033 4.05799 21.7275 4.3545C21.751 4.64218 21.75 4.99293 21.75 5.4004V6.60059Z" fill="#737985"/>
</svg>
