<svg width="24" height="24" viewBox="0 0 24 24" fill="none" xmlns="http://www.w3.org/2000/svg">
<path d="M19.25 6C19.25 5.88654 19.1921 5.68379 18.8877 5.4082C18.5835 5.1328 18.0915 4.8428 17.3936 4.58105C15.9999 4.05842 14.0593 3.75 12 3.75C9.94071 3.75 8.00015 4.05842 6.60645 4.58105C5.90847 4.8428 5.4165 5.1328 5.1123 5.4082C4.80795 5.68379 4.75 5.88654 4.75 6C4.75 6.11346 4.80795 6.31621 5.1123 6.5918C5.4165 6.8672 5.90847 7.1572 6.60645 7.41895C8.00015 7.94158 9.94071 8.25 12 8.25C14.0593 8.25 15.9999 7.94158 17.3936 7.41895C18.0915 7.1572 18.5835 6.8672 18.8877 6.5918C19.1921 6.31621 19.25 6.11346 19.25 6ZM20.75 6C20.75 6.68215 20.3865 7.25866 19.8945 7.7041C19.4022 8.14979 18.7222 8.52239 17.9199 8.82324C16.3131 9.42579 14.1841 9.75 12 9.75C9.81588 9.75 7.68694 9.42579 6.08008 8.82324C5.27781 8.52239 4.59776 8.14979 4.10547 7.7041C3.61347 7.25866 3.25 6.68215 3.25 6C3.25 5.31785 3.61347 4.74134 4.10547 4.2959C4.59776 3.85021 5.27781 3.47761 6.08008 3.17676C7.68694 2.57421 9.81588 2.25 12 2.25C14.1841 2.25 16.3131 2.57421 17.9199 3.17676C18.7222 3.47761 19.4022 3.85021 19.8945 4.2959C20.3865 4.74134 20.75 5.31785 20.75 6Z" fill="#737985"/>
<path d="M3.25 12V6C3.25 5.58579 3.58579 5.25 4 5.25C4.41421 5.25 4.75 5.58579 4.75 6V12C4.75 12.1135 4.80795 12.3162 5.1123 12.5918C5.4165 12.8672 5.90847 13.1572 6.60645 13.4189C8.00015 13.9416 9.94071 14.25 12 14.25C14.0593 14.25 15.9999 13.9416 17.3936 13.4189C18.0915 13.1572 18.5835 12.8672 18.8877 12.5918C19.1921 12.3162 19.25 12.1135 19.25 12V6C19.25 5.58579 19.5858 5.25 20 5.25C20.4142 5.25 20.75 5.58579 20.75 6V12C20.75 12.6822 20.3865 13.2587 19.8945 13.7041C19.4022 14.1498 18.7222 14.5224 17.9199 14.8232C16.3131 15.4258 14.1841 15.75 12 15.75C9.81588 15.75 7.68694 15.4258 6.08008 14.8232C5.27781 14.5224 4.59776 14.1498 4.10547 13.7041C3.61347 13.2587 3.25 12.6822 3.25 12Z" fill="#737985"/>
<path d="M3.25 18V12C3.25 11.5858 3.58579 11.25 4 11.25C4.41421 11.25 4.75 11.5858 4.75 12V18C4.75 18.1135 4.80795 18.3162 5.1123 18.5918C5.4165 18.8672 5.90847 19.1572 6.60645 19.4189C8.00015 19.9416 9.94071 20.25 12 20.25C14.0593 20.25 15.9999 19.9416 17.3936 19.4189C18.0915 19.1572 18.5835 18.8672 18.8877 18.5918C19.1921 18.3162 19.25 18.1135 19.25 18V12C19.25 11.5858 19.5858 11.25 20 11.25C20.4142 11.25 20.75 11.5858 20.75 12V18C20.75 18.6822 20.3865 19.2587 19.8945 19.7041C19.4022 20.1498 18.7222 20.5224 17.9199 20.8232C16.3131 21.4258 14.1841 21.75 12 21.75C9.81588 21.75 7.68694 21.4258 6.08008 20.8232C5.27781 20.5224 4.59776 20.1498 4.10547 19.7041C3.61347 19.2587 3.25 18.6822 3.25 18Z" fill="#737985"/>
<path d="M7.64966 10.9704C7.64966 11.3846 7.31387 11.7204 6.89966 11.7204C6.48544 11.7204 6.14966 11.3846 6.14966 10.9704C6.14966 10.5562 6.48544 10.2204 6.89966 10.2204C7.31387 10.2204 7.64966 10.5562 7.64966 10.9704Z" fill="#737985"/>
<path d="M7.64966 17.1946C7.64966 17.6089 7.31387 17.9446 6.89966 17.9446C6.48544 17.9446 6.14966 17.6089 6.14966 17.1946C6.14966 16.7804 6.48544 16.4446 6.89966 16.4446C7.31387 16.4446 7.64966 16.7804 7.64966 17.1946Z" fill="#737985"/>
</svg>
