<svg width="24" height="24" viewBox="0 0 24 24" fill="none" xmlns="http://www.w3.org/2000/svg">
<path d="M19.6154 4.89087C19.6154 4.47666 19.3054 4.14087 18.9231 4.14087H5.07692C4.69457 4.14087 4.38462 4.47666 4.38462 4.89087V8.25024C4.38462 8.66446 4.69457 9.00024 5.07692 9.00024H18.9231C19.3054 9.00024 19.6154 8.66446 19.6154 8.25024V4.89087ZM21 8.25024C21 9.49288 20.0701 10.5002 18.9231 10.5002H5.07692C3.92987 10.5002 3 9.49288 3 8.25024V4.89087C3 3.64823 3.92987 2.64087 5.07692 2.64087H18.9231C20.0701 2.64087 21 3.64823 21 4.89087V8.25024Z" fill="#737985"/>
<path d="M19.6154 15.7502C19.6154 15.336 19.3054 15.0002 18.9231 15.0002H5.07692C4.69457 15.0002 4.38462 15.336 4.38462 15.7502V19.1096C4.38462 19.5238 4.69457 19.8596 5.07692 19.8596H18.9231C19.3054 19.8596 19.6154 19.5238 19.6154 19.1096V15.7502ZM21 19.1096C21 20.3523 20.0701 21.3596 18.9231 21.3596H5.07692C3.92987 21.3596 3 20.3523 3 19.1096V15.7502C3 14.5076 3.92987 13.5002 5.07692 13.5002H18.9231C20.0701 13.5002 21 14.5076 21 15.7502V19.1096Z" fill="#737985"/>
</svg>
