<svg width="24" height="24" viewBox="0 0 24 24" fill="none" xmlns="http://www.w3.org/2000/svg">
<path d="M19.5625 6.07262L19.498 6.88317L18.6104 17.8998C18.5761 18.3257 18.5475 18.6885 18.5 18.9847C18.451 19.29 18.3746 19.5839 18.2129 19.8617C17.9672 20.2834 17.6002 20.6223 17.1602 20.8334C16.8702 20.9724 16.571 21.0249 16.2627 21.0492C15.9635 21.0728 15.5993 21.0726 15.1719 21.0726H8.84863C8.42193 21.0726 8.05853 21.0727 7.75977 21.0492C7.4518 21.0249 7.15295 20.9721 6.86328 20.8334C6.42372 20.6229 6.05738 20.2854 5.81152 19.8646C5.64961 19.5875 5.57193 19.2944 5.52246 18.9896C5.47447 18.6938 5.44518 18.3309 5.41016 17.9056L4.43555 6.07262H19.5625ZM6.90527 17.7826C6.94224 18.2315 6.96659 18.5254 7.00293 18.7494C7.03771 18.9637 7.0752 19.0542 7.10645 19.1078C7.20096 19.2696 7.34179 19.3999 7.51074 19.4808C7.56669 19.5076 7.66091 19.537 7.87793 19.5541C8.10409 19.5719 8.39848 19.5726 8.84863 19.5726H15.1719C15.623 19.5726 15.918 19.5719 16.1445 19.5541C16.3619 19.5369 16.4557 19.5077 16.5117 19.4808C16.681 19.3997 16.8215 19.269 16.916 19.1068C16.9473 19.0532 16.985 18.9626 17.0195 18.7474C17.0555 18.523 17.079 18.2284 17.1152 17.7787L17.9365 7.57262H6.06348L6.90527 17.7826Z" fill="#737985"/>
<path d="M20.1562 5.97841C20.6222 5.97841 21 6.35617 21 6.82216C21 7.28815 20.6222 7.66591 20.1562 7.66591H3.84375C3.37776 7.66591 3 7.28815 3 6.82216C3 6.35617 3.37776 5.97841 3.84375 5.97841H20.1562Z" fill="#737985"/>
<path d="M15.1875 5.92725C15.1875 5.35656 15.1807 5.21773 15.1553 5.12256C15.0686 4.79903 14.8157 4.54616 14.4922 4.45947C14.397 4.43405 14.2582 4.42725 13.6875 4.42725H10.3125C9.74181 4.42725 9.60298 4.43405 9.50781 4.45947C9.18429 4.54616 8.93141 4.79903 8.84473 5.12256C8.8193 5.21773 8.8125 5.35656 8.8125 5.92725C8.8125 6.34146 8.47671 6.67725 8.0625 6.67725C7.64829 6.67725 7.3125 6.34146 7.3125 5.92725C7.3125 5.45243 7.30602 5.06789 7.39551 4.73389C7.6209 3.89272 8.27798 3.23564 9.11914 3.01025C9.36963 2.94314 9.64856 2.92963 9.97266 2.92725H14.0273C14.3514 2.92963 14.6304 2.94314 14.8809 3.01025C15.722 3.23564 16.3791 3.89272 16.6045 4.73389C16.694 5.06789 16.6875 5.45243 16.6875 5.92725C16.6875 6.34146 16.3517 6.67725 15.9375 6.67725C15.5233 6.67725 15.1875 6.34146 15.1875 5.92725Z" fill="#737985"/>
<path d="M11.0448 16.3622C11.0447 16.7763 10.709 17.1122 10.2948 17.1122C9.88069 17.1122 9.54494 16.7763 9.54483 16.3622L9.54483 10.6659C9.54483 10.2517 9.88062 9.91591 10.2948 9.91591C10.709 9.91591 11.0448 10.2517 11.0448 10.6659V16.3622Z" fill="#737985"/>
<path d="M14.4022 16.3622C14.4021 16.7763 14.0664 17.1122 13.6522 17.1122C13.2381 17.1122 12.9023 16.7763 12.9022 16.3622V10.6659C12.9022 10.2517 13.238 9.91591 13.6522 9.91591C14.0665 9.91591 14.4022 10.2517 14.4022 10.6659V16.3622Z" fill="#737985"/>
</svg>
