<svg width="24" height="24" viewBox="0 0 24 24" fill="none" xmlns="http://www.w3.org/2000/svg">
<path fill-rule="evenodd" clip-rule="evenodd" d="M2.61817 4.28217C2.678 4.40918 2.75927 4.52874 2.86426 4.63373L3.77442 5.54389C3.76187 5.74772 3.75977 6.01267 3.75977 6.40033V9.49994H7.73048L9.23048 10.9999H8.49805V19.2499H17.4805L18.9785 20.748C18.8554 20.7487 18.7258 20.7499 18.5899 20.7499H5.41016C5.00251 20.7499 4.65104 20.751 4.36329 20.7275C4.06686 20.7032 3.772 20.6494 3.48829 20.5048C3.06493 20.2891 2.7206 19.9448 2.50489 19.5214C2.36035 19.2377 2.30646 18.9429 2.28223 18.6464C2.25872 18.3587 2.25977 18.0072 2.25977 17.5996V6.40033C2.25977 5.99268 2.25872 5.64121 2.28223 5.35346C2.30647 5.05703 2.36034 4.76217 2.50489 4.47846C2.53933 4.41087 2.57738 4.34552 2.61817 4.28217ZM3.75977 17.5996C3.75977 18.032 3.75999 18.3119 3.77735 18.5244C3.794 18.7279 3.82292 18.8037 3.8418 18.8408C3.91365 18.9816 4.02814 19.0961 4.16895 19.1679C4.20602 19.1868 4.28182 19.2157 4.48536 19.2324C4.69786 19.2497 4.97776 19.2499 5.41016 19.2499H6.99805V10.9999H3.75977V17.5996Z" fill="#737985"/>
<path d="M18.5899 3.24994C18.9973 3.24994 19.3481 3.24892 19.6357 3.2724C19.9323 3.29663 20.2279 3.35047 20.5117 3.49506C20.9349 3.71076 21.2785 4.05529 21.4941 4.47846C21.6387 4.76217 21.6926 5.05703 21.7168 5.35346C21.7403 5.64121 21.7402 5.99268 21.7402 6.40033V17.5996C21.7402 18.0072 21.7403 18.3587 21.7168 18.6464C21.6926 18.9429 21.6387 19.2377 21.4941 19.5214C21.4592 19.59 21.4194 19.6555 21.3779 19.7197C21.318 19.5921 21.2373 19.4716 21.1318 19.3662L20.2236 18.458C20.2365 18.2539 20.2402 17.9885 20.2402 17.5996V10.9999H12.7656L11.2656 9.49994H20.2402V6.40033C20.2402 5.96793 20.239 5.68803 20.2217 5.47553C20.205 5.27202 20.1771 5.19619 20.1582 5.15912C20.0863 5.01809 19.9711 4.90384 19.8301 4.83197C19.793 4.81308 19.7173 4.78416 19.5137 4.76752C19.3012 4.75018 19.022 4.74994 18.5899 4.74994H6.51563L5.01661 3.25092C5.14119 3.25017 5.27247 3.24994 5.41016 3.24994H18.5899Z" fill="#737985"/>
<path d="M6.12501 7.89447C6.01386 7.95962 5.88619 7.99994 5.74805 7.99994C5.33385 7.99994 4.99805 7.66415 4.99805 7.24994C4.99806 7.11168 5.03729 6.98323 5.10255 6.87201L6.12501 7.89447Z" fill="#737985"/>
<path d="M10.5479 6.49994C10.9621 6.49994 11.2979 6.83574 11.2979 7.24994C11.2979 7.66416 10.9621 7.99994 10.5479 7.99994C10.1337 7.99984 9.79786 7.6641 9.79786 7.24994C9.79787 6.8358 10.1337 6.50004 10.5479 6.49994Z" fill="#737985"/>
<path d="M3.21778 3.21967C3.51067 2.92678 3.98543 2.92678 4.27833 3.21967L20.7783 19.7197C21.0712 20.0126 21.0712 20.4873 20.7783 20.7802C20.4854 21.0731 20.0107 21.0731 19.7178 20.7802L3.21778 4.28022C2.92489 3.98732 2.92489 3.51256 3.21778 3.21967Z" fill="#737985"/>
</svg>
