<svg width="24" height="24" viewBox="0 0 24 24" fill="none" xmlns="http://www.w3.org/2000/svg">
<path d="M2.25 16.5996V15H3.75V16.5996C3.75 17.032 3.75021 17.3119 3.76758 17.5244C3.78423 17.728 3.81314 17.8038 3.83203 17.8408C3.90388 17.9817 4.01835 18.0961 4.15918 18.168C4.19624 18.1869 4.27203 18.2158 4.47558 18.2324C4.68809 18.2498 4.96797 18.25 5.40039 18.25H18.5996C19.032 18.25 19.3119 18.2498 19.5244 18.2324C19.728 18.2158 19.8038 18.1869 19.8408 18.168C19.9816 18.0961 20.0961 17.9817 20.168 17.8408C20.1869 17.8038 20.2158 17.728 20.2324 17.5244C20.2498 17.3119 20.25 17.032 20.25 16.5996V14.9863C20.25 14.5721 20.5858 14.2363 21 14.2363C21.4142 14.2363 21.75 14.5721 21.75 14.9863V16.5996C21.75 17.0073 21.751 17.3587 21.7275 17.6465C21.7033 17.9429 21.6494 18.2378 21.5049 18.5215C21.2892 18.9449 20.9448 19.2892 20.5215 19.5049C20.2378 19.6494 19.9429 19.7033 19.6465 19.7275C19.3587 19.7511 19.0073 19.75 18.5996 19.75H5.40039C4.99272 19.75 4.64127 19.7511 4.35351 19.7275C4.05708 19.7033 3.76223 19.6494 3.47851 19.5049C3.05515 19.2892 2.71083 18.9449 2.49511 18.5215C2.35056 18.2378 2.29669 17.9429 2.27246 17.6465C2.24895 17.3587 2.25 17.0073 2.25 16.5996ZM20.25 9.00391V7.4004C20.25 6.96798 20.2498 6.6881 20.2324 6.47559C20.2158 6.27204 20.1869 6.19625 20.168 6.15919C20.0961 6.01836 19.9816 5.90389 19.8408 5.83204C19.8038 5.81315 19.728 5.78423 19.5244 5.76759C19.3119 5.75022 19.032 5.75001 18.5996 5.75001H5.40039C4.96797 5.75001 4.68809 5.75022 4.47558 5.76759C4.27203 5.78423 4.19624 5.81315 4.15918 5.83204C4.01835 5.90389 3.90388 6.01836 3.83203 6.15919C3.81314 6.19625 3.78423 6.27204 3.76758 6.47559C3.75021 6.6881 3.75 6.96798 3.75 7.4004V9.00001H2.25V7.4004C2.25 6.99273 2.24895 6.64128 2.27246 6.35352C2.29669 6.05709 2.35056 5.76224 2.49511 5.47852C2.71083 5.05516 3.05515 4.71084 3.47851 4.49512C3.76223 4.35057 4.05708 4.2967 4.35351 4.27247C4.64127 4.24896 4.99272 4.25001 5.40039 4.25001H18.5996C19.0073 4.25001 19.3587 4.24896 19.6465 4.27247C19.9429 4.2967 20.2378 4.35057 20.5215 4.49512C20.9448 4.71084 21.2892 5.05516 21.5049 5.47852C21.6494 5.76224 21.7033 6.05709 21.7275 6.35352C21.751 6.64128 21.75 6.99273 21.75 7.4004V9.00391C21.7498 9.41792 21.4141 9.75391 21 9.75391C20.5859 9.75391 20.2502 9.41792 20.25 9.00391Z" fill="#737985"/>
<path d="M17.25 12C17.25 9.92894 18.9289 8.25001 21 8.25001C21.4142 8.25001 21.75 8.58579 21.75 9.00001C21.75 9.41422 21.4142 9.75001 21 9.75001C19.7574 9.75001 18.75 10.7574 18.75 12C18.75 13.2426 19.7574 14.25 21 14.25C21.4142 14.25 21.75 14.5858 21.75 15C21.75 15.4142 21.4142 15.75 21 15.75C18.9289 15.75 17.25 14.0711 17.25 12Z" fill="#737985"/>
<path d="M5.25 12C5.25 10.7574 4.24264 9.75001 3 9.75001C2.58579 9.75001 2.25 9.41422 2.25 9.00001C2.25 8.58579 2.58579 8.25001 3 8.25001C5.07107 8.25001 6.75 9.92894 6.75 12C6.75 14.0711 5.07107 15.75 3 15.75C2.58579 15.75 2.25 15.4142 2.25 15C2.25 14.5858 2.58579 14.25 3 14.25C4.24264 14.25 5.25 13.2426 5.25 12Z" fill="#737985"/>
<path d="M10.5 9.63016C10.5 9.35402 10.2761 9.13016 10 9.13016C9.72386 9.13016 9.5 9.35402 9.5 9.63016C9.5 9.9063 9.72386 10.1302 10 10.1302C10.2761 10.1302 10.5 9.9063 10.5 9.63016ZM11.5 9.63016C11.5 10.4586 10.8284 11.1302 10 11.1302C9.17157 11.1302 8.5 10.4586 8.5 9.63016C8.5 8.80173 9.17157 8.13016 10 8.13016C10.8284 8.13016 11.5 8.80173 11.5 9.63016Z" fill="#737985"/>
<path d="M14.5 14.6422C14.5 14.366 14.2761 14.1422 14 14.1422C13.7239 14.1422 13.5 14.366 13.5 14.6422C13.5 14.9183 13.7239 15.1422 14 15.1422C14.2761 15.1422 14.5 14.9183 14.5 14.6422ZM15.5 14.6422C15.5 15.4706 14.8284 16.1422 14 16.1422C13.1716 16.1422 12.5 15.4706 12.5 14.6422C12.5 13.8137 13.1716 13.1422 14 13.1422C14.8284 13.1422 15.5 13.8137 15.5 14.6422Z" fill="#737985"/>
<path d="M15.0117 8.43067C15.3262 8.16115 15.7997 8.19738 16.0693 8.51172C16.3389 8.82617 16.3026 9.29975 15.9883 9.56934L8.98828 15.5693C8.67384 15.8389 8.20025 15.8026 7.93066 15.4883C7.66114 15.1738 7.69737 14.7003 8.01172 14.4307L15.0117 8.43067Z" fill="#737985"/>
</svg>
