<svg width="24" height="24" viewBox="0 0 24 24" fill="none" xmlns="http://www.w3.org/2000/svg">
<path d="M12.9 14.85C13.3143 14.85 13.65 15.1858 13.65 15.6C13.65 16.0142 13.3143 16.35 12.9 16.35H8.40004C7.98583 16.35 7.65004 16.0142 7.65004 15.6C7.65004 15.1858 7.98583 14.85 8.40004 14.85H12.9Z" fill="#737985"/>
<path d="M15.6002 7.65C16.0144 7.65011 16.3502 7.98585 16.3502 8.4C16.3502 8.81415 16.0144 9.14989 15.6002 9.15H8.40004C7.98583 9.15 7.65004 8.81421 7.65004 8.4C7.65004 7.98579 7.98583 7.65 8.40004 7.65H15.6002Z" fill="#737985"/>
<path d="M15.6002 11.25C16.0144 11.2501 16.3502 11.5859 16.3502 12C16.3502 12.4141 16.0144 12.7499 15.6002 12.75H8.40004C7.98583 12.75 7.65004 12.4142 7.65004 12C7.65004 11.5858 7.98583 11.25 8.40004 11.25H15.6002Z" fill="#737985"/>
<path d="M19.25 4.5C19.25 4.08579 18.9143 3.75 18.5 3.75H5.50004C5.08582 3.75 4.75004 4.08579 4.75004 4.5V19.5C4.75004 19.9142 5.08582 20.25 5.50004 20.25H18.5C18.9143 20.25 19.25 19.9142 19.25 19.5V4.5ZM20.75 19.5C20.75 20.7426 19.7427 21.75 18.5 21.75H5.50004C4.2574 21.75 3.25004 20.7426 3.25004 19.5V4.5C3.25004 3.25736 4.2574 2.25 5.50004 2.25H18.5C19.7427 2.25 20.75 3.25736 20.75 4.5V19.5Z" fill="#737985"/>
</svg>
