<svg width="24" height="24" viewBox="0 0 24 24" fill="none" xmlns="http://www.w3.org/2000/svg">
<path d="M17.8213 9.89813C18.0907 9.9244 18.3251 10.0939 18.4346 10.3415C18.806 11.1819 19.1609 11.689 19.5674 12.027C19.968 12.3602 20.4837 12.5824 21.2764 12.7341C21.5247 12.7816 21.7327 12.9515 21.8291 13.1852C21.9254 13.4192 21.8978 13.6865 21.7549 13.8952C21.4257 14.3758 20.9569 14.9913 20.4092 15.5075C19.9732 15.9183 19.4131 16.3358 18.7744 16.5085C16.6145 20.0807 12.8407 21.4137 8.8252 21.3932H8.82324L8.82031 21.3942C7.2242 21.3934 5.53531 20.9202 4.23926 19.7028C2.93081 18.4737 2.11727 16.5747 2.11719 13.9138C2.11719 13.4995 2.45297 13.1638 2.86719 13.1638H16.0303C16.0637 13.097 16.0913 13.0295 16.1074 12.9772L16.1084 12.9723C16.0224 12.395 16.1848 11.8587 16.3857 11.4304C16.6025 10.9682 16.9075 10.5379 17.1338 10.2145C17.289 9.99274 17.5519 9.87186 17.8213 9.89813ZM17.708 12.154C17.6053 12.3953 17.571 12.5797 17.5859 12.7253L17.6084 12.864C17.6347 13.0872 17.5756 13.3045 17.54 13.4196C17.4948 13.566 17.4309 13.7198 17.3584 13.861C17.288 13.998 17.1939 14.1539 17.0771 14.2878C17.0189 14.3546 16.9375 14.4367 16.832 14.5065C16.7305 14.5738 16.5561 14.6638 16.3281 14.6638H3.64453C3.77921 16.5784 4.42995 17.8242 5.2666 18.61C6.21927 19.5047 7.50744 19.8942 8.8252 19.8942H8.8291C12.6293 19.9144 15.8754 18.6349 17.6445 15.4704C17.7656 15.2538 17.9863 15.1114 18.2334 15.0895C18.526 15.0638 18.9222 14.848 19.3809 14.4157C19.5505 14.2558 19.7118 14.0779 19.8662 13.8972C19.4034 13.7229 18.9855 13.4939 18.6084 13.1804C18.2631 12.8932 17.9703 12.5511 17.708 12.154Z" fill="#737985"/>
<path d="M6.65137 16.4382C6.97876 16.1847 7.44946 16.2446 7.70312 16.572C7.95663 16.8994 7.89666 17.3701 7.56934 17.6237C7.05956 18.0187 6.60027 18.2756 6.0293 18.4147C5.49193 18.5456 4.89447 18.5612 4.15234 18.5612C3.73822 18.5612 3.40249 18.2253 3.40234 17.8112C3.40234 17.397 3.73813 17.0612 4.15234 17.0612C4.90998 17.0612 5.33605 17.0393 5.6748 16.9567C5.97991 16.8824 6.25033 16.749 6.65137 16.4382Z" fill="#737985"/>
<path d="M8.03906 15.8884V15.8786C8.03906 15.4644 8.37485 15.1286 8.78906 15.1286C9.20328 15.1286 9.53906 15.4644 9.53906 15.8786V15.8884C9.53906 16.3026 9.20328 16.6384 8.78906 16.6384C8.37485 16.6384 8.03906 16.3026 8.03906 15.8884Z" fill="#737985"/>
<path d="M16.8538 5.18793C16.8538 5.02062 16.7672 4.87062 16.6229 4.78409L13.1247 2.76486C12.9804 2.67832 12.8015 2.67832 12.6629 2.76486L9.16474 4.78985C9.02043 4.87062 8.93384 5.02639 8.93384 5.1937V9.22639C8.93384 9.30716 8.95693 9.38793 8.99734 9.45716C9.03774 9.52639 9.09547 9.58409 9.17051 9.62447L12.6687 11.6437C12.813 11.7302 12.992 11.7302 13.1305 11.6437L16.6287 9.62447C16.773 9.5437 16.8596 9.38793 16.8596 9.22062L16.8538 5.18793ZM14.9142 5.67255V8.75909C14.8969 9.0187 14.6776 9.21485 14.4178 9.19755C14.412 9.19755 14.412 9.19755 14.4063 9.19755C14.1696 9.20332 13.9502 9.09947 13.7944 8.92639L11.774 6.50909V8.74178C11.774 8.98985 11.5719 9.19178 11.3237 9.19178C11.0755 9.19178 10.8734 8.98985 10.8734 8.74178V5.65524C10.8907 5.39562 11.1101 5.19947 11.3699 5.21678C11.3756 5.21678 11.3756 5.21678 11.3814 5.21678C11.6181 5.21101 11.8375 5.31486 11.9933 5.48793L12.1319 5.64947L14.0137 7.90524V5.67255C14.0137 5.42447 14.2158 5.22255 14.464 5.22255C14.7122 5.22255 14.9142 5.42447 14.9142 5.67255Z" fill="#737985"/>
<path d="M8.69763 13.7086H7.19763V11.0269H4.72498V13.7535H3.22498V10.7769C3.22498 10.0866 3.78462 9.52694 4.47498 9.52694H7.44763C8.13799 9.52694 8.69763 10.0866 8.69763 10.7769V13.7086Z" fill="#737985"/>
</svg>
