<svg width="24" height="24" viewBox="0 0 24 24" fill="none" xmlns="http://www.w3.org/2000/svg">
<path d="M18.423 8.59909C18.423 8.16519 18.0717 7.81321 17.6379 7.81296H6.37419C5.94014 7.81296 5.58806 8.16504 5.58806 8.59909V18.8383C5.58806 19.2724 5.94014 19.6245 6.37419 19.6245H17.6379C18.0717 19.6242 18.423 19.2722 18.423 18.8383V8.59909ZM19.923 18.8383C19.923 20.1007 18.9001 21.1242 17.6379 21.1245H6.37419C5.11171 21.1245 4.08806 20.1008 4.08806 18.8383V8.59909C4.08806 7.33661 5.11171 6.31296 6.37419 6.31296H17.6379C18.9001 6.31321 19.923 7.33677 19.923 8.59909V18.8383Z" fill="#737985"/>
<path d="M16.6837 5.05055C16.6223 4.62238 16.2264 4.32399 15.7979 4.38332L6.25531 5.70636C5.86668 5.76024 5.57768 6.09281 5.57768 6.48516L5.57697 8.67636L4.0774 8.67618L4.07715 6.48511C4.07715 5.34393 4.91893 4.37726 6.0493 4.22055L15.5919 2.89752C16.8383 2.72478 17.99 3.59219 18.1686 4.83778L18.3279 5.94947L18.43 6.67573L17.6874 6.78115L16.9447 6.8856L16.8428 6.16031L16.6837 5.05055Z" fill="#737985"/>
<path d="M14.5983 12.4566C15.0125 12.4566 15.3483 12.7924 15.3483 13.2066C15.3483 13.6209 15.0125 13.9566 14.5983 13.9566H8.36001C7.9458 13.9566 7.61001 13.6209 7.61001 13.2066C7.61001 12.7924 7.9458 12.4566 8.36001 12.4566H14.5983Z" fill="#737985"/>
<path d="M12.6491 15.5285C13.0633 15.5285 13.3991 15.8643 13.3991 16.2785C13.3991 16.6927 13.0633 17.0285 12.6491 17.0285H8.36001C7.9458 17.0285 7.61001 16.6927 7.61001 16.2785C7.61001 15.8643 7.9458 15.5285 8.36001 15.5285H12.6491Z" fill="#737985"/>
</svg>
