<svg width="24" height="24" viewBox="0 0 24 24" fill="none" xmlns="http://www.w3.org/2000/svg">
<path d="M17.0752 18.1904C17.0752 18.6228 17.074 18.9027 17.0566 19.1152C17.04 19.3187 17.0121 19.3946 16.9932 19.4316C16.9213 19.5726 16.8061 19.6869 16.665 19.7588C16.6279 19.7777 16.552 19.8066 16.3486 19.8232C16.1362 19.8406 15.8569 19.8408 15.4248 19.8408H8.5254C8.09298 19.8408 7.8131 19.8406 7.60059 19.8232C7.39704 19.8066 7.32125 19.7777 7.28419 19.7588C7.14336 19.6869 7.02889 19.5725 6.95704 19.4316C6.93815 19.3946 6.90923 19.3188 6.89259 19.1152C6.87522 18.9027 6.87501 18.6228 6.87501 18.1904V5.80957C6.87501 5.37737 6.87524 5.0982 6.89259 4.88574C6.90923 4.68206 6.93814 4.60643 6.95704 4.56934C7.02891 4.42828 7.14315 4.31312 7.28419 4.24121C7.32125 4.22233 7.39707 4.19438 7.60059 4.17773C7.8131 4.16037 8.09298 4.15918 8.5254 4.15918H15.4248C15.8569 4.15918 16.1362 4.16041 16.3486 4.17773C16.5517 4.19432 16.6278 4.22232 16.665 4.24121C16.8062 4.31312 16.9213 4.42821 16.9932 4.56934C17.0121 4.60647 17.04 4.68224 17.0566 4.88574C17.074 5.09821 17.0752 5.37733 17.0752 5.80957V18.1904ZM18.5752 5.80957C18.5752 5.40207 18.5752 5.05136 18.5518 4.76367C18.5275 4.46716 18.4747 4.17148 18.3301 3.8877C18.1144 3.46455 17.7698 3.12096 17.3467 2.90527C17.063 2.76075 16.768 2.70686 16.4717 2.68262C16.1839 2.65911 15.8325 2.65918 15.4248 2.65918H8.5254C8.11773 2.65918 7.76628 2.65911 7.47852 2.68262C7.18209 2.70685 6.88724 2.76071 6.60352 2.90527C6.18034 3.12094 5.83582 3.46453 5.62012 3.8877C5.47553 4.17148 5.42169 4.46716 5.39747 4.76367C5.37399 5.05135 5.37501 5.4021 5.37501 5.80957V18.1904C5.37501 18.5981 5.37396 18.9496 5.39747 19.2373C5.4217 19.5337 5.47557 19.8286 5.62012 20.1123C5.83584 20.5357 6.18016 20.88 6.60352 21.0957C6.88724 21.2403 7.18209 21.2941 7.47852 21.3184C7.76628 21.3419 8.11773 21.3408 8.5254 21.3408H15.4248C15.8325 21.3408 16.1839 21.3419 16.4717 21.3184C16.7681 21.2941 17.063 21.2402 17.3467 21.0957C17.77 20.88 18.1144 20.5356 18.3301 20.1123C18.4746 19.8286 18.5275 19.5337 18.5518 19.2373C18.5753 18.9496 18.5752 18.5981 18.5752 18.1904V5.80957Z" fill="#737985"/>
<path d="M2.19923 8.53218V15.4697C2.19923 15.8773 2.19818 16.2288 2.22169 16.5166C2.24592 16.813 2.29979 17.1078 2.44434 17.3916C2.66006 17.8149 3.00438 18.1592 3.42774 18.375C3.71146 18.5195 4.00631 18.5734 4.30274 18.5976C4.59049 18.6211 4.94195 18.6201 5.34962 18.6201H6.4502V17.1201H5.34962C4.9172 17.1201 4.63731 17.1199 4.42481 17.1025C4.22126 17.0858 4.14547 17.0569 4.10841 17.038C3.96758 16.9662 3.85311 16.8517 3.78126 16.7109C3.76237 16.6738 3.73345 16.598 3.7168 16.3945C3.69944 16.182 3.69923 15.9021 3.69923 15.4697V8.53218C3.69923 8.09976 3.69944 7.81988 3.7168 7.60737C3.73345 7.40388 3.76237 7.32803 3.78126 7.29097C3.85312 7.15016 3.96759 7.03566 4.10841 6.96382C4.14547 6.94493 4.22125 6.91602 4.42481 6.89937C4.63731 6.882 4.9172 6.88179 5.34962 6.88179H6.41798V5.38179H5.34962C4.94195 5.38179 4.59049 5.38171 4.30274 5.40522C4.00634 5.42946 3.71142 5.48238 3.42774 5.6269C3.00438 5.84262 2.66006 6.18695 2.44434 6.6103C2.29979 6.89401 2.24592 7.18888 2.22169 7.4853C2.19818 7.77306 2.19923 8.12451 2.19923 8.53218Z" fill="#737985"/>
<path d="M21.8008 8.53223V15.4697C21.8008 15.8774 21.8018 16.2288 21.7783 16.5166C21.7541 16.813 21.7002 17.1079 21.5557 17.3916C21.34 17.815 20.9956 18.1593 20.5723 18.375C20.2886 18.5196 19.9937 18.5734 19.6973 18.5977C19.4095 18.6212 19.0581 18.6201 18.6504 18.6201H17.5498V17.1201H18.6504C19.0828 17.1201 19.3627 17.1199 19.5752 17.1025C19.7788 17.0859 19.8545 17.057 19.8916 17.0381C20.0324 16.9662 20.1469 16.8518 20.2188 16.7109C20.2376 16.6739 20.2666 16.5981 20.2832 16.3945C20.3006 16.182 20.3008 15.9021 20.3008 15.4697V8.53223C20.3008 8.09981 20.3006 7.81993 20.2832 7.60742C20.2666 7.40393 20.2376 7.32808 20.2188 7.29102C20.1469 7.15021 20.0324 7.03571 19.8916 6.96387C19.8545 6.94498 19.7788 6.91607 19.5752 6.89942C19.3627 6.88205 19.0828 6.88184 18.6504 6.88184H17.582V5.38184H18.6504C19.0581 5.38184 19.4095 5.38176 19.6973 5.40527C19.9937 5.42951 20.2886 5.48243 20.5723 5.62695C20.9956 5.84267 21.34 6.187 21.5557 6.61035C21.7002 6.89406 21.7541 7.18893 21.7783 7.48535C21.8018 7.77311 21.8008 8.12456 21.8008 8.53223Z" fill="#737985"/>
<path d="M14.2315 7.50098C14.6456 7.50104 14.9815 7.8368 14.9815 8.25098C14.9815 8.66515 14.6456 9.00091 14.2315 9.00098L9.73829 9.00098C9.32407 9.00098 8.98829 8.66519 8.98829 8.25098C8.98829 7.83676 9.32407 7.50098 9.73829 7.50098L14.2315 7.50098Z" fill="#737985"/>
<path d="M15.2285 10.501C15.6425 10.5012 15.9785 10.8369 15.9785 11.251C15.9785 11.665 15.6425 12.0007 15.2285 12.001L8.75782 12.001C8.34361 12.001 8.00782 11.6652 8.00782 11.251C8.00782 10.8368 8.34361 10.501 8.75782 10.501L15.2285 10.501Z" fill="#737985"/>
</svg>
