<svg width="24" height="24" viewBox="0 0 24 24" fill="none" xmlns="http://www.w3.org/2000/svg">
<path d="M3.49032 17.3034V8.10422C3.49032 7.69655 3.48927 7.34509 3.51278 7.05734C3.53701 6.76091 3.59089 6.46606 3.73544 6.18234C3.95115 5.75898 4.29547 5.41466 4.71884 5.19894C5.00255 5.05439 5.2974 5.00052 5.59384 4.97629C5.88159 4.95278 6.23305 4.95382 6.64071 4.95382H11.4708C11.885 4.95382 12.2208 5.28961 12.2208 5.70382C12.2208 6.11804 11.885 6.45382 11.4708 6.45382H6.64071C6.2083 6.45382 5.92841 6.45404 5.71591 6.4714C5.51236 6.48805 5.43657 6.51697 5.3995 6.53586C5.25868 6.60771 5.14421 6.72218 5.07235 6.863C5.05347 6.90007 5.02455 6.97586 5.0079 7.17941C4.99054 7.39191 4.99032 7.6718 4.99032 8.10422V17.3034C4.99032 17.7358 4.99054 18.0157 5.0079 18.2282C5.02455 18.4318 5.05347 18.5076 5.07235 18.5446C5.14421 18.6855 5.25868 18.7999 5.3995 18.8718C5.43657 18.8907 5.51236 18.9196 5.71591 18.9362C5.92841 18.9536 6.2083 18.9538 6.64071 18.9538H15.8399C16.2723 18.9538 16.5522 18.9536 16.7647 18.9362C16.9683 18.9196 17.0441 18.8907 17.0811 18.8718C17.222 18.7999 17.3364 18.6855 17.4083 18.5446C17.4272 18.5076 17.4561 18.4318 17.4727 18.2282C17.4901 18.0157 17.4903 17.7358 17.4903 17.3034V11.9851C17.4904 11.571 17.8262 11.2351 18.2403 11.2351C18.6545 11.2351 18.9902 11.571 18.9903 11.9851V17.3034C18.9903 17.7111 18.9914 18.0626 18.9679 18.3503C18.9436 18.6467 18.8898 18.9416 18.7452 19.2253C18.5295 19.6487 18.1852 19.993 17.7618 20.2087C17.4781 20.3533 17.1832 20.4071 16.8868 20.4314C16.5991 20.4549 16.2476 20.4538 15.8399 20.4538H6.64071C6.23305 20.4538 5.88159 20.4549 5.59384 20.4314C5.2974 20.4071 5.00255 20.3533 4.71884 20.2087C4.29547 19.993 3.95115 19.6487 3.73544 19.2253C3.59089 18.9416 3.53701 18.6467 3.51278 18.3503C3.48927 18.0626 3.49032 17.7111 3.49032 17.3034Z" fill="#737985"/>
<path d="M19.0094 5.97824C19.0117 5.85834 18.9906 5.73901 18.9469 5.62734C18.9032 5.51558 18.8377 5.41316 18.7545 5.32663C18.6713 5.24009 18.5716 5.17072 18.4616 5.12261C18.3517 5.07455 18.2333 5.04884 18.1134 5.04644C17.9934 5.04409 17.8734 5.06513 17.7616 5.10889C17.65 5.15261 17.5483 5.21827 17.4618 5.3013L11.3872 11.1424L11.3619 12.4351L12.6546 12.4604L18.7292 6.61935C18.8156 6.5362 18.8852 6.43629 18.9332 6.32642C18.9812 6.21658 19.0071 6.09808 19.0094 5.97824ZM20.5091 6.00763C20.5029 6.32448 20.4344 6.6373 20.3075 6.92768C20.1805 7.21803 19.9972 7.48079 19.7688 7.70048L13.4702 13.7569C13.3268 13.8947 13.1345 13.9701 12.9357 13.9662L10.5826 13.9201C10.1686 13.912 9.83947 13.5696 9.84749 13.1556L9.8936 10.8025C9.8975 10.6037 9.98039 10.4145 10.1237 10.2766L16.4213 4.22016C16.6498 4.00041 16.9203 3.82775 17.2156 3.71219C17.5107 3.59674 17.826 3.54052 18.1428 3.54673C18.4597 3.55299 18.7725 3.6214 19.0629 3.74839C19.3533 3.87543 19.616 4.05859 19.8357 4.28707C20.0554 4.51558 20.2281 4.78519 20.3437 5.08038C20.4592 5.37555 20.5153 5.69072 20.5091 6.00763Z" fill="#737985"/>
<path d="M14.8519 5.72909C15.1505 5.44199 15.6252 5.45129 15.9123 5.74987L18.2192 8.14905C18.506 8.44764 18.4969 8.9224 18.1985 9.20939C17.9 9.49638 17.4252 9.48686 17.1381 9.18861L14.8312 6.78943C14.5441 6.49086 14.5534 6.01619 14.8519 5.72909Z" fill="#737985"/>
</svg>
