<svg width="24" height="24" viewBox="0 0 24 24" fill="none" xmlns="http://www.w3.org/2000/svg">
<path fill-rule="evenodd" clip-rule="evenodd" d="M11.997 13.9314V22C9.5042 21.9985 7.10179 21.0586 5.26042 19.3644C3.41906 17.6702 2.27142 15.3439 2.04235 12.8411C1.81327 10.3383 2.51927 7.8395 4.02204 5.83416C5.5248 3.82882 7.71602 2.46147 10.1664 2L11.997 3.84569H16.9985C18.3232 3.84569 19.5939 4.3756 20.5316 5.31914C21.4692 6.26268 21.9974 7.54276 22 8.87847V17.9758C21.9974 19.044 21.5746 20.0676 20.8245 20.822C20.0745 21.5763 19.0583 22 17.9988 22V19.9829C18.5294 19.9829 19.0382 19.7703 19.4134 19.392C19.7886 19.0138 19.9994 18.5007 19.9994 17.9657C19.9994 17.4307 19.7886 16.9177 19.4134 16.5394C19.0382 16.1611 18.5294 15.9486 17.9988 15.9486H13.9976L11.997 13.9314ZM17.4986 10.9057C17.8966 10.9057 18.2782 10.7463 18.5596 10.4626C18.841 10.1789 18.9991 9.79407 18.9991 9.39284C18.9991 8.9916 18.841 8.6068 18.5596 8.32309C18.2782 8.03937 17.8966 7.87998 17.4986 7.87998C17.1007 7.87998 16.7191 8.03937 16.4377 8.32309C16.1563 8.6068 15.9982 8.9916 15.9982 9.39284C15.9982 9.79407 16.1563 10.1789 16.4377 10.4626C16.7191 10.7463 17.1007 10.9057 17.4986 10.9057Z" fill="#737985"/>
</svg>
