<svg width="24" height="24" viewBox="0 0 24 24" fill="none" xmlns="http://www.w3.org/2000/svg">
<path d="M20.2471 6.94532L14.0841 12.25C13.8103 12.4856 13.5737 12.6908 13.3643 12.8447C13.1474 13.0042 12.9155 13.1431 12.6378 13.2227C12.2197 13.3423 11.7753 13.3383 11.3594 13.2109C11.0834 13.1264 10.8546 12.9826 10.6407 12.8193C10.4341 12.6616 10.2001 12.4525 9.93073 12.2119L3.75886 6.7002C3.75313 6.88029 3.75007 7.10466 3.75007 7.4004V16.5996C3.75007 17.032 3.75028 17.3119 3.76765 17.5244C3.7843 17.728 3.81321 17.8038 3.8321 17.8408C3.90395 17.9817 4.01842 18.0961 4.15925 18.168C4.19631 18.1869 4.2721 18.2158 4.47565 18.2324C4.68816 18.2498 4.96804 18.25 5.40046 18.25H18.5997C19.0321 18.25 19.312 18.2498 19.5245 18.2324C19.728 18.2158 19.8038 18.1869 19.8409 18.168C19.9817 18.0961 20.0962 17.9816 20.168 17.8408C20.1869 17.8038 20.2158 17.728 20.2325 17.5244C20.2499 17.3119 20.2501 17.032 20.2501 16.5996V7.4004C20.2501 7.22573 20.2484 7.07569 20.2471 6.94532ZM4.95026 5.75196L10.9307 11.0928C11.2173 11.3487 11.4008 11.5124 11.5508 11.627C11.6935 11.7359 11.7606 11.7646 11.7989 11.7764C11.9375 11.8188 12.0853 11.8202 12.2247 11.7803C12.2632 11.7693 12.3311 11.742 12.4757 11.6357C12.6278 11.5239 12.8144 11.3638 13.1055 11.1133L19.3253 5.75977C19.1409 5.75322 18.9095 5.75001 18.5997 5.75001H5.40046C5.22797 5.75001 5.07948 5.75075 4.95026 5.75196ZM21.7501 16.5996C21.7501 17.0073 21.7501 17.3587 21.7266 17.6465C21.7024 17.9429 21.6495 18.2378 21.505 18.5215C21.2892 18.9449 20.9449 19.2892 20.5216 19.5049C20.2378 19.6494 19.943 19.7033 19.6466 19.7275C19.3588 19.7511 19.0073 19.75 18.5997 19.75H5.40046C4.9928 19.75 4.64134 19.7511 4.35358 19.7275C4.05715 19.7033 3.7623 19.6494 3.47858 19.5049C3.05522 19.2892 2.7109 18.9449 2.49519 18.5215C2.35063 18.2378 2.29676 17.9429 2.27253 17.6465C2.24902 17.3587 2.25007 17.0073 2.25007 16.5996V7.4004C2.25007 6.99273 2.24902 6.64128 2.27253 6.35352C2.29676 6.05709 2.35063 5.76224 2.49519 5.47852C2.7109 5.05516 3.05522 4.71084 3.47858 4.49512C3.7623 4.35057 4.05715 4.2967 4.35358 4.27247C4.64134 4.24896 4.9928 4.25001 5.40046 4.25001H18.5997C19.0073 4.25001 19.3588 4.24896 19.6466 4.27247C19.943 4.2967 20.2378 4.35057 20.5216 4.49512C20.9449 4.71084 21.2892 5.05516 21.505 5.47852C21.6495 5.76221 21.7024 6.05712 21.7266 6.35352C21.7501 6.64128 21.7501 6.99273 21.7501 7.4004V16.5996Z" fill="#737985"/>
</svg>
