<svg width="24" height="24" viewBox="0 0 24 24" fill="none" xmlns="http://www.w3.org/2000/svg">
<path d="M20.25 6.96941C20.25 6.53699 20.2498 6.2571 20.2324 6.0446C20.2158 5.84105 20.1869 5.76526 20.168 5.7282C20.0961 5.58737 19.9816 5.4729 19.8408 5.40105C19.8038 5.38216 19.728 5.35324 19.5244 5.33659C19.3119 5.31923 19.032 5.31902 18.5996 5.31902H5.40039C4.96798 5.31902 4.68809 5.31923 4.47559 5.33659C4.27203 5.35324 4.19625 5.38216 4.15918 5.40105C4.01835 5.4729 3.90388 5.58737 3.83203 5.7282C3.81314 5.76526 3.78423 5.84105 3.76758 6.0446C3.75022 6.2571 3.75 6.53699 3.75 6.96941V18.2214C3.75 18.6536 3.75024 18.9327 3.76758 19.1452C3.78421 19.3488 3.81314 19.4245 3.83203 19.4616C3.9039 19.6026 4.01816 19.7178 4.15918 19.7897C4.19624 19.8086 4.27207 19.8365 4.47559 19.8532C4.68809 19.8706 4.96798 19.8717 5.40039 19.8717H18.5996C19.032 19.8717 19.3119 19.8706 19.5244 19.8532C19.7279 19.8365 19.8038 19.8086 19.8408 19.7897C19.9818 19.7178 20.0961 19.6026 20.168 19.4616C20.1869 19.4245 20.2158 19.3488 20.2324 19.1452C20.2498 18.9327 20.25 18.6535 20.25 18.2214V6.96941ZM21.75 18.2214C21.75 18.6288 21.751 18.9796 21.7275 19.2673C21.7033 19.5638 21.6495 19.8594 21.5049 20.1432C21.2892 20.5664 20.9447 20.91 20.5215 21.1257C20.2378 21.2702 19.9429 21.3241 19.6465 21.3483C19.3587 21.3718 19.0073 21.3717 18.5996 21.3717H5.40039C4.99273 21.3717 4.64127 21.3718 4.35352 21.3483C4.05708 21.3241 3.76223 21.2702 3.47852 21.1257C3.05533 20.91 2.71081 20.5664 2.49512 20.1432C2.35052 19.8594 2.29669 19.5638 2.27246 19.2673C2.24898 18.9796 2.25 18.6288 2.25 18.2214V6.96941C2.25 6.56174 2.24895 6.21028 2.27246 5.92253C2.29669 5.6261 2.35057 5.33125 2.49512 5.04753C2.71083 4.62417 3.05515 4.27985 3.47852 4.06413C3.76223 3.91958 4.05708 3.86571 4.35352 3.84148C4.64127 3.81797 4.99273 3.81902 5.40039 3.81902H18.5996C19.0073 3.81902 19.3587 3.81797 19.6465 3.84148C19.9429 3.86571 20.2378 3.91958 20.5215 4.06413C20.9448 4.27985 21.2892 4.62417 21.5049 5.04753C21.6494 5.33125 21.7033 5.6261 21.7275 5.92253C21.751 6.21028 21.75 6.56174 21.75 6.96941V18.2214Z" fill="#737985"/>
<path d="M20.9999 9.09518V10.5952H2.93933V9.09518H20.9999Z" fill="#737985"/>
<path d="M9.21472 14.6961C9.21472 14.4039 9.21452 14.2294 9.20398 14.1004C9.19414 13.9803 9.17903 13.9668 9.18738 13.9832C9.16341 13.9361 9.12504 13.8978 9.078 13.8738C9.09438 13.8821 9.08088 13.867 8.96081 13.8572C8.83175 13.8466 8.65728 13.8465 8.36511 13.8465H7.56433C7.27216 13.8465 7.0977 13.8466 6.96863 13.8572C6.84857 13.867 6.83506 13.8821 6.85144 13.8738C6.8044 13.8978 6.76603 13.9361 6.74206 13.9832C6.75041 13.9668 6.7353 13.9803 6.72546 14.1004C6.71492 14.2294 6.71472 14.4039 6.71472 14.6961V15.4968C6.71472 15.789 6.71492 15.9635 6.72546 16.0925C6.7353 16.2126 6.75041 16.2261 6.74206 16.2097C6.76603 16.2568 6.8044 16.2951 6.85144 16.3191C6.83506 16.3108 6.84857 16.3259 6.96863 16.3357C7.0977 16.3463 7.27216 16.3465 7.56433 16.3465H8.36511C8.65728 16.3465 8.83175 16.3463 8.96081 16.3357C9.08088 16.3259 9.09438 16.3108 9.078 16.3191C9.12504 16.2951 9.16341 16.2568 9.18738 16.2097C9.17903 16.2261 9.19414 16.2126 9.20398 16.0925C9.21452 15.9635 9.21472 15.789 9.21472 15.4968V14.6961ZM10.7147 15.4968C10.7147 15.7643 10.7148 16.0103 10.6981 16.2146C10.6807 16.4277 10.6416 16.6612 10.5243 16.8914C10.3565 17.2205 10.0888 17.4883 9.75964 17.656C9.52945 17.7733 9.29593 17.8124 9.08289 17.8298C8.87861 17.8465 8.63261 17.8465 8.36511 17.8465H7.56433C7.29683 17.8465 7.05084 17.8465 6.84656 17.8298C6.63351 17.8124 6.39999 17.7733 6.1698 17.656C5.84069 17.4883 5.5729 17.2205 5.40515 16.8914C5.28786 16.6612 5.24875 16.4277 5.23132 16.2146C5.21463 16.0103 5.21472 15.7643 5.21472 15.4968V14.6961C5.21472 14.4286 5.21463 14.1826 5.23132 13.9783C5.24875 13.7652 5.28786 13.5317 5.40515 13.3015C5.5729 12.9724 5.84069 12.7046 6.1698 12.5369C6.39999 12.4196 6.63351 12.3805 6.84656 12.3631C7.05083 12.3464 7.29683 12.3465 7.56433 12.3465H8.36511C8.63261 12.3465 8.87861 12.3464 9.08289 12.3631C9.29593 12.3805 9.52945 12.4196 9.75964 12.5369C10.0888 12.7046 10.3565 12.9724 10.5243 13.3015C10.6416 13.5317 10.6807 13.7652 10.6981 13.9783C10.7148 14.1826 10.7147 14.4286 10.7147 14.6961V15.4968Z" fill="#737985"/>
<path d="M7.25 5.91479V3.37866C7.25 2.96445 7.58579 2.62866 8 2.62866C8.41421 2.62866 8.75 2.96445 8.75 3.37866V5.91479C8.75 6.32901 8.41421 6.66479 8 6.66479C7.58579 6.66479 7.25 6.32901 7.25 5.91479Z" fill="#737985"/>
<path d="M15.25 5.91479V3.37866C15.25 2.96445 15.5858 2.62866 16 2.62866C16.4142 2.62866 16.75 2.96445 16.75 3.37866V5.91479C16.75 6.32901 16.4142 6.66479 16 6.66479C15.5858 6.66479 15.25 6.32901 15.25 5.91479Z" fill="#737985"/>
</svg>
