<svg width="24" height="24" viewBox="0 0 24 24" fill="none" xmlns="http://www.w3.org/2000/svg">
<path d="M20.25 6.06902C20.25 5.6548 19.9142 5.31902 19.5 5.31902H4.5C4.08579 5.31902 3.75 5.6548 3.75 6.06902V19.1217C3.75021 19.5358 4.08591 19.8717 4.5 19.8717H19.5C19.9141 19.8717 20.2498 19.5358 20.25 19.1217V6.06902ZM21.75 19.1217C21.7498 20.3642 20.7425 21.3717 19.5 21.3717H4.5C3.25749 21.3717 2.25021 20.3642 2.25 19.1217V6.06902C2.25 4.82637 3.25736 3.81902 4.5 3.81902H19.5C20.7426 3.81902 21.75 4.82638 21.75 6.06902V19.1217Z" fill="#737985"/>
<path d="M20.9999 9.09518V10.5952H2.93933V9.09518H20.9999Z" fill="#737985"/>
<path d="M9.21472 14.0965C9.21472 13.9584 9.10279 13.8465 8.96472 13.8465H6.96472C6.82665 13.8465 6.71472 13.9584 6.71472 14.0965V16.0965C6.71472 16.2345 6.82665 16.3465 6.96472 16.3465H8.96472C9.10279 16.3465 9.21472 16.2345 9.21472 16.0965V14.0965ZM10.7147 16.0965C10.7147 17.0629 9.93122 17.8465 8.96472 17.8465H6.96472C5.99822 17.8465 5.21472 17.0629 5.21472 16.0965V14.0965C5.21472 13.13 5.99822 12.3465 6.96472 12.3465H8.96472C9.93122 12.3465 10.7147 13.13 10.7147 14.0965V16.0965Z" fill="#737985"/>
<path d="M7.25 5.91479V3.37866C7.25 2.96445 7.58579 2.62866 8 2.62866C8.41421 2.62866 8.75 2.96445 8.75 3.37866V5.91479C8.75 6.32901 8.41421 6.66479 8 6.66479C7.58579 6.66479 7.25 6.32901 7.25 5.91479Z" fill="#737985"/>
<path d="M15.25 5.91479V3.37866C15.25 2.96445 15.5858 2.62866 16 2.62866C16.4142 2.62866 16.75 2.96445 16.75 3.37866V5.91479C16.75 6.32901 16.4142 6.66479 16 6.66479C15.5858 6.66479 15.25 6.32901 15.25 5.91479Z" fill="#737985"/>
</svg>
