<svg width="24" height="24" viewBox="0 0 24 24" fill="none" xmlns="http://www.w3.org/2000/svg">
<path d="M13.9504 12.0003C13.9504 10.9234 13.0771 10.0502 12.0002 10.0501C10.9232 10.0501 10.05 10.9233 10.05 12.0003C10.0501 13.0771 10.9233 13.9505 12.0002 13.9505C13.077 13.9503 13.9503 13.0771 13.9504 12.0003ZM15.4504 12.0003C15.4503 13.9055 13.9054 15.4503 12.0002 15.4505C10.0949 15.4505 8.55011 13.9055 8.55 12.0003C8.55 10.0949 10.0948 8.55006 12.0002 8.55006C13.9055 8.55017 15.4504 10.0949 15.4504 12.0003Z" fill="#737985"/>
<path d="M20.25 12.0002C20.25 11.3315 20.1639 10.9492 20.0273 10.6399C19.8796 10.3055 19.6539 10.006 19.2578 9.49146C17.7981 7.59511 15.4313 5.55005 12 5.55005C8.56867 5.55005 6.20191 7.59511 4.74219 9.49146C4.3461 10.006 4.12038 10.3055 3.97266 10.6399C3.8361 10.9492 3.75 11.3315 3.75 12.0002C3.75002 12.6691 3.83603 13.0513 3.97266 13.3606C4.12038 13.695 4.3461 13.9945 4.74219 14.509C6.20193 16.4053 8.56881 18.4504 12 18.4504C15.4312 18.4504 17.7981 16.4053 19.2578 14.509C19.6539 13.9945 19.8796 13.695 20.0273 13.3606C20.164 13.0513 20.25 12.6691 20.25 12.0002ZM21.75 12.0002C21.75 12.8065 21.6452 13.4107 21.3994 13.967C21.1647 14.4983 20.8161 14.9449 20.4473 15.4241C18.8522 17.4962 16.0959 19.9504 12 19.9504C7.90413 19.9504 5.14777 17.4962 3.55273 15.4241C3.18391 14.9449 2.83533 14.4983 2.60059 13.967C2.35481 13.4107 2.25002 12.8065 2.25 12.0002C2.25 11.194 2.35486 10.5898 2.60059 10.0334C2.83531 9.50214 3.18392 9.05556 3.55273 8.57642C5.14775 6.50423 7.90406 4.05005 12 4.05005C16.0959 4.05005 18.8522 6.50423 20.4473 8.57642C20.8161 9.05556 21.1647 9.50214 21.3994 10.0334C21.6451 10.5898 21.75 11.194 21.75 12.0002Z" fill="#737985"/>
</svg>
