<svg width="24" height="24" viewBox="0 0 24 24" fill="none" xmlns="http://www.w3.org/2000/svg">
<path d="M9.24999 11.9999C9.24997 11.2708 9.53926 10.5713 10.0547 10.0556C10.3475 9.76266 10.8233 9.76277 11.1162 10.0556C11.4088 10.3484 11.4088 10.8233 11.1162 11.1162C10.8818 11.3506 10.75 11.6685 10.75 11.9999C10.75 12.3314 10.8818 12.6494 11.1162 12.8837C11.3506 13.1181 11.6686 13.2499 12 13.2499C12.3314 13.2499 12.6494 13.1181 12.8838 12.8837C13.1766 12.5908 13.6514 12.591 13.9443 12.8837C14.2372 13.1765 14.2381 13.6513 13.9453 13.9443C13.4298 14.46 12.7302 14.7497 12.001 14.7499C11.2717 14.7501 10.5715 14.4608 10.0557 13.9453C9.53983 13.4296 9.25012 12.7293 9.24999 11.9999Z" fill="#737985"/>
<path d="M6.92479 6.68839C7.27688 6.4703 7.73985 6.57855 7.958 6.93058C8.17611 7.28271 8.06697 7.74567 7.71483 7.96378C6.32975 8.82175 5.04679 10.1531 3.88085 11.9989C6.14397 15.5833 8.85235 17.2499 12 17.2499H12.0049C13.5172 17.2599 15.0011 16.8392 16.2832 16.037C16.6343 15.8174 17.0967 15.9242 17.3164 16.2753C17.536 16.6263 17.43 17.0887 17.0791 17.3085C15.557 18.2608 13.7953 18.7598 12 18.7489H11.998L11.9951 18.7499C8.05567 18.7481 4.84517 16.5335 2.35643 12.3857C2.21416 12.1483 2.21415 11.8515 2.35643 11.6142C3.67166 9.42213 5.18893 7.76365 6.92479 6.68839ZM12 5.25089C15.9417 5.25089 19.1538 7.46457 21.6435 11.6142C21.7858 11.8515 21.7858 12.1483 21.6435 12.3857C20.9543 13.5344 20.209 14.5363 19.4072 15.3847C19.1227 15.6857 18.6477 15.6995 18.3467 15.415C18.0457 15.1304 18.0329 14.6554 18.3174 14.3544C18.9456 13.6897 19.5461 12.9055 20.1182 11.9999C17.8552 8.41635 15.1473 6.74991 12 6.74991H11.998C11.4376 6.74847 10.8784 6.80377 10.3291 6.91495C9.92322 6.99712 9.52763 6.73481 9.4453 6.32901C9.36312 5.92304 9.62527 5.52742 10.0312 5.44523C10.6793 5.31404 11.3388 5.24931 12 5.25089Z" fill="#737985"/>
<path d="M2.46971 2.46967C2.76261 2.17678 3.23737 2.17678 3.53026 2.46967L21.5303 20.4697C21.8232 20.7626 21.8232 21.2373 21.5303 21.5302C21.2374 21.8231 20.7626 21.8231 20.4697 21.5302L2.46971 3.53022C2.17682 3.23732 2.17682 2.76256 2.46971 2.46967Z" fill="#737985"/>
</svg>
