<svg width="24" height="24" viewBox="0 0 24 24" fill="none" xmlns="http://www.w3.org/2000/svg">
<path d="M20.25 12C20.25 7.44365 16.5563 3.75 12 3.75C7.44365 3.75 3.75 7.44365 3.75 12C3.75 16.5563 7.44365 20.25 12 20.25C16.5563 20.25 20.25 16.5563 20.25 12ZM21.75 12C21.75 17.3848 17.3848 21.75 12 21.75C6.61522 21.75 2.25 17.3848 2.25 12C2.25 6.61522 6.61522 2.25 12 2.25C17.3848 2.25 21.75 6.61522 21.75 12Z" fill="#737985"/>
<path d="M14.4697 15.5304L8.46967 9.53035C8.17678 9.23746 8.17678 8.76259 8.46967 8.46969C8.76256 8.1768 9.23744 8.1768 9.53033 8.46969L15.5304 14.4697C15.8232 14.7626 15.8233 15.2375 15.5304 15.5304C15.2375 15.8233 14.7626 15.8232 14.4697 15.5304Z" fill="#737985"/>
<path d="M14.4697 8.46957C14.7626 8.17674 15.2375 8.1767 15.5304 8.46957C15.8233 8.76245 15.8232 9.23734 15.5304 9.53023L9.53033 15.5303C9.23744 15.8232 8.76256 15.8232 8.46967 15.5303C8.17678 15.2374 8.17678 14.7625 8.46967 14.4696L14.4697 8.46957Z" fill="#737985"/>
</svg>
