<svg width="24" height="24" viewBox="0 0 24 24" fill="none" xmlns="http://www.w3.org/2000/svg">
<path d="M2.24902 6.02101C2.24902 5.61336 2.24797 5.26195 2.27149 4.97413C2.29572 4.67759 2.34946 4.3821 2.49414 4.09816C2.70993 3.67483 3.05421 3.33054 3.47754 3.11476C3.7615 2.97007 4.05696 2.91634 4.35352 2.8921C4.64133 2.86859 4.99275 2.86964 5.40039 2.86964H10.1533C10.4688 2.86964 10.7333 2.86889 10.9463 2.87941C11.1586 2.88991 11.3759 2.91286 11.5859 2.98195C11.729 3.02901 11.8756 3.0833 12.0244 3.17042C12.1732 3.25753 12.2923 3.35874 12.4033 3.46046C12.5788 3.62125 12.7265 3.84626 12.8594 4.06398C13.0022 4.29813 13.1787 4.6121 13.3994 5.00538C13.8385 5.78768 14.3575 6.25536 14.9307 6.26027C16.3673 6.27257 17.5871 6.27294 18.5469 6.26906C18.9697 6.26734 19.3314 6.26534 19.626 6.28761C19.9273 6.31042 20.2291 6.36186 20.5166 6.50734C20.945 6.72409 21.2864 7.06422 21.5049 7.49171C21.6511 7.77784 21.7044 8.07754 21.7285 8.37745C21.752 8.66997 21.751 9.02865 21.751 9.44679V17.979C21.751 18.3867 21.752 18.7381 21.7285 19.0259C21.7043 19.3224 21.6505 19.6179 21.5059 19.9019C21.2901 20.3252 20.9458 20.6695 20.5225 20.8853C20.2385 21.0299 19.943 21.0837 19.6465 21.1079C19.3587 21.1314 19.0073 21.1304 18.5996 21.1304H4.94336C4.57403 21.1304 4.25929 21.1352 3.98242 21.0698C3.15311 20.8738 2.50563 20.2263 2.30957 19.397C2.24416 19.1201 2.24902 18.8054 2.24902 18.436V6.02101ZM3.75098 18.436C3.75098 18.8902 3.75654 18.9878 3.77149 19.0513C3.8367 19.3271 4.05229 19.5427 4.32813 19.6079C4.39161 19.6229 4.48927 19.6284 4.94336 19.6284H18.5996C19.032 19.6284 19.312 19.6272 19.5244 19.6099C19.7278 19.5932 19.803 19.5652 19.8398 19.5464C19.9807 19.4746 20.0952 19.3601 20.167 19.2192C20.1858 19.1824 20.2138 19.1072 20.2305 18.9038C20.2478 18.6914 20.249 18.4115 20.249 17.979V9.44679C20.249 9.0043 20.248 8.71679 20.2305 8.49855C20.2135 8.28776 20.185 8.21061 20.167 8.17531C20.0933 8.03113 19.9824 7.92127 19.8379 7.84816C19.8033 7.83068 19.7262 7.80183 19.5127 7.78566C19.2917 7.76895 19 7.77017 18.5527 7.77199C17.587 7.7759 16.3606 7.77458 14.917 7.76222C13.4742 7.74968 12.5744 6.60582 12.0889 5.74073C11.8623 5.33699 11.7022 5.0522 11.5772 4.84718C11.5154 4.74597 11.4686 4.67498 11.4326 4.6255C11.4071 4.59038 11.3922 4.57383 11.3877 4.56886C11.3022 4.49058 11.2761 4.47349 11.2656 4.4673C11.2555 4.46136 11.2283 4.44654 11.1162 4.40968C11.0979 4.40367 11.0396 4.38867 10.8721 4.38038C10.7049 4.37212 10.4841 4.37159 10.1533 4.37159H5.40039C4.96796 4.3716 4.68803 4.37279 4.47559 4.39015C4.27226 4.40679 4.19702 4.43485 4.16016 4.45363C4.01927 4.52541 3.9048 4.63989 3.83301 4.78077C3.81423 4.81763 3.78618 4.89286 3.76953 5.0962C3.75218 5.30865 3.75098 5.58857 3.75098 6.02101V18.436Z" fill="#737985"/>
<path d="M21 9.45826V10.9583H3V9.45826H21Z" fill="#737985"/>
</svg>
