<svg width="24" height="24" viewBox="0 0 24 24" fill="none" xmlns="http://www.w3.org/2000/svg">
<path d="M2.24902 17.7317V5.77369C2.24902 5.36605 2.24797 5.01463 2.27148 4.72682C2.29572 4.43027 2.34946 4.13479 2.49414 3.85084C2.70993 3.42752 3.05421 3.08323 3.47754 2.86744C3.7615 2.72276 4.05696 2.66902 4.35352 2.64479C4.64133 2.62127 4.99275 2.62233 5.40039 2.62233H10.1533C10.4688 2.62233 10.7333 2.62157 10.9463 2.63209C11.1586 2.64259 11.3759 2.66554 11.5859 2.73463C11.729 2.7817 11.8756 2.83599 12.0244 2.92311C12.1732 3.01021 12.2923 3.11143 12.4033 3.21315C12.5788 3.37394 12.7265 3.59894 12.8594 3.81666C13.0022 4.05081 13.1787 4.36479 13.3994 4.75807C13.8385 5.54036 14.3575 6.00804 14.9307 6.01295C16.3673 6.02526 17.5871 6.02563 18.5469 6.02174C18.9697 6.02003 19.3314 6.01802 19.626 6.0403C19.9273 6.06311 20.2291 6.11455 20.5166 6.26002C20.945 6.47678 21.2864 6.81691 21.5049 7.2444C21.6511 7.53052 21.7044 7.83023 21.7285 8.13014C21.752 8.42266 21.751 8.78133 21.751 9.19948V12.0462C21.7509 12.4609 21.4148 12.7971 21 12.7971C20.5852 12.7971 20.2491 12.4609 20.249 12.0462V9.19948C20.249 8.75699 20.248 8.46948 20.2305 8.25123C20.2135 8.04045 20.185 7.96329 20.167 7.92799C20.0933 7.78381 19.9824 7.67396 19.8379 7.60084C19.8033 7.58337 19.7262 7.55451 19.5127 7.53834C19.2917 7.52163 19 7.52286 18.5527 7.52467C17.587 7.52858 16.3606 7.52727 14.917 7.5149C13.4742 7.50237 12.5744 6.35851 12.0889 5.49342C11.8623 5.08968 11.7022 4.80488 11.5771 4.59987C11.5154 4.49865 11.4686 4.42767 11.4326 4.37819C11.407 4.34306 11.3922 4.32651 11.3877 4.32155C11.3022 4.24327 11.2761 4.22617 11.2656 4.21998C11.2555 4.21404 11.2283 4.19923 11.1162 4.16237C11.0979 4.15635 11.0396 4.14135 10.8721 4.13307C10.7049 4.12481 10.4841 4.12428 10.1533 4.12428H5.40039C4.96796 4.12428 4.68803 4.12548 4.47559 4.14283C4.27225 4.15948 4.19702 4.18753 4.16016 4.20631C4.01927 4.2781 3.9048 4.39258 3.83301 4.53346C3.81423 4.57031 3.78618 4.64555 3.76953 4.84889C3.75217 5.06133 3.75098 5.34126 3.75098 5.77369V17.7317C3.75098 18.1641 3.75217 18.4441 3.76953 18.6565C3.78618 18.8599 3.81423 18.9351 3.83301 18.9719C3.9048 19.1128 4.01927 19.2273 4.16016 19.2991C4.19702 19.3179 4.27225 19.3459 4.47559 19.3626C4.68803 19.3799 4.96795 19.3811 5.40039 19.3811H11.3838C11.7986 19.3812 12.1348 19.7173 12.1348 20.1321C12.1348 20.5469 11.7986 20.8829 11.3838 20.8831H5.40039C4.99275 20.8831 4.64133 20.8841 4.35352 20.8606C4.05696 20.8364 3.76149 20.7826 3.47754 20.638C3.05421 20.4222 2.70993 20.0779 2.49414 19.6546C2.34946 19.3706 2.29572 19.0751 2.27148 18.7786C2.24797 18.4908 2.24902 18.1393 2.24902 17.7317Z" fill="#737985"/>
<path d="M16.4648 18.4283V15.4283C16.4648 15.0831 16.7447 14.8033 17.0898 14.8033C17.435 14.8033 17.7148 15.0831 17.7148 15.4283V18.4283C17.7148 18.7735 17.435 19.0533 17.0898 19.0533C16.7447 19.0533 16.4648 18.7735 16.4648 18.4283Z" fill="#737985"/>
<path d="M18.5898 16.3033C18.935 16.3033 19.2148 16.5831 19.2148 16.9283C19.2148 17.2735 18.935 17.5533 18.5898 17.5533H15.5898C15.2447 17.5533 14.9648 17.2735 14.9648 16.9283C14.9648 16.5831 15.2447 16.3033 15.5898 16.3033H18.5898Z" fill="#737985"/>
<path d="M20.2163 16.9734C20.2161 15.2318 18.8037 13.8201 17.062 13.8201C15.3206 13.8204 13.909 15.232 13.9087 16.9734C13.9087 18.7151 15.3204 20.1275 17.062 20.1277C18.8038 20.1277 20.2163 18.7152 20.2163 16.9734ZM21.4663 16.9734C21.4663 19.4056 19.4942 21.3777 17.062 21.3777C14.6301 21.3775 12.6587 19.4054 12.6587 16.9734C12.659 14.5416 14.6303 12.5704 17.062 12.5701C19.494 12.5701 21.4661 14.5415 21.4663 16.9734Z" fill="#737985"/>
</svg>
