<svg width="24" height="24" viewBox="0 0 24 24" fill="none" xmlns="http://www.w3.org/2000/svg">
<path d="M20.25 5.4004C20.25 4.96798 20.2498 4.6881 20.2324 4.47559C20.2158 4.27204 20.1868 4.19625 20.168 4.15919C20.0961 4.01836 19.9816 3.90389 19.8408 3.83204C19.8037 3.81315 19.728 3.78423 19.5244 3.76759C19.3119 3.75022 19.032 3.75001 18.5996 3.75001H5.40038C4.96797 3.75001 4.68808 3.75022 4.47558 3.76759C4.27203 3.78423 4.19624 3.81315 4.15917 3.83204C4.01835 3.90389 3.90388 4.01836 3.83202 4.15919C3.81314 4.19625 3.78422 4.27204 3.76757 4.47559C3.75021 4.6881 3.74999 4.96798 3.74999 5.4004V18.5996C3.74999 19.032 3.75021 19.3119 3.76757 19.5244C3.78422 19.728 3.81314 19.8038 3.83202 19.8408C3.90388 19.9817 4.01835 20.0961 4.15917 20.168C4.19624 20.1869 4.27203 20.2158 4.47558 20.2324C4.68808 20.2498 4.96797 20.25 5.40038 20.25H18.5996C19.032 20.25 19.3119 20.2498 19.5244 20.2324C19.728 20.2158 19.8037 20.1869 19.8408 20.168C19.9816 20.0961 20.0961 19.9817 20.168 19.8408C20.1868 19.8038 20.2158 19.728 20.2324 19.5244C20.2498 19.3119 20.25 19.032 20.25 18.5996V5.4004ZM21.75 18.5996C21.75 19.0073 21.751 19.3587 21.7275 19.6465C21.7033 19.9429 21.6494 20.2378 21.5049 20.5215C21.2892 20.9449 20.9448 21.2892 20.5215 21.5049C20.2378 21.6494 19.9429 21.7033 19.6465 21.7275C19.3587 21.7511 19.0073 21.75 18.5996 21.75H5.40038C4.99272 21.75 4.64126 21.7511 4.35351 21.7275C4.05707 21.7033 3.76222 21.6494 3.47851 21.5049C3.05514 21.2892 2.71082 20.9449 2.49511 20.5215C2.35056 20.2378 2.29668 19.9429 2.27245 19.6465C2.24894 19.3587 2.24999 19.0073 2.24999 18.5996V5.4004C2.24999 4.99273 2.24894 4.64128 2.27245 4.35352C2.29668 4.05709 2.35056 3.76224 2.49511 3.47852C2.71082 3.05516 3.05514 2.71084 3.47851 2.49512C3.76222 2.35057 4.05707 2.2967 4.35351 2.27247C4.64126 2.24896 4.99272 2.25001 5.40038 2.25001H18.5996C19.0073 2.25001 19.3587 2.24896 19.6465 2.27247C19.9429 2.2967 20.2378 2.35057 20.5215 2.49512C20.9448 2.71084 21.2892 3.05516 21.5049 3.47852C21.6494 3.76224 21.7033 4.05709 21.7275 4.35352C21.751 4.64128 21.75 4.99273 21.75 5.4004V18.5996Z" fill="#737985"/>
<path d="M14.4639 9.48242C14.7755 9.22829 15.2245 9.22829 15.5361 9.48242L15.6006 9.54003L17.5303 11.4697C17.8232 11.7626 17.8232 12.2374 17.5303 12.5303C17.2374 12.8232 16.7626 12.8232 16.4697 12.5303L15 11.0605L12.6006 13.46C12.2687 13.7914 11.7313 13.7914 11.3994 13.46L9.99999 12.0605L7.53027 14.5303C7.23737 14.8232 6.76261 14.8232 6.46972 14.5303C6.17683 14.2374 6.17683 13.7626 6.46972 13.4697L9.39941 10.54L9.46386 10.4824C9.79758 10.2102 10.2894 10.2292 10.6006 10.54L12 11.9394L14.3994 9.54003L14.4639 9.48242Z" fill="#737985"/>
</svg>
