<svg width="24" height="24" viewBox="0 0 24 24" fill="none" xmlns="http://www.w3.org/2000/svg">
<path d="M7.25001 8.59981C7.25001 9.03223 7.24979 9.31212 7.23243 9.52462C7.21578 9.72817 7.18686 9.80396 7.16798 9.84103C7.09612 9.98185 6.98165 10.0963 6.84083 10.1682C6.80376 10.1871 6.72797 10.216 6.52442 10.2326C6.31192 10.25 6.03203 10.2502 5.59962 10.2502H5.4004C4.96798 10.2502 4.6881 10.25 4.47559 10.2326C4.27204 10.216 4.19625 10.1871 4.15919 10.1682C4.01836 10.0963 3.90389 9.98185 3.83204 9.84103C3.81315 9.80396 3.78423 9.72817 3.76759 9.52462C3.75022 9.31212 3.75001 9.03223 3.75001 8.59981V5.39962C3.75001 4.9674 3.75024 4.68825 3.76759 4.47579C3.78423 4.27204 3.81314 4.19647 3.83204 4.15938C3.90392 4.01834 4.01815 3.90316 4.15919 3.83126C4.19625 3.81237 4.27206 3.78443 4.47559 3.76778C4.6881 3.75042 4.96798 3.75021 5.4004 3.75021H5.59962C6.03203 3.75021 6.31192 3.75042 6.52442 3.76778C6.72795 3.78443 6.80376 3.81237 6.84083 3.83126C6.98186 3.90316 7.09609 4.01834 7.16798 4.15938C7.18687 4.19647 7.21578 4.27204 7.23243 4.47579C7.24978 4.68825 7.25001 4.9674 7.25001 5.39962V8.59981ZM8.75001 5.39962C8.75001 4.99214 8.75103 4.64139 8.72755 4.35372C8.70333 4.05734 8.64935 3.7624 8.50489 3.47872C8.28919 3.0554 7.9448 2.71104 7.52149 2.49532C7.23777 2.35076 6.94293 2.2969 6.64649 2.27267C6.35874 2.24916 6.00728 2.25021 5.59962 2.25021H5.4004C4.99273 2.25021 4.64128 2.24916 4.35352 2.27267C4.05708 2.2969 3.76224 2.35076 3.47852 2.49532C3.05521 2.71104 2.71082 3.0554 2.49512 3.47872C2.35067 3.7624 2.29668 4.05734 2.27247 4.35372C2.24898 4.64139 2.25001 4.99214 2.25001 5.39962V8.59981C2.25001 9.00748 2.24896 9.35894 2.27247 9.64669C2.2967 9.94312 2.35057 10.238 2.49512 10.5217C2.71084 10.9451 3.05516 11.2894 3.47852 11.5051C3.76224 11.6496 4.05709 11.7035 4.35352 11.7277C4.64128 11.7513 4.99273 11.7502 5.4004 11.7502H5.59962C6.00728 11.7502 6.35874 11.7513 6.64649 11.7277C6.94293 11.7035 7.23778 11.6496 7.52149 11.5051C7.94486 11.2894 8.28918 10.9451 8.50489 10.5217C8.64944 10.238 8.70332 9.94312 8.72755 9.64669C8.75106 9.35894 8.75001 9.00748 8.75001 8.59981V5.39962Z" fill="#737985"/>
<path d="M20.25 5.4004C20.25 4.96798 20.2498 4.6881 20.2324 4.47559C20.2158 4.27204 20.1869 4.19625 20.168 4.15919C20.0961 4.01836 19.9817 3.90389 19.8408 3.83204C19.8038 3.81315 19.728 3.78423 19.5244 3.76759C19.3119 3.75022 19.032 3.75001 18.5996 3.75001H13.4004C12.968 3.75001 12.6881 3.75022 12.4756 3.76759C12.272 3.78423 12.1963 3.81315 12.1592 3.83204C12.0184 3.90389 11.9039 4.01836 11.832 4.15919C11.8132 4.19625 11.7842 4.27204 11.7676 4.47559C11.7502 4.6881 11.75 4.96798 11.75 5.4004V8.59962C11.75 9.03203 11.7502 9.31192 11.7676 9.52442C11.7842 9.72797 11.8132 9.80376 11.832 9.84083C11.9039 9.98165 12.0184 10.0961 12.1592 10.168C12.1963 10.1869 12.272 10.2158 12.4756 10.2324C12.6881 10.2498 12.968 10.25 13.4004 10.25H18.5996C19.032 10.25 19.3119 10.2498 19.5244 10.2324C19.728 10.2158 19.8038 10.1869 19.8408 10.168C19.9817 10.0961 20.0961 9.98165 20.168 9.84083C20.1869 9.80376 20.2158 9.72797 20.2324 9.52442C20.2498 9.31192 20.25 9.03203 20.25 8.59962V5.4004ZM21.75 8.59962C21.75 9.00728 21.7511 9.35874 21.7275 9.64649C21.7033 9.94293 21.6494 10.2378 21.5049 10.5215C21.2892 10.9449 20.9449 11.2892 20.5215 11.5049C20.2378 11.6494 19.9429 11.7033 19.6465 11.7275C19.3587 11.7511 19.0073 11.75 18.5996 11.75H13.4004C12.9927 11.75 12.6413 11.7511 12.3535 11.7275C12.0571 11.7033 11.7622 11.6494 11.4785 11.5049C11.0552 11.2892 10.7108 10.9449 10.4951 10.5215C10.3506 10.2378 10.2967 9.94293 10.2725 9.64649C10.249 9.35874 10.25 9.00728 10.25 8.59962V5.4004C10.25 4.99273 10.249 4.64128 10.2725 4.35352C10.2967 4.05709 10.3506 3.76224 10.4951 3.47852C10.7108 3.05516 11.0552 2.71084 11.4785 2.49512C11.7622 2.35057 12.0571 2.2967 12.3535 2.27247C12.6413 2.24896 12.9927 2.25001 13.4004 2.25001H18.5996C19.0073 2.25001 19.3587 2.24896 19.6465 2.27247C19.9429 2.2967 20.2378 2.35057 20.5215 2.49512C20.9449 2.71084 21.2892 3.05516 21.5049 3.47852C21.6494 3.76224 21.7033 4.05709 21.7275 4.35352C21.7511 4.64128 21.75 4.99273 21.75 5.4004V8.59962Z" fill="#737985"/>
<path d="M20.25 16.4006C20.25 15.9682 20.2498 15.6883 20.2324 15.4758C20.2158 15.2722 20.1869 15.1965 20.168 15.1594C20.0961 15.0186 19.9817 14.9041 19.8408 14.8322C19.8038 14.8134 19.728 14.7844 19.5244 14.7678C19.3119 14.7504 19.032 14.7502 18.5996 14.7502H5.4004C4.96798 14.7502 4.6881 14.7504 4.47559 14.7678C4.27204 14.7844 4.19625 14.8134 4.15919 14.8322C4.01836 14.9041 3.90389 15.0186 3.83204 15.1594C3.81315 15.1965 3.78423 15.2722 3.76759 15.4758C3.75022 15.6883 3.75001 15.9682 3.75001 16.4006V18.5998C3.75001 19.0322 3.75022 19.3121 3.76759 19.5246C3.78423 19.7282 3.81315 19.804 3.83204 19.841C3.90389 19.9819 4.01836 20.0963 4.15919 20.1682C4.19625 20.1871 4.27204 20.216 4.47559 20.2326C4.6881 20.25 4.96798 20.2502 5.4004 20.2502H18.5996C19.032 20.2502 19.3119 20.25 19.5244 20.2326C19.728 20.216 19.8038 20.1871 19.8408 20.1682C19.9817 20.0963 20.0961 19.9819 20.168 19.841C20.1869 19.804 20.2158 19.7282 20.2324 19.5246C20.2498 19.3121 20.25 19.0322 20.25 18.5998V16.4006ZM21.75 18.5998C21.75 19.0075 21.7511 19.3589 21.7275 19.6467C21.7033 19.9431 21.6494 20.238 21.5049 20.5217C21.2892 20.9451 20.9449 21.2894 20.5215 21.5051C20.2378 21.6496 19.9429 21.7035 19.6465 21.7277C19.3587 21.7513 19.0073 21.7502 18.5996 21.7502H5.4004C4.99273 21.7502 4.64128 21.7513 4.35352 21.7277C4.05709 21.7035 3.76224 21.6496 3.47852 21.5051C3.05516 21.2894 2.71084 20.9451 2.49512 20.5217C2.35057 20.238 2.2967 19.9431 2.27247 19.6467C2.24896 19.3589 2.25001 19.0075 2.25001 18.5998V16.4006C2.25001 15.9929 2.24896 15.6415 2.27247 15.3537C2.2967 15.0573 2.35057 14.7624 2.49512 14.4787C2.71084 14.0554 3.05516 13.711 3.47852 13.4953C3.76224 13.3508 4.05709 13.2969 4.35352 13.2727C4.64128 13.2492 4.99273 13.2502 5.4004 13.2502H18.5996C19.0073 13.2502 19.3587 13.2492 19.6465 13.2727C19.9429 13.2969 20.2378 13.3508 20.5215 13.4953C20.9449 13.711 21.2892 14.0554 21.5049 14.4787C21.6494 14.7624 21.7033 15.0573 21.7275 15.3537C21.7511 15.6415 21.75 15.9929 21.75 16.4006V18.5998Z" fill="#737985"/>
</svg>
