<svg width="24" height="24" viewBox="0 0 24 24" fill="none" xmlns="http://www.w3.org/2000/svg">
<path d="M20.2441 7.59413C20.6583 7.59425 20.9941 7.92999 20.9941 8.34413C20.9941 8.75828 20.6583 9.09402 20.2441 9.09413H16.3174C15.8037 9.09414 15.7022 9.10183 15.6211 9.12636C15.5271 9.1548 15.4393 9.20095 15.3633 9.26308C15.2977 9.31672 15.2349 9.39709 14.9482 9.82363L9.35352 18.1469C9.11875 18.4962 8.92133 18.8045 8.64355 19.0316C8.41543 19.2181 8.15214 19.3575 7.87012 19.4428C7.61254 19.5206 7.34245 19.5367 7.0459 19.5394H3C2.58579 19.5394 2.25 19.2037 2.25 18.7894C2.25004 18.3753 2.58581 18.0394 3 18.0394H6.73926C7.2533 18.0394 7.3554 18.0318 7.43652 18.0072C7.53025 17.9788 7.6175 17.9324 7.69336 17.8705C7.75898 17.8169 7.82262 17.7366 8.10938 17.31L13.7031 8.98671C13.938 8.63726 14.1362 8.32915 14.4141 8.10195C14.642 7.91558 14.9047 7.77612 15.1865 7.69081C15.4442 7.61287 15.715 7.59687 16.0117 7.59413H20.2441Z" fill="#737985"/>
<path d="M17.3361 4.68024C17.629 4.38735 18.1038 4.38735 18.3967 4.68024L21.5304 7.81403C21.8232 8.10694 21.8233 8.58174 21.5304 8.87458L18.3967 12.0084C18.1038 12.301 17.629 12.301 17.3361 12.0084C17.0433 11.7155 17.0434 11.2407 17.3361 10.9478L19.9396 8.3443L17.3361 5.74079C17.0432 5.44789 17.0432 4.97313 17.3361 4.68024Z" fill="#737985"/>
</svg>
