<svg width="24" height="24" viewBox="0 0 24 24" fill="none" xmlns="http://www.w3.org/2000/svg">
<path d="M20.25 12C20.25 7.44365 16.5563 3.75 12 3.75C7.44365 3.75 3.75 7.44365 3.75 12C3.75 16.5563 7.44365 20.25 12 20.25C16.5563 20.25 20.25 16.5563 20.25 12ZM21.75 12C21.75 17.3848 17.3848 21.75 12 21.75C6.61522 21.75 2.25 17.3848 2.25 12C2.25 6.61522 6.61522 2.25 12 2.25C17.3848 2.25 21.75 6.61522 21.75 12Z" fill="#737985"/>
<path d="M14.8502 11.9996C14.85 10.4258 13.5735 9.15001 11.9996 9.15001C10.4259 9.15022 9.15022 10.4259 9.15001 11.9996C9.15001 13.5735 10.4258 14.85 11.9996 14.8502C13.5736 14.8502 14.8502 13.5736 14.8502 11.9996ZM16.3502 11.9996C16.3502 14.4021 14.4021 16.3502 11.9996 16.3502C9.59736 16.35 7.65001 14.4019 7.65001 11.9996C7.65022 9.59749 9.59749 7.65022 11.9996 7.65001C14.4019 7.65001 16.35 9.59736 16.3502 11.9996Z" fill="#737985"/>
<path d="M18.8299 6.23025L15.2303 9.82986L14.1697 8.76931L17.7693 5.1697L18.8299 6.23025Z" fill="#737985"/>
<path d="M9.82989 15.2303L6.23028 18.8299L5.16973 17.7693L8.76934 14.1697L9.82989 15.2303Z" fill="#737985"/>
<path d="M5.17011 6.23025L8.76972 9.82986L9.83027 8.76931L6.23066 5.1697L5.17011 6.23025Z" fill="#737985"/>
<path d="M14.1701 15.2303L17.7697 18.8299L18.8303 17.7693L15.2307 14.1697L14.1701 15.2303Z" fill="#737985"/>
</svg>
