<svg width="24" height="24" viewBox="0 0 24 24" fill="none" xmlns="http://www.w3.org/2000/svg">
<path d="M11.2214 8.08136C11.2214 7.66715 11.5572 7.33136 11.9714 7.33136C12.3856 7.33136 12.7214 7.66715 12.7214 8.08136V11.7816L14.5065 13.5667C14.7994 13.8596 14.7994 14.3344 14.5065 14.6273C14.2136 14.9199 13.7388 14.9201 13.446 14.6273L11.4411 12.6224C11.3006 12.4818 11.2215 12.2909 11.2214 12.0921V8.08136Z" fill="#737985"/>
<path d="M2.25002 20.1086V15.0959C2.25002 14.6817 2.5858 14.3459 3.00002 14.3459H8.01271C8.42692 14.3459 8.76271 14.6817 8.76271 15.0959C8.76271 15.5101 8.42692 15.8459 8.01271 15.8459H4.65236C5.41778 17.3037 6.60513 18.508 8.0713 19.2932C9.86329 20.2528 11.9461 20.5191 13.9219 20.0412C15.8975 19.5633 17.6278 18.3747 18.7832 16.7024C19.9386 15.0299 20.4386 12.9909 20.1865 10.9738C19.9344 8.95679 18.9476 7.10337 17.416 5.76681C15.8845 4.43034 13.9144 3.70453 11.8819 3.72775C9.84941 3.75107 7.89703 4.52173 6.3965 5.89279C4.89592 7.26392 3.95216 9.13915 3.74611 11.1613C3.70413 11.5734 3.33592 11.8732 2.92384 11.8313C2.512 11.7892 2.21217 11.4218 2.25392 11.01C2.49725 8.6212 3.61131 6.40513 5.3838 4.78537C7.15652 3.16557 9.4641 2.25517 11.8652 2.22775C14.2662 2.20035 16.5932 3.05734 18.4024 4.63595C20.2115 6.21475 21.3769 8.40471 21.6748 10.7873C21.9727 13.17 21.3824 15.5793 20.0176 17.5549C18.6527 19.5305 16.6083 20.9347 14.2744 21.4992C11.9404 22.0637 9.48017 21.749 7.3633 20.6154C5.88263 19.8225 4.64371 18.667 3.75002 17.2727V20.1086C3.75002 20.5228 3.41423 20.8586 3.00002 20.8586C2.5858 20.8586 2.25002 20.5228 2.25002 20.1086Z" fill="#737985"/>
</svg>
