<svg width="24" height="24" viewBox="0 0 24 24" fill="none" xmlns="http://www.w3.org/2000/svg">
<path d="M17.4717 11.6861L16.7686 14.2983H16.3776L17.0807 11.6861H17.4717Z" fill="#737985"/>
<path d="M16.3028 11.6861L15.5997 14.2983H15.2087L15.9118 11.6861H16.3028Z" fill="#737985"/>
<path d="M14.7242 13.9979C14.6539 13.9979 14.5935 13.973 14.5431 13.9233C14.4934 13.8729 14.4685 13.8125 14.4685 13.7422C14.4685 13.6726 14.4934 13.6129 14.5431 13.5632C14.5935 13.5135 14.6539 13.4886 14.7242 13.4886C14.7924 13.4886 14.852 13.5135 14.9032 13.5632C14.9543 13.6129 14.9799 13.6726 14.9799 13.7422C14.9799 13.789 14.9678 13.832 14.9437 13.8711C14.9202 13.9094 14.8893 13.9403 14.851 13.9638C14.8126 13.9865 14.7704 13.9979 14.7242 13.9979ZM14.7242 12.8515C14.6539 12.8515 14.5935 12.8267 14.5431 12.777C14.4934 12.7273 14.4685 12.6669 14.4685 12.5959C14.4685 12.5263 14.4934 12.467 14.5431 12.418C14.5935 12.3682 14.6539 12.3434 14.7242 12.3434C14.7924 12.3434 14.852 12.3682 14.9032 12.418C14.9543 12.467 14.9799 12.5263 14.9799 12.5959C14.9799 12.6434 14.9678 12.6868 14.9437 12.7258C14.9202 12.7642 14.8893 12.7947 14.851 12.8175C14.8126 12.8402 14.7704 12.8515 14.7242 12.8515Z" fill="#737985"/>
<path d="M14.1359 12.8004L13.7204 12.826C13.7133 12.7905 13.698 12.7585 13.6746 12.7301C13.6511 12.701 13.6202 12.6779 13.5819 12.6609C13.5443 12.6431 13.4992 12.6342 13.4466 12.6342C13.3763 12.6342 13.317 12.6491 13.2687 12.679C13.2204 12.7081 13.1962 12.7471 13.1962 12.7961C13.1962 12.8352 13.2119 12.8682 13.2431 12.8952C13.2744 12.9222 13.328 12.9439 13.404 12.9602L13.7001 13.0199C13.8592 13.0525 13.9778 13.1051 14.056 13.1775C14.1341 13.25 14.1732 13.3452 14.1732 13.4631C14.1732 13.5703 14.1416 13.6644 14.0783 13.7454C14.0158 13.8263 13.9299 13.8895 13.8205 13.935C13.7119 13.9797 13.5865 14.0021 13.4445 14.0021C13.2278 14.0021 13.0553 13.957 12.9267 13.8668C12.7989 13.7759 12.7239 13.6523 12.7019 13.4961L13.1483 13.4726C13.1618 13.5387 13.1945 13.5891 13.2463 13.6239C13.2982 13.658 13.3646 13.6751 13.4455 13.6751C13.5251 13.6751 13.589 13.6598 13.6373 13.6292C13.6863 13.598 13.7112 13.5579 13.7119 13.5089C13.7112 13.4677 13.6938 13.4339 13.6597 13.4077C13.6256 13.3807 13.573 13.3601 13.502 13.3459L13.2186 13.2894C13.0588 13.2574 12.9399 13.202 12.8617 13.1232C12.7843 13.0444 12.7456 12.9439 12.7456 12.8217C12.7456 12.7166 12.774 12.626 12.8308 12.5501C12.8884 12.4741 12.969 12.4155 13.0727 12.3743C13.1771 12.3331 13.2992 12.3125 13.4391 12.3125C13.6458 12.3125 13.8085 12.3562 13.9271 12.4435C14.0464 12.5309 14.116 12.6498 14.1359 12.8004Z" fill="#737985"/>
<path d="M10.8759 14.5838V12.3338H11.3234V12.6086H11.3436C11.3635 12.5646 11.3923 12.5199 11.4299 12.4744C11.4683 12.4283 11.518 12.3899 11.5791 12.3594C11.6408 12.3281 11.7176 12.3125 11.8092 12.3125C11.9285 12.3125 12.0386 12.3437 12.1394 12.4062C12.2403 12.468 12.3209 12.5614 12.3813 12.6864C12.4416 12.8107 12.4718 12.9666 12.4718 13.1541C12.4718 13.3366 12.4423 13.4908 12.3834 13.6165C12.3251 13.7415 12.2456 13.8363 12.1448 13.9009C12.0446 13.9648 11.9324 13.9968 11.8081 13.9968C11.72 13.9968 11.6451 13.9822 11.5833 13.9531C11.5222 13.924 11.4722 13.8874 11.4331 13.8434C11.394 13.7986 11.3642 13.7535 11.3436 13.7081H11.3298V14.5838H10.8759ZM11.3202 13.152C11.3202 13.2493 11.3337 13.3341 11.3607 13.4066C11.3876 13.479 11.4267 13.5355 11.4778 13.576C11.529 13.6158 11.5911 13.6356 11.6643 13.6356C11.7381 13.6356 11.8006 13.6154 11.8518 13.5749C11.9029 13.5337 11.9416 13.4769 11.9679 13.4045C11.9949 13.3313 12.0084 13.2471 12.0084 13.152C12.0084 13.0575 11.9952 12.9744 11.969 12.9027C11.9427 12.831 11.904 12.7748 11.8528 12.7344C11.8017 12.6939 11.7389 12.6736 11.6643 12.6736C11.5904 12.6736 11.5279 12.6932 11.4768 12.7322C11.4264 12.7713 11.3876 12.8267 11.3607 12.8984C11.3337 12.9702 11.3202 13.0547 11.3202 13.152Z" fill="#737985"/>
<path d="M10.5803 12.3338V12.6747H9.59486V12.3338H10.5803ZM9.81858 11.9417H10.2724V13.4673C10.2724 13.5092 10.2788 13.5419 10.2916 13.5653C10.3044 13.5881 10.3221 13.604 10.3449 13.6133C10.3683 13.6225 10.3953 13.6271 10.4258 13.6271C10.4471 13.6271 10.4684 13.6253 10.4897 13.6218C10.5111 13.6175 10.5274 13.6143 10.5387 13.6122L10.6101 13.9499C10.5874 13.957 10.5554 13.9652 10.5142 13.9744C10.4731 13.9844 10.423 13.9904 10.364 13.9925C10.2547 13.9968 10.1588 13.9822 10.0764 13.9488C9.99472 13.9155 9.93115 13.8636 9.8857 13.7933C9.84024 13.723 9.81787 13.6342 9.81858 13.527V11.9417Z" fill="#737985"/>
<path d="M9.41428 12.3338V12.6747H8.42884V12.3338H9.41428ZM8.65256 11.9417H9.1064V13.4673C9.1064 13.5092 9.11279 13.5419 9.12558 13.5653C9.13836 13.5881 9.15612 13.604 9.17884 13.6133C9.20228 13.6225 9.22927 13.6271 9.25981 13.6271C9.28112 13.6271 9.30242 13.6253 9.32373 13.6218C9.34504 13.6175 9.36137 13.6143 9.37273 13.6122L9.44411 13.9499C9.42139 13.957 9.38942 13.9652 9.34823 13.9744C9.30704 13.9844 9.25697 13.9904 9.19802 13.9925C9.08864 13.9968 8.99276 13.9822 8.91038 13.9488C8.8287 13.9155 8.76514 13.8636 8.71968 13.7933C8.67423 13.723 8.65185 13.6342 8.65256 13.527V11.9417Z" fill="#737985"/>
<path d="M7.12566 13.0241V13.9702H6.67183V11.7883H7.11288V12.6225H7.13206C7.16899 12.5259 7.22865 12.4503 7.31103 12.3956C7.39342 12.3402 7.49676 12.3125 7.62105 12.3125C7.73468 12.3125 7.83376 12.3373 7.91828 12.3871C8.00351 12.4361 8.06956 12.5067 8.11643 12.5991C8.16402 12.6907 8.18745 12.8004 8.18674 12.9283V13.9702H7.73291V13.0092C7.73362 12.9084 7.70805 12.8299 7.6562 12.7738C7.60507 12.7177 7.53333 12.6896 7.441 12.6896C7.37922 12.6896 7.32453 12.7028 7.27694 12.729C7.23007 12.7553 7.19314 12.7937 7.16615 12.8441C7.13987 12.8938 7.12637 12.9538 7.12566 13.0241Z" fill="#737985"/>
<path d="M4.26705 16.6329V16.4591H5.76705V16.6329C5.76705 17.0652 5.76728 17.3443 5.78463 17.5568C5.80127 17.7605 5.83019 17.8361 5.84908 17.8732C5.92096 18.0142 6.03519 18.1294 6.17623 18.2013C6.21329 18.2202 6.28911 18.2481 6.49264 18.2648C6.70514 18.2821 6.98502 18.2824 7.41744 18.2824H16.601C17.0335 18.2824 17.3133 18.2821 17.5258 18.2648C17.7294 18.2481 17.8052 18.2202 17.8422 18.2013C17.9833 18.1294 18.0975 18.0143 18.1694 17.8732C18.1883 17.8361 18.2172 17.7605 18.2338 17.5568C18.2512 17.3443 18.2514 17.0652 18.2514 16.6329V16.2482H19.7514V16.6329C19.7514 17.0404 19.7524 17.3912 19.729 17.6788C19.7047 17.9752 19.6508 18.2702 19.5063 18.5538C19.2906 18.9772 18.9462 19.3215 18.5229 19.5372C18.2392 19.6818 17.9444 19.7357 17.6479 19.7599C17.3602 19.7834 17.0087 19.7824 16.601 19.7824H7.41744C7.00978 19.7824 6.65832 19.7834 6.37056 19.7599C6.07413 19.7357 5.77928 19.6818 5.49556 19.5372C5.07227 19.3215 4.72786 18.9772 4.51217 18.5538C4.36773 18.2702 4.31372 17.9752 4.28951 17.6788C4.26603 17.3912 4.26705 17.0404 4.26705 16.6329Z" fill="#737985"/>
<path d="M18.2514 6.64399C18.2514 6.21157 18.2512 5.93169 18.2338 5.71918C18.2172 5.51564 18.1883 5.43984 18.1694 5.40278C18.0975 5.26195 17.9831 5.14748 17.8422 5.07563C17.8052 5.05674 17.7294 5.02783 17.5258 5.01118C17.3133 4.99381 17.0334 4.9936 16.601 4.9936H7.41744C6.98502 4.9936 6.70514 4.99381 6.49264 5.01118C6.28908 5.02783 6.2133 5.05674 6.17623 5.07563C6.0354 5.14748 5.92093 5.26195 5.84908 5.40278C5.83019 5.43984 5.80128 5.51563 5.78463 5.71918C5.76727 5.93169 5.76705 6.21157 5.76705 6.64399V10.2387H4.26705V6.64399C4.26705 6.23632 4.266 5.88487 4.28951 5.59711C4.31374 5.30068 4.36762 5.00583 4.51217 4.72211C4.72788 4.29875 5.0722 3.95443 5.49556 3.73872C5.77928 3.59416 6.07413 3.54029 6.37056 3.51606C6.65832 3.49255 7.00978 3.4936 7.41744 3.4936H16.601C17.0087 3.4936 17.3602 3.49255 17.6479 3.51606C17.9443 3.54029 18.2392 3.59417 18.5229 3.73872C18.9463 3.95443 19.2906 4.29875 19.5063 4.72211C19.6509 5.00584 19.7047 5.30067 19.729 5.59711C19.7525 5.88487 19.7514 6.23633 19.7514 6.64399V10.2387H18.2514V6.64399Z" fill="#737985"/>
<path d="M18.2579 7.49998C18.6721 7.49998 19.0079 7.83577 19.0079 8.24998C19.0079 8.6642 18.6721 8.99998 18.2579 8.99998L5.75793 8.99999C5.34372 8.99999 5.00793 8.6642 5.00793 8.24999C5.00793 7.83577 5.34372 7.49999 5.75793 7.49999L18.2579 7.49998Z" fill="#737985"/>
<path d="M7.73016 6.28918C7.73016 6.61135 7.46899 6.87251 7.14683 6.87251C6.82466 6.87251 6.56349 6.61135 6.56349 6.28918C6.56349 5.96701 6.82466 5.70585 7.14683 5.70585C7.46899 5.70585 7.73016 5.96701 7.73016 6.28918Z" fill="#737985"/>
<path d="M9.59683 6.28917C9.59683 6.61134 9.33566 6.87251 9.0135 6.87251C8.69133 6.87251 8.43016 6.61134 8.43016 6.28917C8.43016 5.96701 8.69133 5.70584 9.0135 5.70584C9.33566 5.70584 9.59683 5.96701 9.59683 6.28917Z" fill="#737985"/>
<path d="M11.4635 6.28917C11.4635 6.61134 11.2023 6.87251 10.8801 6.87251C10.558 6.87251 10.2968 6.61134 10.2968 6.28917C10.2968 5.96701 10.558 5.70584 10.8801 5.70584C11.2023 5.70584 11.4635 5.96701 11.4635 6.28917Z" fill="#737985"/>
<path d="M20.5079 11.6176C20.5079 11.0653 20.0602 10.6176 19.5079 10.6176H4.50793C3.95565 10.6176 3.50794 11.0653 3.50793 11.6176V14.6176C3.50793 15.1699 3.95565 15.6176 4.50793 15.6176H19.5079C20.0602 15.6176 20.5079 15.1699 20.5079 14.6176V11.6176ZM21.5079 14.6176C21.5079 15.7222 20.6125 16.6176 19.5079 16.6176H4.50793C3.40336 16.6176 2.50793 15.7222 2.50793 14.6176V11.6176C2.50794 10.513 3.40337 9.61762 4.50793 9.61762H19.5079C20.6125 9.61762 21.5079 10.513 21.5079 11.6176V14.6176Z" fill="#737985"/>
</svg>
