<svg width="24" height="24" viewBox="0 0 24 24" fill="none" xmlns="http://www.w3.org/2000/svg">
<path d="M11.6994 20.9998V18.2996C11.6994 17.8854 12.0352 17.5496 12.4494 17.5496C12.8636 17.5496 13.1994 17.8854 13.1994 18.2996V20.9998C13.1994 21.414 12.8636 21.7498 12.4494 21.7498C12.0352 21.7498 11.6994 21.414 11.6994 20.9998Z" fill="#737985"/>
<path d="M14.2504 20.25C14.6646 20.25 15.0004 20.5858 15.0004 21C15.0004 21.4142 14.6646 21.75 14.2504 21.75H10.6498C10.2356 21.75 9.8998 21.4142 9.8998 21C9.8998 20.5858 10.2356 20.25 10.6498 20.25H14.2504Z" fill="#737985"/>
<path d="M7.80034 9.30078C7.80045 6.23515 10.2855 3.75 13.3511 3.75C16.4167 3.75011 18.9018 6.23522 18.9019 9.30078C18.9019 12.3664 16.4168 14.8515 13.3511 14.8516C10.2854 14.8516 7.80034 12.3665 7.80034 9.30078ZM6.30034 9.30078C6.30034 13.1949 9.45697 16.3516 13.3511 16.3516C17.2452 16.3515 20.4019 13.1949 20.4019 9.30078C20.4018 5.40679 17.2451 2.25011 13.3511 2.25C9.45704 2.25 6.30045 5.40672 6.30034 9.30078Z" fill="#737985"/>
<path d="M15.0934 2.58789C15.3863 3.03369 15.5251 3.5839 15.4117 4.11719C15.2932 4.67507 14.9118 5.14127 14.3219 5.375C14.2336 5.40998 14.1864 5.43989 14.1637 5.45703C14.1527 5.46532 14.147 5.47158 14.1442 5.47461C14.1414 5.47751 14.1393 5.48047 14.1393 5.48047C14.1351 5.48683 14.1204 5.50965 14.0924 5.66309C14.0705 5.78305 14.0304 6.06696 13.8971 6.33594C13.7641 6.6043 13.5591 6.83275 13.2672 7.01367L13.1364 7.08789C12.1325 7.61828 10.8331 7.36513 9.72229 6.19141C9.18973 5.62872 9.06887 5.56429 8.80627 5.54883L8.89417 4.05176C9.80928 4.1056 10.2977 4.61762 10.8112 5.16016C11.5895 5.98263 12.1793 5.89676 12.4352 5.76172C12.4966 5.72927 12.5248 5.70429 12.5358 5.69336C12.5454 5.68375 12.5496 5.67749 12.5533 5.66992C12.5715 5.63325 12.5805 5.59375 12.6168 5.39453C12.6467 5.23081 12.7 4.93689 12.8883 4.65234C13.0883 4.35039 13.3853 4.1326 13.7692 3.98047C13.8447 3.95055 13.8826 3.91717 13.902 3.89453C13.9215 3.87163 13.9369 3.84355 13.9449 3.80566C13.9621 3.72471 13.9496 3.57849 13.8405 3.41211L15.0934 2.58789Z" fill="#737985"/>
<path d="M12.8637 12.2247C12.8637 11.89 12.9121 11.5306 13.0766 11.1993C13.2501 10.8502 13.5287 10.5803 13.8989 10.4093C14.5747 10.097 15.5087 10.1353 16.6489 10.3634C16.8729 10.4081 16.9761 10.3612 17.3364 10.1134C17.7108 9.85583 18.2765 9.44837 19.2016 9.44832V10.9483C18.7768 10.9484 18.5475 11.1017 18.187 11.3497C17.8125 11.6073 17.2403 12.0114 16.354 11.8341C15.2441 11.6121 14.7334 11.6765 14.5278 11.7716C14.4576 11.8041 14.4358 11.8334 14.4194 11.8663C14.3942 11.917 14.3637 12.023 14.3637 12.2247C14.3637 12.7198 14.3688 13.0996 14.2827 13.4454C14.1927 13.8064 14.0083 14.11 13.7934 14.4796C13.6659 14.6989 13.6494 14.808 13.6508 14.8448C13.6512 14.8525 13.6515 14.8579 13.6587 14.8702C13.6682 14.8865 13.7 14.9312 13.7876 14.9962L12.895 16.2012C12.4487 15.8704 12.1761 15.4339 12.1528 14.9122C12.132 14.4435 12.3213 14.0287 12.4975 13.7257C12.7504 13.2907 12.8006 13.1915 12.8276 13.0831C12.8584 12.9594 12.8637 12.8025 12.8637 12.2247Z" fill="#737985"/>
<path d="M3.59813 9.375C3.5982 6.6661 4.72089 4.21676 6.52586 2.46191C6.82287 2.17341 7.29775 2.18063 7.58641 2.47754C7.8749 2.77453 7.86864 3.24942 7.57176 3.53809C6.04388 5.02354 5.0982 7.08957 5.09813 9.375C5.09813 13.8851 8.7863 17.5525 13.3491 17.5527C15.6002 17.5527 17.6387 16.6601 19.1274 15.2129C19.4243 14.9242 19.8992 14.9308 20.188 15.2275C20.4767 15.5245 20.4702 15.9993 20.1733 16.2881C18.4147 17.9979 16.0046 19.0527 13.3491 19.0527C7.96962 19.0525 3.59813 14.7252 3.59813 9.375Z" fill="#737985"/>
</svg>
