<svg width="24" height="24" viewBox="0 0 24 24" fill="none" xmlns="http://www.w3.org/2000/svg">
<path d="M7.5498 4.4515C9.2306 3.48048 11.1842 3.08985 13.1094 3.33822C15.0345 3.58662 16.8248 4.46069 18.2041 5.8265C19.5834 7.19242 20.476 8.97409 20.7432 10.8968C20.8001 11.307 20.5136 11.6853 20.1035 11.7425C19.6932 11.7995 19.3138 11.5131 19.2568 11.1029C19.0348 9.50619 18.2939 8.02721 17.1484 6.8929C16.003 5.75857 14.5168 5.03188 12.918 4.82552C11.3192 4.61923 9.69664 4.94405 8.30077 5.75033C7.24388 6.36091 6.3611 7.22232 5.72558 8.25033H7.99999C8.41421 8.25033 8.74999 8.58611 8.74999 9.00033C8.74983 9.41441 8.41411 9.75033 7.99999 9.75033H3.99999C3.58588 9.75033 3.25015 9.41441 3.24999 9.00033V5.00033C3.24999 4.58611 3.58578 4.25033 3.99999 4.25033C4.41421 4.25033 4.74999 4.58611 4.74999 5.00033V7.01009C5.48367 5.97144 6.43549 5.09525 7.5498 4.4515Z" fill="#737985"/>
<path d="M19.25 19V16.9893C18.5163 18.028 17.5645 18.904 16.4502 19.5479C14.7694 20.5189 12.8158 20.9105 10.8906 20.6621C8.96554 20.4137 7.17517 19.5396 5.79589 18.1739C4.41663 16.808 3.52407 15.0262 3.25683 13.1035C3.19982 12.6933 3.48633 12.314 3.89648 12.2569C4.30667 12.1999 4.68603 12.4864 4.74316 12.8965C4.96507 14.4933 5.70602 15.973 6.85156 17.1074C7.99701 18.2417 9.48326 18.9685 11.082 19.1748C12.6809 19.3811 14.3033 19.0554 15.6992 18.249C16.7559 17.6386 17.6379 16.7777 18.2734 15.75H16C15.5858 15.75 15.25 15.4142 15.25 15C15.25 14.5858 15.5858 14.25 16 14.25H20C20.4142 14.25 20.75 14.5858 20.75 15V19C20.75 19.4142 20.4142 19.75 20 19.75C19.5858 19.75 19.25 19.4142 19.25 19Z" fill="#737985"/>
</svg>
