<svg width="24" height="24" viewBox="0 0 24 24" fill="none" xmlns="http://www.w3.org/2000/svg">
<path d="M20.2499 12C20.2499 7.44365 16.5562 3.75 11.9999 3.75C7.44354 3.75 3.74989 7.44365 3.74989 12C3.74989 16.5563 7.44354 20.25 11.9999 20.25C16.5562 20.25 20.2499 16.5563 20.2499 12ZM21.7499 12C21.7499 17.3848 17.3847 21.75 11.9999 21.75C6.61512 21.75 2.24989 17.3848 2.24989 12C2.24989 6.61522 6.61512 2.25 11.9999 2.25C17.3847 2.25 21.7499 6.61522 21.7499 12Z" fill="#737985"/>
<path d="M11.9956 9.84766C11.4433 9.84766 10.9956 9.39994 10.9956 8.84766C10.9956 8.29537 11.4433 7.84766 11.9956 7.84766H12.0044C12.5567 7.84766 13.0044 8.29537 13.0044 8.84766C13.0044 9.39994 12.5567 9.84766 12.0044 9.84766H11.9956Z" fill="#737985"/>
<path d="M12.7466 11.5527V15.1523C12.7466 15.5666 12.4108 15.9023 11.9966 15.9023C11.5824 15.9023 11.2466 15.5666 11.2466 15.1523V11.5527C11.2466 11.1385 11.5824 10.8027 11.9966 10.8027C12.4108 10.8027 12.7466 11.1385 12.7466 11.5527Z" fill="#737985"/>
</svg>
