<svg width="24" height="24" viewBox="0 0 24 24" fill="none" xmlns="http://www.w3.org/2000/svg">
<path d="M10.2388 16.4981L16.6242 12.958L13.7233 11.3356L7.3422 14.9047L10.2388 16.4981ZM16.9179 9.25716L14.0139 7.63476V10.8469L16.9185 12.4699L16.9179 9.25716ZM17.2078 5.52374L14.3045 7.14614L17.2078 8.76854L20.1106 7.14554L17.2078 5.52374ZM9.95069 12.7943V5.71764L7.04613 7.34123V14.4179L9.95069 12.7943ZM6.75555 3.60721L3.8522 5.23021L6.75555 6.8532L9.65706 5.23021L6.75555 3.60721ZM3.56102 5.71823V16.66L9.94886 20.2309V16.9867L6.60843 15.1508C6.59744 15.1431 6.58889 15.1348 6.57729 15.1277C6.56875 15.12 6.55898 15.1141 6.55043 15.1075L6.54982 15.1057C6.54067 15.0969 6.53273 15.0874 6.52602 15.0767C6.51747 15.069 6.51014 15.0595 6.50404 15.0494L6.5016 15.0488C6.49671 15.0399 6.49183 15.0281 6.48695 15.0162L6.48634 15.0138C6.48206 15.0049 6.47718 14.9949 6.47291 14.9836L6.4723 14.9818C6.46985 14.97 6.46741 14.9551 6.46619 14.9403V14.9391C6.46436 14.9302 6.46253 14.9196 6.46131 14.9089V7.34242L3.56102 5.71823ZM16.9185 16.6594V13.4442L10.5306 16.9867V20.2303L16.9185 16.6594ZM20.4005 10.8469V7.63476L17.4972 9.25775V12.4699L20.4005 10.8469ZM20.9719 7.07261C20.9786 7.09514 20.9829 7.12064 20.9829 7.14732V11.0094C20.9829 11.1138 20.9249 11.2045 20.8382 11.2531L20.837 11.2537L17.499 13.121V16.8218C17.499 16.9256 17.441 17.0163 17.355 17.0656L17.3537 17.0662L10.3847 20.962C10.3701 20.9698 10.353 20.9769 10.3353 20.9816L10.3334 20.9822L10.3151 20.9899C10.2932 20.9964 10.2675 21 10.2413 21C10.215 21 10.1894 20.9964 10.165 20.9893L10.1668 20.9899C10.1576 20.9875 10.1503 20.9846 10.143 20.9804C10.1241 20.9739 10.1088 20.9686 10.0935 20.9615L10.096 20.9626L3.12881 17.0667C3.0409 17.0169 2.98291 16.9262 2.98291 16.8224V5.2308C2.98291 5.20471 2.98718 5.17921 2.99451 5.15549L2.9939 5.15727C2.99634 5.14838 3.00183 5.14245 3.00489 5.13355C3.01038 5.11636 3.01649 5.10212 3.0232 5.08849L3.02259 5.09027C3.02747 5.08078 3.03358 5.07248 3.04029 5.06536L3.06593 5.03156L3.09462 5.0114C3.10561 5.0025 3.11538 4.99361 3.12637 4.9859L6.61148 3.03795C6.65299 3.01423 6.70305 3 6.75616 3C6.80927 3 6.85933 3.01423 6.90206 3.03854L6.90084 3.03795L10.3866 4.9859C10.3982 4.99361 10.4079 5.00191 10.4177 5.01081L10.447 5.03097C10.4568 5.04164 10.4623 5.0535 10.4726 5.06477C10.48 5.07188 10.4861 5.08018 10.4916 5.08908C10.4977 5.10094 10.5044 5.11576 10.5099 5.13059L10.5105 5.13296L10.5202 5.15668C10.527 5.17743 10.5312 5.20175 10.5312 5.22665C10.5312 5.22784 10.5312 5.22902 10.5312 5.23021V12.4693L13.4346 10.8464V7.14554C13.4346 7.14495 13.4346 7.14436 13.4346 7.14436C13.4346 7.11886 13.4382 7.09396 13.445 7.07024L13.4443 7.07201C13.4468 7.06431 13.4523 7.05719 13.4541 7.0483C13.4602 7.03051 13.4663 7.01627 13.4737 7.00204L13.4724 7.00441C13.4779 6.99552 13.4865 6.98959 13.492 6.97951C13.5011 6.96824 13.5084 6.95698 13.5176 6.94749C13.5262 6.93978 13.5353 6.93266 13.5451 6.92673C13.5561 6.91903 13.5658 6.90894 13.5774 6.90242L17.0625 4.95388C17.1041 4.93016 17.1541 4.91593 17.2072 4.91593C17.2603 4.91593 17.3104 4.93016 17.3531 4.95447L17.3519 4.95388L20.8364 6.90242C20.8486 6.91013 20.8572 6.91843 20.8688 6.92555C20.8779 6.93326 20.8883 6.93919 20.8968 6.9463C20.9066 6.95698 20.9139 6.96884 20.9231 6.97951C20.9298 6.98663 20.9359 6.99493 20.9414 7.00323C20.9487 7.01627 20.9554 7.03169 20.9603 7.04711L20.9609 7.04889C20.9658 7.056 20.9689 7.06431 20.9719 7.07261Z" fill="#737985"/>
<path d="M10.0474 21.0498L10.0503 21.0449L10.0552 21.0352L10.0474 21.0498ZM6.19092 7.5L3.83057 6.17773V16.5L9.6792 19.7705V17.1465L6.47803 15.3877L6.46533 15.3799L6.45361 15.3721C6.44576 15.3666 6.43867 15.361 6.43408 15.3574C6.43196 15.3558 6.42958 15.3546 6.42822 15.3535C6.42719 15.3527 6.42679 15.352 6.42627 15.3516L6.41455 15.3447L6.40381 15.335C6.40297 15.3344 6.40189 15.3337 6.40088 15.333C6.39768 15.3307 6.39217 15.3268 6.38623 15.3223L6.38135 15.3184H6.34229L6.26514 15.1787C6.25143 15.1537 6.23976 15.1263 6.23682 15.1191L6.22998 15.1016C6.22702 15.0947 6.22324 15.0871 6.22021 15.0791L6.21729 15.0713V15.0693L6.21143 15.0527L6.20752 15.0361C6.20503 15.024 6.20385 15.0092 6.20166 14.9932C6.19856 14.978 6.19515 14.9594 6.19287 14.9395L6.19092 14.9238V7.5ZM16.9185 16.6594L10.5306 20.2303V16.9867L16.9185 13.4442V16.6594ZM10.8003 17.1455V19.7705L16.6489 16.5V13.9023L10.8003 17.1455ZM16.6242 12.958L10.2388 16.4981L7.3422 14.9047L13.7233 11.3356L16.6242 12.958ZM7.89893 14.9023L10.2378 16.1895L16.0688 12.9561L13.7231 11.6445L7.89893 14.9023ZM9.95069 12.7943L7.04613 14.4179V7.34123L9.95069 5.71764V12.7943ZM7.31592 7.5V13.958L8.13428 13.501L9.68115 12.6348V6.17676L7.31592 7.5ZM10.5312 5.22665C10.5312 5.20175 10.527 5.17743 10.5202 5.15668L10.5105 5.13296L10.5099 5.13059L10.4916 5.08908C10.4861 5.08018 10.48 5.07188 10.4726 5.06477C10.4623 5.0535 10.4568 5.04164 10.447 5.03097L10.4177 5.01081L10.3866 4.9859L6.90084 3.03795C6.87941 3.0258 6.85708 3.01633 6.83252 3.00977L6.75616 3C6.70305 3 6.65299 3.01423 6.61148 3.03795L3.12744 4.98633C3.11651 4.99401 3.10557 5.00254 3.09462 5.0114L3.06593 5.03156L3.04029 5.06536L3.02259 5.09027C3.01595 5.10378 3.01033 5.11653 3.00489 5.13355L2.99451 5.15549L2.98291 5.2308V16.8224C2.98291 16.9262 3.0409 17.0169 3.12881 17.0667L10.096 20.9626C10.1104 20.9692 10.1262 20.9753 10.144 20.9814L10.143 20.9804C10.1503 20.9846 10.1576 20.9875 10.1668 20.9899L10.165 20.9893L10.2413 21C10.2675 21 10.2932 20.9964 10.3151 20.9899L10.3334 20.9822L10.3353 20.9816C10.353 20.9769 10.3701 20.9698 10.3847 20.962L17.3537 17.0662L17.355 17.0656C17.4196 17.0286 17.4685 16.9682 17.4888 16.8965L17.499 16.8218V13.121L20.837 11.2537L20.8382 11.2531C20.903 11.2167 20.9518 11.1566 20.9722 11.085L20.9829 11.0094V7.14732L20.9719 7.07261C20.9689 7.06431 20.9658 7.056 20.9609 7.04889L20.9603 7.04711L20.9414 7.00323L20.9231 6.97951C20.9139 6.96884 20.9066 6.95698 20.8968 6.9463L20.8688 6.92555L20.8364 6.90242L17.3519 4.95388C17.3305 4.94172 17.3083 4.93236 17.2837 4.92578L17.2072 4.91593C17.1541 4.91593 17.1041 4.93016 17.0625 4.95388L13.5774 6.90242C13.5658 6.90894 13.5564 6.91807 13.5454 6.92578L13.5176 6.94749C13.5084 6.95698 13.5011 6.96824 13.492 6.97951C13.487 6.98857 13.4791 6.99448 13.4737 7.00204L13.4541 7.0483L13.4443 7.07201L13.445 7.07024C13.4382 7.09396 13.4346 7.11886 13.4346 7.14436V10.8464L10.5312 12.4693V5.22665ZM16.9179 9.25716L16.9185 12.4699L14.0139 10.8469V7.63476L16.9179 9.25716ZM20.4005 10.8469L17.4972 12.4699V9.25775L20.4005 7.63476V10.8469ZM14.2837 10.6875L16.6479 12.0098V9.41504L14.2837 8.09375V10.6875ZM17.7671 9.41602V12.0098L20.1304 10.6885V8.09473L17.7671 9.41602ZM20.1106 7.14554L17.2078 8.76854L14.3045 7.14614L17.2078 5.52374L20.1106 7.14554ZM14.8579 7.14551L17.2075 8.45898L19.5571 7.14551L17.2075 5.83301L14.8579 7.14551ZM13.1899 6.99414L13.2124 6.99805L13.1899 6.99121V6.99414ZM9.65706 5.23021L6.75555 6.8532L3.8522 5.23021L6.75555 3.60721L9.65706 5.23021ZM4.40479 5.22949L6.75439 6.54297L9.10303 5.22949L6.75439 3.91602L4.40479 5.22949ZM2.76123 5.01758C2.75844 5.02311 2.75386 5.03324 2.74951 5.0459C2.75651 5.02967 2.76147 5.0177 2.76318 5.01465C2.7627 5.01556 2.76179 5.01647 2.76123 5.01758ZM6.46131 14.9089C6.46253 14.9194 6.46438 14.9315 6.46619 14.9403C6.46741 14.9551 6.46985 14.97 6.4723 14.9818L6.47291 14.9836C6.47718 14.9949 6.48206 15.0049 6.48634 15.0138L6.48695 15.0162L6.5016 15.0488L6.50404 15.0494C6.51014 15.0595 6.51747 15.069 6.52602 15.0767C6.53273 15.0874 6.54067 15.0969 6.54982 15.1057L6.55043 15.1075C6.55898 15.1141 6.56875 15.12 6.57729 15.1277C6.58889 15.1348 6.59744 15.1431 6.60843 15.1508L9.94886 16.9867V20.2309L3.56102 16.66V5.71823L6.46131 7.34242V14.9089ZM21.0376 6.71484C21.0397 6.71629 21.044 6.71948 21.0483 6.72266L21.0698 6.73926L21.0835 6.75098L21.0962 6.76367C21.1112 6.78002 21.1221 6.79594 21.1265 6.80176C21.1271 6.80263 21.128 6.80312 21.1284 6.80371C21.1314 6.80711 21.1325 6.81114 21.1353 6.81445L21.1577 6.83691L21.1772 6.87207C21.1901 6.89508 21.1985 6.91873 21.2065 6.94043C21.2137 6.9547 21.2217 6.96677 21.2261 6.97852L21.2866 7.14355L21.2524 7.17578V11.0098C21.2523 11.2178 21.1364 11.395 20.9702 11.4883H20.9683L20.9692 11.4893L17.769 13.2783V16.8223C17.7689 17.03 17.6523 17.2063 17.4888 17.2998L17.481 17.3047L17.4731 17.3086L10.5161 21.1973L10.5103 21.2012C10.4891 21.2123 10.4637 21.2203 10.437 21.2295L10.438 21.2314L10.4194 21.2393L10.3921 21.249C10.3426 21.2637 10.2908 21.2695 10.2417 21.2695C10.191 21.2695 10.1394 21.2636 10.0894 21.249V21.2471C10.0873 21.2465 10.0856 21.2448 10.0835 21.2441V21.2471L10.0815 21.2461V21.2441C10.0727 21.2414 10.0648 21.2368 10.0562 21.2334L10.0552 21.2363C10.0333 21.2288 10.0068 21.219 9.979 21.2061L9.99365 21.1748L9.97803 21.2051L9.9751 21.2041L10.021 21.1074L10.0063 21.1211L9.96436 21.1982L2.99658 17.3027L2.99561 17.3018C2.83013 17.208 2.71338 17.0311 2.71338 16.8223V5.23047C2.71341 5.179 2.72202 5.13051 2.73486 5.08594C2.73524 5.08456 2.73545 5.08338 2.73584 5.08203C2.7364 5.08014 2.73624 5.07805 2.73682 5.07617C2.73757 5.07376 2.73994 5.07164 2.74072 5.06934H2.73877V5.06738H2.7417C2.74392 5.06101 2.74628 5.05524 2.74854 5.0498C2.75871 5.01827 2.76956 4.9915 2.78076 4.96875L2.81201 4.98145L2.78271 4.9668C2.79528 4.94239 2.81206 4.92249 2.82764 4.90332L2.82471 4.90234L2.85107 4.86816L2.87646 4.83496L2.91064 4.81055L2.93311 4.79395C2.93435 4.7929 2.93599 4.7917 2.93799 4.79004C2.94511 4.78414 2.9569 4.77467 2.97119 4.76465L3.0415 4.71582H3.05713L6.47705 2.80469C6.55863 2.75808 6.65542 2.73047 6.75635 2.73047C6.85096 2.7305 6.93998 2.75493 7.01807 2.7959L7.01904 2.79492L7.02002 2.7959C7.02517 2.79862 7.03059 2.80084 7.03564 2.80371L7.03467 2.80469L10.5181 4.75L10.5278 4.75488L10.5356 4.76074C10.5488 4.76948 10.5597 4.77994 10.5698 4.78809L10.6001 4.80859L10.6255 4.82617L10.646 4.84863C10.6567 4.86031 10.6655 4.87084 10.6714 4.87891C10.6768 4.88631 10.6818 4.89364 10.6831 4.89551C10.6874 4.90179 10.6811 4.89243 10.6714 4.88184L10.6694 4.88281C10.6742 4.88787 10.6779 4.89348 10.6821 4.89844L10.7124 4.92676L10.7319 4.96582C10.743 4.98727 10.7524 5.0098 10.7603 5.03027L10.77 5.05371L10.7739 5.06348L10.7769 5.07324C10.7918 5.11941 10.8013 5.17203 10.8013 5.22656V12.0088L13.1646 10.6875V7.14453C13.1646 7.09326 13.1719 7.04358 13.1851 6.99707L13.3354 7.03906L13.2124 6.99805L13.1899 6.99414V6.99121L13.187 6.99023C13.1926 6.97262 13.1992 6.95849 13.2026 6.95117L13.2075 6.94141C13.2156 6.92013 13.2236 6.89894 13.2339 6.87891L13.436 6.98242L13.2427 6.8623C13.2503 6.84997 13.258 6.83984 13.2642 6.83203L13.2671 6.82812L13.2827 6.80957C13.2824 6.80996 13.2825 6.80925 13.2837 6.80762L13.2896 6.79883C13.2951 6.79152 13.3078 6.77623 13.3237 6.75977L13.3296 6.75293L13.3364 6.74707C13.3441 6.74019 13.3535 6.73382 13.3628 6.72656L13.3726 6.71777L13.3872 6.70605C13.3882 6.70528 13.39 6.70503 13.3911 6.7041C13.3983 6.69823 13.4181 6.68202 13.4448 6.66699L13.5063 6.63281L16.9312 4.71777C17.0122 4.67209 17.1077 4.64551 17.2075 4.64551C17.302 4.64556 17.3912 4.67008 17.4692 4.71094L17.4712 4.71191C17.4751 4.71396 17.4791 4.71565 17.4829 4.71777L20.9683 6.66699L20.9741 6.66992L20.981 6.67383C20.9933 6.68162 21.0035 6.69019 21.0103 6.69531L21.0269 6.70605L21.0376 6.71484Z" fill="#737985"/>
</svg>
