<svg width="24" height="24" viewBox="0 0 24 24" fill="none" xmlns="http://www.w3.org/2000/svg">
<path d="M3.75 18.0048V17.995C3.75 17.5808 4.08579 17.245 4.5 17.245C4.91421 17.245 5.25 17.5808 5.25 17.995V18.0048C5.25 18.419 4.91421 18.7548 4.5 18.7548C4.08579 18.7548 3.75 18.419 3.75 18.0048Z" fill="#737985"/>
<path d="M3.75 12.0048V11.995C3.75 11.5808 4.08579 11.245 4.5 11.245C4.91421 11.245 5.25 11.5808 5.25 11.995V12.0048C5.25 12.419 4.91421 12.7548 4.5 12.7548C4.08579 12.7548 3.75 12.419 3.75 12.0048Z" fill="#737985"/>
<path d="M19.5 17.245C19.9142 17.245 20.25 17.5808 20.25 17.995C20.25 18.4092 19.9142 18.745 19.5 18.745H8.5C8.08579 18.745 7.75 18.4092 7.75 17.995C7.75 17.5808 8.08579 17.245 8.5 17.245H19.5Z" fill="#737985"/>
<path d="M19.5 11.245C19.9142 11.245 20.25 11.5808 20.25 11.995C20.25 12.4092 19.9142 12.745 19.5 12.745H8.5C8.08579 12.745 7.75 12.4092 7.75 11.995C7.75 11.5808 8.08579 11.245 8.5 11.245H19.5Z" fill="#737985"/>
<path d="M3.75 6.00476V5.995C3.75 5.58078 4.08579 5.245 4.5 5.245C4.91421 5.245 5.25 5.58078 5.25 5.995V6.00476C5.25 6.41897 4.91421 6.75476 4.5 6.75476C4.08579 6.75476 3.75 6.41897 3.75 6.00476Z" fill="#737985"/>
<path d="M19.5 5.245C19.9142 5.245 20.25 5.58078 20.25 5.995C20.25 6.40921 19.9142 6.745 19.5 6.745H8.5C8.08579 6.745 7.75 6.40921 7.75 5.995C7.75 5.58078 8.08579 5.245 8.5 5.245H19.5Z" fill="#737985"/>
</svg>
