<svg width="24" height="24" viewBox="0 0 24 24" fill="none" xmlns="http://www.w3.org/2000/svg">
<path d="M19 5.24963C19.4141 5.24964 19.7499 5.58554 19.75 5.99963C19.75 6.41384 19.4142 6.74963 19 6.74963H5C4.58579 6.74963 4.25 6.41384 4.25 5.99963C4.25001 5.58542 4.58579 5.24963 5 5.24963H19Z" fill="#737985"/>
<path d="M19 11.2499C19.4141 11.2499 19.7499 11.5858 19.75 11.9999C19.75 12.4141 19.4142 12.7499 19 12.7499H5C4.58579 12.7499 4.25 12.4141 4.25 11.9999C4.25001 11.5857 4.58579 11.2499 5 11.2499H19Z" fill="#737985"/>
<path d="M19 17.2501C19.4141 17.2501 19.7499 17.586 19.75 18.0001C19.75 18.4143 19.4142 18.7501 19 18.7501H5C4.58579 18.7501 4.25 18.4143 4.25 18.0001C4.25001 17.5859 4.58579 17.2501 5 17.2501H19Z" fill="#737985"/>
</svg>
