<svg width="24" height="24" viewBox="0 0 24 24" fill="none" xmlns="http://www.w3.org/2000/svg">
<path d="M2.25 17.3057C2.25001 16.0353 2.43574 14.7716 2.80078 13.5547L4.80273 6.8819C4.93868 6.42875 5.04737 6.03414 5.26855 5.71588C5.54797 5.31409 5.95091 5.01363 6.41602 4.86139C6.69239 4.77097 6.99215 4.75317 7.32422 4.75006H8.22266C8.63665 4.75032 8.97266 5.08601 8.97266 5.50006C8.97266 5.91411 8.63665 6.2498 8.22266 6.25006H7.66797C7.08693 6.25006 6.96883 6.25903 6.88281 6.28717C6.72773 6.33791 6.59316 6.43837 6.5 6.57233C6.44848 6.64661 6.40579 6.75748 6.23926 7.31256L4.2373 13.9864C3.91428 15.0633 3.75001 16.1815 3.75 17.3057C3.75 17.7199 3.41421 18.0557 3 18.0557C2.58579 18.0557 2.25 17.7199 2.25 17.3057ZM20.25 17.2715C20.25 16.1698 20.089 15.0739 19.7725 14.0186L17.7607 7.31256C17.5942 6.75748 17.5515 6.64661 17.5 6.57233C17.4068 6.43837 17.2723 6.33791 17.1172 6.28717C17.0312 6.25903 16.9131 6.25006 16.332 6.25006H15.7451C15.3309 6.25006 14.9951 5.91427 14.9951 5.50006C14.9951 5.08585 15.3309 4.75006 15.7451 4.75006H16.6758C17.0078 4.75317 17.3076 4.77097 17.584 4.86139C18.0491 5.01363 18.452 5.31409 18.7314 5.71588C18.9526 6.03414 19.0613 6.42875 19.1973 6.8819L21.209 13.587C21.5675 14.7822 21.75 16.0237 21.75 17.2715C21.75 17.6858 21.4142 18.0215 21 18.0215C20.5858 18.0215 20.25 17.6858 20.25 17.2715Z" fill="#737985"/>
<path d="M20.25 17.2684C20.25 15.8976 19.1384 14.7859 17.7676 14.7859H6.23242C4.86162 14.7859 3.75 15.8976 3.75 17.2684C3.7502 18.639 4.86174 19.7498 6.23242 19.7498H17.7676C19.1383 19.7498 20.2498 18.639 20.25 17.2684ZM21.75 17.2684C21.7498 19.4674 19.9667 21.2498 17.7676 21.2498H6.23242C4.03332 21.2498 2.2502 19.4674 2.25 17.2684C2.25 15.0691 4.03319 13.2859 6.23242 13.2859H17.7676C19.9668 13.2859 21.75 15.0691 21.75 17.2684Z" fill="#737985"/>
<path d="M6.79984 16.5202C7.21405 16.5202 7.54984 16.856 7.54984 17.2702C7.54984 17.6844 7.21405 18.0202 6.79984 18.0202C6.38562 18.0202 6.04886 17.6844 6.04886 17.2702C6.04886 16.856 6.38562 16.5202 6.79984 16.5202Z" fill="#737985"/>
<path d="M17.3301 16.5202C17.7443 16.5202 18.0801 16.856 18.0801 17.2702C18.0801 17.6844 17.7443 18.0202 17.3301 18.0202H9.78323C9.36902 18.0202 9.03323 17.6844 9.03323 17.2702C9.03323 16.856 9.36902 16.5202 9.78323 16.5202H17.3301Z" fill="#737985"/>
<path d="M12.5468 11.2646C12.2522 11.505 11.8175 11.4875 11.5429 11.2129L9.04286 8.71289C8.74997 8.42 8.74997 7.94524 9.04286 7.65234C9.33576 7.35945 9.81052 7.35945 10.1034 7.65234L12.0731 9.62207L14.0429 7.65234C14.3358 7.35945 14.8105 7.35945 15.1034 7.65234C15.3963 7.94524 15.3963 8.42 15.1034 8.71289L12.6034 11.2129L12.5468 11.2646Z" fill="#737985"/>
<path d="M12.8231 3.50012L12.8231 10.4796C12.8231 10.8938 12.4873 11.2296 12.0731 11.2296C11.6589 11.2296 11.3231 10.8938 11.3231 10.4796L11.3231 3.50012C11.3231 3.08591 11.6589 2.75012 12.0731 2.75012C12.4873 2.75012 12.8231 3.08591 12.8231 3.50012Z" fill="#737985"/>
</svg>
