<svg width="24" height="24" viewBox="0 0 24 24" fill="none" xmlns="http://www.w3.org/2000/svg">
<path d="M18.813 12.415C18.813 11.9663 18.8125 11.6765 18.7945 11.456C18.7772 11.2447 18.7476 11.1663 18.728 11.1279C18.6535 10.9815 18.5345 10.8626 18.3882 10.788C18.3498 10.7684 18.2712 10.7389 18.0601 10.7216C17.8396 10.7036 17.5496 10.7031 17.1011 10.7031H6.89895C6.4503 10.7031 6.16045 10.7036 5.93996 10.7216C5.72867 10.7389 5.65031 10.7684 5.61184 10.788C5.46549 10.8626 5.34659 10.9815 5.27199 11.1279C5.25239 11.1663 5.22286 11.2447 5.20559 11.456C5.18757 11.6765 5.18703 11.9663 5.18703 12.415V18.5097C5.18703 18.9584 5.18757 19.2482 5.20559 19.4687C5.22286 19.6801 5.25239 19.7583 5.27199 19.7968C5.34658 19.9432 5.46548 20.062 5.61184 20.1367C5.6503 20.1563 5.72868 20.1858 5.93996 20.2031C6.16045 20.2211 6.4503 20.2216 6.89895 20.2216H17.1011C17.5496 20.2216 17.8396 20.2211 18.0601 20.2031C18.2712 20.1858 18.3498 20.1562 18.3882 20.1367C18.5345 20.062 18.6535 19.9431 18.728 19.7968C18.7477 19.7583 18.7772 19.6799 18.7945 19.4687C18.8125 19.2482 18.813 18.9584 18.813 18.5097V12.415ZM20.3696 18.5097C20.3696 18.9327 20.3696 19.2971 20.3452 19.5956C20.3201 19.9032 20.2648 20.2095 20.1148 20.5038C19.8909 20.943 19.5335 21.2996 19.0943 21.5234C18.7998 21.6734 18.4937 21.7297 18.1861 21.7548C17.8876 21.7792 17.5238 21.7783 17.1011 21.7783H6.89895C6.47597 21.7783 6.11157 21.7792 5.81301 21.7548C5.50546 21.7297 5.19916 21.6734 4.90481 21.5234C4.46588 21.2996 4.10903 20.9428 3.88527 20.5038C3.73528 20.2095 3.67898 19.9032 3.65383 19.5956C3.62943 19.2971 3.63039 18.9327 3.63039 18.5097V12.415C3.63039 11.992 3.62944 11.6276 3.65383 11.329C3.67898 11.0215 3.73529 10.7152 3.88527 10.4208C4.10904 9.98192 4.46589 9.62507 4.90481 9.40131C5.19916 9.25132 5.50545 9.19501 5.81301 9.16986C6.11157 9.14547 6.47597 9.14642 6.89895 9.14642H17.1011C17.5238 9.14642 17.8876 9.1455 18.1861 9.16986C18.4937 9.195 18.7998 9.2513 19.0943 9.40131C19.5334 9.62508 19.8909 9.98171 20.1148 10.4208C20.2647 10.7152 20.3201 11.0215 20.3452 11.329C20.3696 11.6276 20.3696 11.992 20.3696 12.415V18.5097Z" fill="#737985"/>
<path d="M14.9799 6.75781C14.9796 5.11219 13.6451 3.77832 11.9994 3.77832C10.354 3.77857 9.02018 5.11234 9.01993 6.75781V9.34766H7.46329V6.75781C7.46354 4.25274 9.49435 2.22193 11.9994 2.22168C14.5047 2.22168 16.5363 4.25259 16.5365 6.75781V9.70996H14.9799V6.75781Z" fill="#737985"/>
<path d="M13.1368 14.549C13.1368 13.921 12.6281 13.4114 12.0001 13.4113C11.372 13.4113 10.8624 13.9209 10.8624 14.549C10.8624 14.9693 11.0905 15.337 11.4317 15.5344C11.592 15.6271 11.6905 15.7984 11.6905 15.9836V17.5285C11.6905 17.5468 11.7054 17.5616 11.7237 17.5617H12.2755C12.2938 17.5617 12.3087 17.5469 12.3087 17.5285V15.9836C12.3087 15.7984 12.4081 15.6271 12.5684 15.5344C12.9096 15.337 13.1367 14.9692 13.1368 14.549ZM14.1749 14.549C14.1748 15.2417 13.8499 15.8573 13.3467 16.2551V17.5285C13.3467 18.1199 12.8669 18.5998 12.2755 18.5998H11.7237C11.1324 18.5997 10.6534 18.1199 10.6534 17.5285V16.2551C10.1501 15.8573 9.82531 15.2418 9.82526 14.549C9.82526 13.3479 10.7989 12.3742 12.0001 12.3742C13.2011 12.3743 14.1749 13.3479 14.1749 14.549Z" fill="#737985"/>
</svg>
