<svg width="24" height="24" viewBox="0 0 24 24" fill="none" xmlns="http://www.w3.org/2000/svg">
<path d="M9.10035 9.02441V5.5C9.10035 5.08579 9.43614 4.75 9.85035 4.75H18.8504C19.2646 4.75 19.6003 5.08579 19.6003 5.5V18.5C19.6003 18.9142 19.2646 19.25 18.8504 19.25H9.85035C9.43614 19.25 9.10035 18.9142 9.10035 18.5V17.7969C9.10035 17.3827 8.76456 17.0469 8.35035 17.0469C7.93614 17.0469 7.60035 17.3827 7.60035 17.7969V18.5C7.60035 19.7426 8.60771 20.75 9.85035 20.75H18.8504C20.093 20.75 21.1003 19.7426 21.1003 18.5V5.5C21.1003 4.25736 20.093 3.25 18.8504 3.25H9.85035C8.60771 3.25 7.60035 4.25736 7.60035 5.5V9.02441C7.60035 9.43863 7.93614 9.77441 8.35035 9.77441C8.76456 9.77441 9.10035 9.43863 9.10035 9.02441Z" fill="#737985"/>
<path d="M15.1461 13.0264C15.3864 13.3209 15.369 13.7557 15.0944 14.0303L12.5944 16.5303C12.3015 16.8232 11.8267 16.8232 11.5338 16.5303C11.2409 16.2374 11.2409 15.7626 11.5338 15.4697L13.5035 13.5L11.5338 11.5303C11.2409 11.2374 11.2409 10.7626 11.5338 10.4697C11.8267 10.1768 12.3015 10.1768 12.5944 10.4697L15.0944 12.9697L15.1461 13.0264Z" fill="#737985"/>
<path d="M3.64917 12.75L14.3611 12.75C14.7753 12.75 15.1111 13.0858 15.1111 13.5C15.1111 13.9142 14.7753 14.25 14.3611 14.25L3.64917 14.25C3.23512 14.2498 2.89917 13.9141 2.89917 13.5C2.89917 13.0859 3.23512 12.7502 3.64917 12.75Z" fill="#737985"/>
</svg>
