<svg width="24" height="24" viewBox="0 0 24 24" fill="none" xmlns="http://www.w3.org/2000/svg">
<path d="M6.89746 11.2471L7.24316 11.2578C8.04799 11.3064 8.83531 11.5239 9.55273 11.8975C10.3726 12.3245 11.0774 12.9429 11.6074 13.7002L12.1211 14.4336C12.5129 14.9934 13.0345 15.451 13.6406 15.7666C14.2467 16.0822 14.9203 16.247 15.6035 16.2471H21C21.4142 16.2471 21.75 16.5829 21.75 16.9971C21.75 17.4113 21.4142 17.7471 21 17.7471H15.6025C14.6782 17.7469 13.7671 17.5236 12.9473 17.0967C12.2299 16.7231 11.6008 16.2028 11.0996 15.5713L10.8926 15.294L10.3789 14.5606C9.98708 14.0007 9.46545 13.5432 8.85938 13.2275C8.25335 12.912 7.57975 12.7471 6.89648 12.7471H3C2.58579 12.7471 2.25 12.4113 2.25 11.9971C2.25 11.5829 2.58579 11.2471 3 11.2471H6.89746Z" fill="#737985"/>
<path d="M21 6.2461C21.4142 6.2461 21.75 6.58188 21.75 6.9961C21.75 7.41031 21.4142 7.7461 21 7.7461H15.6045C14.9209 7.74614 14.2469 7.91071 13.6406 8.22657C13.0345 8.54242 12.5138 9.00041 12.1221 9.56055L11.6123 10.291C11.0824 11.0489 10.3768 11.6683 9.55664 12.0957C8.73651 12.5231 7.82519 12.7459 6.90039 12.7461L3 12.7471C2.58579 12.7471 2.25 12.4113 2.25 11.9971C2.25 11.5829 2.58579 11.2471 3 11.2471L6.89941 11.2461C7.58304 11.246 8.25703 11.0806 8.86328 10.7647C9.4693 10.4488 9.99019 9.99167 10.3818 9.43164L10.8926 8.70118C11.4226 7.94311 12.1279 7.32388 12.9482 6.89649C13.7686 6.46913 14.6805 6.24606 15.6055 6.2461H21Z" fill="#737985"/>
<path d="M17.4683 3.46875C17.7612 3.17586 18.2359 3.17586 18.5288 3.46875L21.5288 6.46875C21.8217 6.76165 21.8217 7.23641 21.5288 7.5293L18.5288 10.5293C18.2359 10.8222 17.7612 10.8222 17.4683 10.5293C17.1754 10.2364 17.1754 9.76165 17.4683 9.46875L19.938 6.99903L17.4683 4.5293C17.1754 4.23641 17.1754 3.76165 17.4683 3.46875Z" fill="#737985"/>
<path d="M17.4683 13.4707C17.7612 13.1778 18.2359 13.1778 18.5288 13.4707L21.5288 16.4707C21.8217 16.7636 21.8217 17.2384 21.5288 17.5313L18.5288 20.5313C18.2359 20.8241 17.7612 20.8241 17.4683 20.5313C17.1754 20.2384 17.1754 19.7636 17.4683 19.4707L19.938 17.001L17.4683 14.5313C17.1754 14.2384 17.1754 13.7636 17.4683 13.4707Z" fill="#737985"/>
</svg>
