<svg width="24" height="24" viewBox="0 0 24 24" fill="none" xmlns="http://www.w3.org/2000/svg">
<path d="M17.633 2.25262C18.7242 2.25262 19.7706 2.68617 20.5422 3.4577C21.3138 4.22927 21.7473 5.27573 21.7473 6.36688C21.7473 6.3805 21.7471 6.3943 21.7463 6.4079C21.6296 8.54924 20.8807 10.6083 19.594 12.3239C18.5284 13.7446 17.1332 14.8771 15.5364 15.6286C15.2131 15.7809 14.9672 16.1044 14.8938 16.4958C14.7307 17.3648 14.4143 18.2012 13.9563 18.9645C13.7381 19.3282 13.4905 19.6715 13.2161 19.9909C12.6274 20.676 11.8014 20.7666 11.1184 20.5075C10.4698 20.2613 9.92275 19.7035 9.65551 19.0182C9.2449 17.9652 8.61855 17.0008 7.80883 16.1911C6.99913 15.3814 6.03465 14.756 4.98168 14.3454C4.29649 14.0782 3.73864 13.531 3.49242 12.8825C3.23314 12.1994 3.32382 11.3727 4.00902 10.7839C4.32836 10.5095 4.67177 10.2618 5.03539 10.0436C5.79871 9.58565 6.63515 9.2692 7.50414 9.10614C7.89561 9.0327 8.21908 8.78686 8.37133 8.46356C9.12288 6.86668 10.2562 5.47154 11.677 4.40594C13.3925 3.11945 15.4509 2.37039 17.592 2.2536L17.633 2.25262ZM17.6496 3.75262C15.8132 3.85755 14.0482 4.50228 12.5764 5.60614C11.3522 6.52431 10.3763 7.72629 9.72875 9.10223C9.35432 9.89776 8.60538 10.4261 7.78148 10.5807C7.08669 10.7111 6.41717 10.9636 5.80687 11.3298C5.51625 11.5042 5.2418 11.7023 4.98656 11.9216C4.90143 11.9947 4.87468 12.0587 4.86449 12.1071C4.85292 12.1624 4.85446 12.2441 4.89477 12.3503C4.98012 12.5749 5.20906 12.823 5.5266 12.947C6.77163 13.4324 7.91194 14.1732 8.86937 15.1306C9.82683 16.088 10.5675 17.2283 11.053 18.4733C11.1769 18.7911 11.4259 19.0199 11.6506 19.1052C11.7565 19.1453 11.8376 19.147 11.8928 19.1354C11.9412 19.1252 12.0052 19.0985 12.0784 19.0134C12.2977 18.7581 12.4957 18.4837 12.6702 18.1931C13.0363 17.5828 13.2898 16.9141 13.4202 16.2194C13.5747 15.3954 14.1021 14.6457 14.8977 14.2712C16.2737 13.6236 17.4756 12.6477 18.3938 11.4235C19.4977 9.95167 20.1414 8.18675 20.2463 6.35028C20.2419 5.66295 19.968 5.00459 19.4817 4.51825C18.9953 4.03192 18.337 3.75696 17.6496 3.75262Z" fill="#737985"/>
<path d="M6.04931 13.5641C6.40994 13.3605 6.86808 13.4877 7.07177 13.8482C7.2754 14.2089 7.14731 14.6671 6.78661 14.8707C5.74972 15.4562 4.91095 16.3379 4.37841 17.4029C3.99951 18.1607 3.7877 18.9869 3.75243 19.8258C3.7423 20.0669 3.93314 20.2578 4.17431 20.2477C5.01319 20.2124 5.83934 20.0006 6.59716 19.6217C7.66224 19.0891 8.54388 18.2504 9.12938 17.2135C9.33302 16.8528 9.79114 16.7247 10.1518 16.9283C10.5125 17.132 10.6396 17.5901 10.436 17.9508C9.70363 19.248 8.60049 20.2973 7.26806 20.9635C6.32005 21.4375 5.28618 21.7016 4.23681 21.7457C3.11857 21.7925 2.20753 20.8815 2.25438 19.7633C2.29847 18.7139 2.56358 17.68 3.03759 16.732C3.70381 15.3998 4.75222 14.2964 6.04931 13.5641Z" fill="#737985"/>
<path d="M15.7619 8.60962C15.7618 8.51124 15.7221 8.4165 15.6525 8.34692C15.5829 8.2775 15.4881 8.23853 15.3898 8.23853C15.2914 8.23863 15.1967 8.27735 15.1271 8.34692C15.0575 8.4165 15.0188 8.51124 15.0187 8.60962C15.0187 8.70796 15.0577 8.80269 15.1271 8.87231C15.1967 8.94189 15.2914 8.98159 15.3898 8.98169C15.4883 8.98169 15.5828 8.94198 15.6525 8.87231C15.7222 8.80265 15.7619 8.70814 15.7619 8.60962ZM17.2619 8.60962C17.2619 9.10597 17.064 9.58189 16.713 9.93286C16.3621 10.2838 15.8861 10.4817 15.3898 10.4817C14.8936 10.4816 14.4174 10.2837 14.0665 9.93286C13.7158 9.58193 13.5187 9.10579 13.5187 8.60962C13.5188 8.11341 13.7157 7.63726 14.0665 7.28638C14.4174 6.9355 14.8936 6.73863 15.3898 6.73853C15.886 6.73853 16.3621 6.93565 16.713 7.28638C17.0639 7.63726 17.2618 8.11341 17.2619 8.60962Z" fill="#737985"/>
</svg>
