<svg width="24" height="24" viewBox="0 0 24 24" fill="none" xmlns="http://www.w3.org/2000/svg">
<path d="M3.39456 4.09178C4.75416 2.73218 6.9587 2.73233 8.31839 4.09178L19.9082 15.6816C21.2678 17.0413 21.2679 19.2458 19.9082 20.6055C18.5486 21.9651 16.3441 21.965 14.9844 20.6055L3.39456 9.01561C2.03511 7.65592 2.03496 5.45138 3.39456 4.09178ZM7.25784 5.15233C6.48394 4.37866 5.22892 4.37851 4.45511 5.15233C3.68129 5.92614 3.68144 7.18116 4.45511 7.95506L16.045 19.5449C16.8189 20.3187 18.0738 20.3187 18.8477 19.5449C19.6215 18.7711 19.6214 17.5161 18.8477 16.7422L7.25784 5.15233Z" fill="#737985"/>
<path d="M9.22649 6.13392C9.51939 5.84116 9.9943 5.84107 10.2871 6.13392C10.58 6.42677 10.5799 6.90168 10.2871 7.19458L6.4975 10.9842C6.2046 11.2771 5.72973 11.2771 5.43684 10.9842C5.14394 10.6913 5.14394 10.2165 5.43684 9.92357L9.22649 6.13392Z" fill="#737985"/>
<path d="M15.139 2.84069C15.5025 2.21943 16.4209 2.21946 16.7845 2.84069L16.8528 2.98327L17.2542 4.00475L18.2718 4.4071C19.0792 4.7271 19.0794 5.87239 18.2718 6.19225L17.2542 6.5946L16.8528 7.61608C16.534 8.4264 15.3894 8.42642 15.0706 7.61608L14.6683 6.5946L13.6517 6.19225C12.8442 5.87236 12.8443 4.72713 13.6517 4.4071L14.6683 4.00475L15.0706 2.98327L15.139 2.84069ZM15.5931 4.38659C15.496 4.63347 15.3011 4.82977 15.054 4.92761L14.1136 5.29968L15.054 5.67175C15.2701 5.75734 15.4463 5.91781 15.5521 6.12194L15.5931 6.21276L15.9612 7.14929L16.3304 6.21276L16.3714 6.12194C16.4771 5.91781 16.6533 5.75735 16.8694 5.67175L17.8089 5.29968L16.8694 4.92761C16.6223 4.82977 16.4275 4.63348 16.3304 4.38659L15.9612 3.44811L15.5931 4.38659Z" fill="#737985"/>
<path d="M18.8026 9.30396C19.1661 8.68268 20.0845 8.68274 20.4481 9.30396L20.5164 9.44654L20.659 9.80787L21.0194 9.95044C21.8271 10.2703 21.8269 11.4156 21.0194 11.7356L20.659 11.8782L20.5164 12.2405C20.1977 13.051 19.0529 13.051 18.7342 12.2405L18.5916 11.8782L18.2313 11.7356C17.4239 11.4156 17.4238 10.2703 18.2313 9.95044L18.5916 9.80787L18.7342 9.44654L18.8026 9.30396ZM19.5164 10.1907C19.4194 10.4376 19.2236 10.6339 18.9764 10.7317L18.6932 10.843L18.9764 10.9553C19.1929 11.041 19.3697 11.2019 19.4754 11.4065L19.5164 11.4963L19.6248 11.7737L19.7352 11.4963L19.7752 11.4065C19.8809 11.2019 20.0577 11.041 20.2742 10.9553L20.5565 10.843L20.2742 10.7317C20.0272 10.6339 19.8323 10.4375 19.7352 10.1907L19.6248 9.91236L19.5164 10.1907Z" fill="#737985"/>
<path d="M4.74917 15.1566C5.11267 14.5353 6.03112 14.5354 6.39468 15.1566L6.46303 15.2992L6.60561 15.6605L6.96596 15.8031C7.77365 16.1229 7.77353 17.2683 6.96596 17.5883L6.60561 17.7308L6.46303 18.0931C6.14427 18.9036 4.99953 18.9037 4.68081 18.0931L4.53823 17.7308L4.17788 17.5883C3.37054 17.2682 3.37042 16.123 4.17788 15.8031L4.53823 15.6605L4.68081 15.2992L4.74917 15.1566ZM5.46303 16.0433C5.36596 16.2903 5.17017 16.4865 4.923 16.5843L4.63979 16.6957L4.923 16.808C5.13947 16.8937 5.31631 17.0546 5.42202 17.2592L5.46303 17.349L5.57143 17.6263L5.68178 17.349L5.72182 17.2592C5.82753 17.0546 6.00435 16.8937 6.22085 16.808L6.50307 16.6957L6.22085 16.5843C5.97376 16.4865 5.7789 16.2901 5.68178 16.0433L5.57143 15.765L5.46303 16.0433Z" fill="#737985"/>
</svg>
