<svg width="24" height="24" viewBox="0 0 24 24" fill="none" xmlns="http://www.w3.org/2000/svg">
<path d="M20.2501 7.4004C20.2501 6.96798 20.2499 6.6881 20.2325 6.47559C20.2158 6.27204 20.1869 6.19625 20.168 6.15919C20.0962 6.01837 19.9817 5.9039 19.8409 5.83204C19.8038 5.81315 19.728 5.78424 19.5245 5.76759C19.312 5.75022 19.0321 5.75001 18.5997 5.75001H5.40046C4.96804 5.75001 4.68816 5.75022 4.47565 5.76759C4.2721 5.78423 4.19631 5.81315 4.15925 5.83204C4.01842 5.90389 3.90395 6.01836 3.8321 6.15919C3.81321 6.19625 3.7843 6.27204 3.76765 6.47559C3.75028 6.6881 3.75007 6.96798 3.75007 7.4004V16.5996C3.75007 17.032 3.75028 17.3119 3.76765 17.5244C3.7843 17.728 3.81321 17.8038 3.8321 17.8408C3.90395 17.9817 4.01842 18.0961 4.15925 18.168C4.19631 18.1869 4.2721 18.2158 4.47565 18.2324C4.68816 18.2498 4.96804 18.25 5.40046 18.25H18.5997C19.0321 18.25 19.312 18.2498 19.5245 18.2324C19.728 18.2158 19.8038 18.1869 19.8409 18.168C19.9817 18.0961 20.0962 17.9816 20.168 17.8408C20.1869 17.8038 20.2158 17.728 20.2325 17.5244C20.2499 17.3119 20.2501 17.032 20.2501 16.5996V7.4004ZM21.7501 16.5996C21.7501 17.0073 21.7501 17.3587 21.7266 17.6465C21.7024 17.9429 21.6495 18.2378 21.505 18.5215C21.2892 18.9449 20.9449 19.2892 20.5216 19.5049C20.2378 19.6494 19.943 19.7033 19.6466 19.7275C19.3588 19.7511 19.0073 19.75 18.5997 19.75H5.40046C4.9928 19.75 4.64134 19.7511 4.35358 19.7275C4.05715 19.7033 3.7623 19.6494 3.47858 19.5049C3.05522 19.2892 2.7109 18.9449 2.49519 18.5215C2.35063 18.2378 2.29676 17.9429 2.27253 17.6465C2.24902 17.3587 2.25007 17.0073 2.25007 16.5996V7.4004C2.25007 6.99273 2.24902 6.64128 2.27253 6.35352C2.29676 6.05709 2.35063 5.76224 2.49519 5.47852C2.7109 5.05516 3.05522 4.71084 3.47858 4.49512C3.7623 4.35057 4.05715 4.2967 4.35358 4.27247C4.64134 4.24896 4.99279 4.25001 5.40046 4.25001H18.5997C19.0073 4.25001 19.3588 4.24896 19.6466 4.27247C19.943 4.2967 20.2378 4.35057 20.5216 4.49512C20.9449 4.71084 21.2892 5.05516 21.505 5.47852C21.6495 5.76221 21.7024 6.05712 21.7266 6.35352C21.7501 6.64128 21.7501 6.99273 21.7501 7.4004V16.5996Z" fill="#737985"/>
<path d="M2.94825 4.97266C3.22418 4.66386 3.69892 4.63723 4.00782 4.91309L10.9287 11.0938C11.2153 11.3497 11.3988 11.5133 11.5488 11.6279C11.6914 11.7368 11.7585 11.7656 11.7969 11.7774C11.9355 11.8198 12.0833 11.8211 12.2227 11.7813C12.2612 11.7702 12.3291 11.743 12.4736 11.6367C12.6258 11.5249 12.8124 11.3648 13.1035 11.1143L19.9424 5.22852C20.2563 4.95833 20.7298 4.9937 21 5.30762C21.2702 5.62157 21.2349 6.09504 20.9209 6.36524L14.082 12.251C13.8083 12.4866 13.5717 12.6918 13.3623 12.8457C13.1454 13.0051 12.9135 13.1441 12.6357 13.2236C12.2176 13.3433 11.7733 13.3392 11.3574 13.2119C11.0814 13.1273 10.8525 12.9836 10.6387 12.8203C10.4322 12.6626 10.199 12.4534 9.92969 12.2129L3.00782 6.03223C2.69901 5.75631 2.67238 5.28156 2.94825 4.97266Z" fill="#737985"/>
</svg>
