<svg width="24" height="24" viewBox="0 0 24 24" fill="none" xmlns="http://www.w3.org/2000/svg">
<path d="M21.0195 5.25C21.4337 5.25 21.7695 5.58579 21.7695 6C21.7695 6.41421 21.4337 6.75 21.0195 6.75H3.01953C2.60532 6.75 2.26953 6.41421 2.26953 6C2.26953 5.58579 2.60532 5.25 3.01953 5.25H21.0195Z" fill="#737985"/>
<path d="M21.0199 9.25C21.4339 9.25021 21.7699 9.58592 21.7699 10C21.7699 10.4141 21.4339 10.7498 21.0199 10.75H9.03651C8.6223 10.75 8.28651 10.4142 8.28651 10C8.28651 9.58579 8.6223 9.25 9.03651 9.25H21.0199Z" fill="#737985"/>
<path d="M21.0199 13.25C21.434 13.2502 21.7699 13.5859 21.7699 14C21.7699 14.4141 21.434 14.7498 21.0199 14.75H9.03653C8.62232 14.75 8.28653 14.4142 8.28653 14C8.28653 13.5858 8.62232 13.25 9.03653 13.25H21.0199Z" fill="#737985"/>
<path d="M21.0195 17.25C21.4337 17.25 21.7695 17.5858 21.7695 18C21.7695 18.4142 21.4337 18.75 21.0195 18.75H3.01953C2.60532 18.75 2.26953 18.4142 2.26953 18C2.26953 17.5858 2.60532 17.25 3.01953 17.25H21.0195Z" fill="#737985"/>
<path d="M7.19563 11.6026L3.44482 8.74831C3.30717 8.64386 3.12444 8.62813 2.97357 8.7093C2.82149 8.78984 2.72652 8.95345 2.72652 9.13026V14.8369C2.72652 15.0156 2.82149 15.1785 2.97357 15.2591C3.03788 15.2931 3.10821 15.3101 3.17914 15.3101C3.27171 15.3101 3.36548 15.2792 3.44482 15.2182L7.19563 12.3665C7.31405 12.2752 7.38317 12.1343 7.38317 11.9845C7.38378 11.8322 7.31285 11.6919 7.19563 11.6026Z" fill="#737985"/>
</svg>
