<svg width="24" height="24" viewBox="0 0 24 24" fill="none" xmlns="http://www.w3.org/2000/svg">
<path d="M17.25 5.4004C17.25 4.96798 17.2498 4.6881 17.2324 4.47559C17.2157 4.27204 17.1868 4.19625 17.1679 4.15919C17.0961 4.01836 16.9816 3.90389 16.8408 3.83204C16.8037 3.81315 16.7279 3.78423 16.5244 3.76759C16.3119 3.75022 16.032 3.75001 15.5996 3.75001H8.40037C7.96795 3.75001 7.68807 3.75022 7.47556 3.76759C7.27201 3.78423 7.19622 3.81315 7.15916 3.83204C7.01833 3.90389 6.90386 4.01836 6.83201 4.15919C6.81312 4.19625 6.7842 4.27204 6.76755 4.47559C6.75019 4.6881 6.74998 4.96798 6.74998 5.4004V18.5996C6.74998 19.032 6.75019 19.3119 6.76755 19.5244C6.7842 19.728 6.81312 19.8038 6.83201 19.8408C6.90386 19.9817 7.01833 20.0961 7.15916 20.168C7.19622 20.1869 7.27201 20.2158 7.47556 20.2324C7.68807 20.2498 7.96795 20.25 8.40037 20.25H15.5996C16.032 20.25 16.3119 20.2498 16.5244 20.2324C16.7279 20.2158 16.8037 20.1869 16.8408 20.168C16.9816 20.0961 17.0961 19.9817 17.1679 19.8408C17.1868 19.8038 17.2157 19.728 17.2324 19.5244C17.2498 19.3119 17.25 19.032 17.25 18.5996V5.4004ZM18.75 18.5996C18.75 19.0073 18.751 19.3587 18.7275 19.6465C18.7033 19.9429 18.6494 20.2378 18.5049 20.5215C18.2891 20.9449 17.9448 21.2892 17.5215 21.5049C17.2377 21.6494 16.9429 21.7033 16.6465 21.7275C16.3587 21.7511 16.0072 21.75 15.5996 21.75H8.40037C7.9927 21.75 7.64125 21.7511 7.35349 21.7275C7.05706 21.7033 6.76221 21.6494 6.47849 21.5049C6.05513 21.2892 5.71081 20.9449 5.49509 20.5215C5.35054 20.2378 5.29667 19.9429 5.27244 19.6465C5.24893 19.3587 5.24998 19.0073 5.24998 18.5996V5.4004C5.24998 4.99273 5.24893 4.64128 5.27244 4.35352C5.29667 4.05709 5.35054 3.76224 5.49509 3.47852C5.71081 3.05516 6.05513 2.71084 6.47849 2.49512C6.76221 2.35057 7.05706 2.2967 7.35349 2.27247C7.64125 2.24896 7.9927 2.25001 8.40037 2.25001H15.5996C16.0072 2.25001 16.3587 2.24896 16.6465 2.27247C16.9429 2.2967 17.2377 2.35057 17.5215 2.49512C17.9448 2.71084 18.2891 3.05516 18.5049 3.47852C18.6494 3.76224 18.7033 4.05709 18.7275 4.35352C18.751 4.64128 18.75 4.99273 18.75 5.4004V18.5996Z" fill="#737985"/>
<path d="M13.3899 3.05942C13.8039 3.05967 14.1399 3.39536 14.1399 3.80942C14.1399 4.22348 13.8039 4.55917 13.3899 4.55942H10.6106C10.1964 4.55942 9.86058 4.22363 9.86058 3.80942C9.86058 3.3952 10.1964 3.05942 10.6106 3.05942H13.3899Z" fill="#737985"/>
<path d="M11.9985 17.251H11.9966V17.2529L11.9956 17.2549L11.9966 17.2559V17.2578H11.9985L12.0005 17.2588L12.0015 17.2578H12.0034V17.2559L12.0044 17.2549L12.0034 17.2529V17.251H12.0015L12.0005 17.25L11.9985 17.251ZM13.4956 17.2549C13.4953 18.0805 12.8261 18.7497 12.0005 18.75C11.2261 18.75 10.5887 18.1614 10.5122 17.4072L10.5044 17.2549L10.5122 17.1016C10.5887 16.3474 11.2261 15.7588 12.0005 15.7588L12.1528 15.7666C12.907 15.8432 13.4956 16.4805 13.4956 17.2549Z" fill="#737985"/>
</svg>
