<svg width="24" height="24" viewBox="0 0 24 24" fill="none" xmlns="http://www.w3.org/2000/svg">
<path d="M20.25 12C20.25 7.44365 16.5563 3.75 12 3.75C7.44365 3.75 3.75 7.44365 3.75 12C3.75 16.5563 7.44365 20.25 12 20.25C16.5563 20.25 20.25 16.5563 20.25 12ZM21.75 12C21.75 17.3848 17.3848 21.75 12 21.75C6.61522 21.75 2.25 17.3848 2.25 12C2.25 6.61522 6.61522 2.25 12 2.25C17.3848 2.25 21.75 6.61522 21.75 12Z" fill="#737985"/>
<path d="M13.25 13.5002C13.25 13.3013 13.1709 13.1106 13.0303 12.97C12.8896 12.8293 12.6989 12.7502 12.5 12.7502H11.5C10.9033 12.7502 10.3311 12.513 9.90918 12.0911C9.48722 11.6691 9.25 11.097 9.25 10.5002C9.25 9.90351 9.48722 9.33138 9.90918 8.90942C10.3311 8.48747 10.9033 8.25024 11.5 8.25024H14C14.4142 8.25024 14.75 8.58603 14.75 9.00024C14.75 9.41446 14.4142 9.75024 14 9.75024H11.5C11.3011 9.75024 11.1104 9.82932 10.9697 9.96997C10.8291 10.1106 10.75 10.3013 10.75 10.5002C10.75 10.6992 10.8291 10.8899 10.9697 11.0305C11.1104 11.1712 11.3011 11.2502 11.5 11.2502H12.5C13.0967 11.2502 13.6689 11.4875 14.0908 11.9094C14.5128 12.3314 14.75 12.9035 14.75 13.5002C14.75 14.097 14.5128 14.6691 14.0908 15.0911C13.6689 15.513 13.0967 15.7502 12.5 15.7502H10C9.58578 15.7502 9.25 15.4145 9.25 15.0002C9.25 14.586 9.58578 14.2502 10 14.2502H12.5C12.6989 14.2502 12.8896 14.1712 13.0303 14.0305C13.1709 13.8899 13.25 13.6992 13.25 13.5002Z" fill="#737985"/>
<path d="M11.2505 16V15C11.2505 14.5858 11.5863 14.25 12.0005 14.25C12.4147 14.25 12.7505 14.5858 12.7505 15V16C12.7505 16.4142 12.4147 16.75 12.0005 16.75C11.5863 16.75 11.2505 16.4142 11.2505 16ZM11.2505 9V8C11.2505 7.58579 11.5863 7.25 12.0005 7.25C12.4147 7.25 12.7505 7.58579 12.7505 8V9C12.7505 9.41422 12.4147 9.75 12.0005 9.75C11.5863 9.75 11.2505 9.41422 11.2505 9Z" fill="#737985"/>
</svg>
