<svg width="24" height="24" viewBox="0 0 24 24" fill="none" xmlns="http://www.w3.org/2000/svg">
<path d="M20.2598 12.7295V6.36817C20.2598 5.93576 20.2586 5.65587 20.2412 5.44337C20.2246 5.23985 20.1966 5.16402 20.1777 5.12696C20.1058 4.98592 19.9907 4.87169 19.8496 4.79981C19.8125 4.78092 19.7369 4.752 19.5332 4.73536C19.3207 4.71802 19.0416 4.71778 18.6094 4.71778H5.42968C4.99726 4.71778 4.71738 4.718 4.50487 4.73536C4.30132 4.75201 4.22554 4.78093 4.18847 4.79981C4.04764 4.87167 3.93317 4.98614 3.86132 5.12696C3.84243 5.16403 3.81352 5.23981 3.79687 5.44337C3.7795 5.65587 3.77929 5.93576 3.77929 6.36817V17.5674C3.77929 17.9998 3.7795 18.2797 3.79687 18.4922C3.81352 18.6957 3.84243 18.7715 3.86132 18.8086C3.93317 18.9494 4.04764 19.0639 4.18847 19.1357C4.22554 19.1546 4.30132 19.1836 4.50487 19.2002C4.71738 19.2176 4.99726 19.2178 5.42968 19.2178H12.29C12.7041 19.2179 13.04 19.5536 13.04 19.9678C13.04 20.3819 12.7041 20.7177 12.29 20.7178H5.42968C5.02202 20.7178 4.67056 20.7188 4.3828 20.6953C4.08637 20.6711 3.79152 20.6172 3.5078 20.4727C3.08444 20.2569 2.74012 19.9126 2.52441 19.4893C2.37986 19.2055 2.32598 18.9107 2.30175 18.6143C2.27824 18.3265 2.27929 17.9751 2.27929 17.5674V6.36817C2.27929 5.96051 2.27824 5.60905 2.30175 5.3213C2.32598 5.02486 2.37986 4.73001 2.52441 4.4463C2.74012 4.02293 3.08444 3.67861 3.5078 3.4629C3.79152 3.31835 4.08637 3.26447 4.3828 3.24024C4.67056 3.21673 5.02202 3.21778 5.42968 3.21778H18.6094C19.0168 3.21778 19.3676 3.21676 19.6553 3.24024C19.9518 3.26447 20.2475 3.3183 20.5312 3.4629C20.9544 3.6786 21.298 4.02312 21.5137 4.4463C21.6582 4.73001 21.7121 5.02486 21.7363 5.3213C21.7598 5.60905 21.7598 5.96051 21.7598 6.36817V12.7295C21.7598 13.1436 21.4238 13.4792 21.0098 13.4795C20.5955 13.4795 20.2598 13.1437 20.2598 12.7295Z" fill="#737985"/>
<path d="M20.2676 9.46778C20.6818 9.46778 21.0176 9.80357 21.0176 10.2178C21.0176 10.632 20.6818 10.9678 20.2676 10.9678L3.76757 10.9678C3.35336 10.9678 3.01757 10.632 3.01757 10.2178C3.01757 9.80357 3.35336 9.46778 3.76757 9.46778L20.2676 9.46778Z" fill="#737985"/>
<path d="M5.76855 6.46778C6.18276 6.46778 6.51855 6.80357 6.51855 7.21778C6.51855 7.63199 6.18276 7.96778 5.76855 7.96778C5.35433 7.96778 5.01757 7.63199 5.01757 7.21778C5.01757 6.80357 5.35433 6.46778 5.76855 6.46778Z" fill="#737985"/>
<path d="M8.26855 6.46778C8.68276 6.46778 9.01855 6.80357 9.01855 7.21778C9.01855 7.63199 8.68276 7.96778 8.26855 7.96778C7.85433 7.96778 7.51757 7.63199 7.51757 7.21778C7.51757 6.80357 7.85433 6.46778 8.26855 6.46778Z" fill="#737985"/>
<path d="M10.7685 6.46778C11.1828 6.46778 11.5185 6.80357 11.5185 7.21778C11.5185 7.63199 11.1828 7.96778 10.7685 7.96778C10.3543 7.96778 10.0176 7.63199 10.0176 7.21778C10.0176 6.80357 10.3543 6.46778 10.7685 6.46778Z" fill="#737985"/>
<path d="M18.3563 15.8702C18.3563 14.6408 17.36 13.6438 16.1307 13.6436C14.9012 13.6436 13.9042 14.6407 13.9042 15.8702C13.9044 17.0995 14.9013 18.0958 16.1307 18.0958C17.3599 18.0956 18.3561 17.0994 18.3563 15.8702ZM19.8563 15.8702C19.8561 17.9278 18.1884 19.5956 16.1307 19.5958C14.0729 19.5958 12.4044 17.9279 12.4042 15.8702C12.4042 13.8123 14.0728 12.1436 16.1307 12.1436C18.1885 12.1438 19.8563 13.8124 19.8563 15.8702Z" fill="#737985"/>
<path d="M17.9756 17.7578C18.2685 17.4649 18.7432 17.4649 19.0361 17.7578L20.7803 19.502C21.0732 19.7949 21.0732 20.2696 20.7803 20.5625C20.4874 20.8554 20.0126 20.8554 19.7197 20.5625L17.9756 18.8184C17.6827 18.5255 17.6827 18.0507 17.9756 17.7578Z" fill="#737985"/>
</svg>
