<svg width="24" height="24" viewBox="0 0 24 24" fill="none" xmlns="http://www.w3.org/2000/svg">
<path d="M14.5 16.4004C14.8314 16.4004 15.0996 16.6686 15.0996 17C15.0996 17.3314 14.8314 17.5996 14.5 17.5996H9.50001C9.16864 17.5996 8.9004 17.3314 8.9004 17C8.9004 16.6686 9.16864 16.4004 9.50001 16.4004H14.5Z" fill="#737985"/>
<path d="M12.75 6.40851C12.75 6.82272 12.4142 7.15851 12 7.15851C11.5858 7.15851 11.25 6.82272 11.25 6.40851C11.25 5.99429 11.5858 5.65851 12 5.65851C12.4142 5.65851 12.75 5.99429 12.75 6.40851Z" fill="#737985"/>
<path d="M18.25 14.2994V5.57776C18.25 5.16355 17.9142 4.82776 17.5 4.82776H6.50001C6.0858 4.82776 5.75001 5.16355 5.75001 5.57776V14.3414C5.75001 14.7556 5.41423 15.0914 5.00001 15.0914C4.5858 15.0914 4.25001 14.7556 4.25001 14.3414V5.57776C4.25001 4.33512 5.25737 3.32776 6.50001 3.32776H17.5C18.7427 3.32776 19.75 4.33512 19.75 5.57776V14.2994C19.75 14.7137 19.4142 15.0494 19 15.0494C18.5858 15.0494 18.25 14.7137 18.25 14.2994Z" fill="#737985"/>
<path d="M18.7451 13.5915C19.8346 13.5916 20.7678 14.3726 20.96 15.445L21.4219 18.0251C21.6691 19.4046 20.6085 20.6725 19.207 20.6725H4.79298C3.39153 20.6725 2.33096 19.4046 2.57814 18.0251L3.04005 15.445C3.23221 14.3726 4.16544 13.5916 5.2549 13.5915H18.7451ZM5.2549 15.0915C4.89181 15.0916 4.58066 15.3522 4.51662 15.7097L4.0547 18.2897C3.97231 18.7496 4.32583 19.1725 4.79298 19.1725H19.207C19.6742 19.1725 20.0277 18.7496 19.9453 18.2897L19.4834 15.7097C19.4194 15.3522 19.1082 15.0916 18.7451 15.0915H5.2549Z" fill="#737985"/>
</svg>
