<svg width="24" height="24" viewBox="0 0 24 24" fill="none" xmlns="http://www.w3.org/2000/svg">
<path d="M16.2148 3.8936C16.8877 3.50486 17.6696 3.34791 18.4404 3.44731C19.2111 3.54676 19.9282 3.89658 20.4804 4.4434C21.0326 4.99026 21.39 5.70389 21.497 6.47368C21.5349 6.74709 21.3437 6.99913 21.0702 7.03715C20.7968 7.07515 20.5439 6.88479 20.5058 6.61137C20.429 6.05884 20.1727 5.54686 19.7763 5.15434C19.3799 4.76188 18.8656 4.5099 18.3124 4.43852C17.7593 4.3672 17.1977 4.47983 16.7148 4.75883C16.4702 4.90012 16.2533 5.08091 16.0702 5.29106H16.4931C16.7692 5.29112 16.9931 5.51495 16.9931 5.79106C16.993 6.0671 16.7691 6.291 16.4931 6.29106H14.9902C14.7141 6.29106 14.4902 6.06713 14.4902 5.79106V4.28813C14.4902 4.01199 14.714 3.78813 14.9902 3.78813C15.2663 3.78813 15.4902 4.01199 15.4902 4.28813V4.44828C15.7055 4.2343 15.9486 4.04742 16.2148 3.8936Z" fill="#737985"/>
<path d="M20.5019 9.54759V9.38548C20.2862 9.60001 20.044 9.78896 19.7773 9.9431C19.1043 10.3319 18.3215 10.4879 17.5507 10.3884C16.7801 10.2889 16.0638 9.93901 15.5117 9.39232C14.9594 8.84545 14.602 8.13183 14.495 7.36204C14.4573 7.0887 14.6484 6.83656 14.9218 6.79857C15.1952 6.76082 15.4473 6.95196 15.4853 7.22532C15.5621 7.77755 15.8187 8.289 16.2148 8.68138C16.6111 9.07383 17.1255 9.32576 17.6786 9.3972C18.2318 9.46858 18.7933 9.35585 19.2763 9.07689C19.521 8.9355 19.7386 8.75499 19.9218 8.54466H19.499C19.2228 8.54466 18.999 8.3208 18.999 8.04466C18.9992 7.76872 19.223 7.54466 19.499 7.54466H21.0019C21.2777 7.54491 21.5017 7.76887 21.5019 8.04466V9.54759C21.5019 9.82358 21.2778 10.0473 21.0019 10.0476C20.7257 10.0476 20.5019 9.82373 20.5019 9.54759Z" fill="#737985"/>
<path d="M13.7461 20V16C13.7461 15.5858 14.0819 15.25 14.4961 15.25C14.9103 15.25 15.2461 15.5858 15.2461 16V20C15.2461 20.4142 14.9103 20.75 14.4961 20.75C14.0819 20.75 13.7461 20.4142 13.7461 20Z" fill="#737985"/>
<path d="M7.74613 20V16C7.74613 15.5858 8.08191 15.25 8.49613 15.25C8.91034 15.25 9.24613 15.5858 9.24613 16V20C9.24613 20.4142 8.91034 20.75 8.49613 20.75C8.08191 20.75 7.74613 20.4142 7.74613 20Z" fill="#737985"/>
<path d="M16.4961 19.25C16.9103 19.25 17.2461 19.5858 17.2461 20C17.2461 20.4142 16.9103 20.75 16.4961 20.75H6.49613C6.08191 20.75 5.74613 20.4142 5.74613 20C5.74613 19.5858 6.08191 19.25 6.49613 19.25H16.4961Z" fill="#737985"/>
<path d="M2.25002 14.5V5.5C2.25002 4.25736 3.25738 3.25 4.50002 3.25H12.2119C12.6262 3.25 12.9619 3.58579 12.9619 4C12.9619 4.41421 12.6262 4.75 12.2119 4.75H4.50002C4.08581 4.75 3.75002 5.08579 3.75002 5.5V14.5C3.75002 14.9142 4.08581 15.25 4.50002 15.25H19.5C19.9142 15.25 20.25 14.9142 20.25 14.5V12.4463C20.25 12.0321 20.5858 11.6963 21 11.6963C21.4142 11.6963 21.75 12.0321 21.75 12.4463V14.5C21.75 15.7426 20.7427 16.75 19.5 16.75H4.50002C3.25738 16.75 2.25002 15.7426 2.25002 14.5Z" fill="#737985"/>
</svg>
