<svg width="24" height="24" viewBox="0 0 24 24" fill="none" xmlns="http://www.w3.org/2000/svg">
<path d="M9.65543 7.62448V21.6421H2.92105V9.87448C2.92105 8.63184 3.92841 7.62448 5.17105 7.62448H9.65543ZM4.42105 20.1421H8.15543V9.12448H5.17105C4.75684 9.12448 4.42105 9.46027 4.42105 9.87448V20.1421Z" fill="#737985"/>
<path d="M14.1553 4.57263C14.1553 4.15842 13.8195 3.82263 13.4053 3.82263H10.4053C9.99106 3.82263 9.65527 4.15842 9.65527 4.57263V20.1429H14.1553V4.57263ZM15.6553 21.6429H8.15527V4.57263C8.15527 3.32999 9.16263 2.32263 10.4053 2.32263H13.4053C14.6479 2.32263 15.6553 3.32999 15.6553 4.57263V21.6429Z" fill="#737985"/>
<path d="M19.4824 14.1865C19.4824 13.7722 19.1466 13.4365 18.7324 13.4365H15.6553V20.1425H19.4824V14.1865ZM20.9824 21.6425H14.1553V11.9365H18.7324C19.9751 11.9365 20.9824 12.9438 20.9824 14.1865V21.6425Z" fill="#737985"/>
<path d="M21.1739 20.1773C21.5881 20.1773 21.9239 20.5131 21.9239 20.9273C21.9239 21.3416 21.5881 21.6773 21.1739 21.6773H2.82626C2.41205 21.6773 2.07626 21.3416 2.07626 20.9273C2.07626 20.5131 2.41205 20.1773 2.82626 20.1773H21.1739Z" fill="#737985"/>
</svg>
