<svg width="24" height="24" viewBox="0 0 24 24" fill="none" xmlns="http://www.w3.org/2000/svg">
<path d="M20.5264 17.2501L20.4248 17.2794L19.8379 17.4474L19.835 17.4484C19.6066 17.5073 19.3936 17.5283 19.1943 17.549C18.993 17.5698 18.8049 17.5908 18.6074 17.6437C18.425 17.6927 18.1897 17.7623 17.9629 17.8077C17.9957 17.8525 18.0375 17.8993 18.0889 17.9474C18.1886 18.0406 18.3146 18.1316 18.4521 18.2208C18.5896 18.31 18.7347 18.3939 18.8721 18.4747C19.0072 18.5542 19.1377 18.6323 19.2393 18.7052C19.7237 19.0527 20.182 19.4729 20.5459 19.9532L20.9131 20.3204L20.9199 20.3312C20.972 20.4067 21.0048 20.493 21.0303 20.5568C21.0581 20.6264 21.0798 20.6759 21.1104 20.715L21.1406 20.7531V21.0284L20.9531 20.962C20.8396 20.9218 20.7571 20.8529 20.6924 20.7911C20.6216 20.7236 20.5823 20.6769 20.5264 20.6359C20.2532 20.4354 19.992 20.2246 19.7246 20.0548C19.5027 19.914 19.2609 19.8033 19.0078 19.6876C18.7576 19.5733 18.4957 19.4544 18.2471 19.3029C17.9694 19.1336 17.702 18.9243 17.4531 18.7365C17.2651 18.5945 17.0668 18.3626 16.9131 18.1486L16.7764 17.9445C16.7278 17.8657 16.6979 17.7768 16.6748 17.7169C16.649 17.65 16.6278 17.6079 16.5986 17.5773L16.5527 17.5284L16.5615 17.462C16.5864 17.2716 16.7266 17.1845 16.8438 17.1388C16.9016 17.1163 16.9634 17.0991 17.0146 17.0851C17.0695 17.0701 17.113 17.058 17.1484 17.0431C17.7535 16.788 18.4452 16.6897 19.3076 16.6935C19.2597 16.6512 19.2038 16.6056 19.1406 16.5616C19.0539 16.5014 18.9612 16.4439 18.876 16.3917C18.7933 16.3411 18.7125 16.2923 18.6582 16.254C18.2578 15.972 17.8544 15.6736 17.4375 15.422C17.3402 15.3635 17.2015 15.3088 17.0488 15.254C16.9025 15.2015 16.7396 15.1481 16.6182 15.0968C16.5423 15.0647 16.4404 15.031 16.3213 14.9943C16.2048 14.9584 16.0727 14.9194 15.9463 14.8771C15.8197 14.8347 15.6925 14.7866 15.583 14.7316C15.4764 14.6779 15.371 14.6104 15.3037 14.5206C14.9309 14.0226 14.6753 13.4207 14.4219 12.8458C14.2952 12.5581 14.1513 12.2624 14.0059 11.962C13.8608 11.6625 13.714 11.358 13.584 11.0577C13.518 10.9052 13.4685 10.7589 13.4199 10.6241C13.3708 10.4879 13.3216 10.3596 13.2539 10.2296C12.365 8.52536 11.0659 7.09733 9.47852 6.09485C8.95662 5.76525 8.38654 5.4658 7.75391 5.27356C7.58943 5.22358 7.40417 5.21102 7.19727 5.20129C7.003 5.19216 6.78839 5.18426 6.58301 5.13977H6.32227L6.30273 5.13391C6.16236 5.09259 6.04212 5.00086 5.94434 4.91809C5.83716 4.82737 5.76064 4.7518 5.67871 4.69739C5.31023 4.45332 4.94582 4.28025 4.50195 4.09583C4.42075 4.06212 4.27428 4.0069 4.13184 3.97473C4.06029 3.9586 3.99474 3.94964 3.94238 3.95032C3.88803 3.95104 3.86597 3.96183 3.86035 3.96594L3.84082 3.98059L3.81836 3.9884C3.78132 4.00064 3.76929 4.00925 3.76465 4.01379C3.76064 4.01775 3.75133 4.02823 3.74023 4.0636L3.73438 4.08313L3.72363 4.09973C3.70666 4.12532 3.69801 4.1712 3.71289 4.24719C3.72014 4.28402 3.73149 4.32246 3.74512 4.3595L3.79004 4.46594L3.85645 4.59583C3.9256 4.72006 4.00429 4.82961 4.08887 4.93762C4.19805 5.07705 4.32908 5.22846 4.44629 5.39172C4.65031 5.67548 4.9163 6.02147 5.07422 6.36438C5.23609 6.71621 5.3525 7.08613 5.46387 7.44543C5.57614 7.80763 5.68351 8.15884 5.8291 8.4884C5.94088 8.74077 6.1018 9.0278 6.26074 9.24329C6.31985 9.3236 6.39626 9.38714 6.49414 9.48645C6.5804 9.57399 6.67323 9.68367 6.72168 9.82825C6.77787 9.93119 6.7764 10.0622 6.76172 10.173C6.74494 10.2993 6.70673 10.4414 6.66309 10.5773C6.61918 10.714 6.56716 10.8501 6.52246 10.9669C6.4767 11.0865 6.44021 11.1804 6.4209 11.2404C6.10926 12.2089 6.17641 13.5726 6.52832 14.4093C6.60391 14.5888 6.66791 14.7585 6.75977 14.8995C6.82642 15.0018 6.9024 15.0804 6.99902 15.1281C7.03197 14.8425 7.06103 14.55 7.10059 14.2794C7.14674 13.9638 7.21167 13.6565 7.33008 13.3761C7.40765 13.1925 7.51938 13.0409 7.62793 12.9054C7.73996 12.7655 7.84266 12.6495 7.92773 12.5177L8 12.4054L8.11621 12.4718C8.23446 12.5399 8.27972 12.665 8.30469 12.7511C8.31759 12.7956 8.32929 12.8463 8.33887 12.8839C8.34944 12.9254 8.35889 12.9584 8.37012 12.9845C8.53643 13.3704 8.70382 13.7786 8.89648 14.1486C9.25287 14.8331 9.63933 15.4919 10.0674 16.1036L10.2529 16.3634L10.3945 16.5441C10.5452 16.7275 10.7195 16.9142 10.8809 17.0724C10.9186 17.1093 10.9562 17.1343 11.0137 17.1779C11.05 17.2054 11.0889 17.2403 11.127 17.2833H11.2295V17.6486L11.0439 17.5851C11.0279 17.5796 11.0126 17.5708 10.9971 17.5646H10.9844L10.9785 17.5558C10.7915 17.4764 10.6405 17.3495 10.5117 17.2228C10.3603 17.0737 10.2465 16.9402 10.1113 16.838C9.54489 16.4104 8.86918 15.7721 8.48438 15.1525L8.47754 15.1417L8.60449 15.0782L8.47852 15.1407L8.14258 14.4698C8.11348 14.5974 8.09397 14.7298 8.07715 14.8654C8.05833 15.017 8.04014 15.1759 8.00977 15.3224C7.94824 15.6189 7.82496 15.9073 7.48438 16.046C7.10581 16.2004 6.78011 16.07 6.53809 15.8761C6.30044 15.6857 6.12656 15.4226 6.02832 15.2648C5.36817 14.2058 5.20377 12.4511 5.65039 11.0431C5.69636 10.898 5.71894 10.7449 5.75781 10.5704C5.78985 10.4267 5.83451 10.2734 5.91406 10.1398C5.90044 10.0964 5.87547 10.0629 5.83887 10.0265C5.81086 9.99864 5.78533 9.9778 5.74805 9.94348C5.71443 9.91253 5.67634 9.87438 5.64258 9.82825C5.4679 9.59019 5.31729 9.31274 5.18457 9.05676C4.91669 8.5413 4.73414 7.9278 4.53613 7.39368C4.49142 7.27349 4.46414 7.15599 4.43848 7.05286C4.41215 6.94706 4.38604 6.85291 4.34375 6.76086C4.27435 6.60973 4.17818 6.45916 4.07227 6.30969L3.74414 5.8634C3.67331 5.76522 3.57362 5.6489 3.45605 5.50012C3.34205 5.35585 3.21821 5.18918 3.11328 5.00793C2.90482 4.64785 2.75805 4.20421 2.94629 3.74524C3.09109 3.39213 3.33178 3.18485 3.625 3.09094C3.91096 2.99942 4.23408 3.01933 4.54688 3.09094C5.17223 3.23414 5.81269 3.59625 6.16602 3.81946H6.16699C6.26619 3.88232 6.37044 3.97847 6.45801 4.05383C6.54636 4.12986 6.62225 4.18635 6.68848 4.2179C6.98542 4.23602 7.28238 4.25474 7.5791 4.27258L7.5918 4.27356L7.60352 4.27649C8.1645 4.40972 8.73338 4.51774 9.20605 4.79407C11.3374 6.04088 12.7198 7.31464 14.001 9.42102C14.139 9.64804 14.2429 9.88474 14.3379 10.1212C14.4344 10.3614 14.5191 10.5942 14.624 10.8341C14.9336 11.5421 15.2764 12.276 15.625 12.9474C15.7096 13.1102 15.7859 13.2896 15.8594 13.4435C15.9356 13.6031 16.0144 13.7492 16.1133 13.8751C16.1315 13.898 16.1779 13.926 16.2695 13.9591C16.3431 13.9857 16.4617 14.0196 16.541 14.0597H16.54C16.742 14.1616 16.9598 14.2512 17.1846 14.3497C17.4062 14.4469 17.6326 14.5519 17.8369 14.6808C18.547 15.1291 19.2343 15.6657 19.8623 16.2003H19.8633C19.9954 16.313 20.102 16.4494 20.1982 16.5773C20.2975 16.7092 20.3848 16.8305 20.4863 16.9347L20.5264 16.9757V17.2501ZM7.71094 6.73059C7.71194 7.04456 7.62879 7.28664 7.41797 7.44543L7.39062 7.47278L7.25 7.61243L7.16504 7.43372C7.07409 7.24301 6.98344 7.05154 6.89258 6.86047C6.83954 6.78594 6.77675 6.72142 6.70312 6.63879C6.64792 6.57683 6.58937 6.50713 6.53906 6.42493H6.45312V6.1427L6.56348 6.11829C6.72141 6.08389 6.87847 6.05557 7.09863 6.05969L7.1543 6.06067L7.19434 6.09875C7.23445 6.1375 7.28354 6.16919 7.35254 6.2179C7.41418 6.26141 7.4907 6.31944 7.5459 6.39954C7.58545 6.45679 7.60987 6.51694 7.62598 6.55383C7.64378 6.59457 7.65627 6.61647 7.67285 6.63391L7.71094 6.67395V6.73059Z" fill="#737985" stroke="#737985" stroke-width="0.28125"/>
</svg>
