<svg width="24" height="24" viewBox="0 0 24 24" fill="none" xmlns="http://www.w3.org/2000/svg">
<path d="M3.63718 18.3342V7.33424C3.63718 6.0916 4.64454 5.08424 5.88718 5.08424H11.6176C12.0319 5.08424 12.3676 5.42002 12.3676 5.83424C12.3676 6.24845 12.0319 6.58424 11.6176 6.58424H5.88718C5.47296 6.58424 5.13718 6.92002 5.13718 7.33424V18.3342C5.13718 18.7484 5.47296 19.0842 5.88718 19.0842H16.8872C17.3014 19.0842 17.6372 18.7484 17.6372 18.3342V12.1155C17.6373 11.7014 17.973 11.3655 18.3872 11.3655C18.8013 11.3655 19.1371 11.7014 19.1372 12.1155V18.3342C19.1372 19.5769 18.1298 20.5842 16.8872 20.5842H5.88718C4.64454 20.5842 3.63718 19.5769 3.63718 18.3342Z" fill="#737985"/>
<path d="M18.8628 9.16577V4.91577H14.6128C14.1986 4.91577 13.8628 4.57999 13.8628 4.16577C13.8628 3.75156 14.1986 3.41577 14.6128 3.41577H19.6128C20.027 3.41577 20.3628 3.75156 20.3628 4.16577V9.16577C20.3628 9.57999 20.027 9.91577 19.6128 9.91577C19.1986 9.91577 18.8628 9.57999 18.8628 9.16577Z" fill="#737985"/>
<path d="M19.0825 3.6355C19.3754 3.34262 19.8501 3.34264 20.143 3.6355C20.4359 3.92839 20.4359 4.40315 20.143 4.69604L12.0112 12.8279C11.7183 13.1208 11.2435 13.1208 10.9506 12.8279C10.6578 12.535 10.6578 12.0602 10.9506 11.7673L19.0825 3.6355Z" fill="#737985"/>
</svg>
