<svg width="24" height="24" viewBox="0 0 24 24" fill="none" xmlns="http://www.w3.org/2000/svg">
<path d="M19.044 8.36619C19.044 8.09824 18.901 7.85075 18.669 7.71678L12.375 4.08299C12.143 3.94901 11.8571 3.94901 11.625 4.08299L5.33107 7.71678C5.09902 7.85075 4.95607 8.09824 4.95607 8.36619V15.6338C4.95607 15.9017 5.09902 16.1492 5.33107 16.2832L11.625 19.917C11.8571 20.0509 12.143 20.0509 12.375 19.917L18.669 16.2832C18.901 16.1492 19.044 15.9017 19.044 15.6338V8.36619ZM20.544 15.6338C20.544 16.4376 20.1151 17.1811 19.419 17.583L13.125 21.2168C12.4289 21.6186 11.5711 21.6186 10.875 21.2168L4.58107 17.583C3.88492 17.1811 3.45607 16.4376 3.45607 15.6338V8.36619C3.45607 7.56234 3.88492 6.81889 4.58107 6.41697L10.875 2.78318C11.5711 2.38135 12.4289 2.38135 13.125 2.78318L19.419 6.41697C20.1151 6.81889 20.544 7.56234 20.544 8.36619V15.6338Z" fill="#737985"/>
<path d="M9.37032 16C9.1558 16 8.98936 15.9408 8.87101 15.8225C8.76005 15.7041 8.70457 15.534 8.70457 15.3121V8.71011C8.70457 8.4808 8.76005 8.30697 8.87101 8.18862C8.98936 8.06286 9.141 7.99999 9.32593 7.99999C9.49607 7.99999 9.62182 8.03328 9.70319 8.09985C9.79195 8.15903 9.89551 8.26259 10.0139 8.41053L14.2635 13.9251H13.975V8.67683C13.975 8.46231 14.0305 8.29587 14.1415 8.17752C14.2598 8.05917 14.4263 7.99999 14.6408 7.99999C14.8553 7.99999 15.018 8.05917 15.129 8.17752C15.2399 8.29587 15.2954 8.46231 15.2954 8.67683V15.3342C15.2954 15.5414 15.2436 15.7041 15.1401 15.8225C15.0365 15.9408 14.896 16 14.7184 16C14.5483 16 14.4115 15.9667 14.3079 15.9001C14.2117 15.8336 14.1045 15.7263 13.9861 15.5784L9.74757 10.0638H10.025V15.3121C10.025 15.534 9.96948 15.7041 9.85853 15.8225C9.74757 15.9408 9.58483 16 9.37032 16Z" fill="#737985"/>
</svg>
