<svg width="24" height="24" viewBox="0 0 24 24" fill="none" xmlns="http://www.w3.org/2000/svg">
<path d="M19.25 4.5C19.25 4.08579 18.9142 3.75 18.5 3.75H5.5C5.08579 3.75 4.75 4.08579 4.75 4.5V19.5C4.75 19.9142 5.08579 20.25 5.5 20.25H18.5C18.9142 20.25 19.25 19.9142 19.25 19.5V4.5ZM20.75 19.5C20.75 20.7426 19.7426 21.75 18.5 21.75H5.5C4.25736 21.75 3.25 20.7426 3.25 19.5V4.5C3.25 3.25736 4.25736 2.25 5.5 2.25H18.5C19.7426 2.25 20.75 3.25736 20.75 4.5V19.5Z" fill="#737985"/>
<path d="M9.5 21.1006H8L8 2.89941L9.5 2.89941L9.5 21.1006Z" fill="#737985"/>
<path d="M15.9314 6.50002C16.3455 6.50026 16.6814 6.83595 16.6814 7.25002C16.6814 7.66409 16.3455 7.99979 15.9314 8.00002H12.45C12.0358 8.00002 11.7 7.66424 11.7 7.25002C11.7 6.83581 12.0358 6.50002 12.45 6.50002H15.9314Z" fill="#737985"/>
<path d="M15.9314 9.50002C16.3455 9.50026 16.6814 9.83595 16.6814 10.25C16.6814 10.6641 16.3455 10.9998 15.9314 11H12.45C12.0358 11 11.7 10.6642 11.7 10.25C11.7 9.83581 12.0358 9.50002 12.45 9.50002H15.9314Z" fill="#737985"/>
</svg>
