<svg width="24" height="24" viewBox="0 0 24 24" fill="none" xmlns="http://www.w3.org/2000/svg">
<path d="M7.75024 18.1502V17.2C7.75024 16.7858 8.08603 16.45 8.50024 16.45C8.91445 16.45 9.25024 16.7858 9.25024 17.2V18.1502C9.25029 18.707 9.47176 19.2408 9.86548 19.6346C10.2592 20.0283 10.793 20.2497 11.3499 20.2498C11.9068 20.2498 12.4414 20.0284 12.8352 19.6346C13.2289 19.2408 13.4504 18.707 13.4504 18.1502V17.2C13.4504 16.7858 13.7862 16.45 14.2004 16.45C14.6146 16.4501 14.9504 16.7859 14.9504 17.2V18.1502C14.9504 19.1048 14.5707 20.0201 13.8957 20.6951C13.2206 21.3702 12.3046 21.7498 11.3499 21.7498C10.3952 21.7497 9.47997 21.3702 8.80493 20.6951C8.1299 20.02 7.75029 19.1049 7.75024 18.1502Z" fill="#737985"/>
<path d="M11.3499 3.15C12.0527 3.15 12.7269 3.4294 13.2239 3.92637C13.6054 4.30785 13.8563 4.79391 13.9534 5.31699C15.0024 5.88968 15.8993 6.70872 16.5647 7.70664C17.3095 8.8239 17.736 10.1232 17.7991 11.4645C17.7996 11.476 17.8 11.488 17.8 11.4996V14.2926C17.8611 14.7547 18.0266 15.1974 18.2854 15.5855C18.5502 15.9826 18.9043 16.3123 19.3196 16.5475C19.616 16.7153 19.7618 17.0618 19.675 17.3912C19.5882 17.7204 19.2909 17.9497 18.9504 17.9498H3.75024C3.40963 17.9498 3.11145 17.7206 3.02465 17.3912C2.93787 17.0618 3.0847 16.7153 3.3811 16.5475C3.79637 16.3122 4.15049 15.9826 4.41528 15.5855C4.67404 15.1974 4.83959 14.7548 4.90063 14.2926V11.4645C4.96365 10.1231 5.39114 8.82391 6.13598 7.70664C6.80095 6.70932 7.69715 5.89059 8.74536 5.31797C8.84225 4.79441 9.09502 4.30816 9.4768 3.92637C9.97367 3.42955 10.6472 3.1501 11.3499 3.15ZM11.3499 4.65C11.045 4.6501 10.7529 4.7714 10.5374 4.98691C10.3217 5.20258 10.2004 5.49539 10.2004 5.80039C10.2003 6.09026 10.0328 6.35421 9.77075 6.47813C8.80299 6.93576 7.97791 7.648 7.38403 8.53867C6.79254 9.42591 6.45299 10.4572 6.40063 11.5221V14.3502C6.40062 14.3802 6.39838 14.4102 6.39477 14.44C6.30917 15.1472 6.05847 15.8249 5.66333 16.4176C5.65606 16.4285 5.64822 16.439 5.64087 16.4498H17.0598C17.0525 16.439 17.0446 16.4285 17.0374 16.4176C16.6422 15.8249 16.3915 15.1472 16.3059 14.44C16.3023 14.4102 16.3001 14.3802 16.3 14.3502V11.5221C16.2477 10.4572 15.9081 9.42591 15.3166 8.53867C14.7228 7.64801 13.8977 6.93578 12.9299 6.47813C12.6679 6.35421 12.5004 6.09026 12.5002 5.80039C12.5002 5.49539 12.379 5.20258 12.1633 4.98691C11.9477 4.77125 11.6548 4.65 11.3499 4.65Z" fill="#737985"/>
<path d="M21.8002 4.375C21.8002 5.68668 20.7369 6.75 19.4252 6.75C18.1136 6.75 17.0502 5.68668 17.0502 4.375C17.0502 3.06332 18.1136 2 19.4252 2C20.7369 2 21.8002 3.06332 21.8002 4.375Z" fill="#737985"/>
</svg>
