<svg width="24" height="24" viewBox="0 0 24 24" fill="none" xmlns="http://www.w3.org/2000/svg">
<path d="M12 2.25C13.1382 2.25 14.2325 2.44506 15.25 2.80469C15.7984 2.99853 16.324 3.24032 16.8223 3.52441L15.4062 4.48438C15.1922 4.38719 14.9733 4.29866 14.75 4.21973C13.8908 3.91605 12.9656 3.75 12 3.75C7.44365 3.75 3.75 7.44365 3.75 12C3.75 16.5563 7.44365 20.25 12 20.25C16.5563 20.25 20.25 16.5563 20.25 12C20.25 10.4497 19.8233 9.00137 19.0811 7.76367C18.9947 7.61972 18.9023 7.47987 18.8076 7.3418L20.0479 6.5C20.1582 6.66123 20.2664 6.8242 20.3672 6.99219C21.2453 8.45646 21.75 10.1704 21.75 12C21.75 17.3848 17.3848 21.75 12 21.75C6.61522 21.75 2.25 17.3848 2.25 12C2.25 6.61522 6.61522 2.25 12 2.25Z" fill="#737985"/>
<path d="M5.47367 19.2293C5.42917 19.2293 5.37026 19.1927 5.35412 19.1543C5.34147 19.1235 5.31496 19.059 5.46854 18.9065L10.3781 13.9978C10.4642 13.912 10.5063 13.788 10.4903 13.6675C10.4742 13.5474 10.4016 13.4386 10.2963 13.3785L6.90398 11.4265C6.78519 11.3583 6.71528 11.2543 6.71691 11.1481C6.71866 11.0427 6.79196 10.9413 6.91281 10.8775L18.3365 4.83603C18.4454 4.77822 18.4958 4.77069 18.5285 4.77069C18.5734 4.77069 18.6282 4.80538 18.644 4.84312C18.6592 4.87878 18.686 4.94238 18.5317 5.09606L13.6325 9.9952C13.5465 10.0806 13.5049 10.2036 13.5205 10.3244C13.5363 10.445 13.6088 10.5532 13.7134 10.6137L17.1002 12.5733C17.2169 12.6409 17.2858 12.7442 17.2833 12.8493C17.2814 12.9566 17.2087 13.0583 17.0895 13.1222L5.66346 19.1654C5.55558 19.2232 5.50541 19.2293 5.47367 19.2293Z" fill="#737985"/>
<path d="M18.6458 4.18085C18.7569 4.19975 18.8491 4.24307 18.9163 4.28534C19.0015 4.33896 19.1243 4.44094 19.1956 4.60956L19.1966 4.60858C19.2205 4.66483 19.2947 4.84553 19.2308 5.08221C19.18 5.2697 19.0625 5.41284 18.9554 5.51971L14.2464 10.2287L17.4007 12.0539C17.6412 12.1933 17.8892 12.4712 17.8821 12.8586L17.8831 12.8596C17.8764 13.2455 17.6229 13.5166 17.3733 13.6506L17.3704 13.6525L5.94559 19.6935L5.94657 19.6945C5.78143 19.783 5.63328 19.8292 5.47392 19.8293C5.3055 19.8293 5.16961 19.7678 5.08524 19.715C5.00528 19.665 4.87488 19.5624 4.80106 19.3869L4.79911 19.383C4.7733 19.3202 4.70701 19.1434 4.77177 18.9133C4.82322 18.7307 4.93726 18.5888 5.04618 18.4807L9.76298 13.7639L6.60477 11.9465C6.36078 11.8061 6.11148 11.5274 6.11747 11.1389C6.12406 10.7491 6.38401 10.478 6.63212 10.3469L18.055 4.30682C18.2122 4.22331 18.362 4.17108 18.5286 4.17108L18.6458 4.18085ZM18.5285 4.77069C18.4958 4.77069 18.4454 4.77822 18.3365 4.83603L18.2942 4.8576L6.91281 10.8775C6.79196 10.9413 6.71866 11.0427 6.71691 11.1481L6.7288 11.2267C6.75332 11.304 6.81492 11.3754 6.90398 11.4265L10.2963 13.3785C10.4016 13.4386 10.4742 13.5474 10.4903 13.6675C10.5063 13.788 10.4642 13.912 10.3781 13.9978L5.46854 18.9065C5.31496 19.059 5.34147 19.1235 5.35412 19.1543C5.36627 19.1831 5.40262 19.2108 5.43876 19.2228L5.47367 19.2293C5.50541 19.2293 5.55558 19.2232 5.66346 19.1654L5.70438 19.1428L17.0895 13.1222C17.2087 13.0583 17.2814 12.9566 17.2833 12.8493C17.2858 12.7442 17.2169 12.6409 17.1002 12.5733L13.7134 10.6137C13.6088 10.5532 13.5363 10.445 13.5205 10.3244C13.5088 10.2338 13.5292 10.1419 13.5765 10.0656L13.6325 9.9952L18.5317 5.09606C18.686 4.94238 18.6592 4.87878 18.644 4.84312C18.6282 4.80538 18.5734 4.77069 18.5285 4.77069Z" fill="#737985"/>
</svg>
