<svg width="24" height="24" viewBox="0 0 24 24" fill="none" xmlns="http://www.w3.org/2000/svg">
<path d="M2.93509 18.5V5.5C2.93509 4.25736 3.94245 3.25 5.18509 3.25H10.9995C11.6889 3.25001 12.3405 3.5659 12.7671 4.10742L15.9527 8.15234C16.2652 8.5491 16.4351 9.03988 16.4351 9.54492V11.2559C16.4351 11.6701 16.0993 12.0059 15.6851 12.0059C15.2709 12.0059 14.9351 11.6701 14.9351 11.2559V9.54492C14.9351 9.37662 14.8781 9.21329 14.774 9.08105L11.5884 5.03613C11.4462 4.8556 11.2294 4.75001 10.9995 4.75H5.18509C4.77088 4.75 4.43509 5.08579 4.43509 5.5V18.5C4.43509 18.9142 4.77088 19.25 5.18509 19.25H14.1851C14.5993 19.25 14.9351 18.9142 14.9351 18.5V17.7969C14.9351 17.3827 15.2709 17.0469 15.6851 17.0469C16.0993 17.0469 16.4351 17.3827 16.4351 17.7969V18.5C16.4351 19.7426 15.4277 20.75 14.1851 20.75H5.18509C3.94245 20.75 2.93509 19.7426 2.93509 18.5Z" fill="#737985"/>
<path d="M10.1664 7.5V4C10.1664 3.58579 10.5022 3.25 10.9164 3.25C11.3306 3.25 11.6664 3.58579 11.6664 4V7.5C11.6664 7.91421 12.0022 8.25 12.4164 8.25H15.4496C15.8636 8.25025 16.1996 8.58594 16.1996 9C16.1996 9.41406 15.8636 9.74975 15.4496 9.75H12.4164C11.1737 9.75 10.1664 8.74264 10.1664 7.5Z" fill="#737985"/>
<path d="M20.8967 14.0264C21.1371 14.3209 21.1196 14.7557 20.845 15.0303L18.345 17.5303C18.0521 17.8232 17.5773 17.8232 17.2844 17.5303C16.9915 17.2374 16.9915 16.7626 17.2844 16.4697L19.2542 14.5L17.2844 12.5303C16.9915 12.2374 16.9915 11.7626 17.2844 11.4697C17.5773 11.1768 18.0521 11.1768 18.345 11.4697L20.845 13.9697L20.8967 14.0264Z" fill="#737985"/>
<path d="M11.7865 13.75H20.1117C20.5259 13.75 20.8617 14.0858 20.8617 14.5C20.8617 14.9142 20.5259 15.25 20.1117 15.25H11.7865C11.3723 15.25 11.0365 14.9142 11.0365 14.5C11.0365 14.0858 11.3723 13.75 11.7865 13.75Z" fill="#737985"/>
</svg>
