<svg width="24" height="24" viewBox="0 0 24 24" fill="none" xmlns="http://www.w3.org/2000/svg">
<path d="M9.75002 10.0001C9.75002 9.58589 10.0858 9.2501 10.5 9.2501C10.9142 9.2501 11.25 9.58589 11.25 10.0001V14.0001C11.25 14.4143 10.9142 14.7501 10.5 14.7501C10.0858 14.7501 9.75002 14.4143 9.75002 14.0001V10.0001Z" fill="#737985"/>
<path d="M12.75 10.0001C12.75 9.58589 13.0858 9.2501 13.5 9.2501C13.9142 9.2501 14.25 9.58589 14.25 10.0001V14.0001C14.25 14.4143 13.9142 14.7501 13.5 14.7501C13.0858 14.7501 12.75 14.4143 12.75 14.0001V10.0001Z" fill="#737985"/>
<path d="M20.25 12C20.25 10.9166 20.0367 9.84371 19.6221 8.84277C19.2075 7.84186 18.6001 6.93209 17.834 6.16602C17.0679 5.39995 16.1582 4.79253 15.1573 4.37793C14.1563 3.96333 13.0834 3.75 12 3.75C10.9166 3.75 9.84374 3.96333 8.8428 4.37793C7.84189 4.79253 6.93212 5.39995 6.16605 6.16602C5.39998 6.93209 4.79256 7.84186 4.37796 8.84277C3.96336 9.84371 3.75003 10.9166 3.75003 12C3.75003 13.0834 3.96336 14.1563 4.37796 15.1572C4.79256 16.1581 5.39998 17.0679 6.16605 17.834C6.93212 18.6001 7.84189 19.2075 8.8428 19.6221C9.84374 20.0367 10.9166 20.25 12 20.25C13.0834 20.25 14.1563 20.0367 15.1573 19.6221C16.1582 19.2075 17.0679 18.6001 17.834 17.834C18.6001 17.0679 19.2075 16.1581 19.6221 15.1572C20.0367 14.1563 20.25 13.0834 20.25 12ZM21.75 12C21.75 13.2804 21.4978 14.5485 21.0078 15.7314C20.5179 16.9143 19.7999 17.9892 18.8946 18.8945C17.9893 19.7998 16.9143 20.5178 15.7315 21.0078C14.5486 21.4978 13.2804 21.75 12 21.75C10.7196 21.75 9.45151 21.4978 8.26859 21.0078C7.08576 20.5178 6.01081 19.7998 5.1055 18.8945C4.20019 17.9892 3.4822 16.9143 2.99222 15.7314C2.50223 14.5485 2.25003 13.2804 2.25003 12C2.25003 10.7196 2.50223 9.45148 2.99222 8.26855C3.4822 7.08573 4.20019 6.01078 5.1055 5.10547C6.01081 4.20016 7.08576 3.48217 8.26859 2.99219C9.45151 2.5022 10.7196 2.25 12 2.25C13.2804 2.25 14.5486 2.5022 15.7315 2.99219C16.9143 3.48217 17.9893 4.20016 18.8946 5.10547C19.7999 6.01078 20.5179 7.08573 21.0078 8.26855C21.4978 9.45148 21.75 10.7196 21.75 12Z" fill="#737985"/>
</svg>
