<svg width="24" height="24" viewBox="0 0 24 24" fill="none" xmlns="http://www.w3.org/2000/svg">
<path d="M20.25 13.5C20.25 8.94365 16.5563 5.25 12 5.25C7.44365 5.25 3.75 8.94365 3.75 13.5C3.75 15.6135 4.54378 17.5399 5.85059 19C6.12665 19.3086 6.10041 19.7824 5.79199 20.0586C5.48335 20.3348 5.00867 20.3086 4.73242 20C3.18915 18.2756 2.25 15.9965 2.25 13.5C2.25 8.11522 6.61522 3.75 12 3.75C17.3848 3.75 21.75 8.11522 21.75 13.5C21.75 15.9965 20.8108 18.2756 19.2676 20C18.9913 20.3086 18.5167 20.3348 18.208 20.0586C17.8996 19.7824 17.8734 19.3086 18.1494 19C19.4562 17.5399 20.25 15.6135 20.25 13.5Z" fill="#737985"/>
<path d="M14.9882 9.76259C15.2811 9.46969 15.7558 9.46969 16.0487 9.76259C16.3416 10.0555 16.3416 10.5302 16.0487 10.8231L12.0487 14.8231C11.7558 15.116 11.2811 15.116 10.9882 14.8231C10.6953 14.5302 10.6953 14.0555 10.9882 13.7626L14.9882 9.76259Z" fill="#737985"/>
</svg>
