<svg width="24" height="24" viewBox="0 0 24 24" fill="none" xmlns="http://www.w3.org/2000/svg">
<path d="M20.46 11.9996C20.4598 10.0142 19.5842 8.0966 18.0029 6.67346C16.4197 5.24858 14.261 4.44006 12 4.44006C9.73901 4.44006 7.58031 5.24858 5.99707 6.67346C4.4158 8.0966 3.54015 10.0142 3.54004 11.9996C3.54004 13.9851 4.4159 15.9026 5.99707 17.3258C7.58032 18.7507 9.73898 19.5602 12 19.5602C14.261 19.5602 16.4197 18.7507 18.0029 17.3258C19.5841 15.9026 20.46 13.9851 20.46 11.9996ZM8.2373 9.66077L8.39355 9.66956C8.54872 9.68654 8.70054 9.72859 8.84277 9.79456C9.03231 9.88248 9.20088 10.0101 9.33594 10.1696C9.47104 10.3291 9.56944 10.5169 9.625 10.7184C9.68045 10.9197 9.69143 11.1306 9.65723 11.3365L9.50684 12.2369C9.45092 12.5731 9.27754 12.8788 9.01758 13.0992C8.75763 13.3196 8.42767 13.4409 8.08691 13.441H6.95215L6.67871 14.8063C6.62022 15.0987 6.33541 15.2886 6.04297 15.2301C5.75077 15.1714 5.56166 14.8867 5.62012 14.5944L6.51953 10.0944C6.57014 9.84231 6.79176 9.66099 7.04883 9.66077H8.2373ZM17.2383 9.66077L17.3945 9.66956C17.5496 9.68656 17.7016 9.72863 17.8438 9.79456C18.0331 9.88241 18.201 10.0104 18.3359 10.1696C18.471 10.3291 18.5704 10.5169 18.626 10.7184C18.6814 10.9197 18.6924 11.1306 18.6582 11.3365L18.5078 12.2369C18.4519 12.5732 18.2785 12.8788 18.0186 13.0992C17.791 13.2921 17.5099 13.4089 17.2148 13.4352L17.0879 13.441H15.9521L15.6797 14.8063C15.6212 15.0987 15.3364 15.2886 15.0439 15.2301C14.7516 15.1715 14.5616 14.8867 14.6201 14.5944L15.5205 10.0944L15.5469 10.0035C15.6266 9.79975 15.8247 9.66085 16.0498 9.66077H17.2383ZM12.0967 7.41858C12.39 7.47195 12.5845 7.75314 12.5312 8.04651L12.2373 9.66077H13.7988C13.9576 9.66077 14.1083 9.73106 14.2109 9.85217C14.3134 9.97326 14.3581 10.1332 14.332 10.2897L13.8818 12.9899C13.8327 13.2839 13.5538 13.4822 13.2598 13.4332C12.9659 13.384 12.7675 13.1061 12.8164 12.8121L13.1621 10.7408H12.041L11.6309 12.9967C11.5774 13.29 11.2963 13.4846 11.0029 13.4313C10.7098 13.3777 10.515 13.0966 10.5684 12.8033L11.4688 7.85315C11.5222 7.55988 11.8033 7.36525 12.0967 7.41858ZM7.16797 12.361H8.08691L8.15039 12.3551C8.2124 12.3439 8.27071 12.3163 8.31934 12.275C8.38416 12.22 8.42736 12.144 8.44141 12.0602L8.5918 11.1598C8.60034 11.1084 8.59777 11.0557 8.58398 11.0055C8.5701 10.9551 8.5455 10.9077 8.51172 10.8678C8.47801 10.828 8.43595 10.796 8.38867 10.774C8.34134 10.7521 8.28947 10.7409 8.2373 10.7408H7.49219L7.16797 12.361ZM16.168 12.361H17.0879C17.1729 12.3608 17.2554 12.33 17.3203 12.275C17.3851 12.22 17.4284 12.144 17.4424 12.0602L17.5928 11.1598L17.5967 11.0817C17.5953 11.056 17.5918 11.0304 17.585 11.0055C17.5711 10.9551 17.5464 10.9077 17.5127 10.8678C17.4789 10.8279 17.4361 10.796 17.3887 10.774C17.3652 10.7632 17.3406 10.7552 17.3154 10.7496L17.2373 10.7408H16.4922L16.168 12.361ZM21.54 11.9996C21.54 14.3104 20.5196 16.5137 18.7256 18.1285C16.9332 19.7417 14.5129 20.6403 12 20.6403C9.48712 20.6403 7.06682 19.7417 5.27441 18.1285C3.4804 16.5137 2.45996 14.3104 2.45996 11.9996C2.46008 9.68886 3.48026 7.48549 5.27441 5.87073C7.06682 4.25756 9.48712 3.35999 12 3.35999C14.5129 3.35999 16.9332 4.25756 18.7256 5.87073C20.5197 7.48549 21.5399 9.68886 21.54 11.9996Z" fill="#737985"/>
</svg>
