<svg width="24" height="24" viewBox="0 0 24 24" fill="none" xmlns="http://www.w3.org/2000/svg">
<path d="M15.0813 16.3519C13.1269 16.3795 11.2633 16.7286 9.52779 17.3472L9.64809 17.3097C7.29206 18.1117 7.22369 18.4174 5.08853 18.1663C3.95916 17.9934 2.9422 17.6732 2.00018 17.2223L2.06592 17.2505C3.18083 18.1485 4.55409 18.7704 6.05685 18.9926L6.10221 18.9978C7.70883 18.8999 9.19713 18.4818 10.5336 17.8067L10.4685 17.8363C11.9246 17.3275 13.6029 17.033 15.3502 17.033C15.4402 17.033 15.5296 17.0336 15.619 17.0356H15.6059C17.8653 17.1776 19.9742 17.5372 22.0002 18.0966L21.7819 18.0453C20.6046 17.4833 19.2254 16.9981 17.789 16.6602L17.647 16.632C16.893 16.4545 16.0273 16.3526 15.1378 16.3526C15.1181 16.3526 15.0984 16.3526 15.0787 16.3526L15.0813 16.3519ZM20.1852 13.0019L5.4639 15.5065C6.20476 15.7688 6.72672 16.463 6.72672 17.2795C6.72672 17.3071 6.72606 17.3347 6.72474 17.3616V17.3577C6.71751 17.5391 6.68661 17.7101 6.63402 17.8724L6.63797 17.8593C8.12758 17.1749 9.86963 16.5984 11.6833 16.2172L11.8477 16.1882C12.8193 15.9673 13.9348 15.8411 15.08 15.8411C15.7604 15.8411 16.4309 15.8858 17.0876 15.9726L17.0107 15.9641C17.6076 14.5711 18.7429 13.5048 20.1477 13.0131L20.1852 13.0019ZM8.0132 5.03256C8.0132 5.03256 9.98993 5.90818 10.7453 9.58949C10.9004 10.1548 10.9898 10.8043 10.9898 11.4742C10.9898 12.5056 10.7788 13.4877 10.3968 14.3798L10.4153 14.3318C11.4986 13.3063 12.9646 12.6765 14.5778 12.6765C15.1392 12.6765 15.6821 12.7528 16.1982 12.8954L16.1555 12.8856C15.8517 11.0055 15.0537 9.3502 13.9 8.00916L13.9112 8.0223C12.5123 6.26448 10.4047 5.12262 8.02766 5.03256H8.0132ZM6.55317 5.00232C7.57276 6.46104 8.23342 8.23924 8.37213 10.1621L8.3741 10.1956C8.39579 10.448 8.40763 10.7412 8.40763 11.0377C8.40763 12.2821 8.19332 13.4766 7.79889 14.5855L7.8219 14.5113C8.41749 13.8039 9.27799 13.3359 10.2489 13.2609L10.2608 13.2603C10.3015 13.257 10.3423 13.255 10.3824 13.2537C10.4369 12.8573 10.4678 12.3991 10.4678 11.9337C10.4678 10.4244 10.1405 8.99128 9.55343 7.70216L9.57973 7.76593C9.0111 6.45183 7.92577 5.45262 6.58735 5.01152L6.55317 5.00232Z" fill="#737985"/>
</svg>
