<svg width="24" height="24" viewBox="0 0 24 24" fill="none" xmlns="http://www.w3.org/2000/svg">
<path d="M14.3654 14.3652L17.1938 17.1936Z" fill="#737985"/>
<path d="M12.5325 9.13827C12.7431 9.34864 13.0082 9.4961 13.298 9.56405C13.5878 9.632 13.8909 9.61777 14.173 9.52294L15.6891 9.02514C15.9712 8.93031 16.2742 8.91607 16.564 8.98402C16.8538 9.05198 17.1189 9.19943 17.3295 9.4098L17.7595 9.83972C17.9095 9.98975 17.9938 10.1932 17.9938 10.4054C17.9938 10.6176 17.9095 10.8211 17.7595 10.9711L10.9712 17.7593C10.8212 17.9093 10.6177 17.9936 10.4056 17.9936C10.1934 17.9936 9.9899 17.9093 9.83987 17.7593L9.40995 17.3294C9.19958 17.1188 9.05213 16.8537 8.98417 16.5639C8.91622 16.2741 8.93045 15.9711 9.02528 15.6889L9.52309 14.1729C9.61791 13.8907 9.63215 13.5877 9.5642 13.2979C9.49624 13.0081 9.34879 12.743 9.13842 12.5324L7.01144 10.4054C6.86141 10.2554 6.65793 10.1711 6.44576 10.1711C6.23358 10.1711 6.0301 10.2554 5.88007 10.4054C5.58001 10.7055 5.17305 10.874 4.7487 10.874C4.32435 10.874 3.91739 10.7055 3.61733 10.4054C3.31727 10.1054 3.1487 9.69838 3.1487 9.27404C3.1487 8.84969 3.31727 8.44273 3.61733 8.14267L8.14281 3.61718C8.44287 3.31712 8.84984 3.14855 9.27418 3.14855C9.69853 3.14855 10.1055 3.31712 10.4056 3.61718C10.7056 3.91724 10.8742 4.32421 10.8742 4.74855C10.8742 5.1729 10.7056 5.57987 10.4056 5.87992C10.2555 6.02995 10.1712 6.23344 10.1712 6.44561C10.1712 6.65778 10.2555 6.86127 10.4056 7.0113L12.5325 9.13827Z" fill="#737985"/>
<path d="M18.151 17.0904C18.4268 17.3663 18.413 17.8273 18.1201 18.1202C17.8272 18.413 17.3662 18.4269 17.0904 18.1511L14.2981 15.3589L15.3588 14.2982L18.151 17.0904Z" fill="#737985"/>
</svg>
