<svg width="24" height="24" viewBox="0 0 24 24" fill="none" xmlns="http://www.w3.org/2000/svg">
<path d="M10.3383 5.02538C10.179 4.86621 9.96274 4.77686 9.73754 4.77679C9.51211 4.77679 9.29549 4.86666 9.13608 5.02607L4.61102 9.55114C4.45161 9.71054 4.36173 9.92716 4.36173 10.1526C4.36177 10.3778 4.45112 10.594 4.61033 10.7534C4.76973 10.9128 4.98635 11.0026 5.21178 11.0026C5.43721 11.0026 5.65383 10.9128 5.81324 10.7534C6.10389 10.4628 6.49816 10.2997 6.90911 10.2997C7.3201 10.2997 7.71437 10.4627 8.00499 10.7534L10.1325 12.8809C10.4414 13.1902 10.6584 13.5796 10.7581 14.0051C10.8576 14.4292 10.8353 14.8722 10.6974 15.2853H10.6988L10.2009 16.8011L10.1995 16.8066C10.1492 16.9563 10.1414 17.1169 10.1774 17.2706C10.2135 17.4246 10.2921 17.5662 10.4039 17.678L10.8334 18.1075C10.8428 18.1168 10.8554 18.122 10.8686 18.122C10.8818 18.122 10.8945 18.1168 10.9039 18.1075L17.6925 11.3189C17.7017 11.3096 17.707 11.2968 17.707 11.2837C17.707 11.2705 17.7018 11.2578 17.6925 11.2485L17.263 10.819L17.1732 10.7416C17.0792 10.6708 16.971 10.6195 16.8556 10.5925C16.7018 10.5565 16.5412 10.5643 16.3915 10.6146L16.386 10.6159L14.8703 11.1138L14.8696 11.1131C14.4567 11.2508 14.0138 11.2725 13.59 11.1732C13.1645 11.0734 12.7751 10.8564 12.4658 10.5476L10.3383 8.42004C10.0477 8.12939 9.88466 7.7352 9.88462 7.32417C9.88462 6.91315 10.0477 6.51896 10.3383 6.22829C10.4977 6.06888 10.5876 5.85227 10.5876 5.62683C10.5876 5.40145 10.4977 5.18475 10.3383 5.02538ZM11.399 3.96472C11.8396 4.4054 12.0874 5.00362 12.0874 5.62683C12.0874 6.25009 11.8397 6.84824 11.399 7.28895C11.3897 7.29831 11.3845 7.31097 11.3845 7.32417C11.3845 7.33738 11.3896 7.35004 11.399 7.35938L13.5258 9.48623L13.6142 9.56357C13.7083 9.63456 13.8169 9.68493 13.9325 9.71203C14.0481 9.7391 14.1675 9.74207 14.2833 9.72032L14.3973 9.69063L14.4021 9.68855L15.9178 9.19068L15.9171 9.19137C16.3304 9.05327 16.7744 9.03249 17.1988 9.13198C17.6243 9.23183 18.0137 9.44871 18.3229 9.75761L18.7532 10.1878C19.0437 10.4784 19.2068 10.8727 19.2068 11.2837C19.2068 11.6946 19.0437 12.0889 18.7532 12.3796L15.8888 15.2439L18.1869 17.542C18.4798 17.8349 18.4798 18.3098 18.1869 18.6027C17.894 18.8953 17.4191 18.8955 17.1263 18.6027L14.8282 16.3046L11.9645 19.1682C11.6738 19.4588 11.2797 19.6219 10.8686 19.6219C10.4576 19.6219 10.0634 19.4588 9.77276 19.1682L9.34255 18.738L9.23069 18.6178C8.98108 18.3304 8.80425 17.986 8.71693 17.6138C8.61749 17.1897 8.63772 16.746 8.77563 16.3329L9.2735 14.8171L9.27557 14.8123C9.3259 14.6625 9.33306 14.5015 9.29698 14.3476C9.26988 14.232 9.21879 14.124 9.14782 14.0299L9.07117 13.9409L6.94433 11.814C6.93502 11.8047 6.92227 11.7996 6.90911 11.7995C6.89598 11.7995 6.88324 11.8048 6.8739 11.814C6.43318 12.2547 5.83504 12.5025 5.21178 12.5025C4.58852 12.5025 3.99038 12.2547 3.54966 11.814C3.10916 11.3734 2.86193 10.7757 2.86189 10.1526C2.86189 9.52933 3.10964 8.93119 3.55036 8.49048L8.07542 3.96541C8.51613 3.5247 9.11428 3.27695 9.73754 3.27695C10.3606 3.27702 10.9583 3.52424 11.399 3.96472Z" fill="#737985"/>
</svg>
