<svg width="24" height="24" viewBox="0 0 24 24" fill="none" xmlns="http://www.w3.org/2000/svg">
<path d="M12.0001 15.345L12.0001 19.345Z" fill="#737985"/>
<path d="M14.4001 10.353C14.4003 10.6506 14.4835 10.9424 14.6404 11.1953C14.7972 11.4483 15.0216 11.6525 15.2881 11.785L16.7121 12.505C16.9787 12.6374 17.203 12.8416 17.3599 13.0946C17.5168 13.3476 17.6 13.6393 17.6001 13.937V14.545C17.6001 14.7571 17.5159 14.9606 17.3658 15.1107C17.2158 15.2607 17.0123 15.345 16.8001 15.345L7.20015 15.345C6.98797 15.345 6.78449 15.2607 6.63446 15.1107C6.48443 14.9606 6.40015 14.7571 6.40015 14.545L6.40015 13.937C6.4003 13.6393 6.4835 13.3476 6.64037 13.0946C6.79724 12.8416 7.02158 12.6374 7.28815 12.505L8.71215 11.785C8.97872 11.6525 9.20305 11.4483 9.35992 11.1953C9.5168 10.9424 9.59999 10.6506 9.60015 10.353L9.60015 7.34497C9.60015 7.1328 9.51586 6.92932 9.36583 6.77929C9.2158 6.62926 9.01232 6.54497 8.80015 6.54497C8.3758 6.54497 7.96883 6.3764 7.66877 6.07634C7.36872 5.77628 7.20014 5.36932 7.20014 4.94497C7.20014 4.52063 7.36872 4.11366 7.66877 3.8136C7.96883 3.51354 8.3758 3.34497 8.80015 3.34497L15.2001 3.34497C15.6245 3.34497 16.0315 3.51354 16.3315 3.8136C16.6316 4.11366 16.8001 4.52062 16.8001 4.94497C16.8001 5.36932 16.6316 5.77628 16.3315 6.07634C16.0315 6.3764 15.6245 6.54497 15.2001 6.54497C14.988 6.54497 14.7845 6.62926 14.6345 6.77929C14.4844 6.92931 14.4001 7.1328 14.4001 7.34497L14.4001 10.353Z" fill="#737985"/>
<path d="M12.75 19.9489C12.7499 20.3389 12.4142 20.6552 12 20.6552C11.5858 20.6552 11.25 20.3389 11.25 19.9489V16.0001H12.75V19.9489Z" fill="#737985"/>
</svg>
