<svg width="24" height="24" viewBox="0 0 24 24" fill="none" xmlns="http://www.w3.org/2000/svg">
<path d="M15.7681 11.5422L11.2651 8.11561C11.0998 7.99021 10.8805 7.97133 10.6993 8.06878C10.5168 8.16547 10.4027 8.36188 10.4027 8.57416V15.4252C10.4027 15.6397 10.5168 15.8354 10.6993 15.932C10.7765 15.9728 10.861 15.9932 10.9461 15.9932C11.0573 15.9932 11.1698 15.9562 11.2651 15.8829L15.7681 12.4593C15.9102 12.3498 15.9932 12.1806 15.9932 12.0008C15.9939 11.818 15.9088 11.6495 15.7681 11.5422Z" fill="#737985"/>
<path d="M20.25 12C20.25 10.9166 20.0367 9.84371 19.6221 8.84277C19.2075 7.84186 18.6001 6.93209 17.834 6.16602C17.0679 5.39995 16.1582 4.79253 15.1572 4.37793C14.1563 3.96333 13.0834 3.75 12 3.75C10.9166 3.75 9.84372 3.96333 8.84279 4.37793C7.84187 4.79253 6.9321 5.39995 6.16603 6.16602C5.39996 6.93209 4.79255 7.84186 4.37794 8.84277C3.96334 9.84371 3.75002 10.9166 3.75002 12C3.75002 13.0834 3.96334 14.1563 4.37794 15.1572C4.79255 16.1581 5.39996 17.0679 6.16603 17.834C6.9321 18.6001 7.84187 19.2075 8.84279 19.6221C9.84372 20.0367 10.9166 20.25 12 20.25C13.0834 20.25 14.1563 20.0367 15.1572 19.6221C16.1582 19.2075 17.0679 18.6001 17.834 17.834C18.6001 17.0679 19.2075 16.1581 19.6221 15.1572C20.0367 14.1563 20.25 13.0834 20.25 12ZM21.75 12C21.75 13.2804 21.4978 14.5485 21.0078 15.7314C20.5178 16.9143 19.7999 17.9892 18.8945 18.8945C17.9892 19.7998 16.9143 20.5178 15.7315 21.0078C14.5485 21.4978 13.2804 21.75 12 21.75C10.7196 21.75 9.45149 21.4978 8.26857 21.0078C7.08574 20.5178 6.01079 19.7998 5.10548 18.8945C4.20018 17.9892 3.48218 16.9143 2.9922 15.7314C2.50222 14.5485 2.25002 13.2804 2.25002 12C2.25002 10.7196 2.50222 9.45148 2.9922 8.26855C3.48218 7.08573 4.20018 6.01078 5.10548 5.10547C6.01079 4.20016 7.08574 3.48217 8.26857 2.99219C9.45149 2.5022 10.7196 2.25 12 2.25C13.2804 2.25 14.5485 2.5022 15.7315 2.99219C16.9143 3.48217 17.9892 4.20016 18.8945 5.10547C19.7999 6.01078 20.5178 7.08573 21.0078 8.26855C21.4978 9.45148 21.75 10.7196 21.75 12Z" fill="#737985"/>
</svg>
