<svg width="24" height="24" viewBox="0 0 24 24" fill="none" xmlns="http://www.w3.org/2000/svg">
<path d="M16.5879 5.49354C16.8551 5.17707 17.329 5.13647 17.6455 5.4037C19.0156 6.56065 19.9969 8.11093 20.457 9.84413C20.9172 11.5775 20.8337 13.4109 20.2178 15.0951C19.6018 16.7792 18.4833 18.2337 17.0137 19.2611C15.5438 20.2886 13.7934 20.8392 12 20.8392C10.2066 20.8392 8.45615 20.2886 6.98633 19.2611C5.51665 18.2337 4.3982 16.7792 3.78222 15.0951C3.16625 13.4109 3.08284 11.5775 3.54297 9.84413C4.0031 8.11093 4.98439 6.56065 6.35449 5.4037C6.67097 5.13647 7.14487 5.17707 7.41211 5.49354C7.67892 5.81002 7.63859 6.28308 7.32226 6.55019C6.1872 7.50874 5.37442 8.79299 4.99316 10.2289C4.61192 11.6651 4.68102 13.184 5.1914 14.5795C5.70176 15.9749 6.62796 17.1803 7.8457 18.0316C9.06356 18.883 10.5141 19.3392 12 19.3392C13.4859 19.3392 14.9364 18.883 16.1543 18.0316C17.372 17.1803 18.2982 15.9749 18.8086 14.5795C19.319 13.184 19.3881 11.6651 19.0068 10.2289C18.6256 8.79299 17.8128 7.50873 16.6777 6.55019C16.3614 6.28308 16.3211 5.81002 16.5879 5.49354Z" fill="#737985"/>
<path d="M11.2508 12.1686V3.91077C11.2508 3.49655 11.5866 3.16077 12.0008 3.16077C12.415 3.16077 12.7508 3.49655 12.7508 3.91077V12.1686C12.7508 12.5828 12.415 12.9186 12.0008 12.9186C11.5866 12.9186 11.2508 12.5828 11.2508 12.1686Z" fill="#737985"/>
</svg>
