<svg width="24" height="24" viewBox="0 0 24 24" fill="none" xmlns="http://www.w3.org/2000/svg">
<path d="M21.9366 8.45481C21.8039 7.51188 20.8567 6.82306 19.929 6.99542C19.4665 7.07143 19.0618 7.32373 18.7894 7.70589L15.5543 12.243C15.2862 12.1826 15.0104 12.1738 14.741 12.216L14.7395 5.9C14.7395 5.89494 14.7423 5.81488 14.7423 5.77957C14.5844 3.37427 10.6964 2.70968 8.39176 2.70449C6.08807 2.70834 2.19834 3.37584 2.04109 5.77945C2.04113 5.82156 2.0421 14.0194 2.0421 14.0194C2.0421 14.0896 2.05447 14.1592 2.07875 14.225C2.78371 16.1914 7.33748 16.7895 9.9641 16.4604C10.1738 16.7236 10.3798 16.9702 10.5855 17.2037C10.7164 17.3522 10.9125 17.4242 11.1076 17.3949L11.4939 17.3367C11.2717 17.5623 11.2819 17.9597 11.5161 18.1731C12.1891 18.8118 12.8951 19.3476 13.6748 19.8112C13.9036 19.9486 14.1951 19.9075 14.3846 19.721C14.3348 19.9832 14.4661 20.2477 14.7062 20.3636C15.3665 20.6822 16.1024 20.9771 16.9558 21.265C17.1362 21.3261 17.3369 21.2941 17.4905 21.1778C17.6437 21.062 17.731 20.8775 17.7239 20.6844C17.6811 19.517 17.804 18.5111 18.0996 17.6093C18.2504 17.1502 18.4055 16.6524 18.5563 16.2682C18.8181 15.5966 18.7475 14.8811 18.3984 14.3047L21.6308 9.77137C21.9033 9.38933 22.0119 8.92173 21.9366 8.45481ZM3.21071 7.60662C5.82504 9.28213 10.9573 9.28268 13.5728 7.60662L13.5733 9.73472C13.5948 10.7208 11.6623 11.673 8.37981 11.7284C6.93421 11.7284 5.57937 11.4974 4.56474 11.0782C3.74855 10.7409 3.2309 10.2996 3.21013 9.9246L3.21071 7.60662ZM4.54618 4.56506C6.54347 3.66223 10.2401 3.66219 12.2373 4.5651C14.0044 5.3511 14.0057 6.20749 12.2373 6.99397C11.2168 7.43387 9.85109 7.67611 8.3918 7.67611C6.9325 7.67611 5.56676 7.43387 4.54618 6.99397C2.77916 6.20792 2.77784 5.35149 4.54618 4.56506ZM4.75466 14.8345C3.83207 14.5224 3.36177 14.1566 3.20919 13.8912L3.2097 11.6929C5.8061 13.3264 10.9885 13.3251 13.5738 11.6775L13.574 12.7871C12.409 13.7907 11.1324 14.5049 9.77803 14.9092C9.58254 14.9675 9.42627 15.1282 9.379 15.3293C7.85151 15.4479 6.0047 15.269 4.75466 14.8345ZM17.4704 15.8366C16.9912 17.1221 16.5753 18.3942 16.554 19.8724C16.2277 19.7493 15.9215 19.6242 15.632 19.4958L15.9171 18.2303C15.973 17.982 15.8646 17.7254 15.6483 17.5944C15.432 17.4634 15.1568 17.4874 14.9662 17.6541L13.9121 18.5755C13.5124 18.3167 13.133 18.0338 12.7668 17.721L13.579 16.907C13.7581 16.7276 13.8026 16.4524 13.6895 16.2247C13.5765 15.997 13.3313 15.8687 13.0818 15.9061L11.2512 16.1818C11.1377 16.0482 11.0237 15.9098 10.9083 15.7657C12.1496 15.2853 13.3214 14.5673 14.4009 13.6244C14.7706 13.3016 15.2855 13.2783 15.6823 13.5667L17.1121 14.6061C17.5026 14.89 17.6466 15.3845 17.4704 15.8366ZM20.6837 9.0829L17.5526 13.4743L16.6054 12.7857L19.7365 8.39439C20.2116 7.77832 21.1117 8.43199 20.6837 9.0829Z" fill="#737985"/>
<path d="M8.3924 2.5C9.55893 2.50264 11.1329 2.67208 12.4424 3.15039C13.7399 3.62438 14.8587 4.43529 14.9462 5.76593L14.9472 5.7799C14.9472 5.80089 14.9459 5.83229 14.9452 5.85671C14.9449 5.8695 14.9445 5.88193 14.9442 5.89063V11.9886C15.1169 11.9789 15.2904 11.9903 15.4619 12.0185L18.6231 7.58744C18.8892 7.21428 19.2688 6.95096 19.7055 6.8343L19.896 6.7934C20.9373 6.60266 21.9869 7.36979 22.1375 8.42237C22.2212 8.94175 22.1012 9.46362 21.7973 9.88975L18.6401 14.3168C18.9418 14.8853 19.0059 15.5602 18.7957 16.2052L18.7468 16.3428C18.5988 16.7199 18.4465 17.209 18.294 17.6735C18.0075 18.5477 17.8858 19.5287 17.9279 20.6771C17.9373 20.9363 17.8203 21.1842 17.6136 21.3405C17.4321 21.4779 17.2017 21.529 16.9832 21.4841L16.8904 21.4582C16.0308 21.1682 15.2864 20.8704 14.617 20.5474C14.4111 20.4479 14.2651 20.2679 14.2031 20.0596C13.9969 20.1238 13.7681 20.1042 13.5706 19.9858C12.7776 19.5143 12.0588 18.9699 11.375 18.3209C11.174 18.135 11.0962 17.8536 11.1436 17.5947L11.1376 17.5967C10.8736 17.6363 10.6087 17.5385 10.4324 17.3384C10.2469 17.1279 10.0615 16.9073 9.87375 16.674C8.54867 16.8236 6.78816 16.7519 5.25515 16.4027C4.466 16.2229 3.72712 15.9677 3.13638 15.6266C2.54771 15.2866 2.0854 14.8488 1.88647 14.2939L1.88747 14.2929C1.85538 14.2051 1.83761 14.1128 1.83759 14.0196V9.91569C1.83734 7.86737 1.83661 5.81362 1.83659 5.7799V5.76593C1.92371 4.43595 3.04362 3.62469 4.34141 3.15039C5.65124 2.6717 7.2262 2.50195 8.3924 2.5ZM14.2669 13.4709C14.7081 13.0856 15.3282 13.0568 15.8021 13.4011L17.2326 14.4405C17.6987 14.7794 17.8702 15.3729 17.6605 15.9109C17.1832 17.1916 16.7796 18.4352 16.7587 19.8751L16.7538 20.1664L16.4814 20.0636C16.152 19.9393 15.842 19.8127 15.5487 19.6826L15.3961 19.6147L15.7173 18.1853C15.7541 18.022 15.683 17.8545 15.5427 17.7693C15.4026 17.6844 15.2246 17.7 15.1008 17.8082L14.0464 18.7289L13.9307 18.8307L13.801 18.7469C13.3938 18.4832 13.007 18.1946 12.6339 17.876L12.4663 17.7334L12.622 17.5768L13.434 16.7628C13.5507 16.6458 13.5808 16.4653 13.5068 16.3159C13.4328 16.1669 13.2728 16.0833 13.1117 16.1074L13.1127 16.1084L11.2813 16.3837L11.1695 16.4007L11.0957 16.3139C10.981 16.1787 10.8651 16.0393 10.7486 15.8939L10.575 15.6755L10.8344 15.5757C12.0519 15.1045 13.204 14.3993 14.2669 13.4709ZM15.5617 13.7323C15.2422 13.5001 14.8331 13.518 14.5352 13.7781C13.5147 14.6694 12.4097 15.3612 11.2414 15.848C11.2728 15.8862 11.3038 15.9244 11.3351 15.9618L13.0519 15.7044L13.1776 15.6954C13.4692 15.699 13.7396 15.8653 13.8729 16.1333C14.0247 16.4392 13.9644 16.8093 13.7232 17.0511L13.0689 17.7055C13.3361 17.9244 13.6108 18.1275 13.8958 18.3179L14.8315 17.5C15.089 17.2749 15.4617 17.2421 15.7542 17.4192C16.0461 17.5961 16.1913 17.9419 16.1163 18.275L15.8679 19.3743C16.0262 19.4425 16.1895 19.5101 16.3587 19.5768C16.427 18.1854 16.8292 16.9705 17.2785 15.7652L17.2805 15.7622C17.423 15.3962 17.3068 15.0006 16.9922 14.7717L15.5617 13.7323ZM13.7781 12.8804L13.7073 12.9422C12.5226 13.9627 11.221 14.6916 9.83684 15.1049C9.70935 15.1429 9.60749 15.2486 9.57748 15.3762L9.54356 15.5218L9.39493 15.5328C7.8473 15.653 5.97227 15.4726 4.68955 15.0271C4.21602 14.8669 3.85157 14.6912 3.58228 14.5163C3.31593 14.3433 3.13024 14.1641 3.03164 13.9926L3.00471 13.9457L3.00571 11.3232L3.31893 11.5197C4.5724 12.3083 6.47365 12.7138 8.3954 12.7118C10.3174 12.7097 12.2162 12.2999 13.4639 11.5048L13.7781 11.3053V12.8804ZM13.3691 12.0335C12.0457 12.7607 10.2127 13.1178 8.39639 13.1198C6.57888 13.1217 4.74188 12.7691 3.4137 12.0474V13.828C3.47788 13.9188 3.59891 14.0405 3.80473 14.1742C4.03936 14.3265 4.3714 14.4892 4.82023 14.641H4.82222C6.00507 15.0522 7.754 15.2294 9.23432 15.1318C9.32918 14.9308 9.50658 14.7774 9.71913 14.7138L10.2129 14.5512C11.3288 14.1486 12.3866 13.5231 13.3691 12.6898V12.0335ZM20.1234 7.94755C20.3233 7.92655 20.5171 7.98778 20.6691 8.09818C20.9767 8.32179 21.1361 8.76749 20.8546 9.19547L20.8496 9.20145L17.7194 13.5926L17.5997 13.7612L16.4854 12.9512L16.3218 12.8315L16.4395 12.6669L19.5698 8.27574L19.5748 8.26975C19.7253 8.0746 19.9199 7.96904 20.1234 7.94755ZM20.1663 8.35354C20.082 8.36244 19.9871 8.40525 19.901 8.51515L16.8894 12.7387L17.5049 13.1876L20.5175 8.96404C20.6581 8.7437 20.5812 8.53919 20.4287 8.42836C20.3498 8.3711 20.2554 8.34418 20.1663 8.35354ZM13.7781 9.73513C13.7834 10.0522 13.631 10.3457 13.3771 10.599C13.1225 10.8529 12.7541 11.079 12.2938 11.2693C11.3721 11.6504 10.0409 11.9047 8.38343 11.9327H8.37944C6.91545 11.9326 5.53277 11.6994 4.48705 11.2673C4.06583 11.0933 3.71162 10.8881 3.45659 10.6708C3.20896 10.4598 3.02079 10.208 3.00571 9.93564L3.0067 7.23331L3.32093 7.43481C4.58354 8.24398 6.47707 8.65872 8.39141 8.65879C10.3058 8.65885 12.1997 8.24428 13.4629 7.43481L13.7771 7.23331L13.7781 9.73513ZM13.3681 7.96351C12.0334 8.70391 10.2041 9.06784 8.39141 9.06778C6.57873 9.06772 4.7489 8.70473 3.4147 7.96451V9.91768C3.42243 10.0204 3.50473 10.1746 3.72194 10.3596C3.93495 10.541 4.24774 10.7261 4.64266 10.8893C5.62553 11.2954 6.95146 11.5224 8.37744 11.5227C10.0018 11.4952 11.2776 11.2466 12.1372 10.8913C12.5673 10.7134 12.8836 10.5133 13.0878 10.3097C13.2913 10.1068 13.3729 9.91315 13.3691 9.73912L13.3681 7.96351ZM8.39141 3.68408C9.83008 3.68408 11.285 3.91107 12.3197 4.37836C12.7713 4.57923 13.1261 4.79054 13.3701 5.01479C13.6137 5.23866 13.7669 5.49471 13.7671 5.7789C13.7672 6.06327 13.6138 6.31995 13.3701 6.54401C13.1262 6.76821 12.7723 6.97956 12.3207 7.18044L12.3177 7.18144C11.265 7.63512 9.87005 7.88071 8.39141 7.88071C6.91274 7.88067 5.51778 7.63518 4.4651 7.18144L4.46311 7.18044C4.01159 6.97958 3.65766 6.76824 3.4137 6.54401C3.17007 6.32008 3.01585 6.06417 3.01568 5.7799C3.01557 5.49553 3.17003 5.23985 3.4137 5.01579C3.65766 4.79146 4.0112 4.57934 4.46311 4.37836C5.49778 3.91097 6.95257 3.68411 8.39141 3.68408ZM8.39141 4.09207C6.98416 4.09211 5.59307 4.31649 4.63069 4.75144H4.6287C4.19669 4.94359 3.88789 5.13413 3.69002 5.31605C3.49181 5.49831 3.42462 5.6536 3.42467 5.7799C3.42484 5.90611 3.49212 6.06077 3.69002 6.24276C3.88799 6.42473 4.19877 6.61523 4.63069 6.80736C5.61866 7.23243 6.95345 7.47168 8.39141 7.47172C9.83104 7.47172 11.1678 7.23231 12.1561 6.80637C12.5874 6.6144 12.8962 6.42449 13.0938 6.24276C13.2917 6.06077 13.359 5.90607 13.3591 5.7799C13.3591 5.65358 13.2911 5.49829 13.0928 5.31605C12.8948 5.13415 12.5859 4.94349 12.1541 4.75144C11.1917 4.31635 9.79889 4.09207 8.39141 4.09207ZM2.25257 14.0884L2.27052 14.1542L2.27152 14.1562C2.42509 14.5843 2.79571 14.9587 3.34088 15.2735C3.88422 15.5872 4.58035 15.8303 5.34593 16.0047C6.87768 16.3536 8.64903 16.4196 9.93859 16.258L10.0523 16.2431L10.1241 16.3328C10.332 16.5937 10.5353 16.8383 10.7386 17.069C10.8238 17.1656 10.9509 17.2115 11.0768 17.1927L11.4638 17.1349L12.0693 17.0431L11.6394 17.48C11.4985 17.6231 11.5055 17.8864 11.6534 18.0217L11.6563 18.0247C12.3186 18.6532 13.0128 19.1801 13.7791 19.6357C13.9242 19.7229 14.1147 19.6996 14.241 19.5758L14.7068 19.117L14.5851 19.7594C14.5525 19.9317 14.6393 20.1042 14.7946 20.1793C15.4458 20.4936 16.174 20.7853 17.0211 21.0711C17.1373 21.1105 17.2677 21.0906 17.3672 21.0153L17.4341 20.9504C17.492 20.8788 17.5233 20.7872 17.5199 20.6921C17.4764 19.5059 17.6013 18.4752 17.9059 17.5458L18.1343 16.8466C18.2117 16.6141 18.2889 16.3889 18.3658 16.1932C18.6043 15.5806 18.5398 14.9321 18.2241 14.4106L18.1543 14.2959L18.2321 14.1861L21.4641 9.65234C21.7051 9.31448 21.8013 8.9015 21.7345 8.48721V8.48322C21.6176 7.65356 20.7773 7.04565 19.9658 7.1964L19.9618 7.1974C19.5533 7.26463 19.1962 7.48701 18.9553 7.82485L15.6415 12.4724L15.5098 12.4424C15.267 12.3877 15.0167 12.3793 14.7726 12.4175L14.5372 12.4544L14.5362 12.216L14.5352 5.87766C14.5355 5.86894 14.5359 5.8578 14.5362 5.84574C14.5368 5.82685 14.538 5.80729 14.5382 5.79287C14.4676 4.71852 13.5636 3.99435 12.3017 3.53345C11.0518 3.07698 9.52941 2.91156 8.39141 2.90899C7.25416 2.91096 5.73197 3.07677 4.48206 3.53345C3.22332 3.99347 2.32022 4.7153 2.24558 5.78389C2.24561 5.89466 2.24534 7.90724 2.24558 9.91469C2.24571 10.942 2.24649 11.9685 2.24658 12.7377V14.0196C2.24659 14.0427 2.24852 14.0658 2.25257 14.0884Z" fill="#737985"/>
</svg>
