<svg width="24" height="24" viewBox="0 0 24 24" fill="none" xmlns="http://www.w3.org/2000/svg">
<path d="M2.39468 10.3316V6.02101C2.39468 5.61336 2.39363 5.26195 2.41714 4.97413C2.44138 4.67759 2.49512 4.3821 2.6398 4.09816C2.85559 3.67483 3.19987 3.33054 3.6232 3.11476C3.90715 2.97007 4.20262 2.91634 4.49917 2.8921C4.78699 2.86859 5.1384 2.86964 5.54605 2.86964H10.299C10.6144 2.86964 10.8789 2.86889 11.0919 2.87941C11.3043 2.88991 11.5216 2.91286 11.7316 2.98195C11.8747 3.02901 12.0213 3.0833 12.1701 3.17042C12.3188 3.25753 12.4379 3.35874 12.549 3.46046C12.7245 3.62125 12.8722 3.84626 13.005 4.06398C13.1479 4.29813 13.3244 4.6121 13.5451 5.00538C13.9841 5.78768 14.5032 6.25536 15.0763 6.26027C16.5129 6.27257 17.7328 6.27294 18.6925 6.26906C19.1153 6.26734 19.4771 6.26534 19.7716 6.28761C20.073 6.31042 20.3747 6.36186 20.6623 6.50734C21.0906 6.72409 21.432 7.06422 21.6505 7.49171C21.7968 7.77784 21.85 8.07754 21.8742 8.37745C21.8977 8.66997 21.8966 9.02865 21.8966 9.44679V17.979C21.8966 18.3867 21.8977 18.7381 21.8742 19.0259C21.8499 19.3224 21.7962 19.6179 21.6515 19.9019C21.4357 20.3252 21.0914 20.6695 20.6681 20.8853C20.3842 21.0299 20.0887 21.0837 19.7921 21.1079C19.5043 21.1314 19.1529 21.1304 18.7453 21.1304H5.08902C4.71969 21.1304 4.40495 21.1352 4.12808 21.0698C3.29876 20.8738 2.65129 20.2263 2.45523 19.397C2.38982 19.1201 2.39468 18.8054 2.39468 18.436C2.39468 18.0212 2.73077 17.6851 3.14566 17.6851C3.56055 17.6851 3.89663 18.0212 3.89663 18.436C3.89663 18.8902 3.90219 18.9878 3.91714 19.0513C3.98235 19.3271 4.19794 19.5427 4.47378 19.6079C4.53727 19.6229 4.63492 19.6284 5.08902 19.6284H18.7453C19.1777 19.6284 19.4576 19.6272 19.6701 19.6099C19.8734 19.5932 19.9486 19.5652 19.9855 19.5464C20.1264 19.4746 20.2409 19.3601 20.3126 19.2192C20.3314 19.1824 20.3595 19.1072 20.3761 18.9038C20.3935 18.6914 20.3947 18.4115 20.3947 17.979V9.44679C20.3947 9.0043 20.3937 8.71679 20.3761 8.49855C20.3592 8.28776 20.3307 8.21061 20.3126 8.17531C20.2389 8.03113 20.1281 7.92127 19.9835 7.84816C19.9489 7.83068 19.8719 7.80183 19.6584 7.78566C19.4373 7.76895 19.1457 7.77017 18.6984 7.77199C17.7327 7.7759 16.5062 7.77458 15.0626 7.76222C13.6198 7.74968 12.72 6.60582 12.2345 5.74073C12.008 5.33699 11.8479 5.0522 11.7228 4.84718C11.661 4.74597 11.6143 4.67498 11.5783 4.6255C11.5527 4.59038 11.5379 4.57383 11.5334 4.56886C11.4479 4.49058 11.4218 4.47349 11.4113 4.4673C11.4011 4.46136 11.3739 4.44654 11.2619 4.40968C11.2436 4.40367 11.1853 4.38867 11.0177 4.38038C10.8505 4.37212 10.6298 4.37159 10.299 4.37159H5.54605C5.11361 4.3716 4.83368 4.37279 4.62124 4.39015C4.41791 4.40679 4.34268 4.43485 4.30581 4.45363C4.16493 4.52541 4.05045 4.63989 3.97866 4.78077C3.95989 4.81763 3.93183 4.89286 3.91519 5.0962C3.89783 5.30865 3.89663 5.58857 3.89663 6.02101V10.3316C3.89663 10.7464 3.56055 11.0835 3.14566 11.0835C2.73077 11.0835 2.39468 10.7464 2.39468 10.3316Z" fill="#737985"/>
<path d="M8.18958 10.5128C8.48248 10.2199 8.95724 10.2199 9.25013 10.5128L12.3839 13.6466C12.6766 13.9395 12.6768 14.4143 12.3839 14.7072L9.25013 17.841C8.95728 18.1336 8.48243 18.1336 8.18958 17.841C7.89675 17.5481 7.89686 17.0733 8.18958 16.7804L10.7931 14.1769L8.18958 11.5734C7.89669 11.2805 7.89669 10.8057 8.18958 10.5128Z" fill="#737985"/>
<path d="M11.8535 13.4267C12.2677 13.4267 12.6035 13.7625 12.6035 14.1767C12.6035 14.5909 12.2677 14.9267 11.8535 14.9267H2.85348C2.43926 14.9267 2.10348 14.5909 2.10348 14.1767C2.10348 13.7625 2.43926 13.4267 2.85348 13.4267H11.8535Z" fill="#737985"/>
</svg>
