<svg width="24" height="24" viewBox="0 0 24 24" fill="none" xmlns="http://www.w3.org/2000/svg">
<path d="M17.0947 3.96973C17.3876 3.67684 17.8624 3.67684 18.1553 3.96973L20.9678 6.78223C21.2607 7.07512 21.2607 7.54988 20.9678 7.84278L18.1553 10.6553C17.8624 10.9482 17.3876 10.9482 17.0947 10.6553C16.8018 10.3624 16.8018 9.88762 17.0947 9.59473L19.377 7.3125L17.0947 5.03028C16.8018 4.73738 16.8018 4.26262 17.0947 3.96973Z" fill="#737985"/>
<path d="M17.0947 13.3447C17.3876 13.0518 17.8624 13.0518 18.1553 13.3447L20.9678 16.1572C21.2607 16.4501 21.2607 16.9249 20.9678 17.2178L18.1553 20.0303C17.8624 20.3232 17.3876 20.3232 17.0947 20.0303C16.8018 19.7374 16.8018 19.2626 17.0947 18.9697L19.377 16.6875L17.0947 14.4053C16.8018 14.1124 16.8018 13.6376 17.0947 13.3447Z" fill="#737985"/>
<path d="M10.3125 12C10.3125 10.9557 9.8976 9.95425 9.15918 9.21582C8.42075 8.4774 7.41929 8.0625 6.375 8.0625H3.5625C3.14829 8.0625 2.8125 7.72672 2.8125 7.3125C2.8125 6.89829 3.14829 6.5625 3.5625 6.5625H6.375C7.81711 6.5625 9.2 7.13555 10.2197 8.15528C11.2395 9.17501 11.8125 10.5579 11.8125 12C11.8125 13.0443 12.2274 14.0458 12.9658 14.7842C13.7042 15.5226 14.7057 15.9375 15.75 15.9375H20.4375C20.8517 15.9375 21.1875 16.2733 21.1875 16.6875C21.1875 17.1017 20.8517 17.4375 20.4375 17.4375H15.75C14.3079 17.4375 12.925 16.8645 11.9053 15.8447C10.8855 14.825 10.3125 13.4421 10.3125 12Z" fill="#737985"/>
<path d="M8.7373 15.1504C9.06839 14.9018 9.53831 14.9688 9.78711 15.2998C10.0357 15.6309 9.96869 16.1008 9.6377 16.3496C8.69694 17.0566 7.55182 17.4376 6.375 17.4365L3.5625 17.4375C3.14829 17.4375 2.8125 17.1017 2.8125 16.6875C2.8125 16.2733 3.14829 15.9375 3.5625 15.9375H6.37598C7.2275 15.9384 8.05663 15.662 8.7373 15.1504ZM20.4375 6.5625C20.8517 6.5625 21.1875 6.89829 21.1875 7.3125C21.1875 7.72672 20.8517 8.0625 20.4375 8.0625H15.749C14.8976 8.06125 14.0691 8.33777 13.3887 8.84961C13.0577 9.09862 12.5869 9.03214 12.3379 8.70118C12.0889 8.37019 12.1554 7.89942 12.4863 7.65039C13.427 6.94272 14.5729 6.56199 15.75 6.56348L20.4375 6.5625Z" fill="#737985"/>
</svg>
