<svg width="24" height="24" viewBox="0 0 24 24" fill="none" xmlns="http://www.w3.org/2000/svg">
<path d="M12.0713 3.15002C15.0756 3.15015 17.7091 4.73413 19.168 7.10706C19.3849 7.45992 19.2747 7.92235 18.9219 8.13928C18.5691 8.35615 18.1066 8.24594 17.8896 7.89319C16.6943 5.94882 14.5368 4.65015 12.0713 4.65002C8.40979 4.65002 5.43217 7.51177 5.26953 11.0914L5.49512 10.8678C5.78909 10.5761 6.26391 10.5779 6.55567 10.8717C6.8474 11.1657 6.8458 11.6405 6.55176 11.9323L5.04004 13.4323C4.74763 13.7224 4.27581 13.7224 3.9834 13.4323L2.47168 11.9323C2.17774 11.6405 2.17607 11.1657 2.46777 10.8717C2.75952 10.5778 3.23431 10.5761 3.52832 10.8678L3.76856 11.1061C3.92451 6.68078 7.58673 3.15002 12.0713 3.15002Z" fill="#737985"/>
<path d="M19.0123 10.516C19.3057 10.2792 19.7355 10.2961 20.0094 10.5668L21.5269 12.0668C21.8215 12.3579 21.8248 12.8327 21.5338 13.1273C21.2426 13.4219 20.7678 13.4243 20.4732 13.1332L20.2242 12.8871C20.0712 17.3181 16.394 20.85 11.8941 20.85C8.88062 20.8499 6.23756 19.2671 4.77303 16.894C4.5556 16.5415 4.66569 16.0792 5.01815 15.8617C5.37061 15.6444 5.83289 15.7534 6.05038 16.1059C7.25021 18.0501 9.41683 19.3499 11.8941 19.35C15.5757 19.35 18.5639 16.4827 18.7242 12.9027L18.4918 13.1332C18.1972 13.4244 17.7224 13.4219 17.4312 13.1273C17.1402 12.8329 17.1429 12.358 17.4371 12.0668L18.9557 10.5668L19.0123 10.516Z" fill="#737985"/>
</svg>
