<svg width="24" height="24" viewBox="0 0 24 24" fill="none" xmlns="http://www.w3.org/2000/svg">
<path d="M20.25 5.4004C20.25 4.96798 20.2498 4.6881 20.2324 4.47559C20.2158 4.27204 20.1869 4.19625 20.168 4.15919C20.0961 4.01836 19.9817 3.90389 19.8408 3.83204C19.8038 3.81315 19.728 3.78423 19.5244 3.76758C19.3119 3.75022 19.032 3.75001 18.5996 3.75001H5.4004C4.96798 3.75001 4.6881 3.75022 4.47559 3.76758C4.27204 3.78423 4.19625 3.81315 4.15919 3.83204C4.01836 3.90389 3.90389 4.01836 3.83204 4.15919C3.81315 4.19625 3.78423 4.27204 3.76758 4.47559C3.75022 4.6881 3.75001 4.96798 3.75001 5.4004V18.5996C3.75001 19.032 3.75022 19.3119 3.76758 19.5244C3.78423 19.728 3.81315 19.8038 3.83204 19.8408C3.90389 19.9817 4.01836 20.0961 4.15919 20.168C4.19625 20.1869 4.27204 20.2158 4.47559 20.2324C4.6881 20.2498 4.96798 20.25 5.4004 20.25H18.5996C19.032 20.25 19.3119 20.2498 19.5244 20.2324C19.728 20.2158 19.8038 20.1869 19.8408 20.168C19.9817 20.0961 20.0961 19.9817 20.168 19.8408C20.1869 19.8038 20.2158 19.728 20.2324 19.5244C20.2498 19.3119 20.25 19.032 20.25 18.5996V5.4004ZM21.75 18.5996C21.75 19.0073 21.7511 19.3587 21.7275 19.6465C21.7033 19.9429 21.6494 20.2378 21.5049 20.5215C21.2892 20.9449 20.9449 21.2892 20.5215 21.5049C20.2378 21.6494 19.9429 21.7033 19.6465 21.7275C19.3587 21.7511 19.0073 21.75 18.5996 21.75H5.4004C4.99273 21.75 4.64128 21.7511 4.35352 21.7275C4.05709 21.7033 3.76224 21.6494 3.47852 21.5049C3.05516 21.2892 2.71084 20.9449 2.49512 20.5215C2.35057 20.2378 2.2967 19.9429 2.27247 19.6465C2.24896 19.3587 2.25001 19.0073 2.25001 18.5996V5.4004C2.25001 4.99273 2.24896 4.64128 2.27247 4.35352C2.2967 4.05709 2.35057 3.76224 2.49512 3.47852C2.71084 3.05516 3.05516 2.71084 3.47852 2.49512C3.76224 2.35057 4.05709 2.2967 4.35352 2.27247C4.64128 2.24896 4.99273 2.25001 5.4004 2.25001H18.5996C19.0073 2.25001 19.3587 2.24896 19.6465 2.27247C19.9429 2.2967 20.2378 2.35057 20.5215 2.49512C20.9449 2.71084 21.2892 3.05516 21.5049 3.47852C21.6494 3.76224 21.7033 4.05709 21.7275 4.35352C21.7511 4.64128 21.75 4.99273 21.75 5.4004V18.5996Z" fill="#737985"/>
<path d="M7.00196 14.2344C7.33435 14.2344 7.62339 14.2295 7.90332 14.2969C8.13365 14.3524 8.35389 14.4442 8.55567 14.5684C8.80081 14.7193 9.00101 14.9275 9.23535 15.1631L9.8291 15.7598C10.1151 16.0473 10.1749 16.1008 10.2334 16.1368C10.301 16.1783 10.375 16.2092 10.4522 16.2276C10.519 16.2435 10.5989 16.2477 11.0049 16.2461L13.0137 16.2383C13.4143 16.2368 13.4936 16.2319 13.5596 16.2159C13.6358 16.1973 13.7086 16.1662 13.7754 16.125C13.8332 16.0894 13.8927 16.0372 14.1758 15.753L14.7647 15.1612C14.9989 14.926 15.1994 14.7181 15.4443 14.5674C15.646 14.4435 15.8666 14.3523 16.0967 14.2969C16.3763 14.2296 16.6651 14.2344 16.9971 14.2344H21C21.4142 14.2344 21.75 14.5702 21.75 14.9844C21.75 15.3986 21.4142 15.7344 21 15.7344H16.9971C16.5934 15.7344 16.5137 15.7389 16.4473 15.7549C16.3706 15.7734 16.2976 15.8045 16.2305 15.8457C16.1723 15.8815 16.1128 15.934 15.8281 16.2198L15.2393 16.8116C15.0062 17.0456 14.8062 17.2522 14.5625 17.4024C14.3621 17.5258 14.1437 17.6172 13.915 17.6729C13.637 17.7406 13.3498 17.737 13.0195 17.7383L11.0107 17.7461C10.6769 17.7474 10.3868 17.7534 10.1055 17.6866C9.87388 17.6314 9.65212 17.5396 9.44922 17.4151C9.2026 17.2637 9.00125 17.0543 8.76563 16.8174L8.17188 16.2207C7.88721 15.9345 7.8277 15.8816 7.76953 15.8457C7.70228 15.8044 7.62854 15.7734 7.55176 15.7549C7.48537 15.739 7.40545 15.7344 7.00196 15.7344H3C2.58579 15.7344 2.25 15.3986 2.25 14.9844C2.25 14.5702 2.58579 14.2344 3 14.2344H7.00196Z" fill="#737985"/>
<path d="M11.5264 5.77481C11.821 5.5345 12.2557 5.55196 12.5303 5.82657L15.0303 8.32656C15.3232 8.61946 15.3232 9.09422 15.0303 9.38711C14.7374 9.68 14.2626 9.68 13.9697 9.38711L12 7.41739L10.0303 9.38711C9.73738 9.68 9.26262 9.68 8.96973 9.38711C8.67684 9.09422 8.67684 8.61946 8.96973 8.32656L11.4697 5.82657L11.5264 5.77481Z" fill="#737985"/>
<path d="M11.25 13.5393V6.55984C11.25 6.14563 11.5858 5.80984 12 5.80984C12.4142 5.80984 12.75 6.14563 12.75 6.55984V13.5393C12.75 13.9535 12.4142 14.2893 12 14.2893C11.5858 14.2893 11.25 13.9535 11.25 13.5393Z" fill="#737985"/>
</svg>
