<svg width="24" height="24" viewBox="0 0 24 24" fill="none" xmlns="http://www.w3.org/2000/svg">
<path d="M6.50001 7.24998C6.50001 7.66419 6.16422 7.99998 5.75001 7.99998C5.33579 7.99998 5.00001 7.66419 5.00001 7.24998C5.00001 6.83577 5.33579 6.49998 5.75001 6.49998C6.16422 6.49998 6.50001 6.83577 6.50001 7.24998Z" fill="#737985"/>
<path d="M8.90002 7.24998C8.90002 7.66419 8.56423 7.99998 8.15002 7.99998C7.73581 7.99998 7.40002 7.66419 7.40002 7.24998C7.40002 6.83577 7.73581 6.49998 8.15002 6.49998C8.56423 6.49998 8.90002 6.83577 8.90002 7.24998Z" fill="#737985"/>
<path d="M11.3 7.24998C11.3 7.66419 10.9642 7.99998 10.55 7.99998C10.1358 7.99998 9.79998 7.66419 9.79998 7.24998C9.79998 6.83577 10.1358 6.49998 10.55 6.49998C10.9642 6.49998 11.3 6.83577 11.3 7.24998Z" fill="#737985"/>
<path d="M20.2008 13.2321V6.36488C20.2008 5.93246 20.1997 5.65257 20.1823 5.44007C20.1656 5.23655 20.1377 5.16073 20.1188 5.12366C20.0469 4.98262 19.9318 4.86839 19.7907 4.79652C19.7536 4.77762 19.678 4.74871 19.4743 4.73206C19.2618 4.71472 18.9827 4.71448 18.5505 4.71448H5.37077C4.93835 4.71448 4.65846 4.7147 4.44596 4.73206C4.24241 4.74871 4.16662 4.77763 4.12955 4.79652C3.98873 4.86837 3.87426 4.98284 3.80241 5.12366C3.78352 5.16073 3.7546 5.23652 3.73795 5.44007C3.72059 5.65257 3.72037 5.93246 3.72037 6.36488V17.5641C3.72037 17.9965 3.72059 18.2764 3.73795 18.4889C3.7546 18.6925 3.78352 18.7682 3.80241 18.8053C3.87426 18.9461 3.98873 19.0606 4.12955 19.1325C4.16662 19.1513 4.24241 19.1803 4.44596 19.1969C4.65846 19.2143 4.93835 19.2145 5.37077 19.2145H12.8581C13.2723 19.2145 13.6081 19.5503 13.6081 19.9645C13.6081 20.3787 13.2723 20.7145 12.8581 20.7145H5.37077C4.9631 20.7145 4.61164 20.7155 4.32389 20.692C4.02746 20.6678 3.73261 20.6139 3.44889 20.4694C3.02553 20.2537 2.68121 19.9093 2.46549 19.486C2.32094 19.2023 2.26707 18.9074 2.24284 18.611C2.21933 18.3232 2.22037 17.9718 2.22037 17.5641V6.36488C2.22037 5.95721 2.21933 5.60575 2.24284 5.318C2.26707 5.02157 2.32094 4.72672 2.46549 4.443C2.68121 4.01964 3.02553 3.67532 3.44889 3.4596C3.73261 3.31505 4.02746 3.26118 4.32389 3.23695C4.61164 3.21344 4.9631 3.21448 5.37077 3.21448H18.5505C18.9579 3.21448 19.3087 3.21346 19.5964 3.23695C19.8927 3.26116 20.1877 3.31517 20.4714 3.4596C20.8947 3.67529 21.239 4.01971 21.4548 4.443C21.5993 4.72672 21.6532 5.02156 21.6774 5.318C21.7009 5.60575 21.7008 5.95721 21.7008 6.36488V13.2321C21.7008 13.6461 21.3648 13.9818 20.9508 13.9821C20.5366 13.9821 20.2008 13.6463 20.2008 13.2321Z" fill="#737985"/>
<path d="M20.2087 9.46448C20.6229 9.46448 20.9587 9.80027 20.9587 10.2145C20.9587 10.6287 20.6229 10.9645 20.2087 10.9645L3.70866 10.9645C3.29444 10.9645 2.95866 10.6287 2.95866 10.2145C2.95866 9.80027 3.29444 9.46448 3.70866 9.46448L20.2087 9.46448Z" fill="#737985"/>
<path d="M8.45866 19.4244C8.45856 19.8386 8.12281 20.1744 7.70866 20.1744C7.2945 20.1744 6.95876 19.8386 6.95866 19.4244L6.95866 10.7145C6.95866 10.3003 7.29444 9.96448 7.70866 9.96448C8.12287 9.96448 8.45866 10.3003 8.45866 10.7145L8.45866 19.4244Z" fill="#737985"/>
<path d="M21.0297 15.7501C21.4439 15.7501 21.7796 16.0858 21.7796 16.5C21.7796 16.9142 21.4439 17.2499 21.0297 17.2499H18.2441V20.0356C18.2441 20.4498 17.9084 20.7855 17.4942 20.7855C17.08 20.7855 16.7443 20.4498 16.7443 20.0356V17.2499H13.9586C13.5444 17.2499 13.2087 16.9142 13.2087 16.5C13.2087 16.0858 13.5444 15.7501 13.9586 15.7501H16.7443V12.9645C16.7443 12.5503 17.08 12.2146 17.4942 12.2146C17.9084 12.2146 18.2441 12.5503 18.2441 12.9645V15.7501H21.0297Z" fill="#737985"/>
</svg>
