<svg width="24" height="24" viewBox="0 0 24 24" fill="none" xmlns="http://www.w3.org/2000/svg">
<path d="M20.3242 8.53126C20.3242 8.09904 20.324 7.81988 20.3066 7.60743C20.29 7.40368 20.2611 7.32811 20.2422 7.29102C20.1703 7.14998 20.0561 7.03479 19.915 6.9629C19.878 6.94401 19.8022 6.91607 19.5986 6.89942C19.3861 6.88206 19.1062 6.88184 18.6738 6.88184H18.6006V17.1201H18.6738C19.1062 17.1201 19.3861 17.1189 19.5986 17.1016C19.8022 17.0849 19.878 17.057 19.915 17.0381C20.0561 16.9662 20.1703 16.851 20.2422 16.71C20.2611 16.6729 20.29 16.5972 20.3066 16.3936C20.324 16.1811 20.3242 15.9019 20.3242 15.4697V8.53126ZM8.55079 4.16016C8.11837 4.16016 7.83849 4.16038 7.62598 4.17774C7.42243 4.19439 7.34664 4.22331 7.30958 4.24219C7.16875 4.31405 7.05428 4.42852 6.98243 4.56934C6.96354 4.60641 6.93463 4.6822 6.91798 4.88575C6.90061 5.09825 6.9004 5.37814 6.9004 5.81055V18.1914C6.9004 18.6236 6.90063 18.9028 6.91798 19.1152C6.93462 19.3189 6.96353 19.3946 6.98243 19.4316C7.0543 19.5727 7.16854 19.6879 7.30958 19.7598C7.34664 19.7787 7.42246 19.8066 7.62598 19.8232C7.83849 19.8406 8.11837 19.8418 8.55079 19.8418H15.4502C15.8823 19.8418 16.1616 19.8406 16.374 19.8232C16.5771 19.8067 16.6532 19.7787 16.6904 19.7598C16.8316 19.6879 16.9467 19.5728 17.0186 19.4316C17.0375 19.3945 17.0654 19.3187 17.082 19.1152C17.0994 18.9028 17.1006 18.6237 17.1006 18.1914V5.81055C17.1006 5.37814 17.0994 5.09825 17.082 4.88575C17.0654 4.68224 17.0374 4.60641 17.0186 4.56934C16.9466 4.42835 16.8315 4.31405 16.6904 4.24219C16.6533 4.2233 16.5774 4.19436 16.374 4.17774C16.1616 4.16042 15.8823 4.16016 15.4502 4.16016H8.55079ZM15.25 10.501C15.664 10.5012 16 10.8369 16 11.251C15.9998 11.6648 15.6638 12.0007 15.25 12.001H8.7793C8.36524 12.001 8.02955 11.665 8.0293 11.251C8.0293 10.8368 8.36509 10.501 8.7793 10.501H15.25ZM14.2539 7.50098C14.668 7.50112 15.0039 7.83685 15.0039 8.25098C15.0037 8.66491 14.6679 9.00085 14.2539 9.00098H9.76075C9.34669 9.00098 9.011 8.66499 9.01075 8.25098C9.01075 7.83677 9.34654 7.50098 9.76075 7.50098H14.2539ZM3.72266 15.4697C3.72266 15.9019 3.7229 16.1811 3.74024 16.3936C3.75689 16.5973 3.7858 16.6729 3.80469 16.71C3.87657 16.851 3.9908 16.9662 4.13184 17.0381C4.16891 17.057 4.24473 17.0849 4.44825 17.1016C4.66075 17.1189 4.94064 17.1191 5.37305 17.1191H5.4004V6.88184H5.37305C4.94064 6.88184 4.66075 6.88206 4.44825 6.89942C4.24472 6.91607 4.16891 6.94401 4.13184 6.9629C3.9908 7.0348 3.87657 7.14997 3.80469 7.29102C3.7858 7.32811 3.75689 7.40368 3.74024 7.60743C3.72289 7.81989 3.72266 8.09904 3.72266 8.53126V15.4697ZM21.8242 15.4697C21.8242 15.8772 21.8252 16.228 21.8018 16.5156C21.7775 16.8121 21.7237 17.1078 21.5791 17.3916C21.3634 17.8148 21.0189 18.1584 20.5957 18.374C20.312 18.5186 20.0171 18.5725 19.7207 18.5967C19.433 18.6202 19.0815 18.6201 18.6738 18.6201H18.5986C18.5968 18.8498 18.592 19.0561 18.5772 19.2373C18.5529 19.5338 18.5001 19.8295 18.3555 20.1133C18.1398 20.5364 17.7952 20.88 17.3721 21.0957C17.0884 21.2402 16.7934 21.2941 16.4971 21.3184C16.2093 21.3419 15.8579 21.3418 15.4502 21.3418H8.55079C8.14312 21.3418 7.79167 21.3419 7.50391 21.3184C7.20748 21.2941 6.91263 21.2403 6.62891 21.0957C6.20573 20.88 5.86121 20.5365 5.64551 20.1133C5.50092 19.8295 5.44708 19.5338 5.42286 19.2373C5.40805 19.0558 5.4042 18.8492 5.40235 18.6191H5.37305C4.96539 18.6191 4.61393 18.6202 4.32618 18.5967C4.02974 18.5725 3.7349 18.5186 3.45118 18.374C3.02788 18.1583 2.68347 17.8139 2.46778 17.3906C2.32334 17.107 2.26934 16.812 2.24512 16.5156C2.22164 16.228 2.22266 15.8772 2.22266 15.4697V8.53126C2.22266 8.12378 2.22164 7.77303 2.24512 7.48536C2.26934 7.18898 2.32333 6.89403 2.46778 6.61036C2.68347 6.18704 3.02787 5.84268 3.45118 5.62696C3.7349 5.4824 4.02974 5.42854 4.32618 5.4043C4.61393 5.38079 4.96539 5.38184 5.37305 5.38184H5.40235C5.4042 5.15183 5.40804 4.9451 5.42286 4.76368C5.44709 4.46724 5.50096 4.17239 5.64551 3.88868C5.86123 3.46531 6.20555 3.121 6.62891 2.90528C6.91263 2.76073 7.20748 2.70686 7.50391 2.68262C7.79167 2.65911 8.14312 2.66016 8.55079 2.66016H15.4502C15.8579 2.66016 16.2093 2.65911 16.4971 2.68262C16.7934 2.70687 17.0884 2.76075 17.3721 2.90528C17.7954 3.121 18.1398 3.46536 18.3555 3.88868C18.5 4.17235 18.5529 4.4673 18.5772 4.76368C18.592 4.9451 18.5968 5.15183 18.5986 5.38184H18.6738C19.0815 5.38184 19.433 5.38079 19.7207 5.4043C20.0171 5.42854 20.312 5.4824 20.5957 5.62696C21.019 5.84268 21.3634 6.18703 21.5791 6.61036C21.7236 6.89404 21.7775 7.18897 21.8018 7.48536C21.8253 7.77303 21.8242 8.12378 21.8242 8.53126V15.4697Z" fill="#737985"/>
</svg>
