<svg width="24" height="24" viewBox="0 0 24 24" fill="none" xmlns="http://www.w3.org/2000/svg">
<path d="M20.7529 4.00577V9.02725C20.7529 9.44319 20.416 9.78018 20 9.78018H14.9785C14.5627 9.78008 14.2256 9.44312 14.2256 9.02725C14.2256 8.61134 14.5626 8.27443 14.9785 8.27432H18.2871C17.5866 7.09857 16.5661 6.13565 15.332 5.5087C13.7532 4.70667 11.9358 4.50713 10.2207 4.94815C8.50566 5.38918 7.00973 6.44101 6.01368 7.90518C5.01787 9.36926 4.58996 11.1463 4.80958 12.9032C5.02924 14.6602 5.8814 16.2772 7.20704 17.4511C8.53286 18.625 10.2419 19.2759 12.0127 19.2812C13.7833 19.2864 15.4954 18.6462 16.8281 17.4804C18.1609 16.3144 19.0228 14.702 19.2529 12.9462C19.307 12.5338 19.6853 12.2438 20.0977 12.2978C20.5101 12.3518 20.8011 12.73 20.7471 13.1425C20.4693 15.2613 19.4285 17.2061 17.8203 18.6132C16.2118 20.0204 14.1451 20.7934 12.0078 20.787C9.87065 20.7806 7.8091 19.9958 6.20899 18.579C4.60887 17.1622 3.57956 15.2105 3.31446 13.0898C3.04944 10.9691 3.56651 8.82455 4.76856 7.05753C5.9707 5.29042 7.77582 4.02145 9.84571 3.48917C11.9155 2.95696 14.1083 3.19802 16.0137 4.16592C17.3168 4.82791 18.4241 5.79933 19.2471 6.98233V4.00577C19.2471 3.58983 19.5841 3.25284 20 3.25284C20.416 3.25284 20.7529 3.58983 20.7529 4.00577Z" fill="#737985"/>
</svg>
