<svg width="24" height="24" viewBox="0 0 24 24" fill="none" xmlns="http://www.w3.org/2000/svg">
<path d="M20.25 11.6608V6.069C20.25 5.65479 19.9142 5.319 19.5 5.319H4.5C4.08579 5.319 3.75 5.65479 3.75 6.069V19.1217C3.75021 19.5358 4.08591 19.8717 4.5 19.8717H11.9307C12.3448 19.8718 12.6807 20.2076 12.6807 20.6217C12.6805 21.0357 12.3447 21.3716 11.9307 21.3717H4.5C3.25749 21.3717 2.25021 20.3642 2.25 19.1217V6.069C2.25 4.82636 3.25736 3.819 4.5 3.819H19.5C20.7426 3.819 21.75 4.82636 21.75 6.069V11.6608C21.75 12.075 21.4142 12.4108 21 12.4108C20.5858 12.4108 20.25 12.075 20.25 11.6608Z" fill="#737985"/>
<path d="M20.9999 9.09517V10.5952H2.93933V9.09517H20.9999Z" fill="#737985"/>
<path d="M7.25 5.91479V3.37866C7.25 2.96445 7.58579 2.62866 8 2.62866C8.41421 2.62866 8.75 2.96445 8.75 3.37866V5.91479C8.75 6.32901 8.41421 6.66479 8 6.66479C7.58579 6.66479 7.25 6.32901 7.25 5.91479Z" fill="#737985"/>
<path d="M15.25 5.91479V3.37866C15.25 2.96445 15.5858 2.62866 16 2.62866C16.4142 2.62866 16.75 2.96445 16.75 3.37866V5.91479C16.75 6.32901 16.4142 6.66479 16 6.66479C15.5858 6.66479 15.25 6.32901 15.25 5.91479Z" fill="#737985"/>
<path d="M16.4324 15.8405C16.4324 15.4954 16.7122 15.2155 17.0574 15.2155C17.4026 15.2155 17.6824 15.4954 17.6824 15.8405V17.1511L18.2849 17.7536C18.5288 17.9976 18.5285 18.3933 18.2849 18.6374C18.0408 18.8815 17.6442 18.8815 17.4001 18.6374L16.615 17.8532C16.4978 17.736 16.4324 17.5766 16.4324 17.4109V15.8405Z" fill="#737985"/>
<path d="M20.3747 17.0181C20.3746 15.3208 18.9988 13.9449 17.3015 13.9449C15.6042 13.9449 14.2283 15.3208 14.2282 17.0181C14.2282 18.7154 15.6041 20.0913 17.3015 20.0913C18.9988 20.0913 20.3747 18.7155 20.3747 17.0181ZM21.6247 17.0181C21.6247 19.4058 19.6892 21.3413 17.3015 21.3413C14.9138 21.3413 12.9782 19.4058 12.9782 17.0181C12.9783 14.6305 14.9138 12.6949 17.3015 12.6949C19.6891 12.6949 21.6246 14.6304 21.6247 17.0181Z" fill="#737985"/>
</svg>
