<svg width="24" height="24" viewBox="0 0 24 24" fill="none" xmlns="http://www.w3.org/2000/svg">
<path d="M17.2504 10.5023C17.2504 6.77457 14.2281 3.75243 10.5004 3.75232C6.77259 3.75232 3.7504 6.77451 3.7504 10.5023C3.7505 14.2301 6.77265 17.2523 10.5004 17.2523C14.2281 17.2522 17.2503 14.23 17.2504 10.5023ZM18.7504 10.5023C18.7503 15.0584 15.0565 18.7522 10.5004 18.7523C5.94423 18.7523 2.2505 15.0585 2.2504 10.5023C2.2504 5.94608 5.94416 2.25232 10.5004 2.25232C15.0566 2.25243 18.7504 5.94615 18.7504 10.5023Z" fill="#737985"/>
<path d="M15.4697 15.4677C15.7626 15.1748 16.2374 15.1748 16.5303 15.4677L21.5303 20.4677C21.8228 20.7607 21.823 21.2355 21.5303 21.5283C21.2375 21.8211 20.7627 21.8208 20.4697 21.5283L15.4697 16.5283C15.1768 16.2354 15.1768 15.7606 15.4697 15.4677Z" fill="#737985"/>
</svg>
