<svg width="24" height="24" viewBox="0 0 24 24" fill="none" xmlns="http://www.w3.org/2000/svg">
<path d="M10.2189 7.95941C10.8918 7.57067 11.6738 7.41372 12.4445 7.51312C13.2153 7.61257 13.9323 7.96239 14.4846 8.50921C15.0368 9.05607 15.3942 9.7697 15.5012 10.5395C15.539 10.8129 15.3478 11.0649 15.0744 11.103C14.8009 11.141 14.548 10.9506 14.51 10.6772C14.4332 10.1247 14.1768 9.61267 13.7805 9.22015C13.3841 8.82769 12.8698 8.57571 12.3166 8.50433C11.7634 8.43301 11.2019 8.54564 10.7189 8.82464C10.4744 8.96594 10.2575 9.14672 10.0744 9.35687H10.4973C10.7733 9.35693 10.9973 9.58077 10.9973 9.85687C10.9972 10.1329 10.7733 10.3568 10.4973 10.3569H8.99433C8.71823 10.3569 8.49441 10.1329 8.49433 9.85687V8.35394C8.49433 8.0778 8.71819 7.85394 8.99433 7.85394C9.27047 7.85394 9.49433 8.0778 9.49433 8.35394V8.5141C9.70967 8.30011 9.95271 8.11323 10.2189 7.95941Z" fill="#737985"/>
<path d="M14.506 13.6134V13.4513C14.2904 13.6658 14.0482 13.8548 13.7814 14.0089C13.1085 14.3977 12.3257 14.5537 11.5549 14.4542C10.7843 14.3547 10.0679 14.0048 9.51581 13.4581C8.96358 12.9113 8.60619 12.1977 8.49921 11.4279C8.46146 11.1545 8.6526 10.9024 8.92597 10.8644C9.19931 10.8266 9.45145 11.0178 9.48944 11.2912C9.56628 11.8434 9.82284 12.3548 10.2189 12.7472C10.6152 13.1397 11.1297 13.3916 11.6828 13.463C12.236 13.5344 12.7975 13.4217 13.2805 13.1427C13.5252 13.0013 13.7428 12.8208 13.926 12.6105H13.5031C13.227 12.6105 13.0031 12.3866 13.0031 12.1105C13.0033 11.8345 13.2271 11.6105 13.5031 11.6105H15.006C15.2818 11.6107 15.5058 11.8347 15.506 12.1105V13.6134C15.506 13.8894 15.282 14.1132 15.006 14.1134C14.7299 14.1134 14.506 13.8896 14.506 13.6134Z" fill="#737985"/>
<path d="M18.25 7.50526C18.25 6.78919 18.2365 6.64551 18.1943 6.54237C18.1452 6.42228 18.0658 6.31693 17.9639 6.23671C17.8763 6.16787 17.7419 6.11498 17.0537 5.91835L12.4531 4.60389C12.1846 4.52719 12.131 4.51454 12.083 4.50917C12.0278 4.50303 11.9721 4.50303 11.917 4.50917C11.8689 4.51454 11.8153 4.52719 11.5469 4.60389L6.94628 5.91835C6.25806 6.11498 6.12371 6.16787 6.03612 6.23671C5.93417 6.31693 5.85474 6.42228 5.80565 6.54237C5.76353 6.64551 5.74999 6.78919 5.74999 7.50526V12.0433C5.74999 13.0572 5.75491 13.4424 5.83983 13.7963C5.91941 14.1278 6.05042 14.445 6.2285 14.7357C6.4187 15.0461 6.68822 15.3214 7.40526 16.0385L9.03026 17.6644C10.0273 18.6614 10.4027 19.0228 10.7793 19.2094C11.5484 19.5904 12.4515 19.5904 13.2207 19.2094C13.5973 19.0228 13.9727 18.6614 14.9697 17.6644L16.5947 16.0385C17.3118 15.3214 17.5813 15.0461 17.7715 14.7357C17.9496 14.445 18.0806 14.1278 18.1601 13.7963C18.2451 13.4424 18.25 13.0572 18.25 12.0433V7.50526ZM19.75 12.0433C19.75 12.986 19.7552 13.5801 19.6191 14.1469C19.5028 14.6315 19.3102 15.0949 19.0498 15.5199C18.7453 16.0168 18.3227 16.4335 17.6562 17.1L16.0303 18.725C15.1189 19.6364 14.5395 20.2296 13.8867 20.5531C12.6978 21.1421 11.3022 21.1421 10.1133 20.5531C9.46052 20.2296 8.88108 19.6364 7.96972 18.725L6.34374 17.1C5.67728 16.4335 5.25471 16.0168 4.95018 15.5199C4.68976 15.0949 4.49721 14.6315 4.38085 14.1469C4.24479 13.5801 4.24999 12.986 4.24999 12.0433V7.50526C4.24999 6.92349 4.2364 6.41714 4.41698 5.97499C4.56439 5.61425 4.80299 5.29784 5.10936 5.05702C5.48481 4.76197 5.97492 4.63574 6.53417 4.47596L11.1348 3.16151C11.3565 3.09814 11.5486 3.04145 11.75 3.01893C11.9161 3.00036 12.0839 3.00036 12.25 3.01893C12.4513 3.04145 12.6434 3.09814 12.8652 3.16151L17.4658 4.47596C18.0251 4.63574 18.5152 4.76197 18.8906 5.05702C19.197 5.29784 19.4356 5.61425 19.583 5.97499C19.7636 6.41714 19.75 6.92349 19.75 7.50526V12.0433Z" fill="#737985"/>
</svg>
