<svg width="24" height="24" viewBox="0 0 24 24" fill="none" xmlns="http://www.w3.org/2000/svg">
<path d="M18.25 7.50526C18.25 6.78919 18.2365 6.64551 18.1943 6.54237C18.1453 6.42228 18.0658 6.31693 17.9639 6.23671C17.8763 6.16787 17.7419 6.11498 17.0537 5.91835L12.4531 4.60389C12.1847 4.52719 12.131 4.51454 12.083 4.50917C12.0279 4.50303 11.9722 4.50303 11.917 4.50917C11.869 4.51454 11.8154 4.52719 11.5469 4.60389L6.94629 5.91835C6.25807 6.11498 6.12373 6.16787 6.03614 6.23671C5.93418 6.31693 5.85475 6.42228 5.80567 6.54237C5.76354 6.64551 5.75 6.78919 5.75 7.50526V12.0433C5.75 13.0572 5.75493 13.4424 5.83985 13.7963C5.91943 14.1278 6.05044 14.445 6.22852 14.7357C6.41872 15.0461 6.68823 15.3214 7.40528 16.0385L9.03028 17.6644C10.0273 18.6614 10.4027 19.0228 10.7793 19.2094C11.5485 19.5904 12.4515 19.5904 13.2207 19.2094C13.5973 19.0228 13.9727 18.6614 14.9697 17.6644L16.5947 16.0385C17.3118 15.3214 17.5813 15.0461 17.7715 14.7357C17.9496 14.445 18.0806 14.1278 18.1602 13.7963C18.2451 13.4424 18.25 13.0572 18.25 12.0433V7.50526ZM19.75 12.0433C19.75 12.986 19.7552 13.5801 19.6191 14.1469C19.5028 14.6315 19.3102 15.0949 19.0498 15.5199C18.7453 16.0168 18.3227 16.4335 17.6563 17.1L16.0303 18.725C15.1189 19.6364 14.5395 20.2296 13.8867 20.5531C12.6978 21.1421 11.3022 21.1421 10.1133 20.5531C9.46054 20.2296 8.8811 19.6364 7.96973 18.725L6.34375 17.1C5.6773 16.4335 5.25472 16.0168 4.9502 15.5199C4.68977 15.0949 4.49722 14.6315 4.38086 14.1469C4.2448 13.5801 4.25 12.986 4.25 12.0433V7.50526C4.25 6.92349 4.23641 6.41714 4.417 5.97499C4.5644 5.61425 4.803 5.29784 5.10938 5.05702C5.48483 4.76197 5.97494 4.63574 6.53418 4.47596L11.1348 3.16151C11.3565 3.09814 11.5487 3.04145 11.75 3.01893C11.9161 3.00036 12.0839 3.00036 12.25 3.01893C12.4513 3.04145 12.6435 3.09814 12.8652 3.16151L17.4658 4.47596C18.0251 4.63574 18.5152 4.76197 18.8906 5.05702C19.197 5.29784 19.4356 5.61425 19.583 5.97499C19.7636 6.41714 19.75 6.92349 19.75 7.50526V12.0433Z" fill="#737985"/>
<path d="M14.428 9.20856C14.7209 8.91567 15.1957 8.91567 15.4886 9.20856C15.7815 9.50146 15.7815 9.97622 15.4886 10.2691L12.1556 13.6021C11.8627 13.895 11.3879 13.895 11.095 13.6021L9.42801 11.9361C9.13517 11.6433 9.13528 11.1685 9.42801 10.8756C9.72091 10.5827 10.1957 10.5827 10.4886 10.8756L11.6243 12.0113L14.428 9.20856Z" fill="#737985"/>
</svg>
