<svg width="24" height="24" viewBox="0 0 24 24" fill="none" xmlns="http://www.w3.org/2000/svg">
<path d="M6.25 15.0002V13.0002C6.25 12.9341 6.2235 12.8703 6.17676 12.8235C6.12992 12.7767 6.06623 12.7503 6 12.7502H4C3.53594 12.7502 3.09086 12.5657 2.7627 12.2375C2.43456 11.9094 2.25004 11.4643 2.25 11.0002V9.00024C2.25 8.53613 2.43452 8.09112 2.7627 7.76294C3.09087 7.43476 3.53589 7.25024 4 7.25024H7C7.41411 7.25036 7.75 7.5861 7.75 8.00024C7.75 8.41439 7.41411 8.75013 7 8.75024H4C3.93371 8.75024 3.87012 8.77661 3.82324 8.82349C3.77637 8.87036 3.75 8.93395 3.75 9.00024V11.0002C3.75004 11.0665 3.77641 11.1302 3.82324 11.177C3.87011 11.2238 3.93376 11.2502 4 11.2502H6C6.46406 11.2503 6.90916 11.4348 7.2373 11.7629C7.56535 12.0911 7.75 12.5362 7.75 13.0002V15.0002C7.7499 15.4642 7.56539 15.9095 7.2373 16.2375C6.90918 16.5656 6.46401 16.7502 6 16.7502H3C2.58593 16.7502 2.25023 16.4143 2.25 16.0002C2.25 15.586 2.58579 15.2502 3 15.2502H6C6.06618 15.2502 6.12993 15.2238 6.17676 15.177C6.22354 15.1302 6.2499 15.0664 6.25 15.0002ZM13.998 7.25024C14.4123 7.25024 14.748 7.58603 14.748 8.00024C14.748 8.41446 14.4123 8.75024 13.998 8.75024H10.749V11.2981C10.8279 11.2699 10.9124 11.2522 11.001 11.2522H13C13.4142 11.2522 13.75 11.588 13.75 12.0022C13.7499 12.4163 13.4141 12.7522 13 12.7522H11.001C10.9122 12.7522 10.828 12.7326 10.749 12.7043V15.2502H13.998C14.4123 15.2502 14.748 15.586 14.748 16.0002C14.7478 16.4143 14.4121 16.7502 13.998 16.7502H9.99902C9.58495 16.7502 9.24926 16.4143 9.24902 16.0002V8.00024C9.24902 7.58603 9.58481 7.25024 9.99902 7.25024H13.998ZM20.25 9.00024C20.25 8.93395 20.2236 8.87036 20.1768 8.82349C20.1299 8.77661 20.0663 8.75024 20 8.75024H18C17.9338 8.75029 17.8701 8.77665 17.8232 8.82349C17.7764 8.87035 17.75 8.934 17.75 9.00024V15.0002C17.7501 15.0664 17.7765 15.1302 17.8232 15.177C17.8701 15.2238 17.9338 15.2502 18 15.2502H20C20.0662 15.2502 20.1299 15.2237 20.1768 15.177C20.2235 15.1302 20.2499 15.0664 20.25 15.0002V9.00024ZM21.75 15.0002C21.7499 15.4642 21.5654 15.9095 21.2373 16.2375C20.9091 16.5656 20.464 16.7502 20 16.7502H18C17.536 16.7502 17.0908 16.5656 16.7627 16.2375C16.4346 15.9095 16.2501 15.4642 16.25 15.0002V9.00024C16.25 8.53618 16.4346 8.09111 16.7627 7.76294C17.0908 7.4348 17.5359 7.25029 18 7.25024H20C20.4641 7.25024 20.9091 7.43476 21.2373 7.76294C21.5655 8.09112 21.75 8.53613 21.75 9.00024V15.0002Z" fill="#737985"/>
</svg>
