<svg width="24" height="24" viewBox="0 0 24 24" fill="none" xmlns="http://www.w3.org/2000/svg">
<path d="M20.2393 15.7481C20.2393 15.3156 20.239 15.0358 20.2217 14.8232C20.205 14.6197 20.1771 14.5439 20.1582 14.5068C20.0863 14.3658 19.9711 14.2516 19.8301 14.1797C19.793 14.1608 19.7174 14.1319 19.5137 14.1152C19.3012 14.0979 19.0221 14.0977 18.5899 14.0977H5.40821C4.9758 14.0977 4.69591 14.0979 4.48341 14.1152C4.27985 14.1319 4.20407 14.1608 4.167 14.1797C4.02618 14.2515 3.9117 14.366 3.83985 14.5068C3.82096 14.5439 3.79205 14.6197 3.7754 14.8232C3.75804 15.0358 3.75782 15.3156 3.75782 15.7481V18.5996C3.75782 19.0318 3.75805 19.311 3.7754 19.5234C3.79204 19.7272 3.82096 19.8028 3.83985 19.8399C3.91173 19.9809 4.02596 20.0961 4.167 20.168C4.20406 20.1869 4.27988 20.2148 4.48341 20.2315C4.69591 20.2488 4.9758 20.249 5.40821 20.249H18.5899C19.0221 20.249 19.3012 20.2488 19.5137 20.2315C19.7173 20.2148 19.793 20.1869 19.8301 20.168C19.9712 20.0961 20.0863 19.981 20.1582 19.8399C20.1771 19.8027 20.2051 19.7267 20.2217 19.5234C20.239 19.311 20.2393 19.0318 20.2393 18.5996V15.7481ZM6.78028 16.249C7.19434 16.249 7.53003 16.585 7.53028 16.999C7.53028 17.4132 7.19449 17.749 6.78028 17.749H6.7793C6.36509 17.749 6.0293 17.4132 6.0293 16.999C6.02955 16.585 6.36524 16.249 6.7793 16.249H6.78028ZM17.3125 16.249C17.7266 16.249 18.0623 16.585 18.0625 16.999C18.0625 17.4132 17.7267 17.749 17.3125 17.749H9.76563C9.35142 17.749 9.01563 17.4132 9.01563 16.999C9.01588 16.585 9.35157 16.249 9.76563 16.249H17.3125ZM20.2393 5.4004C20.2393 4.96798 20.239 4.6881 20.2217 4.47559C20.205 4.27206 20.1771 4.19625 20.1582 4.15919C20.0863 4.01816 19.9711 3.90394 19.8301 3.83204C19.793 3.81314 19.7174 3.78423 19.5137 3.76759C19.3012 3.75023 19.0221 3.75001 18.5899 3.75001H5.40821C4.9758 3.75001 4.69591 3.75022 4.48341 3.76759C4.27985 3.78423 4.20407 3.81315 4.167 3.83204C4.02618 3.90389 3.9117 4.01836 3.83985 4.15919C3.82096 4.19625 3.79205 4.27204 3.7754 4.47559C3.75804 4.6881 3.75782 4.96798 3.75782 5.4004V8.25196C3.75782 8.68417 3.75805 8.96333 3.7754 9.17579C3.79204 9.37954 3.82096 9.45511 3.83985 9.49219C3.91173 9.63325 4.02596 9.74841 4.167 9.82032C4.20406 9.83921 4.27988 9.86715 4.48341 9.8838C4.69591 9.90116 4.9758 9.90137 5.40821 9.90137H18.5899C19.0221 9.90137 19.3012 9.90115 19.5137 9.8838C19.7173 9.86715 19.793 9.83921 19.8301 9.82032C19.9712 9.74841 20.0863 9.63332 20.1582 9.49219C20.1771 9.45501 20.2051 9.37902 20.2217 9.17579C20.239 8.96333 20.2393 8.68418 20.2393 8.25196V5.4004ZM6.78223 6.00391C7.19629 6.00391 7.53199 6.33991 7.53223 6.75391C7.53223 7.16813 7.19645 7.50391 6.78223 7.50391H6.78126C6.36704 7.50391 6.03126 7.16813 6.03126 6.75391C6.0315 6.33991 6.3672 6.00391 6.78126 6.00391H6.78223ZM17.2813 6.00391C17.6953 6.00391 18.031 6.33991 18.0313 6.75391C18.0313 7.16813 17.6955 7.50391 17.2813 7.50391H9.77344C9.35925 7.50389 9.02344 7.16811 9.02344 6.75391C9.02369 6.33993 9.35941 6.00394 9.77344 6.00391H17.2813ZM21.7393 18.5996C21.7393 19.0071 21.7403 19.3578 21.7168 19.6455C21.6926 19.9419 21.6386 20.2368 21.4941 20.5205C21.2784 20.9439 20.9341 21.2882 20.5107 21.5039C20.227 21.6485 19.9322 21.7023 19.6357 21.7266C19.3481 21.7501 18.9974 21.749 18.5899 21.749H5.40821C5.00055 21.749 4.64909 21.7501 4.36134 21.7266C4.0649 21.7023 3.77005 21.6485 3.48634 21.5039C3.06304 21.2882 2.71863 20.9438 2.50294 20.5205C2.3585 20.2369 2.30449 19.9419 2.28028 19.6455C2.2568 19.3578 2.25782 19.0071 2.25782 18.5996V15.7481C2.25782 15.3404 2.25677 14.9889 2.28028 14.7012C2.30451 14.4047 2.35839 14.1099 2.50294 13.8262C2.71865 13.4028 3.06297 13.0585 3.48634 12.8428C3.77005 12.6982 4.0649 12.6444 4.36134 12.6201C4.64909 12.5966 5.00055 12.5977 5.40821 12.5977H18.5899C18.9973 12.5977 19.3481 12.5966 19.6357 12.6201C19.9322 12.6443 20.227 12.6983 20.5107 12.8428C20.9341 13.0585 21.2784 13.4028 21.4941 13.8262C21.6387 14.1099 21.6926 14.4047 21.7168 14.7012C21.7403 14.9889 21.7393 15.3404 21.7393 15.7481V18.5996ZM21.7393 8.25196C21.7393 8.65945 21.7403 9.01018 21.7168 9.29786C21.6926 9.59426 21.6386 9.88917 21.4941 10.1729C21.2784 10.5962 20.9341 10.9405 20.5107 11.1563C20.227 11.3008 19.9322 11.3547 19.6357 11.3789C19.3481 11.4024 18.9974 11.4014 18.5899 11.4014H5.40821C5.00055 11.4014 4.64909 11.4024 4.36134 11.3789C4.0649 11.3547 3.77005 11.3008 3.48634 11.1563C3.06304 10.9405 2.71863 10.5962 2.50294 10.1729C2.3585 9.8892 2.30449 9.59423 2.28028 9.29786C2.2568 9.01019 2.25782 8.65944 2.25782 8.25196V5.4004C2.25782 4.99273 2.25677 4.64128 2.28028 4.35352C2.30451 4.05709 2.35839 3.76224 2.50294 3.47852C2.71865 3.05516 3.06297 2.71084 3.48634 2.49512C3.77005 2.35057 4.0649 2.2967 4.36134 2.27247C4.64909 2.24896 5.00055 2.25001 5.40821 2.25001H18.5899C18.9973 2.25001 19.3481 2.24897 19.6357 2.27247C19.9322 2.29669 20.227 2.35062 20.5107 2.49512C20.9341 2.71083 21.2784 3.05518 21.4941 3.47852C21.6387 3.76225 21.6926 4.05708 21.7168 4.35352C21.7403 4.64128 21.7393 4.99273 21.7393 5.4004V8.25196Z" fill="#737985"/>
</svg>
