<svg width="24" height="24" viewBox="0 0 24 24" fill="none" xmlns="http://www.w3.org/2000/svg">
<path d="M20.25 6.04956C20.2498 4.91974 19.3339 4.00389 18.2041 4.00366H5.7959C4.66608 4.00389 3.75023 4.91974 3.75 6.04956C3.75 7.17957 4.66594 8.0962 5.7959 8.09644H18.2041C19.3341 8.0962 20.25 7.17957 20.25 6.04956ZM21.75 6.04956C21.75 8.008 20.1625 9.5962 18.2041 9.59644H5.7959C3.83751 9.5962 2.25 8.008 2.25 6.04956C2.25023 4.09132 3.83766 2.50389 5.7959 2.50366H18.2041C20.1623 2.50389 21.7498 4.09132 21.75 6.04956Z" fill="#737985"/>
<path d="M20.25 11.6921C20.2498 10.5623 19.3339 9.64647 18.2041 9.64624H5.7959C4.66608 9.64647 3.75023 10.5623 3.75 11.6921C3.75 12.8222 4.66594 13.7388 5.7959 13.739H18.2041C19.3341 13.7388 20.25 12.8222 20.25 11.6921ZM21.75 11.6921C21.75 13.6506 20.1625 15.2388 18.2041 15.239H5.7959C3.83751 15.2388 2.25 13.6506 2.25 11.6921C2.25023 9.7339 3.83766 8.14647 5.7959 8.14624H18.2041C20.1623 8.14647 21.7498 9.7339 21.75 11.6921Z" fill="#737985"/>
<path d="M10.2002 18.3463C10.5729 18.3464 10.875 18.6483 10.875 19.0211C10.875 19.3938 10.5729 19.6958 10.2002 19.6959H3C2.62721 19.6959 2.3252 19.3938 2.3252 19.0211C2.3252 18.6483 2.62721 18.3463 3 18.3463H10.2002ZM21 18.3463C21.3728 18.3463 21.6748 18.6483 21.6748 19.0211C21.6748 19.3938 21.3728 19.6959 21 19.6959H13.7998C13.4271 19.6958 13.125 19.3938 13.125 19.0211C13.125 18.6483 13.4271 18.3464 13.7998 18.3463H21Z" fill="#737985"/>
<path d="M11.3252 17.2213V14.5211C11.3252 14.1483 11.6272 13.8463 12 13.8463C12.3728 13.8463 12.6748 14.1483 12.6748 14.5211V17.2213C12.6747 17.594 12.3727 17.8961 12 17.8961C11.6273 17.8961 11.3253 17.594 11.3252 17.2213Z" fill="#737985"/>
<path d="M13.125 19.0211C13.1249 18.3998 12.6213 17.8961 12 17.8961C11.3788 17.8962 10.8751 18.3999 10.875 19.0211C10.875 19.6423 11.3786 20.1457 11.9998 20.1458C12.6211 20.1458 13.125 19.6424 13.125 19.0211ZM14.4754 19.0208C14.4754 20.3877 13.3667 21.4964 11.9998 21.4964C10.633 21.4963 9.52519 20.3877 9.52519 19.0208C9.5253 17.6541 10.6331 16.5463 11.9998 16.5462C13.3666 16.5462 14.4753 17.654 14.4754 19.0208Z" fill="#737985"/>
<path d="M17.4004 5.36253C17.773 5.36274 18.0752 5.66467 18.0752 6.03734C18.0752 6.41 17.773 6.71193 17.4004 6.71214H12C11.6272 6.71214 11.3252 6.41013 11.3252 6.03734C11.3252 5.66454 11.6272 5.36253 12 5.36253H17.4004Z" fill="#737985"/>
<path d="M17.4004 10.7626C17.773 10.7628 18.0752 11.0647 18.0752 11.4374C18.0752 11.81 17.773 12.112 17.4004 12.1122H12C11.6272 12.1122 11.3252 11.8102 11.3252 11.4374C11.3252 11.0646 11.6272 10.7626 12 10.7626H17.4004Z" fill="#737985"/>
</svg>
