<svg width="24" height="24" viewBox="0 0 24 24" fill="none" xmlns="http://www.w3.org/2000/svg">
<path d="M12.0713 3.15002C14.7842 3.15014 17.195 4.44246 18.7109 6.44006C18.8737 6.65452 19.0265 6.87693 19.168 7.10706C19.3849 7.45992 19.2747 7.92235 18.9219 8.13928C18.5691 8.35615 18.1066 8.24594 17.8896 7.89319C17.7739 7.70489 17.6489 7.522 17.5156 7.34631C16.2728 5.7088 14.2978 4.65014 12.0713 4.65002C8.30516 4.65002 5.26172 7.67767 5.26172 11.4V12.9C5.2617 13.2028 5.07932 13.476 4.79981 13.5924C4.52036 13.7086 4.19826 13.6454 3.9834 13.4323L2.47168 11.9323C2.17774 11.6405 2.17607 11.1657 2.46777 10.8717C2.75952 10.5778 3.23431 10.5761 3.52832 10.8678L3.76856 11.1061C3.92451 6.68078 7.58673 3.15002 12.0713 3.15002Z" fill="#737985"/>
<path d="M19.193 10.4076C19.4722 10.291 19.7942 10.3541 20.0094 10.5668L21.527 12.0668C21.8215 12.3579 21.8249 12.8327 21.5338 13.1273C21.2427 13.4219 20.7679 13.4243 20.4733 13.1332L20.2242 12.8871C20.0712 17.3181 16.394 20.85 11.8942 20.85C8.88066 20.8499 6.2376 19.2671 4.77307 16.894C4.55563 16.5415 4.66573 16.0792 5.01819 15.8617C5.37065 15.6444 5.83293 15.7534 6.05042 16.1059C7.25025 18.0501 9.41687 19.3499 11.8942 19.35C15.679 19.35 18.7321 16.3197 18.7321 12.6V11.1C18.7321 10.7975 18.9139 10.5243 19.193 10.4076Z" fill="#737985"/>
<path d="M12.6486 6.87497C13.1924 6.87501 13.6629 7.24355 13.798 7.76169L13.8205 7.86716L13.924 8.4902C13.9269 8.49265 13.9307 8.49619 13.9357 8.49899C13.9836 8.525 14.0277 8.55033 14.0656 8.57321C14.0699 8.57578 14.0741 8.57785 14.0773 8.57907L14.6691 8.35739C14.8992 8.27102 15.1497 8.25874 15.3859 8.32028L15.4865 8.35153L15.5842 8.39059C15.8059 8.49288 15.9913 8.66209 16.1144 8.87497L16.1154 8.87595L16.7629 9.99899C16.9033 10.2425 16.9528 10.5281 16.9025 10.8047C16.8523 11.0812 16.7056 11.3312 16.4885 11.5097L16.0002 11.9111V12.0879L16.4894 12.4902C16.9357 12.8586 17.0536 13.4972 16.7639 14L16.7629 14.0009L16.1144 15.124C15.9739 15.3674 15.7511 15.5535 15.4865 15.6484C15.222 15.7432 14.9323 15.7411 14.6691 15.6425L14.0773 15.4199C14.0737 15.4212 14.0688 15.4236 14.0637 15.4267C14.0215 15.4523 13.9788 15.477 13.9357 15.5009L13.9348 15.5019C13.9305 15.5043 13.9267 15.5066 13.924 15.5088L13.8205 16.1328C13.7251 16.7067 13.2281 17.1249 12.6486 17.125H11.3518C10.7708 17.125 10.2759 16.7049 10.1799 16.1338L10.0754 15.5088C10.0727 15.5066 10.0691 15.5034 10.0646 15.5009C10.0211 15.4769 9.97733 15.4514 9.93476 15.4258C9.9301 15.423 9.92533 15.421 9.92207 15.4199L9.33124 15.6425C9.06816 15.7413 8.77843 15.7431 8.51386 15.6484C8.24927 15.5537 8.02665 15.3682 7.88593 15.125L7.23749 14.0009C7.09705 13.7574 7.04761 13.4719 7.09785 13.1953L7.12031 13.0927C7.18502 12.8572 7.32189 12.6465 7.51191 12.4902L7.99921 12.0879C7.99975 12.0845 8.00028 12.08 8.00019 12.0752C7.99927 12.0251 7.99927 11.9748 8.00019 11.9248C8.00028 11.9192 7.99983 11.9146 7.99921 11.9111L7.51093 11.5097C7.29415 11.3312 7.14808 11.0809 7.09785 10.8047C7.04772 10.5285 7.09646 10.2433 7.23652 9.99997L7.88593 8.87595L7.94257 8.78708C8.08295 8.5872 8.28232 8.43451 8.51386 8.35153L8.61445 8.32028C8.85083 8.25861 9.10193 8.2709 9.33222 8.35739L9.92207 8.57907C9.92506 8.578 9.92866 8.57654 9.93281 8.57419C9.9785 8.5463 10.0246 8.52092 10.0598 8.50095L10.0666 8.49802C10.0706 8.49581 10.0729 8.4922 10.0754 8.4902L10.1809 7.86716L10.2033 7.76169C10.3385 7.24372 10.8081 6.8751 11.3518 6.87497H12.6486ZM11.3068 8.71384C11.24 9.11465 10.9793 9.41832 10.676 9.58786C10.6375 9.60967 10.6101 9.62673 10.5842 9.64255L10.5812 9.6445C10.282 9.82495 9.88513 9.90025 9.50117 9.75681L9.50019 9.75583L8.9416 9.54587L8.34589 10.5771L8.80781 10.958C9.12283 11.218 9.25664 11.5982 9.25019 11.9482C9.24955 11.983 9.24955 12.018 9.25019 12.0527C9.25576 12.3574 9.15466 12.6874 8.91718 12.9394L8.80781 13.042L8.34589 13.4218L8.94062 14.4531L9.50117 14.2441C9.83702 14.1186 10.1826 14.1597 10.4641 14.2929L10.5812 14.3554L10.6701 14.4072L10.6711 14.4082C10.9382 14.5563 11.1732 14.8088 11.2727 15.1406L11.3068 15.2871L11.4045 15.875H12.5959L12.6935 15.2871C12.7529 14.9347 12.9611 14.6548 13.217 14.4775L13.3293 14.4082C13.3589 14.3917 13.3883 14.375 13.4172 14.3574L13.4201 14.3554C13.6815 14.1983 14.0174 14.1208 14.3547 14.2002L14.4992 14.2441L15.0578 14.4521L15.6535 13.4209L15.1926 13.042C14.8767 12.7819 14.7428 12.401 14.7502 12.0508V11.9463C14.7437 11.5967 14.8775 11.2173 15.1926 10.958L15.6525 10.5771L15.0588 9.54587L14.4992 9.75583C14.1153 9.89964 13.719 9.82461 13.4201 9.6445C13.3865 9.62422 13.3593 9.60874 13.3352 9.59567L13.3293 9.59177C13.024 9.42246 12.7614 9.11674 12.6935 8.71384L12.5959 8.12497H11.4045L11.3068 8.71384Z" fill="#737985"/>
<path d="M12.7251 11.9996C12.725 11.8074 12.6481 11.6228 12.5122 11.4869C12.3763 11.3512 12.1916 11.275 11.9995 11.275C11.8074 11.2751 11.6227 11.351 11.4868 11.4869C11.351 11.6228 11.275 11.8074 11.2749 11.9996C11.2749 12.1917 11.3511 12.3764 11.4868 12.5123C11.6227 12.6482 11.8074 12.7251 11.9995 12.7252C12.1918 12.7252 12.3763 12.6482 12.5122 12.5123C12.6482 12.3763 12.7251 12.1919 12.7251 11.9996ZM13.9751 11.9996C13.9751 12.5234 13.7664 13.0257 13.396 13.3961C13.0256 13.7665 12.5233 13.9752 11.9995 13.9752C11.4759 13.9751 10.9733 13.7664 10.603 13.3961C10.2329 13.0257 10.0249 12.5232 10.0249 11.9996C10.025 11.4759 10.2327 10.9734 10.603 10.6031C10.9733 10.2328 11.4759 10.0251 11.9995 10.025C12.5231 10.025 13.0257 10.233 13.396 10.6031C13.7663 10.9734 13.975 11.4759 13.9751 11.9996Z" fill="#737985"/>
</svg>
