<svg width="24" height="24" viewBox="0 0 24 24" fill="none" xmlns="http://www.w3.org/2000/svg">
<path d="M13.2969 2.25C14.213 2.25008 14.9963 2.91298 15.1465 3.81738L15.3594 5.09668L15.3867 5.18457C15.4264 5.27446 15.5046 5.36611 15.6279 5.43457H15.627C15.7142 5.48191 15.7973 5.53013 15.8721 5.5752V5.57617C16.0333 5.67333 16.1898 5.67978 16.2969 5.63965L17.5127 5.18359C17.9282 5.02736 18.3857 5.0244 18.8037 5.17383C19.2219 5.32338 19.5737 5.6165 19.7959 6.00098H19.7969L21.0928 8.24805C21.3145 8.63255 21.3919 9.08378 21.3125 9.52051C21.2332 9.95676 21.0015 10.35 20.6592 10.6318L19.6572 11.46H19.6563C19.5893 11.515 19.5323 11.6068 19.5098 11.7275L19.5 11.8574V12.1436C19.4961 12.3278 19.5669 12.4665 19.6563 12.54L20.6602 13.3672H20.6611C21.3664 13.9494 21.5514 14.9576 21.0938 15.751H21.0928L19.7949 17.998C19.5731 18.3823 19.2223 18.6753 18.8047 18.8252C18.3869 18.975 17.9293 18.9721 17.5137 18.8164L16.2969 18.3604C16.1908 18.3206 16.0358 18.3269 15.874 18.4229L15.6279 18.5654L15.627 18.5664C15.4644 18.6563 15.3789 18.7883 15.3594 18.9033L15.1465 20.1826C14.9963 21.0888 14.2124 21.7499 13.2969 21.75H10.7031C9.78602 21.75 9.00519 21.0866 8.85352 20.1846L8.85254 20.1826L8.63965 18.9023V18.9014C8.6208 18.7883 8.53675 18.6567 8.37207 18.5654V18.5645C8.28994 18.5191 8.20824 18.4723 8.12793 18.4238C7.96735 18.3272 7.81086 18.3189 7.70215 18.3594L6.48633 18.8164C6.07088 18.9723 5.61309 18.9757 5.19532 18.8262C4.77772 18.6766 4.42624 18.3839 4.20411 18V17.999L2.90723 15.752C2.68547 15.3674 2.60718 14.9162 2.68653 14.4795C2.76588 14.0431 2.99737 13.649 3.33985 13.3672L4.34375 12.54H4.34473C4.43212 12.4682 4.50444 12.3286 4.50098 12.1416C4.49925 12.0475 4.49925 11.9534 4.50098 11.8594C4.50444 11.6714 4.43291 11.5326 4.34375 11.459L3.33985 10.6328C2.99757 10.351 2.76584 9.95674 2.68653 9.52051C2.60729 9.08426 2.68598 8.63327 2.90723 8.24902L4.20411 6.00195L4.29297 5.8623C4.51463 5.5463 4.82944 5.30499 5.19532 5.17383C5.61342 5.02398 6.07151 5.02748 6.48731 5.18359L7.70313 5.63965H7.70215C7.81087 5.68025 7.96719 5.67292 8.12793 5.57617C8.21091 5.52556 8.29401 5.47792 8.36524 5.4375L8.37403 5.43359C8.53722 5.34361 8.62078 5.21181 8.63965 5.09863V5.09766L8.85352 3.81641C9.00398 2.91229 9.78815 2.25 10.7041 2.25H13.2969ZM10.7041 3.75C10.5204 3.75 10.364 3.88316 10.334 4.0625L10.333 4.06348L10.1191 5.34473C10.0136 5.97892 9.59796 6.4713 9.09766 6.74707L9.09668 6.74609C9.0247 6.78696 8.96482 6.82321 8.90723 6.8584L8.90332 6.86035C8.41426 7.15529 7.77992 7.27026 7.17676 7.04492V7.04395L5.95996 6.58789C5.877 6.55677 5.78561 6.55616 5.70215 6.58594C5.61852 6.61591 5.54733 6.675 5.50293 6.75195L4.20703 8.99805C4.16277 9.07491 4.14722 9.16566 4.16309 9.25293C4.17902 9.33983 4.22483 9.41838 4.29297 9.47461L4.29395 9.47559L5.29786 10.3018V10.3027C5.79266 10.7111 6.01149 11.3148 6.00098 11.8867C5.99959 11.9625 5.99959 12.0385 6.00098 12.1143C6.01147 12.6831 5.79307 13.2891 5.29688 13.6973L4.29395 14.5244L4.29297 14.5254C4.22446 14.5818 4.17797 14.6607 4.16211 14.748C4.14632 14.8352 4.16191 14.9252 4.20606 15.002L5.50196 17.248C5.54639 17.3249 5.61762 17.3842 5.70118 17.4141C5.78459 17.4439 5.87602 17.4431 5.95899 17.4121H5.95996L7.17676 16.9561V16.9551C7.77992 16.7297 8.41426 16.8447 8.90332 17.1396C8.96737 17.1783 9.03217 17.2158 9.09766 17.252L9.09961 17.2529C9.59856 17.5295 10.0139 18.0215 10.1191 18.6562L10.333 19.9365H10.332C10.3628 20.1179 10.5206 20.25 10.7031 20.25H13.2969C13.4812 20.2499 13.6372 20.1172 13.667 19.9375V19.9365L13.8799 18.6562V18.6543C13.9732 18.1006 14.3025 17.6549 14.7178 17.3672L14.9004 17.2539C14.9655 17.2177 15.0301 17.1803 15.0938 17.1416L15.0977 17.1396C15.5866 16.8457 16.2202 16.7301 16.8232 16.9561L18.04 17.4121C18.1231 17.4431 18.2144 17.443 18.2979 17.4131C18.3814 17.3831 18.4517 17.3249 18.4961 17.248L19.7939 15.001L19.8223 14.9404C19.8739 14.7952 19.8309 14.6275 19.7061 14.5244V14.5234L18.7031 13.6982C18.2066 13.2898 17.988 12.6839 18 12.1123V11.8848C17.989 11.3136 18.2075 10.7095 18.7031 10.3018L19.7061 9.47559V9.47461C19.7746 9.41822 19.821 9.3393 19.8369 9.25195C19.8527 9.16473 19.8372 9.07487 19.793 8.99805L18.4971 6.75098C18.4526 6.67428 18.3823 6.6158 18.2988 6.58594C18.2153 6.55612 18.124 6.55675 18.041 6.58789H18.04L16.8232 7.04395C16.2205 7.26976 15.5863 7.15497 15.0977 6.86035C15.0282 6.81846 14.9668 6.78263 14.9082 6.75098L14.9014 6.74707C14.4021 6.47036 13.9866 5.97895 13.8799 5.3457V5.34375L13.667 4.06348V4.0625C13.6371 3.88317 13.4805 3.75008 13.2969 3.75H10.7041ZM14.25 12C14.25 11.4033 14.0128 10.8311 13.5908 10.4092C13.1689 9.98722 12.5967 9.75 12 9.75C11.4033 9.75 10.8311 9.98722 10.4092 10.4092C9.98723 10.8311 9.75 11.4033 9.75 12C9.75 12.5967 9.98723 13.1689 10.4092 13.5908C10.8311 14.0128 11.4033 14.25 12 14.25C12.5967 14.25 13.1689 14.0128 13.5908 13.5908C14.0128 13.1689 14.25 12.5967 14.25 12ZM15.75 12C15.75 12.9946 15.3546 13.9481 14.6514 14.6514C13.9481 15.3546 12.9946 15.75 12 15.75C11.0054 15.75 10.0519 15.3546 9.34864 14.6514C8.64537 13.9481 8.25 12.9946 8.25 12C8.25 11.0054 8.64537 10.0519 9.34864 9.34863C10.0519 8.64537 11.0054 8.25 12 8.25C12.9946 8.25 13.9481 8.64537 14.6514 9.34863C15.3546 10.0519 15.75 11.0054 15.75 12Z" fill="#737985"/>
</svg>
