<svg width="24" height="24" viewBox="0 0 24 24" fill="none" xmlns="http://www.w3.org/2000/svg">
<path d="M15.627 13.0195C16.5492 12.527 17.6211 12.3905 18.6377 12.6357C19.6543 12.881 20.5456 13.4915 21.1406 14.3506C21.7355 15.2097 21.9932 16.2575 21.8633 17.294C21.7334 18.3307 21.2251 19.2833 20.4365 19.9697C19.648 20.656 18.6337 21.0285 17.5879 21.0166C16.5421 21.0047 15.5372 20.6084 14.7647 19.9043C14.3625 19.5378 14.0374 19.1013 13.8037 18.6201C13.6228 18.2475 13.7788 17.7981 14.1514 17.6172C14.5239 17.4366 14.9725 17.5924 15.1533 17.9649C15.3044 18.276 15.5142 18.5586 15.7744 18.7959C16.2748 19.2519 16.9271 19.5089 17.6055 19.5166C18.2837 19.5243 18.9406 19.2823 19.4512 18.8379C19.9618 18.3934 20.2901 17.7774 20.374 17.1074C20.458 16.4375 20.2922 15.76 19.9072 15.2041C19.5223 14.6484 18.9453 14.2529 18.2861 14.0938C17.6269 13.9347 16.9317 14.0236 16.334 14.3428C16.0969 14.4694 15.8822 14.6297 15.6943 14.8154H16.0947C16.5088 14.8154 16.8446 15.1514 16.8447 15.5654C16.8447 15.9796 16.5089 16.3154 16.0947 16.3154H14.1455C13.8009 16.3153 13.5009 16.0806 13.418 15.7461L12.9414 13.8223C12.8419 13.4204 13.0864 13.0138 13.4883 12.9141C13.8903 12.8144 14.2968 13.0599 14.3965 13.4619L14.502 13.8897C14.8228 13.5415 15.2023 13.2464 15.627 13.0195ZM20.2617 6.4004C20.2617 5.96798 20.2605 5.6881 20.2432 5.47559C20.2265 5.27207 20.1986 5.19625 20.1797 5.15919C20.1078 5.01815 19.9926 4.90391 19.8516 4.83204C19.8145 4.81314 19.7389 4.78423 19.5352 4.76759C19.3227 4.75024 19.0435 4.75001 18.6113 4.75001H5.43165C4.99923 4.75001 4.71935 4.75022 4.50684 4.76759C4.30329 4.78423 4.2275 4.81315 4.19044 4.83204C4.04961 4.90389 3.93514 5.01836 3.86329 5.15919C3.8444 5.19625 3.81548 5.27204 3.79884 5.47559C3.78147 5.6881 3.78126 5.96798 3.78126 6.4004V9.50001H20.2617V6.4004ZM5.75001 6.4961C6.16422 6.4961 6.50001 6.83189 6.50001 7.2461C6.50001 7.66031 6.16422 7.9961 5.75001 7.9961H5.74903C5.33482 7.9961 4.99903 7.66031 4.99903 7.2461C4.99903 6.83189 5.33482 6.4961 5.74903 6.4961H5.75001ZM8.24903 6.4961C8.66324 6.4961 8.99903 6.83189 8.99903 7.2461C8.99903 7.66031 8.66324 7.9961 8.24903 7.9961H8.24805C7.83384 7.9961 7.49805 7.66031 7.49805 7.2461C7.49805 6.83189 7.83384 6.4961 8.24805 6.4961H8.24903ZM10.7481 6.4961C11.1623 6.4961 11.4981 6.83189 11.4981 7.2461C11.4981 7.66031 11.1623 7.9961 10.7481 7.9961H10.7471C10.3329 7.9961 9.99708 7.66031 9.99708 7.2461C9.99708 6.83189 10.3329 6.4961 10.7471 6.4961H10.7481ZM21.7617 11.7617C21.7617 12.1758 21.4257 12.5115 21.0117 12.5117C20.5975 12.5117 20.2617 12.1759 20.2617 11.7617V11H3.78126V17.5996C3.78126 18.032 3.78147 18.3119 3.79884 18.5244C3.81548 18.728 3.8444 18.8038 3.86329 18.8408C3.93514 18.9817 4.04961 19.0961 4.19044 19.168C4.2275 19.1869 4.30329 19.2158 4.50684 19.2324C4.71935 19.2498 4.99923 19.25 5.43165 19.25H12.292C12.7061 19.2501 13.042 19.5859 13.042 20C13.042 20.4141 12.7061 20.7499 12.292 20.75H5.43165C5.02398 20.75 4.67253 20.7511 4.38477 20.7275C4.08834 20.7033 3.79349 20.6494 3.50977 20.5049C3.08641 20.2892 2.74209 19.9449 2.52637 19.5215C2.38182 19.2378 2.32795 18.9429 2.30372 18.6465C2.28021 18.3587 2.28126 18.0073 2.28126 17.5996V6.4004C2.28126 5.99273 2.28021 5.64128 2.30372 5.35352C2.32795 5.05709 2.38182 4.76224 2.52637 4.47852C2.74209 4.05516 3.08641 3.71084 3.50977 3.49512C3.79349 3.35057 4.08834 3.2967 4.38477 3.27247C4.67253 3.24896 5.02398 3.25001 5.43165 3.25001H18.6113C19.0188 3.25001 19.3696 3.24899 19.6572 3.27247C19.9537 3.29669 20.2494 3.35053 20.5332 3.49512C20.9564 3.71082 21.3 4.05534 21.5156 4.47852C21.6602 4.76224 21.7141 5.05709 21.7383 5.35352C21.7618 5.64128 21.7617 5.99273 21.7617 6.4004V11.7617Z" fill="#737985"/>
</svg>
