<svg width="24" height="24" viewBox="0 0 24 24" fill="none" xmlns="http://www.w3.org/2000/svg">
<path d="M7.18215 12.3592C7.18215 12.209 7.06087 12.0868 6.91067 12.0867C6.76044 12.0867 6.63821 12.209 6.63821 12.3592V16.7137C6.63822 16.8639 6.76045 16.9862 6.91067 16.9862C7.06086 16.9861 7.18214 16.8639 7.18215 16.7137V12.3592ZM8.38235 16.7137C8.38234 17.5266 7.7236 18.1853 6.91067 18.1854C6.09771 18.1854 5.439 17.5267 5.43899 16.7137V12.3592C5.43899 11.5462 6.0977 10.8875 6.91067 10.8875C7.72361 10.8876 8.38235 11.5463 8.38235 12.3592V16.7137Z" fill="#737985"/>
<path d="M11.1261 14.7473C11.1261 14.5971 11.0048 14.4749 10.8546 14.4749C10.7044 14.4749 10.5822 14.5971 10.5822 14.7473V16.7141C10.5824 16.8641 10.7046 16.9856 10.8546 16.9856C11.0047 16.9856 11.1259 16.8641 11.1261 16.7141V14.7473ZM12.3263 16.7141C12.3261 17.5269 11.6674 18.1858 10.8546 18.1858C10.0418 18.1858 9.3832 17.5269 9.38296 16.7141V14.7473C9.38296 13.9344 10.0417 13.2756 10.8546 13.2756C11.6676 13.2757 12.3263 13.9344 12.3263 14.7473V16.7141Z" fill="#737985"/>
<path d="M19.3982 16.0847C19.3982 14.7725 18.3344 13.708 17.0222 13.7078C15.7099 13.7078 14.6453 14.7724 14.6453 16.0847C14.6455 17.3969 15.71 18.4607 17.0222 18.4607C18.3343 18.4605 19.398 17.3968 19.3982 16.0847ZM20.5984 16.0847C20.5982 18.0595 18.997 19.6607 17.0222 19.6609C15.0473 19.6609 13.4462 18.0596 13.446 16.0847C13.446 14.1097 15.0471 12.5086 17.0222 12.5086C18.9971 12.5088 20.5984 14.1098 20.5984 16.0847Z" fill="#737985"/>
<path d="M18.9735 18.0788C19.2078 17.8445 19.5868 17.8445 19.8212 18.0788L21.5663 19.823C21.8004 20.0573 21.8005 20.4373 21.5663 20.6716C21.332 20.9059 20.952 20.9057 20.7176 20.6716L18.9735 18.9265C18.7392 18.6922 18.7392 18.3131 18.9735 18.0788Z" fill="#737985"/>
<path d="M20.2385 12.0297V6.30311C20.2385 5.87069 20.2373 5.59081 20.22 5.3783C20.2033 5.17478 20.1754 5.09896 20.1565 5.0619C20.0846 4.92086 19.9694 4.80662 19.8284 4.73475C19.7913 4.71585 19.7157 4.68694 19.512 4.6703C19.2995 4.65295 19.0203 4.65272 18.5881 4.65272H5.40844C4.97603 4.65272 4.69614 4.65293 4.48364 4.6703C4.28009 4.68694 4.2043 4.71586 4.16723 4.73475C4.02641 4.8066 3.91194 4.92107 3.84008 5.0619C3.8212 5.09896 3.79228 5.17475 3.77563 5.3783C3.75827 5.59081 3.75805 5.87069 3.75805 6.30311V17.5023C3.75805 17.9347 3.75827 18.2146 3.77563 18.4271C3.79228 18.6307 3.8212 18.7065 3.84008 18.7435C3.91194 18.8844 4.02641 18.9988 4.16723 19.0707C4.2043 19.0896 4.28009 19.1185 4.48364 19.1351C4.69614 19.1525 4.97603 19.1527 5.40844 19.1527H12.8293C13.2434 19.1529 13.5793 19.4886 13.5793 19.9027C13.5793 20.3168 13.2434 20.6525 12.8293 20.6527H5.40844C5.00078 20.6527 4.64932 20.6538 4.36157 20.6303C4.06513 20.606 3.77028 20.5522 3.48657 20.4076C3.0632 20.1919 2.71888 19.8476 2.50317 19.4242C2.35862 19.1405 2.30474 18.8456 2.28051 18.5492C2.257 18.2614 2.25805 17.91 2.25805 17.5023V6.30311C2.25805 5.89544 2.257 5.54399 2.28051 5.25623C2.30474 4.9598 2.35862 4.66495 2.50317 4.38123C2.71888 3.95787 3.0632 3.61355 3.48657 3.39783C3.77028 3.25328 4.06513 3.19941 4.36157 3.17518C4.64932 3.15167 5.00078 3.15272 5.40844 3.15272H18.5881C18.9956 3.15272 19.3464 3.1517 19.634 3.17518C19.9305 3.1994 20.2262 3.25324 20.51 3.39783C20.9332 3.61353 21.2768 3.95805 21.4924 4.38123C21.637 4.66495 21.6908 4.9598 21.7151 5.25623C21.7386 5.54399 21.7385 5.89544 21.7385 6.30311V12.0297C21.7385 12.4437 21.4025 12.7794 20.9885 12.7797C20.5743 12.7797 20.2385 12.4439 20.2385 12.0297Z" fill="#737985"/>
<path d="M20.2481 8.40272C20.6623 8.40272 20.9981 8.7385 20.9981 9.15272C20.9981 9.56693 20.6623 9.90272 20.2481 9.90272L3.74805 9.90272C3.33384 9.90272 2.99805 9.56693 2.99805 9.15272C2.99805 8.7385 3.33384 8.40272 3.74805 8.40272L20.2481 8.40272Z" fill="#737985"/>
<path d="M5.76856 5.78108C6.18277 5.78108 6.51856 6.11686 6.51856 6.53108C6.51856 6.94529 6.18277 7.28108 5.76856 7.28108C5.35435 7.28108 5.01758 6.94529 5.01758 6.53108C5.01758 6.11686 5.35435 5.78108 5.76856 5.78108Z" fill="#737985"/>
<path d="M8.26856 5.78108C8.68277 5.78108 9.01856 6.11686 9.01856 6.53108C9.01856 6.94529 8.68277 7.28108 8.26856 7.28108C7.85435 7.28108 7.51758 6.94529 7.51758 6.53108C7.51758 6.11686 7.85435 5.78108 8.26856 5.78108Z" fill="#737985"/>
<path d="M10.7686 5.78108C11.1828 5.78108 11.5186 6.11686 11.5186 6.53108C11.5186 6.94529 11.1828 7.28108 10.7686 7.28108C10.3543 7.28108 10.0176 6.94529 10.0176 6.53108C10.0176 6.11686 10.3543 5.78108 10.7686 5.78108Z" fill="#737985"/>
</svg>
