<svg width="24" height="24" viewBox="0 0 24 24" fill="none" xmlns="http://www.w3.org/2000/svg">
<path d="M20.2422 11H8.50196V19.25H18.5918C19.024 19.25 19.3032 19.2498 19.5156 19.2324C19.7193 19.2158 19.7949 19.1869 19.832 19.168C19.9731 19.0961 20.0883 18.9819 20.1602 18.8408C20.179 18.8038 20.207 18.7279 20.2236 18.5244C20.241 18.3119 20.2422 18.032 20.2422 17.5996V11ZM5.80762 6.25001C6.22177 6.25008 6.55762 6.58584 6.55762 7.00001C6.55762 7.41417 6.22177 7.74993 5.80762 7.75001H5.80665C5.39243 7.75001 5.05665 7.41422 5.05665 7.00001C5.05665 6.58579 5.39243 6.25001 5.80665 6.25001H5.80762ZM8.30665 6.25001C8.7208 6.25009 9.05665 6.58584 9.05665 7.00001C9.05665 7.41417 8.7208 7.74993 8.30665 7.75001H8.30567C7.89146 7.75001 7.55567 7.41422 7.55567 7.00001C7.55567 6.58579 7.89146 6.25001 8.30567 6.25001H8.30665ZM10.8057 6.25001C11.2198 6.25009 11.5557 6.58584 11.5557 7.00001C11.5557 7.41417 11.2198 7.74993 10.8057 7.75001H10.8047C10.3905 7.75001 10.0547 7.41422 10.0547 7.00001C10.0547 6.58579 10.3905 6.25001 10.8047 6.25001H10.8057ZM3.76173 17.5996C3.76173 18.032 3.76194 18.3119 3.7793 18.5244C3.79595 18.728 3.82487 18.8038 3.84376 18.8408C3.91561 18.9817 4.03008 19.0961 4.17091 19.168C4.20797 19.1869 4.28376 19.2158 4.48731 19.2324C4.69981 19.2498 4.9797 19.25 5.41212 19.25H7.00196V11H3.76173V17.5996ZM20.2422 6.4004C20.2422 5.96798 20.241 5.6881 20.2236 5.47559C20.207 5.27207 20.179 5.19625 20.1602 5.15919C20.0883 5.01815 19.9731 4.90391 19.832 4.83204C19.7949 4.81314 19.7193 4.78423 19.5156 4.76759C19.3032 4.75024 19.024 4.75001 18.5918 4.75001H5.41212C4.9797 4.75001 4.69981 4.75022 4.48731 4.76759C4.28376 4.78423 4.20797 4.81315 4.17091 4.83204C4.03008 4.90389 3.91561 5.01836 3.84376 5.15919C3.82487 5.19625 3.79595 5.27204 3.7793 5.47559C3.76194 5.6881 3.76173 5.96798 3.76173 6.4004V9.50001H20.2422V6.4004ZM21.7422 17.5996C21.7422 18.0073 21.7423 18.3587 21.7188 18.6465C21.6945 18.9429 21.6407 19.2378 21.4961 19.5215C21.2804 19.9447 20.9368 20.2892 20.5137 20.5049C20.2299 20.6495 19.9342 20.7033 19.6377 20.7275C19.35 20.751 18.9993 20.75 18.5918 20.75H5.41212C5.00445 20.75 4.65299 20.7511 4.36524 20.7275C4.06881 20.7033 3.77396 20.6494 3.49024 20.5049C3.06688 20.2892 2.72256 19.9449 2.50684 19.5215C2.36229 19.2378 2.30842 18.9429 2.28419 18.6465C2.26068 18.3587 2.26173 18.0073 2.26173 17.5996V6.4004C2.26173 5.99273 2.26068 5.64128 2.28419 5.35352C2.30842 5.05709 2.36229 4.76224 2.50684 4.47852C2.72256 4.05516 3.06688 3.71084 3.49024 3.49512C3.77396 3.35057 4.06881 3.2967 4.36524 3.27247C4.65299 3.24896 5.00445 3.25001 5.41212 3.25001H18.5918C18.9993 3.25001 19.35 3.24899 19.6377 3.27247C19.9342 3.29669 20.2299 3.35053 20.5137 3.49512C20.9368 3.71082 21.2804 4.05534 21.4961 4.47852C21.6407 4.76224 21.6945 5.05709 21.7188 5.35352C21.7423 5.64128 21.7422 5.99273 21.7422 6.4004V17.5996Z" fill="#737985"/>
</svg>
