<svg width="24" height="24" viewBox="0 0 24 24" fill="none" xmlns="http://www.w3.org/2000/svg">
<g clip-path="url(#clip0_22328_5829)">
<path d="M18.3604 15.9024C18.3604 14.6729 17.3633 13.6758 16.1338 13.6758C14.9045 13.676 13.9082 14.673 13.9082 15.9024C13.9084 17.1315 14.9046 18.1277 16.1338 18.1279C17.3632 18.1279 18.3602 17.1317 18.3604 15.9024ZM20.2617 6.4004C20.2617 5.96798 20.2605 5.6881 20.2432 5.47559C20.2265 5.27207 20.1986 5.19625 20.1797 5.15919C20.1078 5.01815 19.9926 4.90391 19.8516 4.83204C19.8145 4.81314 19.7389 4.78423 19.5352 4.76759C19.3227 4.75024 19.0435 4.75001 18.6113 4.75001H5.43164C4.99923 4.75001 4.71934 4.75022 4.50684 4.76759C4.30328 4.78423 4.2275 4.81315 4.19043 4.83204C4.0496 4.90389 3.93513 5.01836 3.86328 5.15919C3.84439 5.19625 3.81548 5.27204 3.79883 5.47559C3.78147 5.6881 3.78125 5.96798 3.78125 6.4004V9.50001H20.2617V6.4004ZM5.77344 6.50098C6.18765 6.50098 6.52344 6.83677 6.52344 7.25098C6.52344 7.6652 6.18765 8.00098 5.77344 8.00098H5.77246C5.35825 8.00098 5.02246 7.6652 5.02246 7.25098C5.02246 6.83677 5.35825 6.50098 5.77246 6.50098H5.77344ZM8.27246 6.50098C8.68667 6.50098 9.02246 6.83677 9.02246 7.25098C9.02246 7.6652 8.68667 8.00098 8.27246 8.00098H8.27148C7.85727 8.00098 7.52148 7.6652 7.52148 7.25098C7.52148 6.83677 7.85727 6.50098 8.27148 6.50098H8.27246ZM10.7715 6.50098C11.1857 6.50098 11.5215 6.83677 11.5215 7.25098C11.5215 7.6652 11.1857 8.00098 10.7715 8.00098H10.7705C10.3563 8.00098 10.0205 7.6652 10.0205 7.25098C10.0205 6.83677 10.3563 6.50098 10.7705 6.50098H10.7715ZM19.8604 15.9024C19.8603 16.6707 19.6272 17.3844 19.2285 17.9775L20.7842 19.5332C21.0771 19.8261 21.0771 20.3009 20.7842 20.5938C20.4913 20.8867 20.0165 20.8867 19.7236 20.5938L18.1592 19.0293C17.5761 19.4076 16.8806 19.6279 16.1338 19.6279C14.0762 19.6277 12.4084 17.96 12.4082 15.9024C12.4082 13.8446 14.0761 12.176 16.1338 12.1758C18.1917 12.1758 19.8604 13.8444 19.8604 15.9024ZM21.7617 12.7617C21.7617 13.1758 21.4257 13.5115 21.0117 13.5117C20.5975 13.5117 20.2617 13.1759 20.2617 12.7617V11H3.78125V17.5996C3.78125 18.032 3.78147 18.3119 3.79883 18.5244C3.81548 18.728 3.84439 18.8038 3.86328 18.8408C3.93513 18.9817 4.0496 19.0961 4.19043 19.168C4.2275 19.1869 4.30328 19.2158 4.50684 19.2324C4.71934 19.2498 4.99923 19.25 5.43164 19.25H12.292C12.7061 19.2501 13.042 19.5859 13.042 20C13.042 20.4141 12.7061 20.7499 12.292 20.75H5.43164C5.02398 20.75 4.67252 20.7511 4.38477 20.7275C4.08833 20.7033 3.79348 20.6494 3.50977 20.5049C3.0864 20.2892 2.74208 19.9449 2.52637 19.5215C2.38182 19.2378 2.32794 18.9429 2.30371 18.6465C2.2802 18.3587 2.28125 18.0073 2.28125 17.5996V6.4004C2.28125 5.99273 2.2802 5.64128 2.30371 5.35352C2.32794 5.05709 2.38182 4.76224 2.52637 4.47852C2.74208 4.05516 3.0864 3.71084 3.50977 3.49512C3.79348 3.35057 4.08833 3.2967 4.38477 3.27247C4.67252 3.24896 5.02398 3.25001 5.43164 3.25001H18.6113C19.0188 3.25001 19.3696 3.24899 19.6572 3.27247C19.9537 3.29669 20.2494 3.35053 20.5332 3.49512C20.9564 3.71082 21.3 4.05534 21.5156 4.47852C21.6602 4.76224 21.714 5.05709 21.7383 5.35352C21.7618 5.64128 21.7617 5.99273 21.7617 6.4004V12.7617Z" fill="#737985"/>
</g>
<defs>
<clipPath id="clip0_22328_5829">
<rect width="24" height="24" fill="white"/>
</clipPath>
</defs>
</svg>
