<svg width="24" height="24" viewBox="0 0 24 24" fill="none" xmlns="http://www.w3.org/2000/svg">
<path d="M20.2402 11.2275V6.01173C20.2402 5.57931 20.239 5.29942 20.2217 5.08692C20.205 4.8834 20.1771 4.80758 20.1582 4.77051C20.0863 4.62948 19.9711 4.51524 19.8301 4.44337C19.793 4.42447 19.7174 4.39556 19.5137 4.37891C19.3012 4.36157 19.022 4.36134 18.5898 4.36134H5.41015C4.97774 4.36134 4.69785 4.36155 4.48535 4.37891C4.28179 4.39556 4.20601 4.42448 4.16894 4.44337C4.02812 4.51522 3.91365 4.62969 3.84179 4.77051C3.82291 4.80758 3.79399 4.88337 3.77734 5.08692C3.75998 5.29942 3.75976 5.57931 3.75976 6.01173V17.2109C3.75976 17.6434 3.75998 17.9232 3.77734 18.1357C3.79399 18.3393 3.82291 18.4151 3.84179 18.4522C3.91365 18.593 4.02812 18.7075 4.16894 18.7793C4.20601 18.7982 4.28179 18.8271 4.48535 18.8438C4.69785 18.8611 4.97774 18.8613 5.41015 18.8613H11.3691C11.7833 18.8614 12.1191 19.1972 12.1191 19.6113C12.1191 20.0255 11.7833 20.3613 11.3691 20.3613H5.41015C5.00249 20.3613 4.65103 20.3624 4.36328 20.3389C4.06684 20.3146 3.77199 20.2608 3.48828 20.1162C3.06491 19.9005 2.72059 19.5562 2.50488 19.1328C2.36033 18.8491 2.30645 18.5543 2.28222 18.2578C2.25871 17.9701 2.25976 17.6186 2.25976 17.2109V6.01173C2.25976 5.60406 2.25871 5.2526 2.28222 4.96485C2.30645 4.66842 2.36033 4.37357 2.50488 4.08985C2.72059 3.66649 3.06491 3.32217 3.48828 3.10645C3.77199 2.9619 4.06684 2.90803 4.36328 2.8838C4.65103 2.86029 5.00249 2.86134 5.41015 2.86134H18.5898C18.9973 2.86134 19.3481 2.86031 19.6357 2.8838C19.9322 2.90802 20.2279 2.96186 20.5117 3.10645C20.9349 3.32215 21.2785 3.66667 21.4941 4.08985C21.6387 4.37357 21.6926 4.66841 21.7168 4.96485C21.7403 5.2526 21.7402 5.60406 21.7402 6.01173V11.2275C21.7402 11.6415 21.4042 11.9773 20.9902 11.9775C20.5761 11.9775 20.2403 11.6417 20.2402 11.2275Z" fill="#737985"/>
<path d="M20.2519 9.11133C20.6662 9.11133 21.0019 9.44712 21.0019 9.86133C21.0019 10.2755 20.6662 10.6113 20.2519 10.6113L3.75195 10.6113C3.33774 10.6113 3.00195 10.2755 3.00195 9.86134C3.00195 9.44712 3.33774 9.11134 3.75195 9.11134L20.2519 9.11133Z" fill="#737985"/>
<path d="M5.78808 6.08009C6.20229 6.08009 6.53808 6.41587 6.53808 6.83009C6.53808 7.2443 6.20229 7.58009 5.78808 7.58009C5.37387 7.58009 5.0371 7.2443 5.0371 6.83009C5.0371 6.41587 5.37387 6.08009 5.78808 6.08009Z" fill="#737985"/>
<path d="M8.28808 6.08009C8.7023 6.08009 9.03808 6.41587 9.03808 6.83009C9.03808 7.2443 8.7023 7.58009 8.28808 7.58009C7.87387 7.58009 7.53711 7.2443 7.53711 6.83009C7.53711 6.41587 7.87387 6.08009 8.28808 6.08009Z" fill="#737985"/>
<path d="M10.7879 6.07985C11.2021 6.07985 11.5379 6.41563 11.5379 6.82985C11.5379 7.24406 11.2021 7.57985 10.7879 7.57985C10.3737 7.57985 10.0369 7.24406 10.0369 6.82985C10.0369 6.41563 10.3737 6.07985 10.7879 6.07985Z" fill="#737985"/>
<path d="M17.7158 11.7871C18.2576 11.7873 18.7205 12.1788 18.8096 12.7139L18.9004 13.2637C18.9407 13.2857 18.9783 13.3077 19.0107 13.3272L19.5332 13.1318L19.626 13.1016C19.8145 13.0491 20.0137 13.0474 20.2031 13.0967L20.2969 13.126L20.3877 13.1631C20.5951 13.2586 20.7687 13.4162 20.8838 13.6152L20.8848 13.6162L21.4717 14.6338C21.6027 14.8612 21.6484 15.1276 21.6016 15.3857C21.5546 15.6442 21.4177 15.8781 21.2148 16.0449L20.7852 16.3994C20.7858 16.4414 20.7858 16.4834 20.7852 16.5254L21.2158 16.8809C21.6327 17.2251 21.7426 17.8213 21.4717 18.291L20.8838 19.3096L20.8828 19.3086C20.7515 19.5359 20.5449 19.7102 20.2978 19.7988C20.0507 19.8875 19.7801 19.885 19.5342 19.793L19.0107 19.5967C18.9744 19.6187 18.9375 19.6395 18.9004 19.6602L18.8096 20.2109C18.7206 20.7472 18.2571 21.1385 17.7158 21.1387H16.541C15.9981 21.1387 15.5359 20.7456 15.4463 20.2119L15.3545 19.6602C15.3174 19.6396 15.2805 19.6186 15.2441 19.5967L14.7227 19.793C14.4768 19.8852 14.2062 19.8873 13.959 19.7988C13.7426 19.7214 13.556 19.5793 13.4248 19.3926L13.3721 19.3096L12.7852 18.292C12.6539 18.0645 12.6073 17.7975 12.6543 17.5391L12.6758 17.4434C12.7362 17.2234 12.8636 17.0268 13.041 16.8809L13.4717 16.5244C13.471 16.4828 13.471 16.4411 13.4717 16.3994L13.042 16.044L13.041 16.0449C12.8385 15.8782 12.7013 15.6448 12.6543 15.3867C12.6073 15.1285 12.6532 14.8612 12.7842 14.6338L13.3721 13.6162C13.5034 13.3885 13.7115 13.2147 13.959 13.126L14.0527 13.0977C14.2737 13.0399 14.5083 13.051 14.7236 13.1318L15.2441 13.3272C15.2838 13.3031 15.3233 13.2818 15.3535 13.2647L15.3545 13.2637L15.4463 12.7139C15.5353 12.1786 15.9991 11.7872 16.541 11.7871H17.7158ZM16.5332 13.4912C16.4709 13.866 16.2276 14.1488 15.9453 14.3066L15.9463 14.3076C15.9113 14.3275 15.8862 14.3424 15.8633 14.3565L15.8603 14.3574C15.6168 14.5043 15.3032 14.5768 14.9883 14.5029L14.8525 14.4619L14.3721 14.2822L13.8623 15.166L14.2588 15.4922C14.5532 15.7352 14.6778 16.0904 14.6719 16.416C14.6713 16.4472 14.6713 16.4786 14.6719 16.5098C14.6778 16.8335 14.5532 17.1885 14.2578 17.4316L13.8623 17.7578L14.3721 18.6426L14.8525 18.4629L14.9883 18.4219C15.3032 18.348 15.6168 18.4205 15.8603 18.5674L15.9394 18.6133L15.9404 18.6143C16.1889 18.752 16.409 18.9869 16.5019 19.2969L16.5332 19.4346L16.6172 19.9385H17.6387L17.7227 19.4346V19.4326C17.786 19.0568 18.0305 18.7717 18.3144 18.6143C18.3411 18.5995 18.3675 18.5842 18.3936 18.5684L18.3965 18.5664C18.6744 18.3993 19.0442 18.3285 19.4033 18.4629L19.8828 18.6426L20.3936 17.7578L19.998 17.4326C19.7027 17.1895 19.5781 16.8339 19.585 16.5078C19.5854 16.4769 19.5855 16.445 19.585 16.4141C19.5791 16.0888 19.7035 15.7346 19.998 15.4922L20.3926 15.166L19.8828 14.2822L19.4033 14.4619C19.0443 14.5963 18.6746 14.5251 18.3965 14.3574C18.3663 14.3392 18.3424 14.3259 18.3213 14.3145L18.3154 14.3115C18.0313 14.154 17.7861 13.8689 17.7227 13.4922L17.6387 12.9863H16.6172L16.5332 13.4912Z" fill="#737985"/>
<path d="M17.8887 16.4619C17.8886 16.2609 17.809 16.068 17.667 15.9258C17.5247 15.7835 17.3311 15.7031 17.1299 15.7031C16.9288 15.7032 16.736 15.7836 16.5937 15.9258C16.4515 16.068 16.3711 16.2608 16.3711 16.4619C16.3711 16.6631 16.4515 16.8568 16.5937 16.999C16.7359 17.1411 16.9289 17.2207 17.1299 17.2207C17.3311 17.2207 17.5247 17.1413 17.667 16.999C17.8093 16.8568 17.8887 16.6631 17.8887 16.4619ZM19.0889 16.4619C19.0889 16.9814 18.882 17.4794 18.5146 17.8467C18.1473 18.214 17.6493 18.4209 17.1299 18.4209C16.6105 18.4208 16.1124 18.2139 15.7451 17.8467C15.3779 17.4794 15.1719 16.9813 15.1719 16.4619C15.1719 15.9425 15.3779 15.4444 15.7451 15.0772C16.1124 14.7099 16.6105 14.504 17.1299 14.5039C17.6492 14.5039 18.1474 14.71 18.5146 15.0772C18.8819 15.4444 19.0888 15.9425 19.0889 16.4619Z" fill="#737985"/>
</svg>
