<svg width="24" height="24" viewBox="0 0 24 24" fill="none" xmlns="http://www.w3.org/2000/svg">
<path d="M20.2383 11H8.49805V19.25H18.5879C19.0201 19.25 19.2993 19.2498 19.5117 19.2324C19.7154 19.2158 19.791 19.1869 19.8281 19.168C19.9692 19.0961 20.0843 18.9819 20.1563 18.8408C20.1751 18.8038 20.2031 18.7279 20.2197 18.5244C20.2371 18.3119 20.2383 18.032 20.2383 17.5996V11ZM5.80372 6.25001C6.21787 6.25008 6.55372 6.58584 6.55372 7.00001C6.55372 7.41417 6.21787 7.74993 5.80372 7.75001H5.80274C5.38853 7.75001 5.05274 7.41422 5.05274 7.00001C5.05274 6.58579 5.38853 6.25001 5.80274 6.25001H5.80372ZM8.30274 6.25001C8.71689 6.25009 9.05274 6.58584 9.05274 7.00001C9.05274 7.41417 8.71689 7.74993 8.30274 7.75001H8.30176C7.88755 7.75001 7.55176 7.41422 7.55176 7.00001C7.55176 6.58579 7.88755 6.25001 8.30176 6.25001H8.30274ZM10.8018 6.25001C11.2159 6.25009 11.5518 6.58584 11.5518 7.00001C11.5518 7.41417 11.2159 7.74993 10.8018 7.75001H10.8008C10.3866 7.75001 10.0508 7.41422 10.0508 7.00001C10.0508 6.58579 10.3866 6.25001 10.8008 6.25001H10.8018ZM3.75782 17.5996C3.75782 18.032 3.75804 18.3119 3.7754 18.5244C3.79205 18.728 3.82096 18.8038 3.83985 18.8408C3.9117 18.9817 4.02618 19.0961 4.167 19.168C4.20407 19.1869 4.27985 19.2158 4.48341 19.2324C4.69591 19.2498 4.9758 19.25 5.40821 19.25H6.99805V11H3.75782V17.5996ZM20.2383 6.4004C20.2383 5.96798 20.2371 5.6881 20.2197 5.47559C20.2031 5.27207 20.1751 5.19625 20.1563 5.15919C20.0843 5.01815 19.9692 4.90391 19.8281 4.83204C19.791 4.81314 19.7154 4.78423 19.5117 4.76759C19.2993 4.75024 19.0201 4.75001 18.5879 4.75001H5.40821C4.9758 4.75001 4.69591 4.75022 4.48341 4.76759C4.27985 4.78423 4.20407 4.81315 4.167 4.83204C4.02618 4.90389 3.9117 5.01836 3.83985 5.15919C3.82096 5.19625 3.79205 5.27204 3.7754 5.47559C3.75804 5.6881 3.75782 5.96798 3.75782 6.4004V9.50001H20.2383V6.4004ZM21.7383 17.5996C21.7383 18.0073 21.7384 18.3587 21.7149 18.6465C21.6906 18.9429 21.6368 19.2378 21.4922 19.5215C21.2765 19.9447 20.9329 20.2892 20.5098 20.5049C20.226 20.6495 19.9303 20.7033 19.6338 20.7275C19.3461 20.751 18.9954 20.75 18.5879 20.75H5.40821C5.00055 20.75 4.64909 20.7511 4.36134 20.7275C4.0649 20.7033 3.77005 20.6494 3.48634 20.5049C3.06297 20.2892 2.71865 19.9449 2.50294 19.5215C2.35839 19.2378 2.30451 18.9429 2.28028 18.6465C2.25677 18.3587 2.25782 18.0073 2.25782 17.5996V6.4004C2.25782 5.99273 2.25677 5.64128 2.28028 5.35352C2.30451 5.05709 2.35839 4.76224 2.50294 4.47852C2.71865 4.05516 3.06297 3.71084 3.48634 3.49512C3.77005 3.35057 4.0649 3.2967 4.36134 3.27247C4.64909 3.24896 5.00055 3.25001 5.40821 3.25001H18.5879C18.9954 3.25001 19.3461 3.24899 19.6338 3.27247C19.9303 3.29669 20.226 3.35053 20.5098 3.49512C20.9329 3.71082 21.2765 4.05534 21.4922 4.47852C21.6368 4.76224 21.6906 5.05709 21.7149 5.35352C21.7384 5.64128 21.7383 5.99273 21.7383 6.4004V17.5996Z" fill="#737985"/>
</svg>
