<svg width="24" height="24" viewBox="0 0 24 24" fill="none" xmlns="http://www.w3.org/2000/svg">
<path d="M6.50001 7.25001C6.50001 7.66422 6.16422 8.00001 5.75001 8.00001C5.3358 8.00001 5.00001 7.66422 5.00001 7.25001C5.00001 6.83579 5.3358 6.50001 5.75001 6.50001C6.16422 6.50001 6.50001 6.83579 6.50001 7.25001Z" fill="#737985"/>
<path d="M8.90002 7.25001C8.90002 7.66422 8.56424 8.00001 8.15002 8.00001C7.73581 8.00001 7.40002 7.66422 7.40002 7.25001C7.40002 6.83579 7.73581 6.50001 8.15002 6.50001C8.56424 6.50001 8.90002 6.83579 8.90002 7.25001Z" fill="#737985"/>
<path d="M11.3 7.25001C11.3 7.66422 10.9642 8.00001 10.55 8.00001C10.1358 8.00001 9.79999 7.66422 9.79999 7.25001C9.79999 6.83579 10.1358 6.50001 10.55 6.50001C10.9642 6.50001 11.3 6.83579 11.3 7.25001Z" fill="#737985"/>
<path d="M20.2402 6.4004C20.2402 5.96798 20.239 5.6881 20.2217 5.47559C20.205 5.27207 20.1771 5.19625 20.1582 5.15919C20.0863 5.01815 19.9711 4.90391 19.8301 4.83204C19.793 4.81314 19.7174 4.78423 19.5137 4.76759C19.3012 4.75024 19.0221 4.75001 18.5899 4.75001H5.41016C4.97775 4.75001 4.69786 4.75022 4.48536 4.76759C4.28181 4.78423 4.20602 4.81315 4.16895 4.83204C4.02813 4.90389 3.91366 5.01836 3.8418 5.15919C3.82292 5.19625 3.794 5.27204 3.77735 5.47559C3.75999 5.6881 3.75977 5.96798 3.75977 6.4004V17.5996C3.75977 18.032 3.75999 18.3119 3.77735 18.5244C3.794 18.728 3.82292 18.8038 3.8418 18.8408C3.91366 18.9817 4.02813 19.0961 4.16895 19.168C4.20602 19.1869 4.28181 19.2158 4.48536 19.2324C4.69786 19.2498 4.97775 19.25 5.41016 19.25H18.5899C19.0221 19.25 19.3012 19.2498 19.5137 19.2324C19.7174 19.2158 19.793 19.1869 19.8301 19.168C19.9711 19.0961 20.0863 18.9819 20.1582 18.8408C20.1771 18.8038 20.205 18.7279 20.2217 18.5244C20.239 18.3119 20.2402 18.032 20.2402 17.5996V6.4004ZM21.7402 17.5996C21.7402 18.0073 21.7403 18.3587 21.7168 18.6465C21.6926 18.9429 21.6387 19.2378 21.4941 19.5215C21.2785 19.9447 20.9349 20.2892 20.5117 20.5049C20.2279 20.6495 19.9323 20.7033 19.6357 20.7275C19.3481 20.751 18.9973 20.75 18.5899 20.75H5.41016C5.0025 20.75 4.65104 20.7511 4.36329 20.7275C4.06685 20.7033 3.772 20.6494 3.48829 20.5049C3.06492 20.2892 2.7206 19.9449 2.50489 19.5215C2.36034 19.2378 2.30646 18.9429 2.28223 18.6465C2.25872 18.3587 2.25977 18.0073 2.25977 17.5996V6.4004C2.25977 5.99273 2.25872 5.64128 2.28223 5.35352C2.30646 5.05709 2.36034 4.76224 2.50489 4.47852C2.7206 4.05516 3.06492 3.71084 3.48829 3.49512C3.772 3.35057 4.06685 3.2967 4.36329 3.27247C4.65104 3.24896 5.0025 3.25001 5.41016 3.25001H18.5899C18.9973 3.25001 19.3481 3.24899 19.6357 3.27247C19.9323 3.29669 20.2279 3.35053 20.5117 3.49512C20.9349 3.71082 21.2785 4.05534 21.4941 4.47852C21.6387 4.76224 21.6926 5.05709 21.7168 5.35352C21.7403 5.64128 21.7402 5.99273 21.7402 6.4004V17.5996Z" fill="#737985"/>
<path d="M20.252 9.50001C20.6662 9.50001 21.002 9.83579 21.002 10.25C21.002 10.6642 20.6662 11 20.252 11L3.75196 11C3.33775 11 3.00196 10.6642 3.00196 10.25C3.00196 9.83579 3.33775 9.50001 3.75196 9.50001L20.252 9.50001Z" fill="#737985"/>
<path d="M13.6582 12.7502C14.0724 12.7502 14.4082 13.086 14.4082 13.5002C14.4082 13.9144 14.0724 14.2502 13.6582 14.2502L7.15821 14.2502C6.744 14.2502 6.40821 13.9144 6.40821 13.5002C6.40821 13.086 6.744 12.7502 7.15821 12.7502L13.6582 12.7502Z" fill="#737985"/>
<path d="M16.8096 15.75C17.2238 15.75 17.5596 16.0858 17.5596 16.5C17.5596 16.9142 17.2238 17.25 16.8096 17.25L7.15821 17.25C6.744 17.25 6.40821 16.9142 6.40821 16.5C6.40821 16.0858 6.744 15.75 7.15821 15.75L16.8096 15.75Z" fill="#737985"/>
</svg>
