<svg width="24" height="24" viewBox="0 0 24 24" fill="none" xmlns="http://www.w3.org/2000/svg">
<path d="M20.2422 11.6162V6.4004C20.2422 5.96798 20.241 5.6881 20.2236 5.47559C20.207 5.27207 20.179 5.19625 20.1602 5.15919C20.0883 5.01815 19.9731 4.90391 19.832 4.83204C19.7949 4.81314 19.7193 4.78423 19.5156 4.76759C19.3032 4.75024 19.024 4.75001 18.5918 4.75001H5.41212C4.9797 4.75001 4.69981 4.75022 4.48731 4.76759C4.28376 4.78423 4.20797 4.81315 4.17091 4.83204C4.03008 4.90389 3.91561 5.01836 3.84376 5.15919C3.82487 5.19625 3.79595 5.27204 3.7793 5.47559C3.76194 5.6881 3.76173 5.96798 3.76173 6.4004V17.5996C3.76173 18.032 3.76194 18.3119 3.7793 18.5244C3.79595 18.728 3.82487 18.8038 3.84376 18.8408C3.91561 18.9817 4.03008 19.0961 4.17091 19.168C4.20797 19.1869 4.28376 19.2158 4.48731 19.2324C4.69981 19.2498 4.9797 19.25 5.41212 19.25H11.3711C11.7853 19.2501 12.1211 19.5858 12.1211 20C12.1211 20.4142 11.7853 20.7499 11.3711 20.75H5.41212C5.00445 20.75 4.65299 20.7511 4.36524 20.7275C4.06881 20.7033 3.77396 20.6494 3.49024 20.5049C3.06688 20.2892 2.72256 19.9449 2.50684 19.5215C2.36229 19.2378 2.30842 18.9429 2.28419 18.6465C2.26068 18.3587 2.26173 18.0073 2.26173 17.5996V6.4004C2.26173 5.99273 2.26068 5.64128 2.28419 5.35352C2.30842 5.05709 2.36229 4.76224 2.50684 4.47852C2.72256 4.05516 3.06688 3.71084 3.49024 3.49512C3.77396 3.35057 4.06881 3.2967 4.36524 3.27247C4.65299 3.24896 5.00445 3.25001 5.41212 3.25001H18.5918C18.9993 3.25001 19.35 3.24899 19.6377 3.27247C19.9342 3.29669 20.2299 3.35053 20.5137 3.49512C20.9368 3.71082 21.2804 4.05534 21.4961 4.47852C21.6407 4.76224 21.6945 5.05709 21.7188 5.35352C21.7423 5.64128 21.7422 5.99273 21.7422 6.4004V11.6162C21.7421 12.0302 21.4061 12.366 20.9922 12.3662C20.578 12.3662 20.2423 12.0304 20.2422 11.6162Z" fill="#737985"/>
<path d="M20.252 9.50001C20.6662 9.50001 21.002 9.83579 21.002 10.25C21.002 10.6642 20.6662 11 20.252 11L3.75196 11C3.33775 11 3.00196 10.6642 3.00196 10.25C3.00196 9.83579 3.33775 9.50001 3.75196 9.50001L20.252 9.50001Z" fill="#737985"/>
<path d="M5.78988 6.46852C6.20409 6.46852 6.53988 6.80431 6.53988 7.21852C6.53988 7.63273 6.20409 7.96852 5.78988 7.96852C5.37566 7.96852 5.0389 7.63273 5.0389 7.21852C5.0389 6.80431 5.37566 6.46852 5.78988 6.46852Z" fill="#737985"/>
<path d="M8.2889 6.46852C8.70312 6.46852 9.0389 6.80431 9.0389 7.21852C9.0389 7.63273 8.70312 7.96852 8.2889 7.96852C7.87469 7.96852 7.53793 7.63273 7.53793 7.21852C7.53793 6.80431 7.87469 6.46852 8.2889 6.46852Z" fill="#737985"/>
<path d="M10.7879 6.46852C11.2021 6.46852 11.5379 6.80431 11.5379 7.21852C11.5379 7.63273 11.2021 7.96852 10.7879 7.96852C10.3737 7.96852 10.0369 7.63273 10.0369 7.21852C10.0369 6.80431 10.3737 6.46852 10.7879 6.46852Z" fill="#737985"/>
<path d="M17.7168 12.2754C18.2098 12.2756 18.631 12.6322 18.7119 13.1191L18.8086 13.6982L18.8096 13.7002C18.8103 13.7018 18.8115 13.7051 18.8145 13.709C18.8203 13.7166 18.8306 13.7263 18.8457 13.7354L18.9658 13.8047C18.9828 13.8149 18.9978 13.819 19.0078 13.8203C19.0141 13.8211 19.0175 13.8206 19.0186 13.8203L19.5693 13.6143L19.6543 13.5869C19.8544 13.5313 20.0677 13.538 20.2647 13.6084C20.4616 13.6789 20.6315 13.8085 20.751 13.9785L20.7988 14.0537L21.3857 15.0723C21.5051 15.2792 21.5476 15.5218 21.5049 15.7568C21.4622 15.992 21.3369 16.2047 21.1524 16.3565L20.6982 16.7305L20.6973 16.7315C20.6964 16.7326 20.6952 16.736 20.6934 16.7402L20.6856 16.7832V16.9199C20.6852 16.9389 20.6886 16.9539 20.6924 16.9629C20.6942 16.9671 20.6964 16.9695 20.6973 16.9707L20.6982 16.9717L21.1533 17.3467C21.5328 17.66 21.6323 18.2025 21.3857 18.6299L20.7979 19.6475C20.6784 19.8544 20.4896 20.0121 20.2647 20.0928C20.0398 20.1734 19.794 20.1716 19.5703 20.0879L19.0186 19.8818C19.0174 19.8816 19.014 19.8811 19.0078 19.8818C18.9977 19.8831 18.9824 19.8879 18.9649 19.8984L18.9639 19.8975C18.9263 19.9203 18.889 19.9435 18.8506 19.9649C18.8336 19.9743 18.8207 19.9859 18.8145 19.9941C18.8118 19.9977 18.8103 20.0004 18.8096 20.002L18.8086 20.0039L18.7119 20.583C18.631 21.0709 18.2094 21.4266 17.7168 21.4268H16.542C16.0481 21.4268 15.6274 21.0696 15.5459 20.584L15.4492 20.0029C15.4489 20.0019 15.4473 19.9984 15.4434 19.9932C15.4371 19.9851 15.4255 19.9744 15.4082 19.9649L15.293 19.8975C15.2759 19.8872 15.2601 19.8831 15.25 19.8818H15.2393L14.6885 20.0879C14.4648 20.1718 14.2181 20.1743 13.9932 20.0938C13.7964 20.0233 13.6272 19.8934 13.5078 19.7236L13.46 19.6484L12.8721 18.6309C12.7527 18.4239 12.7112 18.1804 12.7539 17.9453C12.7967 17.7104 12.9211 17.4984 13.1055 17.3467L13.5596 16.9717C13.5604 16.9707 13.5633 16.968 13.5654 16.9629C13.5694 16.9534 13.5726 16.9375 13.5723 16.918C13.5715 16.8735 13.5715 16.8287 13.5723 16.7842C13.5726 16.7644 13.5692 16.7494 13.5654 16.7402C13.5636 16.7359 13.5615 16.7327 13.5606 16.7315L13.5596 16.7305L13.1065 16.3555L13.1055 16.3565C12.9211 16.2047 12.7966 15.9918 12.7539 15.7568C12.7113 15.5221 12.7531 15.28 12.8721 15.0732L13.46 14.0547C13.5794 13.8478 13.7683 13.6901 13.9932 13.6094C14.2183 13.5287 14.4656 13.5302 14.6895 13.6143L15.2393 13.8203L15.2412 13.8213C15.2428 13.8214 15.2457 13.8208 15.25 13.8203C15.2594 13.8191 15.2733 13.8146 15.2891 13.8057C15.3297 13.7808 15.372 13.7586 15.4043 13.7402L15.4092 13.7373C15.4263 13.7279 15.4383 13.717 15.4443 13.709C15.4495 13.7022 15.4494 13.6986 15.4492 13.6992L15.5459 13.1191L15.5654 13.0293C15.6803 12.5889 16.0797 12.2755 16.542 12.2754H17.7168ZM16.5361 13.2774C16.535 13.2783 16.5336 13.2796 16.5332 13.2803L16.5322 13.2832L16.4356 13.8633C16.3789 14.2041 16.157 14.4631 15.8965 14.6084L15.8975 14.6094C15.8628 14.6291 15.8361 14.6442 15.8115 14.6592L15.8096 14.6611C15.5852 14.7965 15.2982 14.8622 15.0117 14.7949L14.8887 14.7568L14.3379 14.5508C14.3358 14.55 14.3332 14.55 14.3311 14.5508L14.3262 14.5547L13.7383 15.5723C13.7374 15.574 13.737 15.5762 13.7373 15.5781L13.7412 15.584L14.1953 15.959C14.4626 16.1797 14.5778 16.5028 14.5723 16.8027C14.5717 16.8351 14.5717 16.868 14.5723 16.9004C14.577 17.1616 14.4908 17.4431 14.2891 17.6572L14.1953 17.7441L13.7412 18.1182C13.7396 18.1195 13.7378 18.1219 13.7373 18.124C13.7369 18.1262 13.7372 18.1289 13.7383 18.1309L14.3252 19.1475C14.3263 19.1494 14.329 19.1516 14.3311 19.1524C14.3329 19.1529 14.3351 19.153 14.3369 19.1524L14.8887 18.9453L15.0117 18.9082C15.2983 18.8409 15.5851 18.9066 15.8096 19.042L15.8926 19.0899C16.1541 19.2349 16.3785 19.496 16.4356 19.8389L16.5322 20.419L16.542 20.4268H17.7168C17.7218 20.4266 17.7248 20.4235 17.7256 20.4199L17.8223 19.8389C17.8799 19.497 18.1032 19.2347 18.3652 19.0899C18.3927 19.0746 18.4204 19.0593 18.4473 19.043L18.4492 19.041C18.7054 18.8871 19.0432 18.8233 19.3691 18.9453L19.9209 19.1524C19.9227 19.153 19.9249 19.1529 19.9268 19.1524C19.9289 19.1516 19.9315 19.1494 19.9326 19.1475L20.5195 18.1299C20.5201 18.1289 20.5204 18.1284 20.5205 18.1279C20.5206 18.1273 20.5207 18.1263 20.5205 18.125C20.52 18.1222 20.5187 18.1199 20.5166 18.1182L20.0625 17.7441C19.7946 17.5234 19.6792 17.1985 19.6856 16.8984V16.8008C19.6802 16.5012 19.7959 16.1781 20.0635 15.958L20.5166 15.584C20.5183 15.5826 20.5201 15.5803 20.5205 15.5781C20.5209 15.5759 20.5207 15.5732 20.5195 15.5713L19.9326 14.5537C19.9315 14.5521 19.9296 14.5515 19.9277 14.5508H19.9209L19.3691 14.7568C19.0433 14.8788 18.7055 14.8156 18.4492 14.6611C18.4186 14.6427 18.3933 14.6278 18.3701 14.6152L18.3652 14.6123C18.1034 14.4672 17.8799 14.2064 17.8223 13.8643L17.7256 13.2832C17.7254 13.2818 17.7249 13.2808 17.7246 13.2803C17.7242 13.2796 17.7237 13.2782 17.7227 13.2774C17.7207 13.2758 17.7189 13.2755 17.7168 13.2754H16.542C16.5399 13.2754 16.5381 13.2758 16.5361 13.2774Z" fill="#737985"/>
<path d="M17.9873 16.8516C17.9873 16.6241 17.8971 16.4061 17.7363 16.2451C17.5753 16.0841 17.3566 15.9932 17.1289 15.9932C16.9013 15.9932 16.6834 16.0842 16.5225 16.2451C16.3615 16.4061 16.2706 16.6239 16.2705 16.8516C16.2705 17.0793 16.3614 17.298 16.5225 17.459C16.6834 17.6198 16.9014 17.7099 17.1289 17.71C17.3566 17.71 17.5753 17.62 17.7363 17.459C17.8974 17.298 17.9873 17.0793 17.9873 16.8516ZM18.9873 16.8516C18.9873 17.3445 18.7919 17.8175 18.4434 18.166C18.0948 18.5146 17.6218 18.71 17.1289 18.71C16.6361 18.7099 16.163 18.5145 15.8145 18.166C15.466 17.8175 15.2705 17.3444 15.2705 16.8516C15.2706 16.3587 15.466 15.8856 15.8145 15.5371C16.163 15.1886 16.6361 14.9932 17.1289 14.9932C17.6217 14.9932 18.0948 15.1887 18.4434 15.5371C18.7919 15.8856 18.9873 16.3587 18.9873 16.8516Z" fill="#737985"/>
</svg>
