<svg width="24" height="24" viewBox="0 0 24 24" fill="none" xmlns="http://www.w3.org/2000/svg">
<path d="M6.50001 7.25001C6.50001 7.66422 6.16422 8.00001 5.75001 8.00001C5.3358 8.00001 5.00001 7.66422 5.00001 7.25001C5.00001 6.83579 5.3358 6.50001 5.75001 6.50001C6.16422 6.50001 6.50001 6.83579 6.50001 7.25001Z" fill="#737985"/>
<path d="M8.90002 7.25001C8.90002 7.66422 8.56424 8.00001 8.15002 8.00001C7.73581 8.00001 7.40002 7.66422 7.40002 7.25001C7.40002 6.83579 7.73581 6.50001 8.15002 6.50001C8.56424 6.50001 8.90002 6.83579 8.90002 7.25001Z" fill="#737985"/>
<path d="M11.3 7.25001C11.3 7.66422 10.9642 8.00001 10.55 8.00001C10.1358 8.00001 9.79999 7.66422 9.79999 7.25001C9.79999 6.83579 10.1358 6.50001 10.55 6.50001C10.9642 6.50001 11.3 6.83579 11.3 7.25001Z" fill="#737985"/>
<path d="M20.2402 13.2676V6.4004C20.2402 5.96798 20.239 5.6881 20.2217 5.47559C20.205 5.27207 20.1771 5.19625 20.1582 5.15919C20.0863 5.01815 19.9711 4.90391 19.8301 4.83204C19.793 4.81314 19.7174 4.78423 19.5137 4.76759C19.3012 4.75024 19.0221 4.75001 18.5899 4.75001H5.41016C4.97775 4.75001 4.69786 4.75022 4.48536 4.76759C4.28181 4.78423 4.20602 4.81315 4.16895 4.83204C4.02813 4.90389 3.91366 5.01836 3.8418 5.15919C3.82292 5.19625 3.794 5.27204 3.77735 5.47559C3.75999 5.6881 3.75977 5.96798 3.75977 6.4004V17.5996C3.75977 18.032 3.75999 18.3119 3.77735 18.5244C3.794 18.728 3.82292 18.8038 3.8418 18.8408C3.91366 18.9817 4.02813 19.0961 4.16895 19.168C4.20602 19.1869 4.28181 19.2158 4.48536 19.2324C4.69786 19.2498 4.97775 19.25 5.41016 19.25H11.6465C12.0607 19.25 12.3965 19.5858 12.3965 20C12.3965 20.4142 12.0607 20.75 11.6465 20.75H5.41016C5.0025 20.75 4.65104 20.7511 4.36329 20.7275C4.06685 20.7033 3.772 20.6494 3.48829 20.5049C3.06492 20.2892 2.7206 19.9449 2.50489 19.5215C2.36034 19.2378 2.30646 18.9429 2.28223 18.6465C2.25872 18.3587 2.25977 18.0073 2.25977 17.5996V6.4004C2.25977 5.99273 2.25872 5.64128 2.28223 5.35352C2.30646 5.05709 2.36034 4.76224 2.50489 4.47852C2.7206 4.05516 3.06492 3.71084 3.48829 3.49512C3.772 3.35057 4.06685 3.2967 4.36329 3.27247C4.65104 3.24896 5.0025 3.25001 5.41016 3.25001H18.5899C18.9973 3.25001 19.3481 3.24899 19.6357 3.27247C19.9321 3.29668 20.2271 3.35069 20.5107 3.49512C20.9341 3.71081 21.2784 4.05523 21.4941 4.47852C21.6387 4.76224 21.6926 5.05709 21.7168 5.35352C21.7403 5.64128 21.7402 5.99273 21.7402 6.4004V13.2676C21.7402 13.6816 21.4042 14.0173 20.9902 14.0176C20.576 14.0176 20.2402 13.6818 20.2402 13.2676Z" fill="#737985"/>
<path d="M20.2481 9.50001C20.6623 9.50001 20.9981 9.83579 20.9981 10.25C20.9981 10.6642 20.6623 11 20.2481 11L3.74805 11C3.33384 11 2.99805 10.6642 2.99805 10.25C2.99805 9.83579 3.33384 9.50001 3.74805 9.50001L20.2481 9.50001Z" fill="#737985"/>
<path d="M8.49805 19.46C8.49796 19.8741 8.16221 20.21 7.74805 20.21C7.3339 20.21 6.99815 19.8741 6.99805 19.46L6.99805 10.75C6.99805 10.3358 7.33384 10 7.74805 10C8.16227 10 8.49805 10.3358 8.49805 10.75L8.49805 19.46Z" fill="#737985"/>
<path d="M18.1318 18.3496C18.5457 18.3499 18.8816 18.6857 18.8818 19.0996C18.8818 19.5137 18.5458 19.8494 18.1318 19.8496H13.9981C13.5838 19.8496 13.2481 19.5138 13.2481 19.0996C13.2483 18.6856 13.584 18.3496 13.9981 18.3496H18.1318ZM20.1982 15.25C20.6124 15.2501 20.9482 15.5859 20.9482 16C20.9482 16.4142 20.6124 16.7499 20.1982 16.75H13.9981C13.5838 16.75 13.2481 16.4142 13.2481 16C13.2481 15.5858 13.5838 15.25 13.9981 15.25H20.1982Z" fill="#737985"/>
</svg>
