<svg width="24" height="24" viewBox="0 0 24 24" fill="none" xmlns="http://www.w3.org/2000/svg">
<path d="M18.8129 12.415C18.8129 11.9663 18.8123 11.6765 18.7943 11.456C18.777 11.2447 18.7475 11.1663 18.7279 11.1279C18.6534 10.9815 18.5344 10.8626 18.3881 10.788C18.3496 10.7684 18.271 10.7389 18.0599 10.7216C17.8395 10.7036 17.5494 10.7031 17.101 10.7031H6.89881C6.45017 10.7031 6.16031 10.7036 5.93982 10.7216C5.72853 10.7389 5.65017 10.7684 5.6117 10.788C5.46535 10.8626 5.34645 10.9815 5.27186 11.1279C5.25226 11.1663 5.22272 11.2447 5.20545 11.456C5.18744 11.6765 5.18689 11.9663 5.18689 12.415V18.5097C5.18689 18.9584 5.18743 19.2482 5.20545 19.4687C5.22272 19.6801 5.25225 19.7583 5.27186 19.7968C5.34644 19.9432 5.46534 20.062 5.6117 20.1367C5.65017 20.1563 5.72854 20.1858 5.93982 20.2031C6.16031 20.2211 6.45017 20.2216 6.89881 20.2216H17.101C17.5494 20.2216 17.8395 20.2211 18.0599 20.2031C18.271 20.1858 18.3496 20.1562 18.3881 20.1367C18.5343 20.062 18.6534 19.9431 18.7279 19.7968C18.7475 19.7583 18.7771 19.6799 18.7943 19.4687C18.8123 19.2482 18.8129 18.9584 18.8129 18.5097V12.415ZM20.3695 18.5097C20.3695 18.9327 20.3695 19.2971 20.3451 19.5956C20.3199 19.9032 20.2646 20.2095 20.1146 20.5038C19.8908 20.943 19.5333 21.2996 19.0941 21.5234C18.7997 21.6734 18.4936 21.7297 18.1859 21.7548C17.8875 21.7792 17.5236 21.7783 17.101 21.7783H6.89881C6.47584 21.7783 6.11143 21.7792 5.81287 21.7548C5.50532 21.7297 5.19902 21.6734 4.90467 21.5234C4.46574 21.2996 4.1089 20.9428 3.88514 20.5038C3.73514 20.2095 3.67884 19.9032 3.65369 19.5956C3.6293 19.2971 3.63025 18.9327 3.63025 18.5097V12.415C3.63025 11.992 3.6293 11.6276 3.65369 11.329C3.67884 11.0215 3.73515 10.7152 3.88514 10.4208C4.1089 9.98192 4.46575 9.62507 4.90467 9.40131C5.19903 9.25132 5.50532 9.19501 5.81287 9.16986C6.11143 9.14547 6.47584 9.14642 6.89881 9.14642H17.101C17.5236 9.14642 17.8875 9.1455 18.1859 9.16986C18.4936 9.195 18.7997 9.2513 19.0941 9.40131C19.5333 9.62508 19.8908 9.98171 20.1146 10.4208C20.2646 10.7152 20.3199 11.0215 20.3451 11.329C20.3695 11.6276 20.3695 11.992 20.3695 12.415V18.5097Z" fill="#737985"/>
<path d="M14.9798 6.75781C14.9795 5.11219 13.645 3.77832 11.9993 3.77832C10.3538 3.77857 9.02005 5.11234 9.0198 6.75781V9.34766H7.46316V6.75781C7.46341 4.25274 9.49422 2.22193 11.9993 2.22168C14.5046 2.22168 16.5361 4.25259 16.5364 6.75781V9.70996H14.9798V6.75781Z" fill="#737985"/>
<path d="M13.1366 14.549C13.1366 13.921 12.6279 13.4114 11.9999 13.4113C11.3718 13.4113 10.8622 13.9209 10.8622 14.549C10.8623 14.9693 11.0903 15.337 11.4316 15.5344C11.5918 15.6271 11.6904 15.7984 11.6904 15.9836V17.5285C11.6904 17.5468 11.7053 17.5616 11.7236 17.5617H12.2753C12.2937 17.5617 12.3085 17.5469 12.3085 17.5285V15.9836C12.3085 15.7984 12.408 15.6271 12.5683 15.5344C12.9094 15.337 13.1366 14.9692 13.1366 14.549ZM14.1747 14.549C14.1747 15.2417 13.8498 15.8573 13.3466 16.2551V17.5285C13.3466 18.1199 12.8667 18.5998 12.2753 18.5998H11.7236C11.1322 18.5997 10.6532 18.1199 10.6532 17.5285V16.2551C10.1499 15.8573 9.82518 15.2418 9.82512 14.549C9.82512 13.3479 10.7988 12.3742 11.9999 12.3742C13.201 12.3743 14.1747 13.3479 14.1747 14.549Z" fill="#737985"/>
</svg>
