<svg width="24" height="24" viewBox="0 0 24 24" fill="none" xmlns="http://www.w3.org/2000/svg">
<path d="M14.7402 6.69947C14.7402 5.97124 14.739 5.50044 14.6924 5.15357C14.6486 4.82826 14.5776 4.72629 14.5205 4.66919C14.4634 4.6121 14.3614 4.54105 14.0361 4.49732C13.6892 4.4507 13.2184 4.44947 12.4902 4.44947H11.4902C10.762 4.44947 10.2912 4.4507 9.94431 4.49732C9.61901 4.54105 9.51703 4.6121 9.45994 4.66919C9.40285 4.72629 9.3318 4.82826 9.28806 5.15357C9.24144 5.50044 9.24021 5.97124 9.24021 6.69947C9.24021 7.42769 9.24144 7.8985 9.28806 8.24537C9.3318 8.57067 9.40285 8.67265 9.45994 8.72974C9.51703 8.78683 9.61901 8.85788 9.94431 8.90162C10.2912 8.94824 10.762 8.94947 11.4902 8.94947H12.4902C13.2184 8.94947 13.6892 8.94824 14.0361 8.90162C14.3614 8.85788 14.4634 8.78683 14.5205 8.72974C14.5776 8.67265 14.6486 8.57067 14.6924 8.24537C14.739 7.8985 14.7402 7.42769 14.7402 6.69947ZM16.2402 6.69947C16.2402 7.38537 16.2419 7.9755 16.1787 8.44556C16.1126 8.93711 15.9632 9.4081 15.581 9.79029C15.1988 10.1725 14.7279 10.3218 14.2363 10.3879C13.7662 10.4511 13.1761 10.4495 12.4902 10.4495H11.4902C10.8043 10.4495 10.2142 10.4511 9.74412 10.3879C9.25257 10.3218 8.78158 10.1725 8.39939 9.79029C8.01721 9.4081 7.86785 8.93711 7.80174 8.44556C7.73854 7.9755 7.74021 7.38537 7.74021 6.69947C7.74021 6.01356 7.73854 5.42344 7.80174 4.95337C7.86785 4.46182 8.01721 3.99083 8.39939 3.60865C8.78158 3.22646 9.25257 3.07711 9.74412 3.01099C10.2142 2.94779 10.8043 2.94947 11.4902 2.94947H12.4902C13.1761 2.94947 13.7662 2.94779 14.2363 3.01099C14.7279 3.07711 15.1988 3.22646 15.581 3.60865C15.9632 3.99083 16.1126 4.46182 16.1787 4.95337C16.2419 5.42344 16.2402 6.01356 16.2402 6.69947Z" fill="#737985"/>
<path d="M8.99802 17.3005C8.99802 16.5723 8.99679 16.1015 8.95017 15.7546C8.90644 15.4293 8.83539 15.3273 8.7783 15.2702C8.7212 15.2131 8.61923 15.1421 8.29392 15.0984C7.94706 15.0517 7.47625 15.0505 6.74802 15.0505H5.74802C5.0198 15.0505 4.54899 15.0517 4.20213 15.0984C3.87682 15.1421 3.77484 15.2131 3.71775 15.2702C3.66066 15.3273 3.58961 15.4293 3.54588 15.7546C3.49926 16.1015 3.49802 16.5723 3.49802 17.3005C3.49802 18.0287 3.49926 18.4995 3.54588 18.8464C3.58961 19.1717 3.66066 19.2737 3.71775 19.3308C3.77484 19.3879 3.87682 19.4589 4.20213 19.5027C4.54899 19.5493 5.0198 19.5505 5.74802 19.5505H6.74802C7.47625 19.5505 7.94706 19.5493 8.29392 19.5027C8.61923 19.4589 8.7212 19.3879 8.7783 19.3308C8.83539 19.2737 8.90644 19.1717 8.95017 18.8464C8.99679 18.4995 8.99802 18.0287 8.99802 17.3005ZM10.498 17.3005C10.498 17.9864 10.4997 18.5765 10.4365 19.0466C10.3704 19.5382 10.221 20.0091 9.83884 20.3913C9.45666 20.7735 8.98567 20.9229 8.49412 20.989C8.02406 21.0522 7.43393 21.0505 6.74802 21.0505H5.74802C5.06212 21.0505 4.47199 21.0522 4.00193 20.989C3.51038 20.9229 3.03939 20.7735 2.6572 20.3913C2.27502 20.0091 2.12566 19.5382 2.05955 19.0466C1.99635 18.5765 1.99802 17.9864 1.99802 17.3005C1.99802 16.6146 1.99635 16.0245 2.05955 15.5544C2.12566 15.0629 2.27502 14.5919 2.6572 14.2097C3.03939 13.8275 3.51038 13.6781 4.00193 13.612C4.47199 13.5488 5.06212 13.5505 5.74802 13.5505H6.74802C7.43393 13.5505 8.02406 13.5488 8.49412 13.612C8.98567 13.6781 9.45666 13.8275 9.83884 14.2097C10.221 14.5919 10.3704 15.0629 10.4365 15.5544C10.4997 16.0245 10.498 16.6146 10.498 17.3005Z" fill="#737985"/>
<path d="M20.5019 17.3005C20.5019 16.5723 20.5007 16.1015 20.4541 15.7546C20.4103 15.4293 20.3393 15.3273 20.2822 15.2702C20.2251 15.2131 20.1231 15.1421 19.7978 15.0984C19.451 15.0517 18.9802 15.0505 18.2519 15.0505H17.2519C16.5237 15.0505 16.0529 15.0517 15.706 15.0984C15.3807 15.1421 15.2788 15.2131 15.2217 15.2702C15.1646 15.3273 15.0935 15.4293 15.0498 15.7546C15.0032 16.1015 15.0019 16.5723 15.0019 17.3005C15.0019 18.0287 15.0032 18.4995 15.0498 18.8464C15.0935 19.1717 15.1646 19.2737 15.2217 19.3308C15.2788 19.3879 15.3807 19.4589 15.706 19.5027C16.0529 19.5493 16.5237 19.5505 17.2519 19.5505H18.2519C18.9802 19.5505 19.451 19.5493 19.7978 19.5027C20.1231 19.4589 20.2251 19.3879 20.2822 19.3308C20.3393 19.2737 20.4103 19.1717 20.4541 18.8464C20.5007 18.4995 20.5019 18.0287 20.5019 17.3005ZM22.0019 17.3005C22.0019 17.9864 22.0036 18.5765 21.9404 19.0466C21.8743 19.5382 21.7249 20.0091 21.3428 20.3913C20.9606 20.7735 20.4896 20.9229 19.998 20.989C19.528 21.0522 18.9378 21.0505 18.2519 21.0505H17.2519C16.566 21.0505 15.9759 21.0522 15.5058 20.989C15.0143 20.9229 14.5433 20.7735 14.1611 20.3913C13.7789 20.0091 13.6296 19.5382 13.5635 19.0466C13.5003 18.5765 13.5019 17.9864 13.5019 17.3005C13.5019 16.6146 13.5003 16.0245 13.5635 15.5544C13.6296 15.0629 13.7789 14.5919 14.1611 14.2097C14.5433 13.8275 15.0143 13.6781 15.5058 13.612C15.9759 13.5488 16.566 13.5505 17.2519 13.5505H18.2519C18.9378 13.5505 19.528 13.5488 19.998 13.612C20.4896 13.6781 20.9606 13.8275 21.3428 14.2097C21.7249 14.5919 21.8743 15.0629 21.9404 15.5544C22.0036 16.0245 22.0019 16.6146 22.0019 17.3005Z" fill="#737985"/>
<path d="M12.7402 10.5589C12.7402 11.7627 11.7643 12.7385 10.5605 12.7386H7.41306C7.04149 12.7386 6.74027 13.0399 6.74021 13.4114H5.24021C5.24027 12.2114 6.21307 11.2386 7.41306 11.2386H10.5605C10.9359 11.2385 11.2402 10.9343 11.2402 10.5589H12.7402Z" fill="#737985"/>
<path d="M11.2402 10.5589C11.2402 11.7627 12.2161 12.7385 13.4199 12.7386H16.5674C16.9389 12.7386 17.2402 13.0399 17.2402 13.4114H18.7402C18.7402 12.2114 17.7674 11.2386 16.5674 11.2386H13.4199C13.0445 11.2385 12.7402 10.9343 12.7402 10.5589H11.2402Z" fill="#737985"/>
</svg>
