<svg width="24" height="24" viewBox="0 0 24 24" fill="none" xmlns="http://www.w3.org/2000/svg">
<path d="M19.7974 8.23C19.7973 7.82929 19.4725 7.50446 19.0718 7.50441H4.92822C4.52752 7.50447 4.20269 7.82929 4.20264 8.23V10.0269C4.20264 10.4276 4.52748 10.7534 4.92822 10.7534H19.0718C19.4725 10.7534 19.7974 10.4276 19.7974 10.0269V8.23ZM21.2974 10.0269C21.2974 11.2561 20.3009 12.2534 19.0718 12.2534H4.92822C3.69906 12.2534 2.70264 11.2561 2.70264 10.0269V8.23C2.70269 7.00087 3.69909 6.00447 4.92822 6.00441H19.0718C20.3009 6.00446 21.2973 7.00086 21.2974 8.23V10.0269Z" fill="#737985"/>
<path d="M19.7974 14.7759C19.7973 15.1766 19.4725 15.5014 19.0718 15.5015H4.92822C4.52752 15.5014 4.20269 15.1766 4.20264 14.7759V12.979C4.20264 12.5783 4.52748 12.2535 4.92822 12.2534H19.0718C19.4725 12.2535 19.7974 12.5783 19.7974 12.979V14.7759ZM21.2974 12.979C21.2974 11.7498 20.3009 10.7535 19.0718 10.7534H4.92822C3.69906 10.7535 2.70264 11.7498 2.70264 12.979V14.7759C2.70269 16.005 3.69909 17.0014 4.92822 17.0015H19.0718C20.3009 17.0014 21.2973 16.005 21.2974 14.7759V12.979Z" fill="#737985"/>
<path d="M19.7974 19.5244C19.7973 19.9251 19.4725 20.25 19.0718 20.25H4.92822C4.52752 20.2499 4.20269 19.9251 4.20264 19.5244V17.7275C4.20264 17.3268 4.52748 17.0015 4.92822 17.0015H19.0718C19.4725 17.0015 19.7974 17.3268 19.7974 17.7275V19.5244ZM21.2974 17.7275C21.2974 16.4984 20.3009 15.5015 19.0718 15.5015H4.92822C3.69906 15.5015 2.70264 16.4984 2.70264 17.7275V19.5244C2.70269 20.7535 3.69909 21.7499 4.92822 21.75H19.0718C20.3009 21.75 21.2973 20.7535 21.2974 19.5244V17.7275Z" fill="#737985"/>
<path d="M17.5888 2.25C18.5554 2.25 19.4119 2.87379 19.7079 3.79395L20.6532 6.7334C20.7798 7.12757 20.563 7.54993 20.1689 7.67676C19.7746 7.8036 19.3524 7.58661 19.2255 7.19238L18.2792 4.25391C18.1827 3.95389 17.9039 3.75 17.5888 3.75H6.38762C6.0663 3.75004 5.78363 3.96148 5.6923 4.26953L4.84562 7.12695C4.72788 7.52388 4.31102 7.75036 3.91398 7.63281C3.51688 7.51524 3.29068 7.09828 3.40812 6.70117L4.25383 3.84375C4.53374 2.89856 5.40185 2.25004 6.38762 2.25H17.5888Z" fill="#737985"/>
<path d="M6.70879 13.9161V13.9082C6.70879 13.5217 7.02238 13.2081 7.40898 13.2081C7.79558 13.2081 8.10918 13.5217 8.10918 13.9082V13.9161C8.10892 14.3024 7.79542 14.6153 7.40898 14.6153C7.02254 14.6153 6.70905 14.3024 6.70879 13.9161Z" fill="#737985"/>
<path d="M16.5914 13.4082C16.8674 13.4085 17.0914 13.6322 17.0914 13.9082C17.0914 14.1842 16.8674 14.408 16.5914 14.4082H9.37656C9.10042 14.4082 8.87656 14.1844 8.87656 13.9082C8.87656 13.6321 9.10042 13.4082 9.37656 13.4082H16.5914Z" fill="#737985"/>
<path d="M6.70879 18.5483V18.5405C6.70879 18.1539 7.02238 17.8403 7.40898 17.8403C7.79558 17.8403 8.10918 18.1539 8.10918 18.5405V18.5483C8.10892 18.9347 7.79542 19.2476 7.40898 19.2476C7.02254 19.2476 6.70905 18.9347 6.70879 18.5483Z" fill="#737985"/>
<path d="M16.5914 18.0405C16.8674 18.0408 17.0914 18.2645 17.0914 18.5405C17.0914 18.8165 16.8674 19.0403 16.5914 19.0405H9.37656C9.10042 19.0405 8.87656 18.8167 8.87656 18.5405C8.87656 18.2644 9.10042 18.0405 9.37656 18.0405H16.5914Z" fill="#737985"/>
<path d="M6.70879 9.19906V9.19125C6.70879 8.80465 7.02238 8.49105 7.40898 8.49105C7.79558 8.49105 8.10918 8.80465 8.10918 9.19125V9.19906C8.10892 9.58544 7.79542 9.89828 7.40898 9.89828C7.02254 9.89828 6.70905 9.58544 6.70879 9.19906Z" fill="#737985"/>
<path d="M16.5914 8.69127C16.8674 8.69148 17.0914 8.91526 17.0914 9.19127C17.0914 9.46728 16.8674 9.69105 16.5914 9.69127H9.37656C9.10042 9.69127 8.87656 9.46741 8.87656 9.19127C8.87656 8.91513 9.10042 8.69127 9.37656 8.69127H16.5914Z" fill="#737985"/>
</svg>
