<svg width="24" height="24" viewBox="0 0 24 24" fill="none" xmlns="http://www.w3.org/2000/svg">
<path d="M15.4113 17.623C16.1024 17.5854 16.7791 17.8667 17.2892 18.4131C17.6475 18.7955 17.9492 19.0049 18.1711 19.1006C18.3848 19.1927 18.4767 19.1618 18.5011 19.1514C18.5307 19.1386 18.6292 19.0815 18.7277 18.8389C18.8272 18.5938 18.9025 18.213 18.9025 17.6738V6.54004C18.9025 5.23454 18.6738 4.60242 18.3625 4.27344C18.0635 3.95791 17.5224 3.75 16.4093 3.75H7.59976C6.47357 3.75 5.93085 3.96324 5.63297 4.28027C5.32167 4.61178 5.09781 5.24382 5.09781 6.54004V17.6826C5.09781 18.2211 5.17279 18.6019 5.27261 18.8467C5.37115 19.0883 5.47009 19.1467 5.50113 19.1602C5.52635 19.171 5.61959 19.2016 5.83316 19.1094C6.054 19.0139 6.35279 18.8053 6.70816 18.4238L6.71793 18.4141L6.72672 18.4043C7.78236 17.2919 9.45125 17.3828 10.3703 18.6113L11.2775 19.8242C11.522 20.1472 11.791 20.25 12.0002 20.25C12.2092 20.25 12.4774 20.1471 12.7218 19.8242L13.6291 18.6113L13.8058 18.3984C14.2383 17.9303 14.8062 17.6561 15.4113 17.623ZM15.8664 13.8857C16.2806 13.8857 16.6164 14.2215 16.6164 14.6357C16.6162 15.0498 16.2805 15.3857 15.8664 15.3857H8.13492C7.72082 15.3857 7.38511 15.0498 7.38492 14.6357C7.38492 14.2215 7.7207 13.8857 8.13492 13.8857H15.8664ZM12.8136 9.73145C12.8136 9.63881 12.7765 9.54991 12.7111 9.48438C12.6455 9.41882 12.5567 9.38184 12.464 9.38184H11.7306C11.2402 9.38172 10.7698 9.1866 10.423 8.83984C10.0763 8.49305 9.88206 8.02262 9.88199 7.53223C9.88199 7.04186 10.0764 6.57143 10.423 6.22461C10.678 5.96958 11.0003 5.79729 11.3478 5.72363V5.69922C11.3478 5.28504 11.6836 4.94927 12.0978 4.94922C12.5065 4.94922 12.838 5.27608 12.8468 5.68262H13.5636C13.9778 5.68262 14.3136 6.0184 14.3136 6.43262C14.3135 6.84674 13.9778 7.18262 13.5636 7.18262H11.7306C11.6381 7.18273 11.549 7.2197 11.4836 7.28516C11.4182 7.35068 11.382 7.43968 11.382 7.53223C11.3821 7.6248 11.4181 7.71381 11.4836 7.7793C11.549 7.84475 11.6381 7.88172 11.7306 7.88184H12.464C12.9544 7.88184 13.4248 8.0762 13.7716 8.42285C14.1185 8.76971 14.3136 9.24091 14.3136 9.73145C14.3135 10.2218 14.1184 10.6923 13.7716 11.0391C13.5168 11.2938 13.195 11.4654 12.8478 11.5391V11.5635C12.8478 11.9777 12.512 12.3135 12.0978 12.3135C11.6895 12.3134 11.3581 11.9871 11.3488 11.5811H10.632C10.2179 11.5811 9.88222 11.2451 9.88199 10.8311C9.88199 10.4168 10.2178 10.0811 10.632 10.0811H12.0783C12.0848 10.0809 12.0913 10.0801 12.0978 10.0801C12.1043 10.0801 12.1109 10.0809 12.1173 10.0811H12.464C12.5566 10.0811 12.6456 10.0439 12.7111 9.97852C12.7766 9.91305 12.8135 9.82402 12.8136 9.73145ZM20.4025 17.6738C20.4025 18.3327 20.3139 18.9216 20.1183 19.4033C19.9218 19.8874 19.5932 20.3146 19.0959 20.5293C18.5931 20.7462 18.0575 20.685 17.5763 20.4775C17.1025 20.2731 16.6387 19.9116 16.1955 19.4385L16.1935 19.4375C15.9653 19.1926 15.7111 19.1093 15.4933 19.1211C15.2753 19.133 15.0298 19.2427 14.8293 19.5098L13.9201 20.7266L13.9181 20.7295C13.433 21.3703 12.7458 21.7499 12.0002 21.75C11.2544 21.75 10.5673 21.3703 10.0822 20.7295L10.0802 20.7266L9.17007 19.5107V19.5098C8.81171 19.0303 8.23339 18.993 7.81168 19.4404L7.80484 19.4482L7.79703 19.4561L7.79117 19.46C7.35385 19.9266 6.89604 20.2848 6.42691 20.4873C5.94572 20.6949 5.41093 20.7544 4.90836 20.5381C4.41097 20.3239 4.08151 19.8975 3.88394 19.4131C3.68739 18.9311 3.59781 18.342 3.59781 17.6826V6.54004C3.59781 5.15991 3.81728 4.02231 4.54019 3.25293C5.27664 2.46919 6.35988 2.25 7.59976 2.25H16.4093C17.6337 2.25 18.7143 2.46337 19.4523 3.24316C20.1777 4.00975 20.4025 5.14798 20.4025 6.54004V17.6738Z" fill="#737985"/>
</svg>
