<svg width="24" height="24" viewBox="0 0 24 24" fill="none" xmlns="http://www.w3.org/2000/svg">
<path d="M8.53027 13.5137C8.53016 12.2641 7.51712 11.251 6.26758 11.251C5.018 11.251 4.005 12.2641 4.00488 13.5137V15.8486C4.00504 17.0981 5.01802 18.1113 6.26758 18.1113C7.51709 18.1113 8.53011 17.0981 8.53027 15.8486V13.5137ZM15.4678 16.0059C15.4678 17.2555 16.4808 18.2686 17.7305 18.2686C18.5836 18.2685 19.3254 17.7959 19.7109 17.0986C19.7548 17.008 19.7951 16.9174 19.8291 16.8262C19.8411 16.7939 19.8553 16.763 19.8711 16.7334C19.9487 16.5049 19.9932 16.2606 19.9932 16.0059V13.6719C19.9932 12.4223 18.9801 11.4092 17.7305 11.4092C16.4808 11.4092 15.4678 12.4222 15.4678 13.6719V16.0059ZM10.0303 15.8486C10.0301 17.9265 8.34552 19.6113 6.26758 19.6113C4.1896 19.6113 2.50504 17.9266 2.50488 15.8486V14.6748C2.50195 14.6478 2.5 14.6205 2.5 14.5928V11.9629C2.5 6.7173 6.75245 2.46484 11.998 2.46484C17.2436 2.46488 21.4961 6.71732 21.4961 11.9629V14.458C21.4961 14.4771 21.4946 14.4959 21.4932 14.5146V16.0059C21.4932 16.6506 21.3307 17.2576 21.0449 17.7881C19.9845 19.9447 17.2309 21.5361 13.9814 21.5361C13.5672 21.5361 13.2314 21.2003 13.2314 20.7861C13.2315 20.372 13.5673 20.0361 13.9814 20.0361C14.9501 20.0361 15.8351 19.8731 16.6113 19.5996C15.0797 19.1232 13.9678 17.6943 13.9678 16.0059V13.6719C13.9678 11.5938 15.6524 9.90918 17.7305 9.90918C18.5273 9.9092 19.2657 10.1575 19.874 10.5801C19.2188 6.82218 15.9435 3.96487 11.998 3.96484C8.11523 3.96484 4.87858 6.73172 4.15234 10.4014C4.75509 9.99097 5.4834 9.75098 6.26758 9.75098C8.34554 9.75103 10.0302 11.4357 10.0303 13.5137V15.8486Z" fill="#737985"/>
</svg>
