<svg width="24" height="24" viewBox="0 0 24 24" fill="none" xmlns="http://www.w3.org/2000/svg">
<path d="M15.2256 21V20.4902C15.2256 20.0578 15.2244 19.7779 15.207 19.5654C15.1904 19.3619 15.1624 19.2861 15.1436 19.249C15.0716 19.108 14.9565 18.9937 14.8154 18.9219C14.7783 18.903 14.7024 18.874 14.499 18.8574C14.2866 18.8401 14.0073 18.8398 13.5752 18.8398H10.3926C9.96017 18.8398 9.68028 18.8401 9.46778 18.8574C9.26423 18.8741 9.18844 18.903 9.15137 18.9219C9.01055 18.9937 8.89608 19.1082 8.82423 19.249C8.80534 19.2861 8.77642 19.3619 8.75977 19.5654C8.74241 19.7779 8.74219 20.0578 8.74219 20.4902V20.959C8.7421 21.3731 8.40635 21.709 7.99219 21.709C7.57804 21.709 7.24229 21.3731 7.24219 20.959V20.4902C7.24219 20.0826 7.24115 19.7311 7.26466 19.4434C7.28889 19.1469 7.34276 18.8521 7.48731 18.5684C7.70303 18.145 8.04735 17.8007 8.47071 17.585C8.75443 17.4404 9.04928 17.3865 9.34571 17.3623C9.63346 17.3388 9.98492 17.3398 10.3926 17.3398H13.5752C13.9829 17.3398 14.3343 17.3388 14.6221 17.3623C14.9185 17.3865 15.2134 17.4404 15.4971 17.585C15.9204 17.8007 16.2648 18.145 16.4805 18.5684C16.625 18.852 16.6779 19.147 16.7022 19.4434C16.7257 19.7311 16.7256 20.0826 16.7256 20.4902V21C16.7256 21.4141 16.3897 21.7499 15.9756 21.75C15.5614 21.75 15.2256 21.4142 15.2256 21ZM13.3018 13.373C13.3018 13.0415 13.17 12.7237 12.9356 12.4893C12.7011 12.2548 12.3833 12.123 12.0518 12.123C11.7202 12.123 11.4024 12.2548 11.168 12.4893C10.9336 12.7237 10.8018 13.0415 10.8018 13.373C10.8018 13.7046 10.9336 14.0224 11.168 14.2568C11.4024 14.4913 11.7202 14.623 12.0518 14.623C12.3833 14.623 12.7011 14.4913 12.9356 14.2568C13.17 14.0224 13.3018 13.7046 13.3018 13.373ZM2.21094 13.9316V12.3408C2.21094 11.9332 2.2099 11.5817 2.23341 11.2939C2.25764 10.9975 2.31151 10.7027 2.45606 10.4189C2.67178 9.99558 3.0161 9.65126 3.43946 9.43555C3.72318 9.291 4.01803 9.23712 4.31446 9.21289C4.60221 9.18938 4.95367 9.19043 5.36134 9.19043H8.25977C8.67386 9.19058 9.00977 9.52631 9.00977 9.94043C9.00977 10.3546 8.67386 10.6903 8.25977 10.6904H5.36134C4.92892 10.6904 4.64903 10.6906 4.43653 10.708C4.23298 10.7247 4.15719 10.7536 4.12012 10.7725C3.9793 10.8443 3.86483 10.9588 3.79298 11.0996C3.77409 11.1367 3.74517 11.2125 3.72852 11.416C3.71116 11.6285 3.71094 11.9084 3.71094 12.3408V13.9316C3.71094 14.3459 3.37516 14.6816 2.96094 14.6816C2.54673 14.6816 2.21094 14.3459 2.21094 13.9316ZM20.3359 13.9316V12.3408C20.3359 11.9084 20.3348 11.6285 20.3174 11.416C20.3007 11.2126 20.2728 11.1367 20.2539 11.0996C20.182 10.9586 20.0668 10.8443 19.9258 10.7725C19.8886 10.7536 19.8127 10.7246 19.6094 10.708C19.3969 10.6907 19.1176 10.6904 18.6856 10.6904H15.7881C15.3741 10.6902 15.0381 10.3545 15.0381 9.94043C15.0381 9.52638 15.3741 9.19066 15.7881 9.19043H18.6856C19.0932 9.19043 19.4447 9.19036 19.7324 9.21387C20.0288 9.23811 20.3238 9.29103 20.6074 9.43555C21.0307 9.65127 21.3751 9.99562 21.5908 10.4189C21.7353 10.7026 21.7883 10.9976 21.8125 11.2939C21.836 11.5817 21.8359 11.9332 21.8359 12.3408V13.9316C21.8359 14.3458 21.5001 14.6815 21.0859 14.6816C20.6717 14.6816 20.3359 14.3459 20.3359 13.9316ZM8.25001 5C8.25001 4.66848 8.11822 4.35063 7.8838 4.11621C7.64938 3.88179 7.33153 3.75 7.00001 3.75C6.66849 3.75 6.35064 3.88179 6.11622 4.11621C5.8818 4.35063 5.75001 4.66848 5.75001 5C5.75001 5.33152 5.8818 5.64937 6.11622 5.88379C6.35064 6.11821 6.66849 6.25 7.00001 6.25C7.33153 6.25 7.64938 6.11821 7.8838 5.88379C8.11822 5.64937 8.25001 5.33152 8.25001 5ZM18.25 5C18.25 4.66848 18.1182 4.35063 17.8838 4.11621C17.6494 3.88179 17.3315 3.75 17 3.75C16.6685 3.75 16.3506 3.88179 16.1162 4.11621C15.8818 4.35063 15.75 4.66848 15.75 5C15.75 5.33152 15.8818 5.64937 16.1162 5.88379C16.3506 6.11821 16.6685 6.25 17 6.25C17.3315 6.25 17.6494 6.11821 17.8838 5.88379C18.1182 5.64937 18.25 5.33152 18.25 5ZM14.8018 13.373C14.8018 14.1024 14.5118 14.8017 13.9961 15.3174C13.4804 15.8331 12.7811 16.123 12.0518 16.123C11.3224 16.123 10.6232 15.8331 10.1074 15.3174C9.5917 14.8017 9.30176 14.1024 9.30176 13.373C9.30176 12.6437 9.5917 11.9444 10.1074 11.4287C10.6232 10.913 11.3224 10.623 12.0518 10.623C12.7811 10.623 13.4804 10.913 13.9961 11.4287C14.5118 11.9444 14.8018 12.6437 14.8018 13.373ZM9.75001 5C9.75001 5.72935 9.46007 6.42861 8.94434 6.94434C8.42862 7.46006 7.72935 7.75 7.00001 7.75C6.27066 7.75 5.5714 7.46006 5.05567 6.94434C4.53995 6.42861 4.25001 5.72935 4.25001 5C4.25001 4.27065 4.53995 3.57139 5.05567 3.05566C5.5714 2.53994 6.27066 2.25 7.00001 2.25C7.72935 2.25 8.42862 2.53994 8.94434 3.05566C9.46007 3.57139 9.75001 4.27065 9.75001 5ZM19.75 5C19.75 5.72935 19.4601 6.42861 18.9443 6.94434C18.4286 7.46006 17.7294 7.75 17 7.75C16.2707 7.75 15.5714 7.46006 15.0557 6.94434C14.5399 6.42861 14.25 5.72935 14.25 5C14.25 4.27065 14.5399 3.57139 15.0557 3.05566C15.5714 2.53994 16.2707 2.25 17 2.25C17.7294 2.25 18.4286 2.53994 18.9443 3.05566C19.4601 3.57139 19.75 4.27065 19.75 5Z" fill="#737985"/>
</svg>
