<svg width="24" height="24" viewBox="0 0 24 24" fill="none" xmlns="http://www.w3.org/2000/svg">
<path d="M18.5565 5.35201C18.9674 5.34715 19.3212 5.34243 19.6112 5.36276C19.9098 5.38369 20.2071 5.43477 20.494 5.5776C20.9216 5.79053 21.2707 6.13374 21.4901 6.55807C21.6371 6.84268 21.6922 7.13973 21.7176 7.43795C21.7423 7.7276 21.7427 8.08171 21.744 8.49264L21.7459 9.09127C21.7472 9.49994 21.7491 9.85165 21.7264 10.1401C21.703 10.4374 21.65 10.7333 21.5057 11.018C21.2905 11.4426 20.9461 11.7878 20.5223 12.0044C20.2381 12.1495 19.9424 12.2037 19.6453 12.228C19.3569 12.2516 19.0044 12.2505 18.5955 12.2505H10.7625C10.3483 12.2505 10.0125 11.9147 10.0125 11.5005C10.0127 11.0864 10.3484 10.7505 10.7625 10.7505H18.5955C19.0289 10.7505 19.3092 10.7503 19.5223 10.7329C19.7266 10.7162 19.8026 10.6874 19.8397 10.6684C19.981 10.5962 20.0961 10.4809 20.1678 10.3393C20.1866 10.302 20.2143 10.2257 20.2303 10.0219C20.247 9.80883 20.2473 9.5285 20.2459 9.09518L20.244 8.49752C20.2426 8.06197 20.2417 7.77999 20.2235 7.56588C20.206 7.36057 20.1762 7.28459 20.1571 7.24752C20.084 7.10618 19.9684 6.99139 19.826 6.92037C19.7887 6.9018 19.712 6.87425 19.5067 6.85983C19.2923 6.8448 19.0098 6.84685 18.574 6.85201L18.3729 6.85494C17.9587 6.85985 17.619 6.52787 17.6141 6.11373C17.6092 5.69955 17.9411 5.35985 18.3553 5.35494L18.5565 5.35201Z" fill="#737985"/>
<path d="M17.3237 5.4668C17.3237 5.03439 17.3235 4.7545 17.3061 4.542C17.2895 4.33847 17.2615 4.26266 17.2427 4.22559C17.1708 4.08456 17.0556 3.97033 16.9145 3.89844C16.8774 3.87955 16.8019 3.85064 16.5981 3.83399C16.3857 3.81664 16.1065 3.81641 15.6743 3.81641H5.40379C4.97137 3.81641 4.69148 3.81663 4.47898 3.83399C4.27543 3.85064 4.19964 3.87956 4.16257 3.89844C4.02175 3.9703 3.90728 4.08477 3.83543 4.22559C3.81654 4.26266 3.78762 4.33845 3.77097 4.542C3.75361 4.7545 3.75339 5.03439 3.75339 5.4668V6.49317C3.75339 6.92527 3.75365 7.20456 3.77097 7.417C3.78759 7.62036 3.81653 7.69625 3.83543 7.73341C3.90728 7.87443 4.02158 7.98962 4.16257 8.06153C4.19964 8.08042 4.27547 8.10836 4.47898 8.12501C4.69148 8.14237 4.97137 8.14356 5.40379 8.14356H15.6743C16.1066 8.14356 16.3857 8.14236 16.5981 8.12501C16.8019 8.10836 16.8774 8.08043 16.9145 8.06153C17.0556 7.98963 17.1707 7.87453 17.2427 7.73341C17.2615 7.69616 17.2895 7.61991 17.3061 7.417C17.3235 7.20455 17.3237 6.92529 17.3237 6.49317V5.4668ZM18.8237 6.49317C18.8237 6.90084 18.8248 7.25229 18.8012 7.54005C18.777 7.83641 18.7231 8.1314 18.5786 8.41505C18.3629 8.83828 18.0185 9.18278 17.5952 9.39844C17.3115 9.54288 17.0166 9.59591 16.7202 9.62012C16.4325 9.64362 16.0818 9.64356 15.6743 9.64356H5.40379C4.99612 9.64356 4.64466 9.64363 4.35691 9.62012C4.06053 9.59589 3.76558 9.54295 3.48191 9.39844C3.05859 9.18275 2.71423 8.83834 2.49851 8.41505C2.35398 8.13139 2.3001 7.83642 2.27586 7.54005C2.25235 7.25229 2.25339 6.90084 2.25339 6.49317V5.4668C2.25339 5.05914 2.25235 4.70768 2.27586 4.41993C2.30009 4.12349 2.35396 3.82864 2.49851 3.54493C2.71423 3.12156 3.05855 2.77725 3.48191 2.56153C3.76563 2.41698 4.06048 2.36311 4.35691 2.33887C4.64466 2.31536 4.99612 2.31641 5.40379 2.31641H15.6743C16.0818 2.31641 16.4325 2.31538 16.7202 2.33887C17.0166 2.36309 17.3115 2.41706 17.5952 2.56153C18.0185 2.77723 18.3629 3.12161 18.5786 3.54493C18.7232 3.82865 18.777 4.12349 18.8012 4.41993C18.8248 4.70768 18.8237 5.05914 18.8237 5.4668V6.49317Z" fill="#737985"/>
<path d="M12.022 16.1709C12.022 15.8424 12.0214 15.6304 12.0113 15.4677C12.0015 15.311 11.9849 15.2503 11.9742 15.2216C11.8981 15.0191 11.7383 14.8592 11.5357 14.7832C11.507 14.7724 11.4463 14.7558 11.2896 14.7461C11.1269 14.7359 10.9148 14.7353 10.5865 14.7353C10.258 14.7353 10.046 14.7359 9.88333 14.7461C9.7266 14.7558 9.66587 14.7724 9.63724 14.7832C9.43468 14.8592 9.27483 15.0191 9.19876 15.2216C9.18802 15.2503 9.17144 15.311 9.16165 15.4677C9.15152 15.6304 9.15091 15.8425 9.15091 16.1709V18.748C9.15091 19.0764 9.15152 19.2885 9.16165 19.4511C9.17144 19.6079 9.18802 19.6686 9.19876 19.6972C9.2748 19.8998 9.43466 20.0596 9.63724 20.1357C9.66587 20.1465 9.7266 20.163 9.88333 20.1728C10.046 20.183 10.258 20.1836 10.5865 20.1836C10.9148 20.1836 11.1269 20.183 11.2896 20.1728C11.4463 20.163 11.507 20.1465 11.5357 20.1357C11.7383 20.0596 11.8981 19.8999 11.9742 19.6972C11.9849 19.6686 12.0015 19.6079 12.0113 19.4511C12.0214 19.2885 12.022 19.0764 12.022 18.748V16.1709ZM13.522 18.748C13.522 19.0579 13.5221 19.3246 13.5083 19.5449C13.4942 19.7711 13.4633 19.9984 13.3785 20.2246C13.1503 20.8323 12.6708 21.3118 12.063 21.54C11.8368 21.6249 11.6096 21.6558 11.3833 21.6699C11.1631 21.6836 10.8963 21.6836 10.5865 21.6836C10.2766 21.6836 10.0098 21.6836 9.78958 21.6699C9.56347 21.6558 9.33695 21.6248 9.11087 21.54C8.50292 21.3119 8.02271 20.8325 7.79447 20.2246C7.70959 19.9984 7.67871 19.7711 7.66458 19.5449C7.65084 19.3246 7.65091 19.0579 7.65091 18.748V16.1709C7.65091 15.861 7.65084 15.5942 7.66458 15.374C7.6787 15.1479 7.70969 14.9213 7.79447 14.6953C8.02265 14.0872 8.50279 13.6071 9.11087 13.3789C9.33693 13.2941 9.56348 13.2631 9.78958 13.249C10.0098 13.2352 10.2766 13.2353 10.5865 13.2353C10.8963 13.2353 11.1631 13.2352 11.3833 13.249C11.6096 13.2631 11.8368 13.294 12.063 13.3789C12.6709 13.6071 13.1503 14.0873 13.3785 14.6953C13.4632 14.9214 13.4942 15.1479 13.5083 15.374C13.5221 15.5942 13.522 15.861 13.522 16.1709V18.748Z" fill="#737985"/>
<path d="M11.516 11.5073C11.516 11.6917 11.4467 11.8582 11.3363 11.9888L11.3363 13.8159C11.3362 14.23 11.0005 14.5659 10.5863 14.5659C10.1723 14.5658 9.83648 14.23 9.83635 13.8159V11.687C9.83635 11.1737 10.2527 10.7573 10.766 10.7573C11.1802 10.7573 11.516 11.0931 11.516 11.5073Z" fill="#737985"/>
</svg>
