<svg width="24" height="24" viewBox="0 0 24 24" fill="none" xmlns="http://www.w3.org/2000/svg">
<path d="M5.52047 4.8226C5.81329 4.52977 6.28811 4.5299 6.58102 4.8226C6.87391 5.11549 6.87391 5.59025 6.58102 5.88314L4.67476 7.79037C4.38197 8.08317 3.90713 8.08298 3.61422 7.79037L2.46969 6.64584C2.17684 6.35294 2.17681 5.87817 2.46969 5.58529C2.76257 5.29247 3.23735 5.29247 3.53023 5.58529L4.14351 6.19857L5.52047 4.8226Z" fill="#737985"/>
<path d="M21.0004 5.55637C21.4144 5.5566 21.7504 5.8923 21.7504 6.30637C21.7504 6.72043 21.4144 7.05613 21.0004 7.05637H9.82457C9.41036 7.05637 9.07457 6.72058 9.07457 6.30637C9.07457 5.89215 9.41036 5.55637 9.82457 5.55637H21.0004Z" fill="#737985"/>
<path d="M5.52043 10.1621C5.81325 9.86932 6.28806 9.86945 6.58097 10.1621C6.87387 10.455 6.87387 10.9298 6.58097 11.2227L4.67472 13.1299C4.38193 13.4227 3.90709 13.4225 3.61418 13.1299L2.46964 11.9854C2.1768 11.6925 2.17677 11.2177 2.46964 10.9248C2.76253 10.632 3.23731 10.632 3.53019 10.9248L4.14347 11.5381L5.52043 10.1621Z" fill="#737985"/>
<path d="M21.0004 10.8959C21.4144 10.8962 21.7504 11.2319 21.7504 11.6459C21.7504 12.06 21.4144 12.3957 21.0004 12.3959H9.82457C9.41036 12.3959 9.07457 12.0601 9.07457 11.6459C9.07457 11.2317 9.41036 10.8959 9.82457 10.8959H21.0004Z" fill="#737985"/>
<path d="M5.04323 17.3396C5.04323 17.0316 4.79357 16.782 4.48562 16.782C4.17766 16.782 3.928 17.0316 3.928 17.3396C3.928 17.6475 4.17766 17.8972 4.48562 17.8972C4.79357 17.8972 5.04323 17.6475 5.04323 17.3396ZM6.54323 17.3396C6.54323 18.476 5.622 19.3972 4.48562 19.3972C3.34923 19.3972 2.428 18.476 2.428 17.3396C2.428 16.2032 3.34923 15.282 4.48562 15.282C5.622 15.282 6.54323 16.2032 6.54323 17.3396Z" fill="#737985"/>
<path d="M21.0004 16.5896C21.4144 16.5898 21.7504 16.9255 21.7504 17.3396C21.7504 17.7537 21.4144 18.0893 21.0004 18.0896H9.82457C9.41036 18.0896 9.07457 17.7538 9.07457 17.3396C9.07457 16.9254 9.41036 16.5896 9.82457 16.5896H21.0004Z" fill="#737985"/>
</svg>
