<svg width="24" height="24" viewBox="0 0 24 24" fill="none" xmlns="http://www.w3.org/2000/svg">
<path d="M4.8877 7.4043C5.42352 7.28573 6.01121 7.45066 6.43262 7.87207L8.05664 9.4961C8.10349 9.54275 8.16727 9.56934 8.2334 9.56934H9.31934C9.45706 9.5691 9.5691 9.45706 9.56934 9.31934V8.2334C9.56934 8.16727 9.54275 8.10349 9.4961 8.05664L7.87207 6.43262C7.45066 6.01121 7.28573 5.42352 7.4043 4.8877C7.52802 4.32931 7.96187 3.84926 8.62598 3.74024C9.25275 3.63739 9.89588 3.6384 10.5293 3.74707C11.7012 3.94815 12.7823 4.50784 13.623 5.34864C14.4636 6.18933 15.0235 7.26969 15.2246 8.44141C15.3796 9.34488 15.3151 10.2685 15.043 11.1357C14.9813 11.3323 15.0376 11.476 15.0996 11.5381L19.5996 16.0381C20.0718 16.5103 20.3369 17.1516 20.3369 17.8193C20.3368 18.4869 20.0717 19.1275 19.5996 19.5996C19.1275 20.0717 18.4869 20.3368 17.8193 20.3369C17.1516 20.3369 16.5103 20.0718 16.0381 19.5996L11.5381 15.0996C11.476 15.0376 11.3323 14.9813 11.1357 15.043C10.2685 15.3151 9.34488 15.3796 8.44141 15.2246C7.26969 15.0235 6.18933 14.4636 5.34863 13.623C4.50784 12.7823 3.94815 11.7012 3.74707 10.5293C3.6384 9.89588 3.63739 9.25275 3.74024 8.62598C3.84926 7.96187 4.32931 7.52802 4.8877 7.4043ZM11.0693 9.31934C11.0691 10.2855 10.2855 11.0691 9.31934 11.0693H8.2334C7.76945 11.0693 7.32425 10.8846 6.9961 10.5566L5.37207 8.93262C5.31055 8.8711 5.24788 8.86452 5.21875 8.86817C5.1427 9.33146 5.14529 9.8072 5.22559 10.2754C5.37421 11.1416 5.78772 11.941 6.40918 12.5625C7.03059 13.1838 7.82924 13.5975 8.69531 13.7461C9.36301 13.8607 10.0456 13.8134 10.6865 13.6123C11.2986 13.4202 12.0624 13.5009 12.5996 14.0381L17.0996 18.5381C17.2905 18.729 17.5494 18.8369 17.8193 18.8369C18.0891 18.8368 18.3473 18.7289 18.5381 18.5381C18.7289 18.3473 18.8368 18.0891 18.8369 17.8193C18.8369 17.5494 18.729 17.2905 18.5381 17.0996L14.0381 12.5996C13.5009 12.0624 13.4202 11.2986 13.6123 10.6865C13.8134 10.0456 13.8607 9.36301 13.7461 8.69531C13.5975 7.82924 13.1838 7.03059 12.5625 6.40918C11.941 5.78772 11.1416 5.37421 10.2754 5.22559C9.8072 5.14529 9.33146 5.1427 8.86817 5.21875C8.86452 5.24788 8.8711 5.31055 8.93262 5.37207L10.5566 6.9961C10.8846 7.32425 11.0693 7.76945 11.0693 8.2334V9.31934Z" fill="#737985"/>
</svg>
