<svg width="24" height="24" viewBox="0 0 24 24" fill="none" xmlns="http://www.w3.org/2000/svg">
<path d="M18.813 12.5727C18.813 12.1241 18.8125 11.8342 18.7945 11.6137C18.7772 11.4024 18.7476 11.3241 18.728 11.2856C18.6535 11.1393 18.5345 11.0204 18.3882 10.9458C18.3498 10.9262 18.2712 10.8966 18.0601 10.8794C17.8396 10.8613 17.5496 10.8608 17.1011 10.8608H6.89895C6.4503 10.8608 6.16045 10.8613 5.93996 10.8794C5.72867 10.8966 5.65031 10.9262 5.61184 10.9458C5.46549 11.0204 5.34659 11.1393 5.27199 11.2856C5.25239 11.3241 5.22286 11.4024 5.20559 11.6137C5.18757 11.8342 5.18703 12.1241 5.18703 12.5727V18.6674C5.18703 19.1161 5.18757 19.4059 5.20559 19.6264C5.22286 19.8378 5.25239 19.9161 5.27199 19.9545C5.34658 20.1009 5.46548 20.2198 5.61184 20.2944C5.6503 20.314 5.72868 20.3435 5.93996 20.3608C6.16045 20.3788 6.4503 20.3794 6.89895 20.3794H17.1011C17.5496 20.3794 17.8396 20.3788 18.0601 20.3608C18.2712 20.3435 18.3498 20.314 18.3882 20.2944C18.5345 20.2198 18.6535 20.1009 18.728 19.9545C18.7477 19.916 18.7772 19.8377 18.7945 19.6264C18.8125 19.4059 18.813 19.1161 18.813 18.6674V12.5727ZM20.3696 18.6674C20.3696 19.0904 20.3696 19.4548 20.3452 19.7534C20.3201 20.0609 20.2648 20.3672 20.1148 20.6616C19.8909 21.1007 19.5335 21.4573 19.0943 21.6811C18.7998 21.8311 18.4937 21.8874 18.1861 21.9126C17.8876 21.9369 17.5238 21.936 17.1011 21.936H6.89895C6.47597 21.936 6.11157 21.937 5.81301 21.9126C5.50546 21.8874 5.19916 21.8311 4.90481 21.6811C4.46588 21.4573 4.10903 21.1005 3.88527 20.6616C3.73528 20.3672 3.67898 20.061 3.65383 19.7534C3.62943 19.4548 3.63039 19.0904 3.63039 18.6674V12.5727C3.63039 12.1497 3.62944 11.7853 3.65383 11.4868C3.67898 11.1792 3.73529 10.8729 3.88527 10.5786C4.10904 10.1397 4.46589 9.78281 4.90481 9.55904C5.19916 9.40906 5.50545 9.35275 5.81301 9.3276C6.11157 9.3032 6.47597 9.30416 6.89895 9.30416H17.1011C17.5238 9.30416 17.8876 9.30324 18.1861 9.3276C18.4937 9.35273 18.7998 9.40904 19.0943 9.55904C19.5334 9.78281 19.8909 10.1394 20.1148 10.5786C20.2647 10.8729 20.3201 11.1792 20.3452 11.4868C20.3696 11.7853 20.3696 12.1497 20.3696 12.5727V18.6674Z" fill="#737985"/>
<path d="M14.9799 7.1665V6.6001C14.9796 4.95447 13.6451 3.62061 11.9994 3.62061C10.354 3.62086 9.02018 4.95463 9.01993 6.6001V9.55518C9.01993 9.98498 8.67141 10.3335 8.24161 10.3335C7.81181 10.3335 7.46329 9.98498 7.46329 9.55518V6.6001C7.46354 4.09503 9.49435 2.06421 11.9994 2.06396C14.5047 2.06396 16.5363 4.09487 16.5365 6.6001V7.1665C16.5364 7.59614 16.1879 7.9448 15.7582 7.94482C15.3285 7.94482 14.9801 7.59616 14.9799 7.1665Z" fill="#737985"/>
<path d="M13.1368 14.7068C13.1368 14.0787 12.6281 13.5692 12.0001 13.5691C11.372 13.5691 10.8624 14.0787 10.8624 14.7068C10.8624 15.127 11.0905 15.4947 11.4317 15.6921C11.592 15.7849 11.6905 15.9562 11.6905 16.1413V17.6863C11.6905 17.7045 11.7054 17.7194 11.7237 17.7195H12.2755C12.2938 17.7195 12.3087 17.7046 12.3087 17.6863V16.1413C12.3087 15.9561 12.4081 15.7849 12.5684 15.6921C12.9096 15.4947 13.1367 15.1269 13.1368 14.7068ZM14.1749 14.7068C14.1748 15.3994 13.8499 16.0151 13.3467 16.4128V17.6863C13.3467 18.2777 12.8669 18.7576 12.2755 18.7576H11.7237C11.1324 18.7575 10.6534 18.2776 10.6534 17.6863V16.4128C10.1501 16.0151 9.82531 15.3995 9.82526 14.7068C9.82526 13.5056 10.7989 12.532 12.0001 12.532C13.2011 12.5321 14.1749 13.5057 14.1749 14.7068Z" fill="#737985"/>
</svg>
