<svg width="24" height="24" viewBox="0 0 24 24" fill="none" xmlns="http://www.w3.org/2000/svg">
<path d="M11.2449 9.14921C11.2449 8.735 11.5806 8.39921 11.9949 8.39921C12.4091 8.39921 12.7449 8.735 12.7449 9.14921V12.8494L14.53 14.6346C14.8229 14.9275 14.8229 15.4022 14.53 15.6951C14.2371 15.9878 13.7623 15.9879 13.4695 15.6951L11.4646 13.6902C11.324 13.5497 11.245 13.3587 11.2449 13.16V9.14921Z" fill="#737985"/>
<path d="M21.75 3.89139V8.90409C21.75 9.3183 21.4142 9.65409 21 9.65409H15.9873C15.5731 9.65409 15.2373 9.3183 15.2373 8.90409C15.2373 8.48988 15.5731 8.15409 15.9873 8.15409H19.3477C18.5823 6.69635 17.3949 5.49196 15.9287 4.70682C14.1367 3.74722 12.0539 3.48094 10.0781 3.95878C8.1025 4.43667 6.37219 5.62531 5.21682 7.29764C4.0614 8.97005 3.56139 11.0091 3.8135 13.0262C4.06563 15.0432 5.05243 16.8966 6.584 18.2332C8.11555 19.5697 10.0856 20.2955 12.1182 20.2723C14.1506 20.2489 16.103 19.4783 17.6035 18.1072C19.1041 16.7361 20.0479 14.8609 20.2539 12.8387C20.2959 12.4266 20.6641 12.1268 21.0762 12.1687C21.488 12.2108 21.7879 12.5782 21.7461 12.99C21.5028 15.3788 20.3887 17.5949 18.6162 19.2146C16.8435 20.8344 14.5359 21.7448 12.1348 21.7723C9.73387 21.7997 7.40684 20.9427 5.59768 19.364C3.78852 17.7853 2.62314 15.5953 2.32521 13.2127C2.02738 10.83 2.6176 8.42073 3.98244 6.44511C5.34732 4.46953 7.39171 3.06529 9.72561 2.50077C12.0596 1.9363 14.5199 2.251 16.6367 3.38456C18.1174 4.17745 19.3563 5.33299 20.25 6.72733V3.89139C20.25 3.47718 20.5858 3.14139 21 3.14139C21.4142 3.14139 21.75 3.47718 21.75 3.89139Z" fill="#737985"/>
</svg>
