<svg width="24" height="24" viewBox="0 0 24 24" fill="none" xmlns="http://www.w3.org/2000/svg">
<path d="M20.2501 13.597V5.11072C20.2501 4.6965 19.9143 4.36072 19.5001 4.36072H4.50006C4.08585 4.36072 3.75006 4.6965 3.75006 5.11072V18.1107C3.75006 18.5249 4.08585 18.8607 4.50006 18.8607H11.2374C11.6516 18.8607 11.9874 19.1965 11.9874 19.6107C11.9874 20.0249 11.6516 20.3607 11.2374 20.3607H4.50006C3.25742 20.3607 2.25006 19.3534 2.25006 18.1107V5.11072C2.25006 3.86808 3.25742 2.86072 4.50006 2.86072H19.5001C20.7427 2.86072 21.7501 3.86808 21.7501 5.11072V13.597C21.7501 14.0113 21.4143 14.347 21.0001 14.347C20.5858 14.347 20.2501 14.0113 20.2501 13.597Z" fill="#737985"/>
<path d="M20.928 10.9107V12.4107H3.07256V10.9107H20.928Z" fill="#737985"/>
<path d="M18.0001 6.86072C18.4143 6.86072 18.7501 7.1965 18.7501 7.61072C18.7501 8.02493 18.4143 8.36072 18.0001 8.36072H13.5001C13.0858 8.36072 12.7501 8.02493 12.7501 7.61072C12.7501 7.1965 13.0858 6.86072 13.5001 6.86072H18.0001Z" fill="#737985"/>
<path d="M5.25006 6.61072C5.25006 6.1965 5.58585 5.86072 6.00006 5.86072C6.41427 5.86072 6.75006 6.1965 6.75006 6.61072V8.61072C6.75006 9.02493 6.41427 9.36072 6.00006 9.36072C5.58585 9.36072 5.25006 9.02493 5.25006 8.61072L5.25006 6.61072Z" fill="#737985"/>
<path d="M8.25006 6.61072C8.25006 6.1965 8.58585 5.86072 9.00006 5.86072C9.41427 5.86072 9.75006 6.1965 9.75006 6.61072V8.61072C9.75006 9.02493 9.41427 9.36072 9.00006 9.36072C8.58585 9.36072 8.25006 9.02493 8.25006 8.61072V6.61072Z" fill="#737985"/>
<path d="M5.25006 14.6107C5.25006 14.1965 5.58585 13.8607 6.00006 13.8607C6.41427 13.8607 6.75006 14.1965 6.75006 14.6107V16.6107C6.75006 17.0249 6.41427 17.3607 6.00006 17.3607C5.58585 17.3607 5.25006 17.0249 5.25006 16.6107L5.25006 14.6107Z" fill="#737985"/>
<path d="M8.25006 14.6107C8.25006 14.1965 8.58585 13.8607 9.00006 13.8607C9.41427 13.8607 9.75006 14.1965 9.75006 14.6107V16.6107C9.75006 17.0249 9.41427 17.3607 9.00006 17.3607C8.58585 17.3607 8.25006 17.0249 8.25006 16.6107V14.6107Z" fill="#737985"/>
<path d="M14.9056 13.8559C15.6563 13.4222 16.5292 13.247 17.389 13.3579C18.249 13.4688 19.0493 13.8601 19.6654 14.4702C20.1145 14.915 20.448 15.4585 20.642 16.0532C20.749 16.3813 20.5697 16.7342 20.2416 16.8413C19.9134 16.9483 19.5605 16.769 19.4535 16.4409C19.3209 16.0341 19.0927 15.6621 18.7855 15.3579C18.3644 14.9408 17.8177 14.6741 17.2299 14.5981C16.6419 14.5223 16.0449 14.6415 15.5316 14.938C15.3239 15.058 15.1352 15.2056 14.9681 15.3735H15.2494C15.5944 15.3735 15.8742 15.6535 15.8744 15.9985C15.8744 16.3437 15.5946 16.6235 15.2494 16.6235H13.8236C13.8174 16.6236 13.8113 16.6236 13.8051 16.6235H13.6058C13.2607 16.6235 12.9808 16.3437 12.9808 15.9985V14.3549C12.9811 14.01 13.2608 13.7299 13.6058 13.7299C13.9499 13.7299 14.228 14.0084 14.2299 14.352C14.4363 14.1648 14.6615 13.997 14.9056 13.8559Z" fill="#737985"/>
<path d="M13.5375 17.5581C13.8676 17.4577 14.2163 17.644 14.3168 17.9741C14.4467 18.4005 14.6815 18.7902 15.0013 19.1069C15.4226 19.524 15.969 19.7918 16.557 19.8676C17.145 19.9435 17.7419 19.8234 18.2552 19.5268C18.4631 19.4067 18.6516 19.2593 18.8187 19.0913H18.5375C18.1923 19.0913 17.9125 18.8114 17.9125 18.4663C17.9125 18.1211 18.1923 17.8413 18.5375 17.8413H20.181C20.526 17.8415 20.806 18.1212 20.806 18.4663V20.1098C20.806 20.4548 20.526 20.7346 20.181 20.7348C19.8365 20.7348 19.5571 20.456 19.556 20.1118C19.3494 20.2992 19.1246 20.4677 18.8802 20.6089C18.1294 21.0426 17.2568 21.2179 16.3969 21.1069C15.5371 20.9959 14.7375 20.6055 14.1215 19.9956C13.6536 19.5322 13.3114 18.9611 13.1215 18.3374C13.0211 18.0073 13.2074 17.6586 13.5375 17.5581Z" fill="#737985"/>
</svg>
