<svg width="24" height="24" viewBox="0 0 24 24" fill="none" xmlns="http://www.w3.org/2000/svg">
<path d="M11.2507 8.39653C11.2507 7.98231 11.5865 7.64653 12.0007 7.64653C12.4149 7.64653 12.7507 7.98231 12.7507 8.39653V11.6856L13.8806 12.8155C14.1735 13.1084 14.1735 13.5841 13.8806 13.877C13.5877 14.1694 13.1128 14.1696 12.8201 13.877L11.4705 12.5264C11.3299 12.3858 11.2507 12.195 11.2507 11.9961V8.39653Z" fill="#737985"/>
<path d="M21.1141 18.8216C21.7337 18.3263 21.7338 17.3706 21.1141 16.8753L20.9716 16.7767L16.8456 14.3011C15.8505 13.7041 14.6496 14.667 15.0165 15.7679L15.7108 17.849L15.0165 19.929C14.6495 21.03 15.8505 21.9929 16.8456 21.3958L20.9716 18.9203L21.1141 18.8216ZM16.6532 19.763L17.1591 18.2435L17.1874 18.1468C17.2355 17.9508 17.2356 17.7461 17.1874 17.5501L17.1591 17.4535L16.6532 15.9349L19.8436 17.849L16.6532 19.763Z" fill="#737985"/>
<path d="M20.2495 11.9996C20.2493 7.44379 16.5554 3.75061 11.9995 3.75061C7.44379 3.75081 3.75069 7.44391 3.75049 11.9996C3.75049 16.5555 7.44367 20.2494 11.9995 20.2496C12.2858 20.2496 12.5689 20.235 12.8472 20.2067C13.2592 20.1646 13.6274 20.4645 13.6694 20.8766C13.7114 21.2886 13.4115 21.6568 12.9995 21.6989C12.6707 21.7324 12.3367 21.7496 11.9995 21.7496C6.61524 21.7494 2.25049 17.3839 2.25049 11.9996C2.25069 6.61548 6.61536 2.25081 11.9995 2.25061C17.3838 2.25061 21.7493 6.61536 21.7495 11.9996C21.7495 12.6664 21.6821 13.3186 21.5542 13.9489C21.4719 14.3547 21.0763 14.617 20.6704 14.5348C20.2645 14.4524 20.0022 14.0569 20.0845 13.651C20.1926 13.1182 20.2495 12.5656 20.2495 11.9996Z" fill="#737985"/>
</svg>
