<svg width="24" height="24" viewBox="0 0 24 24" fill="none" xmlns="http://www.w3.org/2000/svg">
<path d="M11.4967 2.90393C11.7913 2.66362 12.226 2.68108 12.5006 2.95568L17.5006 7.95568C17.7935 8.24858 17.7935 8.72334 17.5006 9.01623C17.2077 9.30912 16.733 9.30912 16.4401 9.01623L11.9704 4.5465L7.50063 9.01623C7.20774 9.30912 6.73298 9.30912 6.44008 9.01623C6.14719 8.72334 6.14719 8.24858 6.44008 7.95568L11.4401 2.95568L11.4967 2.90393Z" fill="#737985"/>
<path d="M3.25001 18.1137V16.5141C3.25001 16.0999 3.58579 15.7641 4.00001 15.7641C4.41422 15.7641 4.75001 16.0999 4.75001 16.5141V18.1137C4.75001 18.5461 4.75022 18.826 4.76759 19.0385C4.78423 19.2421 4.81315 19.3179 4.83204 19.3549C4.90389 19.4958 5.01836 19.6102 5.15919 19.6821C5.19625 19.701 5.27204 19.7299 5.47559 19.7465C5.6881 19.7639 5.96798 19.7641 6.4004 19.7641H17.5996C18.032 19.7641 18.3119 19.7639 18.5244 19.7465C18.728 19.7299 18.8038 19.701 18.8408 19.6821C18.9817 19.6102 19.0961 19.4958 19.168 19.3549C19.1869 19.3179 19.2158 19.2421 19.2324 19.0385C19.2498 18.826 19.25 18.5461 19.25 18.1137V16.5141C19.25 16.0999 19.5858 15.7641 20 15.7641C20.4142 15.7641 20.75 16.0999 20.75 16.5141V18.1137C20.75 18.5214 20.7511 18.8728 20.7275 19.1606C20.7033 19.457 20.6494 19.7519 20.5049 20.0356C20.2892 20.459 19.9449 20.8033 19.5215 21.019C19.2378 21.1635 18.9429 21.2174 18.6465 21.2417C18.3587 21.2652 18.0073 21.2641 17.5996 21.2641H6.4004C5.99273 21.2641 5.64128 21.2652 5.35352 21.2417C5.05709 21.2174 4.76224 21.1635 4.47852 21.019C4.05516 20.8033 3.71084 20.459 3.49512 20.0356C3.35057 19.7519 3.2967 19.457 3.27247 19.1606C3.24896 18.8728 3.25001 18.5214 3.25001 18.1137Z" fill="#737985"/>
<path d="M11.2204 15.5141V3.51412C11.2204 3.0999 11.5561 2.76412 11.9704 2.76412C12.3846 2.76412 12.7204 3.0999 12.7204 3.51412V15.5141C12.7204 15.9283 12.3846 16.2641 11.9704 16.2641C11.5561 16.2641 11.2204 15.9283 11.2204 15.5141Z" fill="#737985"/>
</svg>
