<svg width="24" height="24" viewBox="0 0 24 24" fill="none" xmlns="http://www.w3.org/2000/svg">
<path d="M17.325 9.36373C19.0028 13.1994 19.0028 15.6044 17.325 16.5781C14.8078 18.0387 8.24871 18.484 6.36058 16.2387C5.10183 14.7419 5.10183 12.45 6.36058 9.36373C7.64058 7.2556 9.45965 6.20154 11.8178 6.20154C14.1762 6.20154 16.0118 7.2556 17.325 9.36373Z" fill="#CBCFD5" fill-opacity="0.5"/>
<path d="M11.8179 3.07654C15.3229 3.07658 18.1301 4.74632 19.9771 7.7113L20.0972 7.90369L20.188 8.11169C21.0903 10.1745 21.7085 12.2031 21.7085 14.0443C21.7085 16.0489 20.9381 18.0941 18.894 19.2806C16.976 20.3936 14.0904 20.9083 11.6255 20.9232C10.3343 20.931 8.96079 20.8056 7.69288 20.4594C6.47842 20.1277 5.02024 19.4999 3.96924 18.2504C1.54007 15.3616 2.09287 11.5539 3.46729 8.18396L3.56104 7.95349L3.68897 7.74158C5.50398 4.75232 8.30828 3.07654 11.8179 3.07654ZM11.8179 9.32654C10.6812 9.32654 9.87408 9.70952 9.16163 10.7797C8.22423 13.1841 8.59464 13.9965 8.72608 14.1898C8.77447 14.2199 8.94748 14.323 9.33936 14.4301C9.91088 14.5861 10.6893 14.6787 11.5884 14.6732C13.2447 14.6632 14.7043 14.3326 15.4565 14.0189C15.4503 13.4719 15.2416 12.4527 14.5513 10.8304C13.8031 9.72163 12.9674 9.32656 11.8179 9.32654Z" fill="#B0B6BF" fill-opacity="0.51"/>
</svg>
