<svg width="24" height="24" viewBox="0 0 24 24" fill="none" xmlns="http://www.w3.org/2000/svg">
<path d="M20.25 12C20.25 7.44365 16.5563 3.75 12 3.75C7.44365 3.75 3.75 7.44365 3.75 12C3.75 16.5563 7.44365 20.25 12 20.25C16.5563 20.25 20.25 16.5563 20.25 12ZM21.75 12C21.75 17.3848 17.3848 21.75 12 21.75C6.61522 21.75 2.25 17.3848 2.25 12C2.25 6.61522 6.61522 2.25 12 2.25C17.3848 2.25 21.75 6.61522 21.75 12Z" fill="#737985"/>
<path d="M13.8112 9.21329C13.8111 8.18421 12.977 7.35001 11.9479 7.35001C10.9189 7.35012 10.0848 8.18428 10.0846 9.21329C10.0846 10.2424 10.9188 11.0765 11.9479 11.0766C12.9771 11.0766 13.8112 10.2425 13.8112 9.21329ZM15.3112 9.21329C15.3112 11.0709 13.8055 12.5766 11.9479 12.5766C10.0904 12.5765 8.58464 11.0708 8.58464 9.21329C8.58475 7.35585 10.0905 5.85012 11.9479 5.85001C13.8055 5.85001 15.3111 7.35578 15.3112 9.21329Z" fill="#737985"/>
<path d="M16.4252 17.5808C16.4252 16.3454 15.4233 15.3435 14.1879 15.3435H9.70842C8.47304 15.3435 7.47111 16.3454 7.47111 17.5808V19.5134H5.97111V17.5808C5.97111 15.517 7.64461 13.8435 9.70842 13.8435H14.1879C16.2517 13.8435 17.9252 15.517 17.9252 17.5808V19.6198H16.4252V17.5808Z" fill="#737985"/>
</svg>
