<svg width="24" height="24" viewBox="0 0 24 24" fill="none" xmlns="http://www.w3.org/2000/svg">
<path d="M16.1592 16.4995C16.1591 15.9246 15.8089 15.3128 15.0547 14.8101C14.3057 14.3108 13.2281 13.9771 12.0001 13.9771C10.7719 13.9771 9.69344 14.3107 8.9444 14.8101C8.19053 15.3128 7.84099 15.9247 7.84088 16.4995C7.84088 17.0744 8.19027 17.6871 8.9444 18.1899C9.69344 18.6893 10.7719 19.0229 12.0001 19.0229C13.228 19.0229 14.3057 18.6892 15.0547 18.1899C15.809 17.6871 16.1592 17.0745 16.1592 16.4995ZM14.5225 7.49951C14.5224 6.1064 13.3932 4.9771 12.0001 4.97705C10.6069 4.97705 9.47774 6.10637 9.4776 7.49951C9.4776 8.89278 10.6068 10.0229 12.0001 10.0229C13.3933 10.0229 14.5225 8.89275 14.5225 7.49951ZM17.6592 16.4995C17.6592 17.732 16.9092 18.7563 15.8868 19.438C14.8591 20.123 13.4829 20.5229 12.0001 20.5229C10.517 20.5229 9.14007 20.1231 8.11237 19.438C7.09002 18.7563 6.34088 17.7319 6.34088 16.4995C6.34099 15.2673 7.0902 14.2436 8.11237 13.562C9.14007 12.8769 10.517 12.4771 12.0001 12.4771C13.483 12.4771 14.8591 12.8769 15.8868 13.562C16.9092 14.2436 17.6591 15.2671 17.6592 16.4995ZM16.0225 7.49951C16.0225 9.72117 14.2217 11.5229 12.0001 11.5229C9.77837 11.5229 7.9776 9.7212 7.9776 7.49951C7.97774 5.27794 9.77846 3.47705 12.0001 3.47705C14.2216 3.4771 16.0224 5.27797 16.0225 7.49951Z" fill="#737985"/>
<path d="M1.9588 16.3359C1.9588 15.6142 2.35514 15.013 2.88654 14.5781C3.41851 14.1428 4.13352 13.8287 4.92462 13.6552C5.27523 13.5784 5.62215 13.8007 5.69904 14.1513C5.77564 14.5018 5.55342 14.8479 5.20294 14.9247C4.55875 15.066 4.04625 15.3086 3.70978 15.5839C3.37288 15.8596 3.25958 16.1241 3.25958 16.3359C3.25968 16.5476 3.37296 16.8122 3.70978 17.0878C4.04625 17.3631 4.55889 17.6048 5.20294 17.746C5.55359 17.8229 5.77593 18.1698 5.69904 18.5204C5.62211 18.8711 5.27525 19.0924 4.92462 19.0156C4.13356 18.8421 3.4185 18.529 2.88654 18.0937C2.35511 17.6588 1.9589 17.0576 1.9588 16.3359ZM3.59552 8.15424C3.59552 6.55967 5.10145 5.45799 6.70001 5.45795C7.059 5.45795 7.3504 5.74935 7.3504 6.10834C7.3504 6.46732 7.059 6.75873 6.70001 6.75873C5.58744 6.75877 4.89532 7.4895 4.89532 8.15424C4.89563 8.81886 5.58769 9.54873 6.70001 9.54877C7.05897 9.54877 7.35035 9.84021 7.3504 10.1992C7.3504 10.5581 7.059 10.8495 6.70001 10.8495C5.1016 10.8495 3.5958 9.74856 3.59552 8.15424Z" fill="#737985"/>
<path d="M22.0412 16.3359C22.0412 15.6142 21.6449 15.013 21.1135 14.5781C20.5815 14.1428 19.8665 13.8287 19.0754 13.6552C18.7248 13.5784 18.3779 13.8007 18.301 14.1513C18.2244 14.5018 18.4466 14.8479 18.7971 14.9247C19.4412 15.066 19.9537 15.3086 20.2902 15.5839C20.6271 15.8596 20.7404 16.1241 20.7404 16.3359C20.7403 16.5476 20.627 16.8122 20.2902 17.0878C19.9538 17.3631 19.4411 17.6048 18.7971 17.746C18.4464 17.8229 18.2241 18.1698 18.301 18.5204C18.3779 18.8711 18.7248 19.0924 19.0754 19.0156C19.8664 18.8421 20.5815 18.529 21.1135 18.0937C21.6449 17.6588 22.0411 17.0576 22.0412 16.3359ZM20.4045 8.15424C20.4045 6.55967 18.8985 5.45799 17.3 5.45795C16.941 5.45795 16.6496 5.74935 16.6496 6.10834C16.6496 6.46732 16.941 6.75873 17.3 6.75873C18.4126 6.75877 19.1047 7.4895 19.1047 8.15424C19.1044 8.81886 18.4123 9.54873 17.3 9.54877C16.941 9.54877 16.6496 9.84021 16.6496 10.1992C16.6496 10.5581 16.941 10.8495 17.3 10.8495C18.8984 10.8495 20.4042 9.74856 20.4045 8.15424Z" fill="#737985"/>
</svg>
