<svg width="24" height="24" viewBox="0 0 24 24" fill="none" xmlns="http://www.w3.org/2000/svg">
<path d="M14.75 6.79517C14.75 5.27638 13.5188 4.04517 12 4.04517C10.4812 4.04517 9.25 5.27638 9.25 6.79517C9.25 8.31395 10.4812 9.54517 12 9.54517C13.5188 9.54517 14.75 8.31395 14.75 6.79517ZM16.25 6.79517C16.25 9.14238 14.3472 11.0452 12 11.0452C9.65279 11.0452 7.75 9.14238 7.75 6.79517C7.75 4.44796 9.65279 2.54517 12 2.54517C14.3472 2.54517 16.25 4.44796 16.25 6.79517Z" fill="#737985"/>
<path d="M18.25 18C18.25 16.2051 16.7949 14.75 15 14.75H9C7.20507 14.75 5.75 16.2051 5.75 18V19.2051C5.75015 19.6192 6.08588 19.9551 6.5 19.9551H17.5C17.9141 19.9551 18.2499 19.6192 18.25 19.2051V18ZM19.75 19.2051C19.7499 20.4476 18.7425 21.4551 17.5 21.4551H6.5C5.25745 21.4551 4.25015 20.4476 4.25 19.2051V18C4.25 15.3766 6.37665 13.25 9 13.25H15C17.6234 13.25 19.75 15.3766 19.75 18V19.2051Z" fill="#737985"/>
</svg>
