<svg width="24" height="24" viewBox="0 0 24 24" fill="none" xmlns="http://www.w3.org/2000/svg">
<path d="M11.5 5C12.3165 5 12.9998 5.65414 13 6.4873C13 7.32062 12.3166 7.97559 11.5 7.97559C10.6834 7.97559 10 7.32062 10 6.4873C10.0002 5.65414 10.6835 5 11.5 5Z" fill="#737985"/>
<path d="M11.5 10.725C12.3165 10.725 12.9998 11.3792 13 12.2123C13 13.0457 12.3166 13.7006 11.5 13.7006C10.6834 13.7006 10 13.0457 10 12.2123C10.0002 11.3792 10.6835 10.725 11.5 10.725Z" fill="#737985"/>
<path d="M11.5 16.4501C12.3165 16.4501 12.9998 17.1042 13 17.9374C13 18.7707 12.3166 19.4257 11.5 19.4257C10.6834 19.4257 10 18.7707 10 17.9374C10.0002 17.1042 10.6835 16.4501 11.5 16.4501Z" fill="#737985"/>
</svg>
