<svg width="24" height="24" viewBox="0 0 24 24" fill="none" xmlns="http://www.w3.org/2000/svg">
<path d="M20.25 6.4004C20.25 5.96798 20.2498 5.6881 20.2324 5.47559C20.2158 5.27204 20.1869 5.19625 20.168 5.15919C20.0961 5.01836 19.9817 4.90389 19.8408 4.83204C19.8038 4.81315 19.728 4.78423 19.5244 4.76759C19.3119 4.75022 19.032 4.75001 18.5996 4.75001H5.4004C4.96798 4.75001 4.6881 4.75022 4.47559 4.76759C4.27204 4.78423 4.19625 4.81315 4.15919 4.83204C4.01836 4.90389 3.90389 5.01836 3.83204 5.15919C3.81315 5.19625 3.78423 5.27204 3.76759 5.47559C3.75022 5.6881 3.75001 5.96798 3.75001 6.4004V17.5996C3.75001 18.032 3.75022 18.3119 3.76759 18.5244C3.78423 18.728 3.81315 18.8038 3.83204 18.8408C3.90389 18.9817 4.01836 19.0961 4.15919 19.168C4.19625 19.1869 4.27204 19.2158 4.47559 19.2324C4.6881 19.2498 4.96798 19.25 5.4004 19.25H18.5996C19.032 19.25 19.3119 19.2498 19.5244 19.2324C19.728 19.2158 19.8038 19.1869 19.8408 19.168C19.9817 19.0961 20.0961 18.9817 20.168 18.8408C20.1869 18.8038 20.2158 18.728 20.2324 18.5244C20.2498 18.3119 20.25 18.032 20.25 17.5996V6.4004ZM21.75 17.5996C21.75 18.0073 21.7511 18.3587 21.7275 18.6465C21.7033 18.9429 21.6494 19.2378 21.5049 19.5215C21.2892 19.9449 20.9449 20.2892 20.5215 20.5049C20.2378 20.6494 19.9429 20.7033 19.6465 20.7275C19.3587 20.7511 19.0073 20.75 18.5996 20.75H5.4004C4.99273 20.75 4.64128 20.7511 4.35352 20.7275C4.05709 20.7033 3.76224 20.6494 3.47852 20.5049C3.05516 20.2892 2.71084 19.9449 2.49512 19.5215C2.35057 19.2378 2.2967 18.9429 2.27247 18.6465C2.24896 18.3587 2.25001 18.0073 2.25001 17.5996V6.4004C2.25001 5.99273 2.24896 5.64128 2.27247 5.35352C2.2967 5.05709 2.35057 4.76224 2.49512 4.47852C2.71084 4.05516 3.05516 3.71084 3.47852 3.49512C3.76224 3.35057 4.05709 3.2967 4.35352 3.27247C4.64128 3.24896 4.99273 3.25001 5.4004 3.25001H18.5996C19.0073 3.25001 19.3587 3.24896 19.6465 3.27247C19.9429 3.2967 20.2378 3.35057 20.5215 3.49512C20.9449 3.71084 21.2892 4.05516 21.5049 4.47852C21.6494 4.76224 21.7033 5.05709 21.7275 5.35352C21.7511 5.64128 21.75 5.99273 21.75 6.4004V17.5996Z" fill="#737985"/>
<path d="M14.2748 11.4801C14.6748 11.711 14.6748 12.2882 14.2748 12.5192L11.3129 14.2301C10.9129 14.461 10.4125 14.1724 10.4125 13.7106V10.2897C10.4125 9.8278 10.9128 9.53921 11.3129 9.77015L14.2748 11.4801ZM11.4125 10.9821V13.0182L13.1761 11.9996L11.4125 10.9821Z" fill="#737985"/>
<path d="M20.9999 7.00621V8.50621H3.04974V7.00621H20.9999Z" fill="#737985"/>
<path d="M20.9999 15.5V17H3.04974V15.5H20.9999Z" fill="#737985"/>
<path d="M8.5 7.77177H7V4.21318L8.5 4.21318V7.77177Z" fill="#737985"/>
<path d="M8.5 19.834H7V16.2755H8.5V19.834Z" fill="#737985"/>
<path d="M17.0063 7.77177H15.5063V4.21318L17.0063 4.21318V7.77177Z" fill="#737985"/>
<path d="M17.0063 19.834H15.5063V16.2755H17.0063V19.834Z" fill="#737985"/>
<path d="M12.7347 7.77177H11.2347V4.21318L12.7347 4.21318V7.77177Z" fill="#737985"/>
<path d="M12.7347 19.834H11.2347V16.2755H12.7347V19.834Z" fill="#737985"/>
</svg>
