<svg width="24" height="24" viewBox="0 0 24 24" fill="none" xmlns="http://www.w3.org/2000/svg">
<path d="M20.25 9.43764C20.25 9.00523 20.2498 8.72534 20.2324 8.51284C20.2158 8.30929 20.1869 8.2335 20.168 8.19643C20.0961 8.05561 19.9817 7.94114 19.8408 7.86928C19.8038 7.8504 19.728 7.82148 19.5244 7.80483C19.3119 7.78747 19.032 7.78725 18.5996 7.78725H5.4004C4.96798 7.78725 4.6881 7.78747 4.47559 7.80483C4.27204 7.82148 4.19625 7.8504 4.15919 7.86928C4.01836 7.94114 3.90389 8.05561 3.83204 8.19643C3.81315 8.2335 3.78423 8.30929 3.76759 8.51284C3.75022 8.72534 3.75001 9.00523 3.75001 9.43764V18.1369C3.75001 18.5693 3.75022 18.8492 3.76759 19.0617C3.78423 19.2652 3.81315 19.341 3.83204 19.3781C3.90389 19.5189 4.01836 19.6334 4.15919 19.7052C4.19625 19.7241 4.27204 19.753 4.47559 19.7697C4.6881 19.787 4.96798 19.7873 5.4004 19.7873H18.5996C19.032 19.7873 19.3119 19.787 19.5244 19.7697C19.728 19.753 19.8038 19.7241 19.8408 19.7052C19.9817 19.6334 20.0961 19.5189 20.168 19.3781C20.1869 19.341 20.2158 19.2652 20.2324 19.0617C20.2498 18.8492 20.25 18.5693 20.25 18.1369V9.43764ZM21.75 18.1369C21.75 18.5445 21.7511 18.896 21.7275 19.1837C21.7033 19.4802 21.6494 19.775 21.5049 20.0587C21.2892 20.4821 20.9449 20.8264 20.5215 21.0421C20.2378 21.1867 19.9429 21.2406 19.6465 21.2648C19.3587 21.2883 19.0073 21.2873 18.5996 21.2873H5.4004C4.99273 21.2873 4.64128 21.2883 4.35352 21.2648C4.05709 21.2406 3.76224 21.1867 3.47852 21.0421C3.05516 20.8264 2.71084 20.4821 2.49512 20.0587C2.35057 19.775 2.2967 19.4802 2.27247 19.1837C2.24896 18.896 2.25001 18.5445 2.25001 18.1369V9.43764C2.25001 9.02998 2.24896 8.67852 2.27247 8.39077C2.2967 8.09433 2.35057 7.79948 2.49512 7.51577C2.71084 7.0924 3.05516 6.74808 3.47852 6.53237C3.76224 6.38782 4.05709 6.33394 4.35352 6.30971C4.64128 6.2862 4.99273 6.28725 5.4004 6.28725H18.5996C19.0073 6.28725 19.3587 6.2862 19.6465 6.30971C19.9429 6.33394 20.2378 6.38782 20.5215 6.53237C20.9449 6.74808 21.2892 7.0924 21.5049 7.51577C21.6494 7.79948 21.7033 8.09433 21.7275 8.39077C21.7511 8.67852 21.75 9.02998 21.75 9.43764V18.1369Z" fill="#737985"/>
<path d="M21.75 10.4262V17.1479H17.6845C15.8896 17.1479 14.4345 15.6928 14.4345 13.8979V13.6762C14.4345 11.8813 15.8896 10.4262 17.6845 10.4262H21.75ZM15.9345 13.8979C15.9345 14.8644 16.718 15.6479 17.6845 15.6479H20.25V11.9262H17.6845C16.718 11.9262 15.9345 12.7097 15.9345 13.6762V13.8979Z" fill="#737985"/>
<path d="M10.3672 10.4448C10.7813 10.4449 11.1172 10.7806 11.1172 11.1948C11.1172 11.609 10.7813 11.9447 10.3672 11.9448H7.00001C6.58579 11.9448 6.25001 11.609 6.25001 11.1948C6.25001 10.7806 6.58579 10.4448 7.00001 10.4448H10.3672Z" fill="#737985"/>
<path d="M13.342 4.63687C13.1621 4.26441 12.7141 4.10817 12.3413 4.28741L5.09164 7.77273L4.44085 6.42125L11.6914 2.93551C12.8098 2.3978 14.1528 2.86694 14.6927 3.98432L16.0101 6.71106L14.6595 7.36361L13.342 4.63687Z" fill="#737985"/>
<path d="M18.5 13.7232C18.5 14.1374 18.1642 14.4732 17.75 14.4732C17.3358 14.4732 17 14.1374 17 13.7232C17 13.3089 17.3358 12.9732 17.75 12.9732C18.1642 12.9732 18.5 13.3089 18.5 13.7232Z" fill="#737985"/>
</svg>
