<svg width="24" height="24" viewBox="0 0 24 24" fill="none" xmlns="http://www.w3.org/2000/svg">
<path d="M11.085 3.56945C11.6674 3.31018 12.3326 3.31018 12.915 3.56945C13.3264 3.7526 13.6197 4.08688 13.8682 4.43859C14.1188 4.79338 14.3941 5.27212 14.7275 5.84972L20.5303 15.9005C20.8639 16.4783 21.1413 16.9562 21.3232 17.3507C21.5035 17.7417 21.6457 18.1627 21.5986 18.6105C21.5319 19.2446 21.1994 19.8206 20.6836 20.1954C20.3194 20.46 19.8838 20.5467 19.4551 20.5861C19.0224 20.6257 18.4699 20.6251 17.8027 20.6251H6.19727C5.53014 20.6251 4.97757 20.6257 4.54492 20.5861C4.11621 20.5467 3.68062 20.46 3.31641 20.1954C2.80057 19.8206 2.46807 19.2446 2.40137 18.6105C2.3543 18.1627 2.49645 17.7417 2.67676 17.3507C2.85871 16.9562 3.13615 16.4783 3.46973 15.9005L9.27246 5.84972C9.60594 5.27212 9.88119 4.79338 10.1318 4.43859C10.3803 4.08688 10.6736 3.7526 11.085 3.56945ZM12.3047 4.93957C12.1108 4.85338 11.8892 4.85338 11.6953 4.93957C11.6615 4.95464 11.5611 5.01554 11.3574 5.30382C11.1559 5.58911 10.9196 5.99644 10.5713 6.59972L4.76855 16.6505C4.42028 17.2537 4.18536 17.6614 4.03906 17.9786C3.89151 18.2986 3.88875 18.416 3.89258 18.4532C3.9148 18.6646 4.02628 18.8566 4.19824 18.9816C4.22829 19.0034 4.33097 19.0606 4.68262 19.0929C5.03043 19.1248 5.50091 19.1251 6.19727 19.1251H17.8027C18.4991 19.1251 18.9696 19.1248 19.3174 19.0929C19.669 19.0606 19.7717 19.0034 19.8018 18.9816C19.9737 18.8566 20.0852 18.6646 20.1074 18.4532C20.1113 18.416 20.1085 18.2986 19.9609 17.9786C19.8146 17.6614 19.5797 17.2537 19.2314 16.6505L13.4287 6.59972C13.0804 5.99644 12.8441 5.58911 12.6426 5.30382C12.4389 5.01554 12.3385 4.95464 12.3047 4.93957Z" fill="#737985"/>
<path d="M12.75 13.5341C12.7499 13.9483 12.4142 14.2841 12 14.2841C11.5859 14.2841 11.2501 13.9483 11.25 13.5341V9.53219C11.25 9.11798 11.5858 8.78219 12 8.78219C12.4142 8.78219 12.75 9.11798 12.75 9.53219V13.5341Z" fill="#737985"/>
<path d="M12.7496 15.7826C12.7496 16.1966 12.414 16.5322 12 16.5322C11.5861 16.5322 11.2505 16.1966 11.2505 15.7826C11.2505 15.3687 11.5861 15.0331 12 15.0331C12.414 15.0331 12.7496 15.3687 12.7496 15.7826Z" fill="#737985"/>
</svg>
