<svg width="24" height="24" viewBox="0 0 24 24" fill="none" xmlns="http://www.w3.org/2000/svg">
<path d="M20.25 6.42945C20.25 5.99704 20.2498 5.71715 20.2324 5.50465C20.2158 5.30109 20.1869 5.22531 20.168 5.18824C20.0961 5.04742 19.9817 4.93294 19.8408 4.86109C19.8038 4.8422 19.728 4.81329 19.5244 4.79664C19.3119 4.77928 19.032 4.77906 18.5996 4.77906H5.4004C4.96798 4.77906 4.6881 4.77928 4.47559 4.79664C4.27204 4.81329 4.19625 4.8422 4.15919 4.86109C4.01836 4.93294 3.90389 5.04742 3.83204 5.18824C3.81315 5.22531 3.78423 5.30109 3.76759 5.50465C3.75022 5.71715 3.75001 5.99704 3.75001 6.42945V13.6287C3.75001 14.0611 3.75022 14.341 3.76759 14.5535C3.78423 14.757 3.81315 14.8328 3.83204 14.8699C3.90389 15.0107 4.01836 15.1252 4.15919 15.197C4.19625 15.2159 4.27204 15.2448 4.47559 15.2615C4.6881 15.2788 4.96798 15.2791 5.4004 15.2791H18.5996C19.032 15.2791 19.3119 15.2788 19.5244 15.2615C19.728 15.2448 19.8038 15.2159 19.8408 15.197C19.9817 15.1252 20.0961 15.0107 20.168 14.8699C20.1869 14.8328 20.2158 14.757 20.2324 14.5535C20.2498 14.341 20.25 14.0611 20.25 13.6287V6.42945ZM21.75 13.6287C21.75 14.0363 21.7511 14.3878 21.7275 14.6755C21.7033 14.972 21.6494 15.2668 21.5049 15.5505C21.2892 15.9739 20.9449 16.3182 20.5215 16.5339C20.2378 16.6785 19.9429 16.7324 19.6465 16.7566C19.3587 16.7801 19.0073 16.7791 18.5996 16.7791H5.4004C4.99273 16.7791 4.64128 16.7801 4.35352 16.7566C4.05709 16.7324 3.76224 16.6785 3.47852 16.5339C3.05516 16.3182 2.71084 15.9739 2.49512 15.5505C2.35057 15.2668 2.2967 14.972 2.27247 14.6755C2.24896 14.3878 2.25001 14.0363 2.25001 13.6287V6.42945C2.25001 6.02179 2.24896 5.67033 2.27247 5.38258C2.2967 5.08614 2.35057 4.79129 2.49512 4.50758C2.71084 4.08421 3.05516 3.73989 3.47852 3.52418C3.76224 3.37963 4.05709 3.32575 4.35352 3.30152C4.64128 3.27801 4.99273 3.27906 5.4004 3.27906H18.5996C19.0073 3.27906 19.3587 3.27801 19.6465 3.30152C19.9429 3.32575 20.2378 3.37963 20.5215 3.52418C20.9449 3.73989 21.2892 4.08421 21.5049 4.50758C21.6494 4.79129 21.7033 5.08614 21.7275 5.38258C21.7511 5.67033 21.75 6.02179 21.75 6.42945V13.6287Z" fill="#737985"/>
<path d="M9.76646 19.971C9.76634 20.3851 9.4306 20.721 9.01646 20.721C8.60231 20.721 8.26657 20.3851 8.26646 19.971V16.8577C8.26646 16.4435 8.60224 16.1077 9.01646 16.1077C9.43067 16.1077 9.76646 16.4435 9.76646 16.8577V19.971Z" fill="#737985"/>
<path d="M15.7665 19.971C15.7663 20.3851 15.4306 20.721 15.0165 20.721C14.6023 20.721 14.2666 20.3851 14.2665 19.971V16.8577C14.2665 16.4435 14.6022 16.1077 15.0165 16.1077C15.4307 16.1077 15.7665 16.4435 15.7665 16.8577V19.971Z" fill="#737985"/>
<path d="M16.75 19.2208C17.1642 19.2208 17.5 19.5566 17.5 19.9708C17.5 20.385 17.1642 20.7208 16.75 20.7208H7.25001C6.83579 20.7208 6.50001 20.385 6.50001 19.9708C6.50001 19.5566 6.83579 19.2208 7.25001 19.2208H16.75Z" fill="#737985"/>
</svg>
