<svg width="24" height="24" viewBox="0 0 24 24" fill="none" xmlns="http://www.w3.org/2000/svg">
<path d="M20 12C20 7.58172 16.4183 4 12 4C7.58173 4 4.00001 7.58172 4.00001 12C4.00001 16.4183 7.58173 20 12 20V21.5C6.7533 21.5 2.50001 17.2467 2.50001 12C2.50001 6.75329 6.7533 2.5 12 2.5C17.2467 2.5 21.5 6.75329 21.5 12C21.5 17.2467 17.2467 21.5 12 21.5V20C16.4183 20 20 16.4183 20 12Z" fill="#737985"/>
<path d="M7.12312 19.7322C6.20376 16.9731 5.70013 14.5641 5.66999 12.117C5.63988 9.66841 6.08386 7.21378 7.02155 4.3631L8.16218 4.7381C7.25429 7.49814 6.84217 9.81782 6.87019 12.1014C6.89828 14.3864 7.36717 16.6685 8.26179 19.3533L7.12312 19.7322Z" fill="#737985"/>
<path d="M16.8573 19.7322C17.7767 16.9731 18.2803 14.5641 18.3104 12.117C18.3405 9.66841 17.8966 7.21378 16.9589 4.3631L15.8182 4.7381C16.7261 7.49814 17.1383 9.81782 17.1102 12.1014C17.0821 14.3864 16.6132 16.6685 15.7186 19.3533L16.8573 19.7322Z" fill="#737985"/>
<path d="M12.096 6.92712C14.5794 6.91386 17.019 7.18089 20.3645 7.72498L20.2688 8.31775L20.1721 8.90955C16.8546 8.37001 14.4897 8.1146 12.1028 8.12732C9.71396 8.14008 7.2809 8.42174 3.82642 8.97595L3.63697 7.79138C7.11028 7.23415 9.61436 6.94038 12.096 6.92712Z" fill="#737985"/>
<path d="M12.096 16.9971C14.5794 17.0103 17.019 16.7433 20.3645 16.1992L20.2688 15.6064L20.1721 15.0146C16.8546 15.5542 14.4897 15.8096 12.1028 15.7969C9.71396 15.7841 7.2809 15.5025 3.82642 14.9482L3.63697 16.1328C7.11028 16.69 9.61436 16.9838 12.096 16.9971Z" fill="#737985"/>
<path d="M14.2217 13.5L13.6045 11.3164H14.1279L14.5127 12.8516H14.5322L14.9248 11.3164H15.4424L15.835 12.8457H15.8545L16.2334 11.3164H16.7588L16.1416 13.5H15.6045L15.1943 12.0254H15.167L14.7568 13.5H14.2217Z" fill="#737985"/>
<path d="M11.0225 13.5L10.4053 11.3164H10.9287L11.3135 12.8516H11.333L11.7256 11.3164H12.2432L12.6357 12.8457H12.6553L13.0342 11.3164H13.5596L12.9424 13.5H12.4053L11.9951 12.0254H11.9678L11.5576 13.5H11.0225Z" fill="#737985"/>
<path d="M7.82325 13.5L7.20606 11.3164H7.7295L8.11427 12.8516H8.1338L8.52637 11.3164H9.04395L9.43653 12.8457H9.45606L9.83497 11.3164H10.3604L9.74317 13.5H9.20606L8.79591 12.0254H8.76856L8.35841 13.5H7.82325Z" fill="#737985"/>
</svg>
