<svg width="24" height="24" viewBox="0 0 24 24" fill="none" xmlns="http://www.w3.org/2000/svg">
<path d="M2.25001 18.5982V14.9849C2.25001 14.5707 2.58579 14.2349 3.00001 14.2349C3.41422 14.2349 3.75001 14.5707 3.75001 14.9849V18.5982C3.75001 19.0303 3.75023 19.3096 3.76759 19.522C3.78423 19.7256 3.81315 19.8013 3.83204 19.8384C3.90388 19.9793 4.01835 20.0937 4.15919 20.1655C4.19625 20.1844 4.27205 20.2134 4.47559 20.23C4.6881 20.2474 4.96798 20.2476 5.4004 20.2476H8.99122C9.40533 20.2477 9.74115 20.5835 9.74122 20.9976C9.74122 21.4117 9.40537 21.7475 8.99122 21.7476H5.4004C4.99273 21.7476 4.64128 21.7486 4.35352 21.7251C4.05708 21.7009 3.76225 21.647 3.47852 21.5025C3.05516 21.2867 2.71084 20.9424 2.49512 20.5191C2.35059 20.2353 2.29669 19.9405 2.27247 19.6441C2.24897 19.3564 2.25001 19.0056 2.25001 18.5982ZM20.25 18.5982V14.9995C20.25 14.5853 20.5858 14.2495 21 14.2495C21.4142 14.2495 21.75 14.5853 21.75 14.9995V18.5982C21.75 19.0056 21.751 19.3564 21.7275 19.6441C21.7033 19.9405 21.6494 20.2353 21.5049 20.5191C21.2892 20.9424 20.9449 21.2867 20.5215 21.5025C20.2378 21.647 19.9429 21.7009 19.6465 21.7251C19.3587 21.7486 19.0073 21.7476 18.5996 21.7476H14.9951C14.5811 21.7474 14.2451 21.4117 14.2451 20.9976C14.2452 20.5836 14.5811 20.2478 14.9951 20.2476H18.5996C19.032 20.2476 19.3119 20.2474 19.5244 20.23C19.728 20.2134 19.8038 20.1844 19.8408 20.1655C19.9817 20.0937 20.0961 19.9793 20.168 19.8384C20.1869 19.8013 20.2158 19.7256 20.2324 19.522C20.2498 19.3096 20.25 19.0303 20.25 18.5982Z" fill="#737985"/>
<path d="M2.25001 5.40186V9.01514C2.25001 9.42936 2.58579 9.76514 3.00001 9.76514C3.41422 9.76514 3.75001 9.42936 3.75001 9.01514V5.40186C3.75001 4.96971 3.75023 4.69046 3.76759 4.47803C3.78423 4.27439 3.81315 4.1987 3.83204 4.16163C3.90388 4.02078 4.01835 3.90635 4.15919 3.83448C4.19625 3.81559 4.27205 3.78668 4.47559 3.77003C4.6881 3.75266 4.96798 3.75245 5.4004 3.75245H8.99122C9.40533 3.75237 9.74115 3.41656 9.74122 3.00245C9.74122 2.58828 9.40537 2.25252 8.99122 2.25245H5.4004C4.99273 2.25245 4.64128 2.2514 4.35352 2.27491C4.05708 2.29914 3.76225 2.353 3.47852 2.49757C3.05516 2.71328 2.71084 3.0576 2.49512 3.48096C2.35059 3.76469 2.29669 4.05952 2.27247 4.35596C2.24897 4.64361 2.25001 4.9944 2.25001 5.40186ZM20.25 5.40186V9.0005C20.25 9.41471 20.5858 9.7505 21 9.7505C21.4142 9.7505 21.75 9.41471 21.75 9.0005V5.40186C21.75 4.9944 21.751 4.64361 21.7275 4.35596C21.7033 4.05952 21.6494 3.76469 21.5049 3.48096C21.2892 3.0576 20.9449 2.71328 20.5215 2.49757C20.2378 2.353 19.9429 2.29914 19.6465 2.27491C19.3587 2.2514 19.0073 2.25245 18.5996 2.25245H14.9951C14.5811 2.25267 14.2451 2.58837 14.2451 3.00245C14.2452 3.41647 14.5811 3.75222 14.9951 3.75245H18.5996C19.032 3.75245 19.3119 3.75266 19.5244 3.77003C19.728 3.78668 19.8038 3.81559 19.8408 3.83448C19.9817 3.90635 20.0961 4.02078 20.168 4.16163C20.1869 4.1987 20.2158 4.27439 20.2324 4.47803C20.2498 4.69046 20.25 4.96971 20.25 5.40186Z" fill="#737985"/>
<path d="M12 6.85064C12.5868 6.85064 13.1189 7.09571 13.7989 7.38872L14.3311 7.61724C14.9642 7.89004 15.5137 8.12488 15.8955 8.35454C16.2435 8.56386 16.75 8.94064 16.75 9.60064C16.75 10.2606 16.2435 10.6374 15.8955 10.8467C15.5137 11.0764 14.9642 11.3112 14.3311 11.584L13.7989 11.8126C13.4144 11.9782 13.0765 12.1264 12.75 12.2256V16.4004H11.25V12.2256C10.9236 12.1264 10.5856 11.9782 10.2012 11.8126L9.66899 11.584C9.03588 11.3112 8.48636 11.0764 8.10453 10.8467C7.77828 10.6505 7.31271 10.3069 7.2559 9.72075L7.25004 9.60064L7.2559 9.48052C7.31271 8.89438 7.77828 8.55081 8.10453 8.35454C8.48636 8.12488 9.03588 7.89004 9.66899 7.61724L10.2012 7.38872C10.8812 7.09571 11.4133 6.85064 12 6.85064ZM12 8.35064C11.794 8.35064 11.5889 8.42356 10.795 8.76568L10.2627 8.99517C9.64131 9.26294 9.22592 9.44557 8.95024 9.60064C9.22592 9.7557 9.64131 9.93834 10.2627 10.2061L10.795 10.4356C11.5889 10.7777 11.794 10.8506 12 10.8506C12.2061 10.8506 12.4112 10.7777 13.2051 10.4356L13.7373 10.2061C14.3582 9.93859 14.7732 9.7556 15.0489 9.60064C14.7732 9.44566 14.3582 9.26269 13.7373 8.99517L13.2051 8.76568C12.4112 8.42356 12.2061 8.35064 12 8.35064Z" fill="#737985"/>
<path d="M8.75004 9.59959V14.2724C8.77791 14.2935 8.81792 14.3242 8.87797 14.3603C9.15143 14.5248 9.5854 14.713 10.2627 15.0049L10.795 15.2344C11.589 15.5765 11.794 15.6494 12 15.6494C12.2061 15.6494 12.4111 15.5765 13.2051 15.2344L13.7373 15.0049C14.4147 14.713 14.8487 14.5248 15.1221 14.3603C15.1822 14.3242 15.2222 14.2935 15.25 14.2724V9.59959H16.75V14.3994C16.75 15.0593 16.2435 15.4362 15.8955 15.6455C15.5137 15.8751 14.9642 16.11 14.3311 16.3828L13.7989 16.6123C13.1189 16.9053 12.5867 17.1494 12 17.1494C11.4133 17.1494 10.8812 16.9053 10.2012 16.6123L9.66899 16.3828C9.03591 16.11 8.48635 15.8751 8.10453 15.6455C7.75661 15.4362 7.25004 15.0593 7.25004 14.3994V9.59959H8.75004Z" fill="#737985"/>
</svg>
