<svg width="24" height="24" viewBox="0 0 24 24" fill="none" xmlns="http://www.w3.org/2000/svg">
<path d="M4.15808 19.6437V8.54894C4.15808 8.0093 4.36522 7.4897 4.73718 7.09874L8.71667 2.91613C9.10815 2.50466 9.64974 2.26901 10.2177 2.26281L10.6102 2.25792L11.0497 2.25402C11.634 2.24804 12.1943 2.48544 12.5966 2.90929L14.5673 4.98644C14.8521 5.28669 14.8402 5.76113 14.5399 6.04601C14.2397 6.33086 13.7652 6.31793 13.4803 6.01769L11.5096 3.94054C11.3941 3.81889 11.2331 3.75138 11.0653 3.75304L10.6268 3.75695L10.2343 3.76183C10.0711 3.76361 9.91508 3.83111 9.80261 3.94933L5.82312 8.13195C5.71625 8.24427 5.65613 8.3939 5.65613 8.54894V19.6437C5.65618 19.9773 5.927 20.2481 6.26062 20.2482H15.0477C15.3812 20.248 15.6512 19.9772 15.6512 19.6437V15.7306C15.6513 15.3168 15.9874 14.9816 16.4012 14.9816C16.8149 14.9817 17.1502 15.3169 17.1503 15.7306V19.6437C17.1502 20.805 16.209 21.746 15.0477 21.7462H6.26062C5.09923 21.7462 4.15813 20.8051 4.15808 19.6437Z" fill="#737985"/>
<path d="M18.3417 8.39913C18.344 8.27923 18.3229 8.1599 18.2792 8.04822C18.2354 7.93646 18.17 7.83405 18.0868 7.74752C18.0036 7.66098 17.9039 7.59161 17.7939 7.5435C17.684 7.49544 17.5656 7.46973 17.4457 7.46733C17.3256 7.46498 17.2056 7.48602 17.0938 7.52978C16.9822 7.5735 16.8805 7.63916 16.7941 7.72219L10.7195 13.5633L10.6941 14.856L11.9869 14.8813L18.0615 9.04024C18.1479 8.95708 18.2174 8.85718 18.2655 8.74731C18.3134 8.63746 18.3393 8.51897 18.3417 8.39913ZM19.8414 8.42852C19.8352 8.74537 19.7667 9.05819 19.6397 9.34857C19.5127 9.63892 19.3294 9.90168 19.101 10.1214L12.8024 16.1778C12.6591 16.3156 12.4668 16.391 12.268 16.3871L9.9149 16.341C9.50083 16.3329 9.17173 15.9905 9.17974 15.5765L9.22586 13.2234C9.22975 13.0246 9.31264 12.8354 9.45593 12.6975L15.7535 6.64105C15.9821 6.4213 16.2526 6.24864 16.5478 6.13307C16.8429 6.01763 17.1583 5.96141 17.4751 5.96762C17.7919 5.97388 18.1048 6.04228 18.3951 6.16928C18.6855 6.29632 18.9482 6.47948 19.1679 6.70796C19.3876 6.93647 19.5604 7.20607 19.6759 7.50127C19.7915 7.79644 19.8476 8.11161 19.8414 8.42852Z" fill="#737985"/>
<path d="M14.1842 8.14998C14.4828 7.86288 14.9574 7.87218 15.2445 8.17076L17.5515 10.5699C17.8383 10.8685 17.8292 11.3433 17.5307 11.6303C17.2322 11.9173 16.7575 11.9078 16.4704 11.6095L14.1634 9.21032C13.8763 8.91175 13.8856 8.43708 14.1842 8.14998Z" fill="#737985"/>
</svg>
