<svg width="24" height="24" viewBox="0 0 24 24" fill="none" xmlns="http://www.w3.org/2000/svg">
<path d="M4.15805 18.5947V8.96484C4.15805 8.64482 4.15286 8.36617 4.21566 8.0957C4.26736 7.87323 4.35266 7.65969 4.46859 7.46289C4.60949 7.22374 4.80472 7.02572 5.02524 6.79395L8.44613 3.19824C8.64854 2.9855 8.82188 2.79793 9.03109 2.6543C9.26787 2.49183 9.53403 2.37602 9.8143 2.31348C10.0619 2.2583 10.3167 2.25906 10.6102 2.25586L11.0809 2.25781C11.2299 2.26347 11.3723 2.27737 11.5125 2.30957C11.7688 2.36845 12.0126 2.47208 12.2332 2.61523C12.4743 2.77168 12.6702 2.98413 12.8993 3.22559L14.5672 4.98438C14.8521 5.28462 14.8401 5.75907 14.5399 6.04395C14.2396 6.3288 13.7652 6.31586 13.4803 6.01562L11.8123 4.25781C11.534 3.96445 11.475 3.90924 11.4178 3.87207C11.3442 3.8243 11.2621 3.79015 11.1766 3.77051C11.1102 3.75529 11.0301 3.75076 10.6268 3.75488L10.2713 3.7627C10.2021 3.76596 10.1698 3.76983 10.1405 3.77637C10.0469 3.79725 9.9578 3.83635 9.87875 3.89062C9.82911 3.92476 9.77751 3.97347 9.53207 4.23145L6.11117 7.82715C5.84386 8.10811 5.79411 8.16683 5.76059 8.22363C5.72188 8.28934 5.69287 8.36127 5.67563 8.43555C5.66076 8.49981 5.65609 8.57695 5.65609 8.96484V18.5947C5.65609 19.0271 5.65728 19.307 5.67465 19.5195C5.6913 19.7231 5.71919 19.7988 5.73813 19.8359C5.81009 19.9772 5.92502 20.0921 6.06625 20.1641C6.10342 20.183 6.1791 20.2109 6.38266 20.2275C6.59519 20.2449 6.87506 20.2461 7.30746 20.2461H14.0008C14.4329 20.2461 14.7122 20.2449 14.9246 20.2275C15.1284 20.2109 15.2049 20.183 15.242 20.1641C15.3832 20.0921 15.4982 19.9771 15.5702 19.8359C15.5891 19.7987 15.617 19.7229 15.6336 19.5195C15.651 19.307 15.6512 19.0271 15.6512 18.5947V15.7285C15.6513 15.3147 15.9874 14.9795 16.4012 14.9795C16.8149 14.9796 17.1502 15.3148 17.1502 15.7285V18.5947C17.1502 19.0024 17.1513 19.3539 17.1278 19.6416C17.1035 19.938 17.0496 20.233 16.9051 20.5166C16.6895 20.9397 16.3449 21.2834 15.9217 21.499C15.6381 21.6435 15.3431 21.6975 15.0467 21.7217C14.7591 21.7452 14.4083 21.7441 14.0008 21.7441H7.30746C6.89979 21.7441 6.54831 21.7452 6.26059 21.7217C5.9642 21.6974 5.66919 21.6435 5.38559 21.499C4.96261 21.2834 4.61877 20.9396 4.40316 20.5166C4.25866 20.233 4.20474 19.938 4.18051 19.6416C4.157 19.3539 4.15805 19.0024 4.15805 18.5947Z" fill="#737985"/>
<path d="M18.3416 8.39706C18.344 8.27716 18.3228 8.15784 18.2792 8.04616C18.2354 7.9344 18.1699 7.83198 18.0868 7.74546C18.0036 7.65892 17.9038 7.58955 17.7938 7.54144C17.684 7.49338 17.5656 7.46767 17.4457 7.46527C17.3256 7.46291 17.2056 7.48395 17.0938 7.52772C16.9822 7.57143 16.8805 7.63709 16.794 7.72013L10.7194 13.5612L10.6941 14.8539L11.9868 14.8793L18.0614 9.03818C18.1478 8.95502 18.2174 8.85512 18.2655 8.74525C18.3134 8.6354 18.3393 8.5169 18.3416 8.39706ZM19.8413 8.42645C19.8351 8.7433 19.7666 9.05613 19.6397 9.34651C19.5127 9.63686 19.3294 9.89961 19.101 10.1193L12.8024 16.1758C12.659 16.3135 12.4667 16.389 12.2679 16.3851L9.91487 16.3389C9.5008 16.3308 9.17169 15.9884 9.17971 15.5744L9.22582 13.2213C9.22972 13.0225 9.31261 12.8333 9.4559 12.6955L15.7535 6.63898C15.982 6.41923 16.2526 6.24658 16.5478 6.13101C16.8429 6.01557 17.1582 5.95934 17.475 5.96555C17.7919 5.97181 18.1047 6.04022 18.3951 6.16721C18.6855 6.29425 18.9482 6.47741 19.1679 6.7059C19.3876 6.93441 19.5603 7.20401 19.6759 7.4992C19.7914 7.79437 19.8475 8.10954 19.8413 8.42645Z" fill="#737985"/>
<path d="M14.1842 8.14791C14.4827 7.86082 14.9574 7.87012 15.2445 8.16869L17.5515 10.5679C17.8382 10.8665 17.8291 11.3412 17.5307 11.6282C17.2322 11.9152 16.7575 11.9057 16.4703 11.6074L14.1634 9.20826C13.8763 8.90968 13.8856 8.43501 14.1842 8.14791Z" fill="#737985"/>
</svg>
