<svg width="24" height="24" viewBox="0 0 24 24" fill="none" xmlns="http://www.w3.org/2000/svg">
<path d="M4.15625 19.6426V8.54688C4.15636 8.00743 4.36363 7.48858 4.73535 7.09766L8.71582 2.91406C9.10739 2.50266 9.64886 2.26694 10.2168 2.26074L11.0488 2.25195L11.2666 2.26074C11.771 2.30796 12.2446 2.5362 12.5967 2.90723L14.5674 4.98535C14.8522 5.28585 14.8395 5.75991 14.5391 6.04492C14.2387 6.32985 13.7646 6.31776 13.4795 6.01758L11.5088 3.94043C11.4223 3.84925 11.3098 3.78787 11.1885 3.76367L11.0645 3.75195L10.2334 3.76074C10.0705 3.76252 9.91508 3.83029 9.80273 3.94824L5.82227 8.13086C5.7156 8.24297 5.65636 8.39214 5.65625 8.54688V19.6426C5.65636 19.9758 5.92651 20.246 6.25977 20.2461H15.0469C15.38 20.2459 15.6503 19.9757 15.6504 19.6426V15.7295C15.6504 15.3153 15.9862 14.9795 16.4004 14.9795C16.8145 14.9796 17.1504 15.3154 17.1504 15.7295V19.6426C17.1503 20.8042 16.2084 21.7459 15.0469 21.7461H6.25977C5.09808 21.746 4.15636 20.8042 4.15625 19.6426ZM17.4736 5.96582C17.7905 5.97203 18.1032 6.04005 18.3936 6.16699C18.684 6.29404 18.9472 6.47752 19.167 6.70605C19.3866 6.93451 19.5593 7.20393 19.6748 7.49902C19.7904 7.79426 19.8461 8.10978 19.8398 8.42676C19.8336 8.74363 19.7657 9.05629 19.6387 9.34668C19.5116 9.63713 19.3281 9.8994 19.0996 10.1191L17.5576 11.6016C17.5492 11.6105 17.5412 11.6203 17.5322 11.6289C17.5243 11.6365 17.515 11.6423 17.5068 11.6494L12.8018 16.1758C12.6585 16.3135 12.4663 16.3885 12.2676 16.3848L9.91406 16.3389C9.49997 16.3308 9.17066 15.9883 9.17871 15.5742L9.22461 13.2207C9.22856 13.0219 9.3118 12.8331 9.45508 12.6953L15.7529 6.63867C15.9815 6.41895 16.2517 6.24641 16.5469 6.13086C16.8419 6.01543 17.1569 5.95963 17.4736 5.96582ZM10.7178 13.5605L10.6924 14.8525L11.9863 14.8779L15.9502 11.0664L14.6836 9.74805L10.7178 13.5605ZM17.4443 7.46484C17.3243 7.4625 17.2046 7.48456 17.0928 7.52832C16.9812 7.57208 16.8794 7.63761 16.793 7.7207L15.7646 8.70801L17.0322 10.0264L18.0605 9.03809C18.147 8.95493 18.2156 8.85499 18.2637 8.74512C18.3117 8.63528 18.3384 8.51731 18.3408 8.39746C18.3432 8.27742 18.3211 8.1577 18.2773 8.0459C18.2336 7.93419 18.1691 7.8316 18.0859 7.74512C18.0028 7.65865 17.9029 7.5901 17.793 7.54199C17.683 7.49388 17.5644 7.4672 17.4443 7.46484Z" fill="#737985"/>
</svg>
