<svg width="24" height="24" viewBox="0 0 24 24" fill="none" xmlns="http://www.w3.org/2000/svg">
<path d="M19.495 7.9021C20.1617 9.11861 20.5411 10.5147 20.5411 11.9997C20.5411 15.1508 18.8334 17.9019 16.2941 19.3824L18.9028 11.8396C19.3901 10.6211 19.5524 9.64679 19.5524 8.78043C19.5524 8.46597 19.5316 8.17413 19.495 7.9021ZM13.1771 7.99509C13.6913 7.96805 14.1546 7.91396 14.1546 7.91396C14.6148 7.85947 14.5606 7.18311 14.1001 7.21005C14.1001 7.21005 12.7166 7.31863 11.8235 7.31863C10.9843 7.31863 9.57408 7.21005 9.57408 7.21005C9.11346 7.18311 9.05947 7.88672 9.5199 7.91396C9.5199 7.91396 9.95559 7.96805 10.4158 7.99509L11.7464 11.6412L9.87698 17.247L6.76679 7.99509C7.28141 7.96805 7.74424 7.91396 7.74424 7.91396C8.20417 7.85947 8.14988 7.18311 7.68966 7.21005C7.68966 7.21005 6.30647 7.31863 5.41326 7.31863C5.25302 7.31863 5.06412 7.31471 4.86357 7.30827C6.39081 4.98966 9.01584 3.45849 12 3.45849C14.2235 3.45849 16.2481 4.30867 17.7677 5.701C17.7309 5.69879 17.695 5.69417 17.6571 5.69417C16.818 5.69417 16.2227 6.42502 16.2227 7.21005C16.2227 7.91396 16.6289 8.5095 17.0617 9.21331C17.3865 9.78221 17.7659 10.513 17.7659 11.5689C17.7659 12.2999 17.4848 13.1482 17.116 14.3301L16.2638 17.1766L13.1771 7.99509ZM12 20.5416C11.1615 20.5416 10.3524 20.4186 9.58695 20.1936L12.15 12.7468L14.7752 19.9396C14.7925 19.9818 14.8137 20.0207 14.8363 20.0573C13.9485 20.3699 12.9946 20.5416 12 20.5416ZM3.45877 11.9997C3.45877 10.7614 3.72437 9.58587 4.19836 8.52367L8.27273 19.6867C5.42322 18.3024 3.45877 15.3805 3.45877 11.9997ZM12 2.49994C6.76167 2.49994 2.50002 6.76149 2.50002 11.9997C2.50002 17.2381 6.76167 21.5001 12 21.5001C17.2382 21.5001 21.5 17.2381 21.5 11.9997C21.5 6.76149 17.2382 2.49994 12 2.49994Z" fill="#737985"/>
</svg>
