<svg width="24" height="24" viewBox="0 0 24 24" fill="none" xmlns="http://www.w3.org/2000/svg">
<path d="M11.9999 3.54C13.1422 3.54 14.25 3.76356 15.2928 4.20473C15.7939 4.41668 16.2775 4.67912 16.7297 4.98476C17.1779 5.28743 17.5991 5.63519 17.9822 6.01804C18.3651 6.4009 18.7128 6.82237 19.0155 7.27057C19.3211 7.72282 19.5833 8.20611 19.7955 8.7075C20.2364 9.75024 20.4603 10.858 20.4603 12.0004C20.4603 13.1428 20.2367 14.2506 19.7955 15.2933C19.5836 15.7944 19.3211 16.278 19.0155 16.7302C18.7128 17.1784 18.3651 17.5996 17.9822 17.9828C17.5994 18.3656 17.1779 18.7134 16.7297 19.0161C16.2775 19.3217 15.7942 19.5839 15.2928 19.7961C14.25 20.237 13.1422 20.4608 11.9999 20.4608C10.8575 20.4608 9.7497 20.2373 8.70696 19.7961C8.20584 19.5841 7.72228 19.3217 7.27003 19.0161C6.82183 18.7134 6.40063 18.3656 6.0175 17.9828C5.63465 17.5999 5.28689 17.1784 4.98422 16.7302C4.67858 16.278 4.41641 15.7947 4.20419 15.2933C3.76329 14.2506 3.53946 13.1428 3.53946 12.0004C3.53946 10.858 3.76302 9.75024 4.20419 8.7075C4.41614 8.20638 4.67858 7.72282 4.98422 7.27057C5.28689 6.82237 5.63465 6.40117 6.0175 6.01804C6.40036 5.63519 6.82183 5.28743 7.27003 4.98476C7.72228 4.67912 8.20557 4.41695 8.70696 4.20473C9.7497 3.76383 10.8575 3.54 11.9999 3.54ZM11.9999 3C7.02946 3 3 7.02946 3 11.9999C3 16.9703 7.02946 20.9997 11.9999 20.9997C16.9703 20.9997 20.9997 16.9703 20.9997 11.9999C20.9997 7.02946 16.9705 3 11.9999 3Z" fill="#737985"/>
<path d="M4.50011 11.9996C4.50011 14.9682 6.22514 17.5338 8.72721 18.7493L5.14946 8.94755C4.73339 9.88012 4.50011 10.9123 4.50011 11.9996ZM17.0632 11.6213C17.0632 10.6942 16.7302 10.0524 16.4449 9.55288C16.0647 8.93486 15.708 8.41187 15.708 7.79384C15.708 7.10454 16.2307 6.46275 16.9676 6.46275C17.0008 6.46275 17.0324 6.4668 17.0648 6.46869C15.7304 5.24613 13.9525 4.49959 12.0001 4.49959C9.3798 4.49959 7.07482 5.84418 5.73374 7.87997C5.90978 7.88564 6.07583 7.88915 6.2165 7.88915C7.00084 7.88915 8.2153 7.79384 8.2153 7.79384C8.61948 7.77008 8.66727 8.36408 8.26336 8.41187C8.26336 8.41187 7.85701 8.45939 7.40503 8.48315L10.1361 16.6069L11.7777 11.6845L10.6094 8.48315C10.2052 8.45939 9.82287 8.41187 9.82287 8.41187C9.41868 8.38811 9.46593 7.77008 9.87039 7.79384C9.87039 7.79384 11.1086 7.88915 11.8457 7.88915C12.63 7.88915 13.8448 7.79384 13.8448 7.79384C14.249 7.77008 14.2967 8.36408 13.8926 8.41187C13.8926 8.41187 13.4857 8.45939 13.0342 8.48315L15.7447 16.545L16.5186 14.0934C16.8623 13.0221 17.0632 12.2631 17.0632 11.6213ZM12.1316 12.6557L9.88092 19.1943C10.5529 19.3919 11.2636 19.4999 11.9999 19.4999C12.8733 19.4999 13.7111 19.3492 14.4906 19.0747C14.4706 19.0425 14.452 19.0085 14.4369 18.9712L12.1316 12.6557ZM18.5814 8.40188C18.6135 8.64083 18.6318 8.89706 18.6318 9.17299C18.6318 9.93385 18.4893 10.7892 18.0613 11.8592L15.7707 18.4823C18.0003 17.1822 19.4999 14.7668 19.4999 11.9999C19.4999 10.6961 19.1667 9.46999 18.5814 8.40188Z" fill="#737985"/>
</svg>
