<svg width="24" height="24" viewBox="0 0 24 24" fill="none" xmlns="http://www.w3.org/2000/svg">
<path d="M15.25 6C15.25 5.66848 15.1182 5.35063 14.8838 5.11621C14.6494 4.88179 14.3315 4.75 14 4.75C13.6685 4.75 13.3506 4.88179 13.1162 5.11621C12.8818 5.35063 12.75 5.66848 12.75 6C12.75 6.33152 12.8818 6.64937 13.1162 6.88379C13.3506 7.11821 13.6685 7.25 14 7.25C14.3315 7.25 14.6494 7.11821 14.8838 6.88379C15.1182 6.64937 15.25 6.33152 15.25 6ZM16.75 6C16.75 6.72935 16.4601 7.42861 15.9443 7.94434C15.4286 8.46006 14.7293 8.75 14 8.75C13.2707 8.75 12.5714 8.46006 12.0557 7.94434C11.5399 7.42861 11.25 6.72935 11.25 6C11.25 5.27065 11.5399 4.57139 12.0557 4.05566C12.5714 3.53994 13.2707 3.25 14 3.25C14.7293 3.25 15.4286 3.53994 15.9443 4.05566C16.4601 4.57139 16.75 5.27065 16.75 6Z" fill="#737985"/>
<path d="M12 5.25C12.4142 5.25 12.75 5.58579 12.75 6C12.75 6.41421 12.4142 6.75 12 6.75H4C3.58579 6.75 3.25 6.41421 3.25 6C3.25 5.58579 3.58579 5.25 4 5.25H12Z" fill="#737985"/>
<path d="M20 5.25C20.4142 5.25 20.75 5.58579 20.75 6C20.75 6.41421 20.4142 6.75 20 6.75H16C15.5858 6.75 15.25 6.41421 15.25 6C15.25 5.58579 15.5858 5.25 16 5.25H20Z" fill="#737985"/>
<path d="M9.25 12C9.25 11.6685 9.11821 11.3506 8.88379 11.1162C8.64937 10.8818 8.33152 10.75 8 10.75C7.66848 10.75 7.35063 10.8818 7.11621 11.1162C6.88179 11.3506 6.75 11.6685 6.75 12C6.75 12.3315 6.88179 12.6494 7.11621 12.8838C7.35063 13.1182 7.66848 13.25 8 13.25C8.33152 13.25 8.64937 13.1182 8.88379 12.8838C9.11821 12.6494 9.25 12.3315 9.25 12ZM10.75 12C10.75 12.7293 10.4601 13.4286 9.94434 13.9443C9.42861 14.4601 8.72935 14.75 8 14.75C7.27065 14.75 6.57139 14.4601 6.05566 13.9443C5.53994 13.4286 5.25 12.7293 5.25 12C5.25 11.2707 5.53994 10.5714 6.05566 10.0557C6.57139 9.53994 7.27065 9.25 8 9.25C8.72935 9.25 9.42861 9.53994 9.94434 10.0557C10.4601 10.5714 10.75 11.2707 10.75 12Z" fill="#737985"/>
<path d="M6 11.25C6.41421 11.25 6.75 11.5858 6.75 12C6.75 12.4142 6.41421 12.75 6 12.75H4C3.58579 12.75 3.25 12.4142 3.25 12C3.25 11.5858 3.58579 11.25 4 11.25H6Z" fill="#737985"/>
<path d="M20 11.25C20.4142 11.25 20.75 11.5858 20.75 12C20.75 12.4142 20.4142 12.75 20 12.75H10C9.58579 12.75 9.25 12.4142 9.25 12C9.25 11.5858 9.58579 11.25 10 11.25H20Z" fill="#737985"/>
<path d="M18.25 18C18.25 17.6685 18.1182 17.3506 17.8838 17.1162C17.6494 16.8818 17.3315 16.75 17 16.75C16.6685 16.75 16.3506 16.8818 16.1162 17.1162C15.8818 17.3506 15.75 17.6685 15.75 18C15.75 18.3315 15.8818 18.6494 16.1162 18.8838C16.3506 19.1182 16.6685 19.25 17 19.25C17.3315 19.25 17.6494 19.1182 17.8838 18.8838C18.1182 18.6494 18.25 18.3315 18.25 18ZM19.75 18C19.75 18.7293 19.4601 19.4286 18.9443 19.9443C18.4286 20.4601 17.7293 20.75 17 20.75C16.2707 20.75 15.5714 20.4601 15.0557 19.9443C14.5399 19.4286 14.25 18.7293 14.25 18C14.25 17.2707 14.5399 16.5714 15.0557 16.0557C15.5714 15.5399 16.2707 15.25 17 15.25C17.7293 15.25 18.4286 15.5399 18.9443 16.0557C19.4601 16.5714 19.75 17.2707 19.75 18Z" fill="#737985"/>
<path d="M15 17.25C15.4142 17.25 15.75 17.5858 15.75 18C15.75 18.4142 15.4142 18.75 15 18.75H4C3.58579 18.75 3.25 18.4142 3.25 18C3.25 17.5858 3.58579 17.25 4 17.25H15Z" fill="#737985"/>
<path d="M20 17.25C20.4142 17.25 20.75 17.5858 20.75 18C20.75 18.4142 20.4142 18.75 20 18.75H19C18.5858 18.75 18.25 18.4142 18.25 18C18.25 17.5858 18.5858 17.25 19 17.25H20Z" fill="#737985"/>
</svg>
