<svg width="24" height="24" viewBox="0 0 24 24" fill="none" xmlns="http://www.w3.org/2000/svg">
<path d="M19.0439 8.36619C19.0439 8.09824 18.901 7.85075 18.6689 7.71678L12.375 4.08299C12.1429 3.94901 11.8571 3.94901 11.625 4.08299L5.33105 7.71678C5.099 7.85075 4.95605 8.09824 4.95605 8.36619V15.6338C4.95605 15.9017 5.099 16.1492 5.33105 16.2832L11.625 19.917C11.8571 20.0509 12.1429 20.0509 12.375 19.917L18.6689 16.2832C18.901 16.1492 19.0439 15.9017 19.0439 15.6338V8.36619ZM20.5439 15.6338C20.5439 16.4376 20.1151 17.1811 19.4189 17.583L13.125 21.2168C12.4289 21.6186 11.5711 21.6186 10.875 21.2168L4.58105 17.583C3.8849 17.1811 3.45605 16.4376 3.45605 15.6338V8.36619C3.45605 7.56234 3.8849 6.81889 4.58105 6.41697L10.875 2.78318C11.5711 2.38135 12.4289 2.38135 13.125 2.78318L19.4189 6.41697C20.1151 6.81889 20.5439 7.56234 20.5439 8.36619V15.6338Z" fill="#737985"/>
<path d="M13.75 12C13.75 11.0335 12.9665 10.25 12 10.25C11.0335 10.25 10.25 11.0335 10.25 12C10.25 12.9665 11.0335 13.75 12 13.75C12.9665 13.75 13.75 12.9665 13.75 12ZM15.25 12C15.25 13.7949 13.7949 15.25 12 15.25C10.2051 15.25 8.75001 13.7949 8.75001 12C8.75001 10.2051 10.2051 8.74999 12 8.74999C13.7949 8.74999 15.25 10.2051 15.25 12Z" fill="#737985"/>
</svg>
