<svg width="24" height="24" viewBox="0 0 24 24" fill="none" xmlns="http://www.w3.org/2000/svg">
<path d="M13.4156 11.1237C13.4156 10.7381 13.2226 10.3975 12.9283 10.193C12.912 10.1946 12.8953 10.1979 12.8785 10.1979C12.7212 10.1977 12.5824 10.1241 12.4908 10.0104C12.4234 9.99788 12.3538 9.99084 12.2828 9.99084H9.74374C9.672 9.99085 9.60182 9.99761 9.53378 10.0104C9.44215 10.1235 9.30497 10.1978 9.14804 10.1979C9.13119 10.1979 9.11466 10.1946 9.09824 10.193C8.80408 10.3975 8.61191 10.7382 8.61191 11.1237V12.3932C8.61204 13.548 9.42704 14.5106 10.5133 14.7408V12.3932C10.5133 12.1171 10.7372 11.8933 11.0133 11.8932C11.2894 11.8932 11.5133 12.117 11.5133 12.3932V14.7408C12.5997 14.5107 13.4155 13.5481 13.4156 12.3932V11.1237ZM11.0133 7.91858C10.3586 7.91865 9.8112 8.37885 9.67831 8.99377C9.70006 8.99312 9.72184 8.99085 9.74374 8.99084H12.2828C12.3043 8.99084 12.3259 8.99314 12.3473 8.99377C12.2143 8.37894 11.6679 7.91858 11.0133 7.91858ZM14.4156 11.4781H15.1588C15.4349 11.4781 15.6587 11.7021 15.6588 11.9781C15.6588 12.2543 15.4349 12.4781 15.1588 12.4781H14.4137C14.4024 12.9344 14.3004 13.3677 14.1266 13.7623L14.7232 14.0016C14.9795 14.1042 15.1041 14.3957 15.0016 14.652C14.8989 14.9081 14.6074 15.0328 14.3512 14.9303L13.5816 14.6217C12.9579 15.3398 12.0391 15.7946 11.0133 15.7946C9.98719 15.7945 9.06765 15.3401 8.44394 14.6217L7.67538 14.9303C7.41909 15.0328 7.12764 14.9082 7.02499 14.652C6.92244 14.3956 7.0479 14.1041 7.30429 14.0016L7.89902 13.7623C7.72529 13.3678 7.62508 12.9342 7.61386 12.4781H6.86777C6.59162 12.4781 6.36777 12.2543 6.36777 11.9781C6.36787 11.7021 6.59169 11.4781 6.86777 11.4781H7.61191V11.1237C7.61191 10.7801 7.69418 10.456 7.83847 10.1686L7.30429 9.95471C7.04798 9.85219 6.92262 9.56163 7.02499 9.3053C7.12755 9.04891 7.41899 8.92442 7.67538 9.02698L8.50449 9.35803C8.51303 9.36145 8.52065 9.3669 8.5289 9.37073C8.5673 9.34405 8.60786 9.32066 8.64804 9.29651V9.28381C8.64804 8.69856 8.86137 8.16361 9.21347 7.75061L8.6832 7.43225C8.44654 7.29016 8.37034 6.98344 8.5123 6.7467C8.65437 6.50991 8.96106 6.43275 9.19785 6.57483L10.0846 7.10706C10.3696 6.98524 10.6837 6.9186 11.0133 6.91858C11.3425 6.91858 11.6562 6.98551 11.941 7.10706L12.8287 6.57483C13.0655 6.43275 13.3732 6.50991 13.5152 6.7467C13.657 6.98344 13.58 7.29026 13.3434 7.43225L12.8121 7.75061C13.1645 8.1637 13.3785 8.69826 13.3785 9.28381V9.29651C13.4185 9.32052 13.4585 9.34422 13.4967 9.37073C13.5052 9.36675 13.5132 9.36157 13.5221 9.35803L14.3512 9.02698C14.6076 8.92442 14.899 9.04891 15.0016 9.3053C15.104 9.56153 14.9793 9.85204 14.7232 9.95471L14.1871 10.1686C14.3316 10.4561 14.4156 10.7799 14.4156 11.1237V11.4781Z" fill="#737985"/>
<path d="M18.4508 11.1031C18.4508 7.04223 15.1591 3.74982 11.0982 3.74963C7.0372 3.74963 3.74472 7.04211 3.74472 11.1031C3.74491 15.1641 7.03731 18.4557 11.0982 18.4557C15.159 18.4555 18.4506 15.1639 18.4508 11.1031ZM19.9508 11.1031C19.9506 15.9924 15.9875 19.9555 11.0982 19.9557C6.20889 19.9557 2.24491 15.9925 2.24472 11.1031C2.24472 6.21368 6.20877 2.24963 11.0982 2.24963C15.9876 2.24982 19.9508 6.2138 19.9508 11.1031Z" fill="#737985"/>
<path d="M16.4234 16.4186C16.7163 16.1257 17.1911 16.1257 17.484 16.4186L21.5357 20.4703C21.8285 20.7632 21.8286 21.238 21.5357 21.5309C21.2429 21.8237 20.7681 21.8236 20.4752 21.5309L16.4234 17.4791C16.1305 17.1862 16.1305 16.7115 16.4234 16.4186Z" fill="#737985"/>
</svg>
