<svg width="24" height="24" viewBox="0 0 24 24" fill="none" xmlns="http://www.w3.org/2000/svg">
<path d="M4.45996 5.81641C4.48634 6.09583 4.60729 6.36804 4.82129 6.58203L5.35254 7.11328C4.96016 7.64724 4.63266 8.22781 4.37793 8.84277C3.96333 9.84371 3.75 10.9166 3.75 12C3.75 13.0834 3.96333 14.1563 4.37793 15.1572C4.79253 16.1581 5.39995 17.0679 6.16602 17.834C6.93209 18.6001 7.84186 19.2075 8.84277 19.6221C9.84371 20.0367 10.9166 20.25 12 20.25C13.0834 20.25 14.1563 20.0367 15.1572 19.6221C15.7721 19.3674 16.3518 19.0388 16.8857 18.6465L17.4209 19.1816C17.6332 19.3938 17.9026 19.5134 18.1797 19.541C17.4412 20.1461 16.6167 20.6411 15.7314 21.0078C14.5485 21.4978 13.2804 21.75 12 21.75C10.7196 21.75 9.45148 21.4978 8.26855 21.0078C7.08573 20.5178 6.01078 19.7998 5.10547 18.8945C4.20016 17.9892 3.48217 16.9143 2.99219 15.7314C2.5022 14.5485 2.25 13.2804 2.25 12C2.25 10.7196 2.5022 9.45148 2.99219 8.26855C3.35938 7.38215 3.8538 6.55565 4.45996 5.81641Z" fill="#737985"/>
<path d="M12 2.25C13.2804 2.25 14.5485 2.5022 15.7314 2.99219C16.9143 3.48217 17.9892 4.20016 18.8945 5.10547C19.7998 6.01078 20.5178 7.08573 21.0078 8.26855C21.4978 9.45148 21.75 10.7196 21.75 12C21.75 13.2804 21.4978 14.5485 21.0078 15.7314C20.6424 16.6135 20.15 17.4354 19.5479 18.1719C19.52 17.8953 19.4004 17.626 19.1885 17.4141L18.6523 16.8779C19.0421 16.3462 19.3686 15.7691 19.6221 15.1572C20.0367 14.1563 20.25 13.0834 20.25 12C20.25 10.9166 20.0367 9.84371 19.6221 8.84277C19.2075 7.84186 18.6001 6.93209 17.834 6.16602C17.0679 5.39995 16.1581 4.79253 15.1572 4.37793C14.1563 3.96333 13.0834 3.75 12 3.75C10.9166 3.75 9.84371 3.96333 8.84277 4.37793C8.23083 4.63141 7.65289 4.95686 7.12109 5.34668L6.58887 4.81445C6.37547 4.60105 6.1038 4.48092 5.8252 4.4541C6.56236 3.85097 7.3854 3.35803 8.26855 2.99219C9.45148 2.5022 10.7196 2.25 12 2.25Z" fill="#737985"/>
<path d="M9.32129 11.082V15.3799C9.32129 15.6328 9.2325 15.8501 9.05664 16.0303C8.88034 16.2105 8.66456 16.3018 8.41016 16.3018C8.15553 16.3017 7.93952 16.2104 7.76367 16.0303C7.58804 15.8501 7.5 15.6289 7.5 15.3682V9.26074L9.32129 11.082Z" fill="#737985"/>
<path d="M13.002 14.7627V15.3584C13.0019 15.6145 12.9103 15.836 12.7266 16.0225C12.5432 16.2088 12.3247 16.3018 12.0723 16.3018C11.8199 16.3017 11.6017 16.2088 11.418 16.0225C11.2342 15.836 11.1436 15.6065 11.1436 15.335V12.9043L13.002 14.7627Z" fill="#737985"/>
<path d="M14.2871 7.80371C15.1512 7.80376 15.8552 8.06707 16.3984 8.59473C16.9414 9.12243 17.2129 9.80981 17.2129 10.6553C17.2129 11.4933 16.9564 12.1708 16.4443 12.6865C16.0935 13.0398 15.6629 13.2684 15.1543 13.3799L13.582 11.8076H14.1836C14.4819 11.8076 14.7422 11.6955 14.9639 11.4707C15.1859 11.2454 15.2968 10.9773 15.2969 10.667C15.2969 10.3411 15.1918 10.0632 14.9814 9.83398C14.7708 9.60534 14.5091 9.49129 14.1953 9.49121H13.002V11.2275L11.1436 9.36914V8.79297C11.1436 8.51332 11.2363 8.27817 11.4238 8.08789C11.6109 7.89811 11.8389 7.80377 12.1064 7.80371H14.2871Z" fill="#737985"/>
<path d="M5.1745 5.16797C5.4674 4.87508 5.94216 4.87508 6.23505 5.16797L18.8347 17.7676C19.1276 18.0605 19.1276 18.5352 18.8347 18.8281C18.5418 19.121 18.067 19.121 17.7741 18.8281L5.1745 6.22852C4.88161 5.93563 4.88161 5.46087 5.1745 5.16797Z" fill="#737985"/>
</svg>
