<svg width="24" height="24" viewBox="0 0 24 24" fill="none" xmlns="http://www.w3.org/2000/svg">
<path fill-rule="evenodd" clip-rule="evenodd" d="M21.9011 10.014C22.2518 8.17729 21.9011 3.72915 16.9432 2.60636C15.5721 2.29583 12.2739 2.45817 9.35077 5.99744C8.58157 5.56881 7.68979 5.3277 6.73268 5.3277C4.77696 5.3277 2.98531 6.33253 2.29812 7.99984C1.37344 10.267 2.55788 13.0197 7.29296 14.1885C6.74819 13.5957 4.31162 12.0178 4.48698 10.181C4.59392 9.06101 5.7146 8.34426 6.51952 8.08567C7.81551 7.6693 9.66206 7.79321 11.1065 9.05288C12.1457 6.93379 14.1325 6.00654 15.5876 5.67261C18.3415 5.17165 21.375 6.34051 21.9011 10.014Z" fill="#737985"/>
<path fill-rule="evenodd" clip-rule="evenodd" d="M4.4866 10.5156C3.96049 10.5156 2.08343 9.60131 2.4678 7.64566C1.15453 10.0147 2.55788 13.1866 7.29296 14.1885C6.91077 13.6876 4.66199 12.1854 4.4866 10.5156Z" fill="#737985"/>
<path fill-rule="evenodd" clip-rule="evenodd" d="M12.4389 8.5159C13.1665 7.99868 13.952 7.69443 14.7245 7.5759C19.3075 7.08625 20.204 10.1059 19.6967 11.736C19.6017 12.0413 19.2297 13.218 18.3737 13.8107C19.2297 13.5885 20.1636 12.7599 20.4749 12.3288C22.187 9.95766 20.4941 6.28491 16.6363 6.47738C15.0538 6.55535 13.5761 7.39675 12.4389 8.5159Z" fill="#737985"/>
<path fill-rule="evenodd" clip-rule="evenodd" d="M16.6049 7.58799C16.6827 7.14341 17.175 7.00969 17.4286 6.93413C18.1088 6.78741 19.1931 7.063 19.7956 7.4398C18.7839 6.62474 17.7209 6.42093 16.6049 6.47654C15.0224 6.55451 13.5649 7.41091 12.4278 8.53006C13.1554 8.01284 13.9408 7.70859 14.7133 7.59006C15.5035 7.5103 16.0601 7.51391 16.6049 7.58799Z" fill="#737985"/>
<path d="M6.55164 18.7282L14.5845 9.98401H17.8547L9.90725 18.7282H6.55164Z" fill="#737985"/>
<path d="M12.641 17.167L16.6624 21.5H19.9326L14.3567 15.2612L12.641 17.167Z" fill="#737985"/>
<path d="M6.46677 10.001L9.86505 13.7315L11.5807 11.8257L9.82236 10.001H6.46677Z" fill="#737985"/>
</svg>
